<svg xmlns="http://www.w3.org/2000/svg" viewBox="0 0 117.16 83.33"><defs><style>.cls-1,.cls-2{fill:none;stroke:#525252;stroke-linecap:round;stroke-width:3px;}.cls-1{stroke-linejoin:round;}.cls-2{stroke-miterlimit:10;}</style></defs><title>honestidad</title><g id="Capa_2" data-name="Capa 2"><g id="Layer_1" data-name="Layer 1"><polyline class="cls-1" points="54.85 7.12 93.85 7.12 101.2 14.12 54.85 14.12"/><path class="cls-2" d="M97.33,28.21s-10.9,30.46-10.91,30.5c-.23.64,5.06,2.61,5.43,2.72,7,2.12,17.51,2.06,23.54-2.72l-11-30.93"/><line class="cls-2" x1="89.08" y1="53.05" x2="112.73" y2="53.05"/><path class="cls-2" d="M105.89,24.12a5,5,0,1,1-5-5A5,5,0,0,1,105.89,24.12Z"/><polyline class="cls-1" points="61.85 72.33 61.85 1.5 55.35 1.5 55.35 72.33"/><rect class="cls-1" x="48.85" y="73.33" width="20" height="8.5"/><line class="cls-2" x1="100.9" y1="14.15" x2="100.9" y2="18.52"/><polyline class="cls-1" points="62.31 7.12 23.31 7.12 15.96 14.12 62.31 14.12"/><path class="cls-2" d="M19.83,28.21s10.9,30.46,10.91,30.5c.23.64-5,2.61-5.43,2.72-7,2.12-17.51,2.06-23.54-2.72l11-30.93"/><line class="cls-2" x1="28.09" y1="53.05" x2="4.44" y2="53.05"/><path class="cls-2" d="M11.27,24.12a5,5,0,1,0,5-5A5,5,0,0,0,11.27,24.12Z"/><line class="cls-2" x1="16.26" y1="14.15" x2="16.26" y2="18.52"/></g></g></svg>