<svg xmlns="http://www.w3.org/2000/svg" viewBox="0 0 96.2 114.92"><defs><style>.cls-1{fill:#525252;}</style></defs><title>PERTENENCIA</title><g id="Capa_2" data-name="Capa 2"><g id="hands"><path class="cls-1" d="M44.58,77.58a7.22,7.22,0,0,1-5.12-2.11L20.73,56.74a7.27,7.27,0,0,1,0-10.26L65.1,2.12a7.26,7.26,0,0,1,10.26,0L94.08,20.84a7.26,7.26,0,0,1,0,10.26L70.53,54.66a1,1,0,0,1-1.42,0l-8.85-8.85a1,1,0,0,1,0-1.42L78.68,26l-8.45-8.45L36.13,51.61l8.46,8.46,6.83-6.83a1,1,0,0,1,1.41,0l8.85,8.85a1,1,0,0,1,0,1.41l-12,12A7.24,7.24,0,0,1,44.58,77.58ZM70.23,2h0a5.19,5.19,0,0,0-3.72,1.54L22.15,47.89a5.27,5.27,0,0,0,0,7.44L40.87,74.05a5.27,5.27,0,0,0,7.44,0L59.56,62.8l-7.44-7.44L45.3,62.19a1,1,0,0,1-1.42,0L34,52.32a1.05,1.05,0,0,1-.29-.71A1,1,0,0,1,34,50.9L69.52,15.4a1,1,0,0,1,1.41,0l9.87,9.87a1,1,0,0,1,0,1.41L62.38,45.1l7.44,7.43L92.66,29.69a5.26,5.26,0,0,0,0-7.43L73.94,3.53A5.21,5.21,0,0,0,70.23,2Z"/><path class="cls-1" d="M26,114.92a7.19,7.19,0,0,1-5.12-2.12L2.12,94.08a7.27,7.27,0,0,1,0-10.27L25.67,60.26a1,1,0,0,1,1.41,0l8.86,8.86a1,1,0,0,1,0,1.41L17.52,89,26,97.41l34.09-34.1-8.46-8.46-6.82,6.83a1,1,0,0,1-1.42,0l-8.85-8.85a1,1,0,0,1,0-1.42l12-12a7.27,7.27,0,0,1,10.26,0L75.47,58.18a7.27,7.27,0,0,1,0,10.26L31.11,112.8A7.22,7.22,0,0,1,26,114.92Zm.41-52.54L3.54,85.23a5.25,5.25,0,0,0,0,7.43l18.72,18.73A5.21,5.21,0,0,0,26,112.92h0a5.19,5.19,0,0,0,3.72-1.54L74.05,67h0a5.24,5.24,0,0,0,0-7.42L55.33,40.87a5.23,5.23,0,0,0-3.72-1.54h0a5.24,5.24,0,0,0-3.72,1.54L36.64,52.12l7.44,7.44,6.83-6.83a1,1,0,0,1,1.41,0l9.87,9.87a1,1,0,0,1,0,1.42L26.68,99.53a1,1,0,0,1-1.41,0L15.4,89.66a1,1,0,0,1,0-1.42L33.82,69.82Z"/><path class="cls-1" d="M44.58,77.58a7.22,7.22,0,0,1-5.12-2.11L20.73,56.74a7.27,7.27,0,0,1,0-10.26L41,26.25l1.41,1.41L22.15,47.89a5.27,5.27,0,0,0,0,7.44L40.87,74.05a5.27,5.27,0,0,0,7.44,0L59.56,62.8l-7.44-7.44L45.3,62.19a1,1,0,0,1-1.42,0L34,52.32a1.05,1.05,0,0,1-.29-.71A1,1,0,0,1,34,50.9L51.42,33.49l1.41,1.42-16.7,16.7,8.46,8.46,6.83-6.83a1,1,0,0,1,.7-.29h0a1,1,0,0,1,.71.29l8.85,8.85a1,1,0,0,1,0,1.41l-12,12A7.24,7.24,0,0,1,44.58,77.58Z"/></g></g></svg>