<svg xmlns="http://www.w3.org/2000/svg" viewBox="0 0 193.98 121.94"><defs><style>.cls-1{fill:#525252;}</style></defs><title>respeto</title><g id="Capa_2" data-name="Capa 2"><g id="hands"><path class="cls-1" d="M46.24,11,28.35.28A1.84,1.84,0,0,0,25.74,1L.23,52.54a2.17,2.17,0,0,0,.83,2.83l17.88,10.7a1.85,1.85,0,0,0,2.61-.77L47.07,13.79A2.17,2.17,0,0,0,46.24,11ZM19.16,62,4.05,53,28.13,4.35l15.11,9Z"/><path class="cls-1" d="M193.75,52.53,168.24,1a1.85,1.85,0,0,0-2.61-.77L147.74,11a2.17,2.17,0,0,0-.83,2.82l25.52,51.51a1.85,1.85,0,0,0,2.61.77l17.88-10.71A2.15,2.15,0,0,0,193.75,52.53ZM174.82,62,150.74,13.37l15.11-9,24.08,48.61Z"/><path class="cls-1" d="M157.29,74.28,91.84,35.13a2.41,2.41,0,0,0-2.46,0L86.13,37c-1.53.9-3.53,2.05-5.44,3A22.51,22.51,0,0,1,72,42c-2.59.15-7.85.18-9.18-2a2.09,2.09,0,0,1,.6-2.93l26.39-22.2a8.17,8.17,0,0,1,5.26-1.92h16.35a13.71,13.71,0,0,1,7.83,2.44l7,4.84A18.77,18.77,0,0,0,137,23.5a18.84,18.84,0,0,0,9.64-2.65l.87-.52-1.63-3.27-1.08.65a15.22,15.22,0,0,1-7.8,2.14,15.17,15.17,0,0,1-8.62-2.67l-7-4.85a17.46,17.46,0,0,0-9.89-3.07H95.07A11.84,11.84,0,0,0,87.46,12L61.07,34.23a5.72,5.72,0,0,0-1.38,7.58c2.26,3.8,8.11,4.08,12.53,3.82a26.47,26.47,0,0,0,10.06-2.34c2-1,4.07-2.16,5.7-3.11L90,39a1.21,1.21,0,0,1,1.23,0l64.21,38.41a6.44,6.44,0,1,1-6.61,11.06l-7.61-4.55-9.58-5.73a1.82,1.82,0,0,0-1.87,3.13L139.32,87a6.45,6.45,0,1,1-6.62,11.07l-7.5-4.49-.11-.07-6.4-3.83a1.83,1.83,0,0,0-2.5.63,1.81,1.81,0,0,0,.63,2.5l6.38,3.82.08,0a6.45,6.45,0,0,1-6.68,11l-7.54-4.52-3.31-2a1.82,1.82,0,1,0-1.87,3.13l3.31,2a6.45,6.45,0,0,1-6.69,11l-5-3-1.94,3.1,5.08,3a10.09,10.09,0,0,0,15.15-10.21l1,.57a10.09,10.09,0,0,0,15.15-10.2l1,.57A10.09,10.09,0,0,0,146,91l1,.57a10.09,10.09,0,0,0,10.36-17.32Z"/><path class="cls-1" d="M93.44,92.69a10,10,0,0,0-7.07-1.08,10.11,10.11,0,0,0-4.66-11.75A10,10,0,0,0,73.79,79a10.15,10.15,0,0,0-5.05-9.77,10.09,10.09,0,0,0-12,1.57A10.47,10.47,0,0,0,52,65.24c-4.93-2.8-10.91-1.24-13.42,3.18L31.37,81.05c-2.64,4.65-.57,10.5,4.13,13.17a10.28,10.28,0,0,0,8.45.86,10.07,10.07,0,0,0,15,8.83,10.06,10.06,0,0,0,14.86,7.3,10.08,10.08,0,0,0,18.74,3.5l4.7-8.25A10.13,10.13,0,0,0,93.44,92.69ZM45.75,89.23C44.18,92,40.38,92.8,37.3,91.05s-4.28-5.52-2.76-8.2l7.18-12.63c1.58-2.76,5.36-3.57,8.46-1.81s4.32,5.43,2.75,8.19Zm13.88,9a6.45,6.45,0,0,1-11.21-6.37l9.72-17.09a6.45,6.45,0,0,1,11.21,6.37Zm14.87,7.31a6.45,6.45,0,1,1-11.21-6.37l7.83-13.77a6.45,6.45,0,1,1,11.21,6.37Zm19.56-.93-4.69,8.25a6.45,6.45,0,0,1-11.21-6.38l4.69-8.25a6.45,6.45,0,1,1,11.21,6.38Z"/><path class="cls-1" d="M32.53,74.16,35,69.78a13.25,13.25,0,0,0-5.57-6.61l-3.2-1.93-1.63,3.28,3,1.77A9.72,9.72,0,0,1,31.91,72Z"/><path class="cls-1" d="M47.37,20.85a18.89,18.89,0,0,0,20.36-.66L76,14.49a5.4,5.4,0,0,1,3.06-1,5.5,5.5,0,0,1,1.13.12L81.4,14l3.4-2.86-3.36-.92A9.09,9.09,0,0,0,74,11.49l-8.29,5.7A15.18,15.18,0,0,1,57,19.87a15.24,15.24,0,0,1-7.8-2.15l-1.11-.66-1.62,3.27Z"/><path class="cls-1" d="M164.53,63.17a13.18,13.18,0,0,0-6,7.79l-.31,1.1,3.09,2.47.73-2.58a9.64,9.64,0,0,1,4.33-5.66l3-1.77-1.62-3.28Z"/></g></g></svg>