<svg xmlns="http://www.w3.org/2000/svg" viewBox="0 0 95.72 115.33"><defs><style>.cls-1{fill:#525252;}</style></defs><title>seguridad</title><g id="Capa_2" data-name="Capa 2"><g id="hands"><path class="cls-1" d="M95.68,19.32A3.11,3.11,0,0,0,93,16.27a101,101,0,0,1-21-5.2A156.6,156.6,0,0,1,49.39.44a2.85,2.85,0,0,0-3,0A150.9,150.9,0,0,1,23.79,11.07a102.25,102.25,0,0,1-21,5.2A3.34,3.34,0,0,0,.05,19.32Q-1,62.81,19,90.48a84.77,84.77,0,0,0,27.3,24.4,3,3,0,0,0,3.16,0,87,87,0,0,0,27.19-24.4q20-27.66,19-71.16ZM71.6,86.91a80.94,80.94,0,0,1-23.73,21.76A79.84,79.84,0,0,1,24.13,86.91Q5.95,61.59,6.32,22.09a107.2,107.2,0,0,0,19.9-5.32,166,166,0,0,0,21.65-10,164.79,164.79,0,0,0,21.58,10,108.21,108.21,0,0,0,20,5.32q.33,39.75-17.81,64.82Z"/></g></g></svg>