<svg xmlns="http://www.w3.org/2000/svg" viewBox="0 0 425.72 678"><defs><style>.cls-1{fill:#ededed;}</style></defs><title>mapa-perú</title><g id="Capa_2" data-name="Capa 2"><g id="Capa_1-2" data-name="Capa 1"><path class="cls-1" d="M399.9,664.35a4.06,4.06,0,1,1-4,4.06A4.06,4.06,0,0,1,399.9,664.35Z"/><path class="cls-1" d="M387.64,670.81a3.6,3.6,0,1,1-3.6,3.59A3.6,3.6,0,0,1,387.64,670.81Z"/><path class="cls-1" d="M401.75,652.64a4.06,4.06,0,1,1-4.06,4.06A4.05,4.05,0,0,1,401.75,652.64Z"/><path class="cls-1" d="M389.48,658.64a4.06,4.06,0,1,1-4.05,4.05A4.05,4.05,0,0,1,389.48,658.64Z"/><path class="cls-1" d="M377.22,664.91a3.78,3.78,0,1,1-3.78,3.78A3.78,3.78,0,0,1,377.22,664.91Z"/><path class="cls-1" d="M403.68,640.93a4.06,4.06,0,1,1-4.05,4.06A4.06,4.06,0,0,1,403.68,640.93Z"/><path class="cls-1" d="M391.42,646.93a4.06,4.06,0,1,1-4.06,4.05A4.05,4.05,0,0,1,391.42,646.93Z"/><path class="cls-1" d="M379.06,652.92A4.06,4.06,0,1,1,375,657,4.06,4.06,0,0,1,379.06,652.92Z"/><path class="cls-1" d="M405.53,629.13a4.06,4.06,0,1,1-4.06,4.06A4.05,4.05,0,0,1,405.53,629.13Z"/><path class="cls-1" d="M393.26,635.12a4.06,4.06,0,1,1-4.05,4.06A4.06,4.06,0,0,1,393.26,635.12Z"/><path class="cls-1" d="M381,641.12a4.06,4.06,0,1,1-4.06,4A4.05,4.05,0,0,1,381,641.12Z"/><path class="cls-1" d="M368.64,647.11a4.06,4.06,0,1,1-4.05,4.06A4.06,4.06,0,0,1,368.64,647.11Z"/><path class="cls-1" d="M419.73,611.43a4.06,4.06,0,1,1-4.06,4.05A4,4,0,0,1,419.73,611.43Z"/><path class="cls-1" d="M407.46,617.42a4.06,4.06,0,1,1-4,4.06A4.06,4.06,0,0,1,407.46,617.42Z"/><path class="cls-1" d="M395.2,623.41a4.06,4.06,0,1,1-4.06,4.06A4.06,4.06,0,0,1,395.2,623.41Z"/><path class="cls-1" d="M382.84,629.41a4.06,4.06,0,1,1-4,4.05A4,4,0,0,1,382.84,629.41Z"/><path class="cls-1" d="M370.58,635.4a4.06,4.06,0,1,1-4.06,4.06A4.06,4.06,0,0,1,370.58,635.4Z"/><path class="cls-1" d="M358.32,641.39a4.06,4.06,0,1,1-4.06,4.06A4.05,4.05,0,0,1,358.32,641.39Z"/><path class="cls-1" d="M421.66,599.72a4.06,4.06,0,1,1-4.05,4A4.05,4.05,0,0,1,421.66,599.72Z"/><path class="cls-1" d="M409.31,605.71a4.06,4.06,0,1,1-4.06,4.06A4.06,4.06,0,0,1,409.31,605.71Z"/><path class="cls-1" d="M397,611.7a4.06,4.06,0,1,1-4.05,4.06A4.06,4.06,0,0,1,397,611.7Z"/><path class="cls-1" d="M384.78,617.7a4.06,4.06,0,1,1-4.06,4A4.05,4.05,0,0,1,384.78,617.7Z"/><path class="cls-1" d="M372.42,623.69a4.06,4.06,0,1,1-4.05,4.06A4.06,4.06,0,0,1,372.42,623.69Z"/><path class="cls-1" d="M360.16,629.68a4.06,4.06,0,1,1-4.06,4.06A4.06,4.06,0,0,1,360.16,629.68Z"/><path class="cls-1" d="M411.24,594.46a3.6,3.6,0,1,1-3.59,3.6A3.6,3.6,0,0,1,411.24,594.46Z"/><path class="cls-1" d="M399,600a4.06,4.06,0,1,1-4.06,4.06A4.06,4.06,0,0,1,399,600Z"/><path class="cls-1" d="M386.63,606a4.06,4.06,0,1,1-4.06,4A4,4,0,0,1,386.63,606Z"/><path class="cls-1" d="M374.36,612A4.06,4.06,0,1,1,370.3,616,4.06,4.06,0,0,1,374.36,612Z"/><path class="cls-1" d="M362.1,618A4.06,4.06,0,1,1,358,622,4.06,4.06,0,0,1,362.1,618Z"/><path class="cls-1" d="M349.74,624a4.06,4.06,0,1,1-4.06,4A4.05,4.05,0,0,1,349.74,624Z"/><path class="cls-1" d="M337.48,630a4.06,4.06,0,1,1-4.06,4.06A4.06,4.06,0,0,1,337.48,630Z"/><path class="cls-1" d="M400.82,588.28a4.06,4.06,0,1,1-4.05,4.06A4.06,4.06,0,0,1,400.82,588.28Z"/><path class="cls-1" d="M388.56,594.28a4.06,4.06,0,1,1-4.06,4.05A4.05,4.05,0,0,1,388.56,594.28Z"/><path class="cls-1" d="M376.21,600.27a4.06,4.06,0,1,1-4.06,4.06A4.05,4.05,0,0,1,376.21,600.27Z"/><path class="cls-1" d="M363.94,606.26a4.06,4.06,0,1,1-4.05,4.06A4.06,4.06,0,0,1,363.94,606.26Z"/><path class="cls-1" d="M351.68,612.26a4.06,4.06,0,1,1-4.06,4A4.05,4.05,0,0,1,351.68,612.26Z"/><path class="cls-1" d="M339.41,618.25a4.06,4.06,0,1,1-4.05,4.06A4.06,4.06,0,0,1,339.41,618.25Z"/><path class="cls-1" d="M390.41,582.57a4.06,4.06,0,1,1-4.06,4A4,4,0,0,1,390.41,582.57Z"/><path class="cls-1" d="M378.14,588.56a4.06,4.06,0,1,1-4.06,4.06A4.06,4.06,0,0,1,378.14,588.56Z"/><path class="cls-1" d="M365.88,594.55a4.06,4.06,0,1,1-4.06,4.06A4.06,4.06,0,0,1,365.88,594.55Z"/><path class="cls-1" d="M353.52,600.55a4.06,4.06,0,1,1-4.06,4.05A4.05,4.05,0,0,1,353.52,600.55Z"/><path class="cls-1" d="M341.26,606.54a4.06,4.06,0,1,1-4.06,4.06A4.06,4.06,0,0,1,341.26,606.54Z"/><path class="cls-1" d="M329,612.53a4.06,4.06,0,1,1-4.06,4.06A4.05,4.05,0,0,1,329,612.53Z"/><path class="cls-1" d="M392.34,570.86a4.06,4.06,0,1,1-4.06,4A4.05,4.05,0,0,1,392.34,570.86Z"/><path class="cls-1" d="M380,576.85a4.06,4.06,0,1,1-4.06,4.06A4,4,0,0,1,380,576.85Z"/><path class="cls-1" d="M367.72,582.84a4.06,4.06,0,1,1-4.05,4.06A4.06,4.06,0,0,1,367.72,582.84Z"/><path class="cls-1" d="M355.46,588.84a4.06,4.06,0,1,1-4.06,4A4.05,4.05,0,0,1,355.46,588.84Z"/><path class="cls-1" d="M343.2,594.83a4.06,4.06,0,1,1-4.06,4.06A4.05,4.05,0,0,1,343.2,594.83Z"/><path class="cls-1" d="M330.84,600.82a4.06,4.06,0,1,1-4.06,4.06A4.06,4.06,0,0,1,330.84,600.82Z"/><path class="cls-1" d="M318.58,606.82a4.06,4.06,0,1,1-4.06,4A4,4,0,0,1,318.58,606.82Z"/><path class="cls-1" d="M406.54,553.15a4.06,4.06,0,1,1-4.06,4.06A4.06,4.06,0,0,1,406.54,553.15Z"/><path class="cls-1" d="M394.19,559.14a4.06,4.06,0,1,1-4.06,4.06A4.05,4.05,0,0,1,394.19,559.14Z"/><path class="cls-1" d="M381.92,565.14a4.06,4.06,0,1,1-4.05,4.06A4.06,4.06,0,0,1,381.92,565.14Z"/><path class="cls-1" d="M369.66,571.13a4.06,4.06,0,1,1-4.06,4.06A4.06,4.06,0,0,1,369.66,571.13Z"/><path class="cls-1" d="M357.3,577.12a4.06,4.06,0,1,1-4.05,4.06A4.06,4.06,0,0,1,357.3,577.12Z"/><path class="cls-1" d="M345,583.12a4.06,4.06,0,1,1-4.06,4.06A4.06,4.06,0,0,1,345,583.12Z"/><path class="cls-1" d="M332.78,589.11a4.06,4.06,0,1,1-4.06,4.06A4.05,4.05,0,0,1,332.78,589.11Z"/><path class="cls-1" d="M320.51,595.11a4.06,4.06,0,1,1-4.06,4A4.05,4.05,0,0,1,320.51,595.11Z"/><path class="cls-1" d="M308.16,601.1a4.06,4.06,0,1,1-4.06,4.06A4.05,4.05,0,0,1,308.16,601.1Z"/><path class="cls-1" d="M408.39,541.72a3.78,3.78,0,1,1-3.78,3.78A3.78,3.78,0,0,1,408.39,541.72Z"/><path class="cls-1" d="M396.12,547.43a4.06,4.06,0,1,1-4.06,4.06A4.06,4.06,0,0,1,396.12,547.43Z"/><path class="cls-1" d="M383.77,553.43a4.06,4.06,0,1,1-4.06,4.06A4,4,0,0,1,383.77,553.43Z"/><path class="cls-1" d="M371.5,559.42a4.06,4.06,0,1,1-4.05,4.06A4.06,4.06,0,0,1,371.5,559.42Z"/><path class="cls-1" d="M359.24,565.41a4.06,4.06,0,1,1-4.06,4.06A4.06,4.06,0,0,1,359.24,565.41Z"/><path class="cls-1" d="M347,571.41a4.06,4.06,0,1,1-4.06,4.06A4,4,0,0,1,347,571.41Z"/><path class="cls-1" d="M334.62,577.4a4.06,4.06,0,1,1-4.06,4.06A4.06,4.06,0,0,1,334.62,577.4Z"/><path class="cls-1" d="M322.36,583.4a4.06,4.06,0,1,1-4.06,4.05A4,4,0,0,1,322.36,583.4Z"/><path class="cls-1" d="M310.09,589.39a4.06,4.06,0,1,1-4,4.06A4.06,4.06,0,0,1,310.09,589.39Z"/><path class="cls-1" d="M297.74,595.38a4.06,4.06,0,1,1-4.06,4.06A4.05,4.05,0,0,1,297.74,595.38Z"/><path class="cls-1" d="M410.32,529.64a4.06,4.06,0,1,1-4.05,4.06A4.06,4.06,0,0,1,410.32,529.64Z"/><path class="cls-1" d="M398,535.63a4.06,4.06,0,1,1-4.06,4.06A4.05,4.05,0,0,1,398,535.63Z"/><path class="cls-1" d="M385.7,541.63a4.06,4.06,0,1,1-4.05,4A4.05,4.05,0,0,1,385.7,541.63Z"/><path class="cls-1" d="M373.44,547.62a4.06,4.06,0,1,1-4.06,4.06A4.06,4.06,0,0,1,373.44,547.62Z"/><path class="cls-1" d="M361.08,553.61a4.06,4.06,0,1,1-4.05,4.06A4.06,4.06,0,0,1,361.08,553.61Z"/><path class="cls-1" d="M348.82,559.61a4.06,4.06,0,1,1-4.06,4A4.05,4.05,0,0,1,348.82,559.61Z"/><path class="cls-1" d="M336.56,565.6a4.06,4.06,0,1,1-4.06,4.06A4.05,4.05,0,0,1,336.56,565.6Z"/><path class="cls-1" d="M324.29,571.59a4.06,4.06,0,1,1-4.05,4.06A4.06,4.06,0,0,1,324.29,571.59Z"/><path class="cls-1" d="M311.94,577.59a4.06,4.06,0,1,1-4.06,4A4,4,0,0,1,311.94,577.59Z"/><path class="cls-1" d="M299.67,583.58a4.06,4.06,0,1,1-4.05,4.06A4.06,4.06,0,0,1,299.67,583.58Z"/><path class="cls-1" d="M287.41,589.57a4.06,4.06,0,1,1-4.06,4.06A4.06,4.06,0,0,1,287.41,589.57Z"/><path class="cls-1" d="M412.17,517.93a4.06,4.06,0,1,1-4.06,4.06A4,4,0,0,1,412.17,517.93Z"/><path class="cls-1" d="M399.9,523.92a4.06,4.06,0,1,1-4,4.06A4.06,4.06,0,0,1,399.9,523.92Z"/><path class="cls-1" d="M387.55,529.91a4.06,4.06,0,1,1-4.06,4.06A4.05,4.05,0,0,1,387.55,529.91Z"/><path class="cls-1" d="M375.28,535.91a4.06,4.06,0,1,1-4,4.06A4.06,4.06,0,0,1,375.28,535.91Z"/><path class="cls-1" d="M363,541.9A4.06,4.06,0,1,1,359,546,4.06,4.06,0,0,1,363,541.9Z"/><path class="cls-1" d="M350.76,547.9A4.06,4.06,0,1,1,346.7,552,4,4,0,0,1,350.76,547.9Z"/><path class="cls-1" d="M338.4,553.89a4.06,4.06,0,1,1-4.06,4.06A4.06,4.06,0,0,1,338.4,553.89Z"/><path class="cls-1" d="M326.14,559.88a4.06,4.06,0,1,1-4.06,4.06A4.05,4.05,0,0,1,326.14,559.88Z"/><path class="cls-1" d="M313.87,565.88a4.06,4.06,0,1,1-4.05,4A4.05,4.05,0,0,1,313.87,565.88Z"/><path class="cls-1" d="M301.52,571.87a4.06,4.06,0,1,1-4.06,4.06A4.05,4.05,0,0,1,301.52,571.87Z"/><path class="cls-1" d="M289.25,577.86a4.06,4.06,0,1,1-4.05,4.06A4.06,4.06,0,0,1,289.25,577.86Z"/><path class="cls-1" d="M277,583.86a4.06,4.06,0,1,1-4.06,4A4.05,4.05,0,0,1,277,583.86Z"/><path class="cls-1" d="M414.1,506.22a4.06,4.06,0,1,1-4.05,4A4.05,4.05,0,0,1,414.1,506.22Z"/><path class="cls-1" d="M401.75,512.21a4.06,4.06,0,1,1-4.06,4.06A4.05,4.05,0,0,1,401.75,512.21Z"/><path class="cls-1" d="M389.48,518.2a4.06,4.06,0,1,1-4.05,4.06A4.06,4.06,0,0,1,389.48,518.2Z"/><path class="cls-1" d="M377.22,524.2a4.06,4.06,0,1,1-4.06,4.06A4.06,4.06,0,0,1,377.22,524.2Z"/><path class="cls-1" d="M364.86,530.19a4.06,4.06,0,1,1-4.05,4.06A4.06,4.06,0,0,1,364.86,530.19Z"/><path class="cls-1" d="M352.6,536.18a4.06,4.06,0,1,1-4.06,4.06A4.06,4.06,0,0,1,352.6,536.18Z"/><path class="cls-1" d="M340.34,542.18a4.06,4.06,0,1,1-4.06,4.06A4.05,4.05,0,0,1,340.34,542.18Z"/><path class="cls-1" d="M328.07,548.17a4.06,4.06,0,1,1-4.05,4.06A4.06,4.06,0,0,1,328.07,548.17Z"/><circle class="cls-1" cx="315.72" cy="558.22" r="4.06" transform="translate(-300.11 737.24) rotate(-76.72)"/><path class="cls-1" d="M303.45,560.16a4.06,4.06,0,1,1-4.05,4.06A4.06,4.06,0,0,1,303.45,560.16Z"/><path class="cls-1" d="M291.19,566.15a4.06,4.06,0,1,1-4.06,4.06A4.06,4.06,0,0,1,291.19,566.15Z"/><path class="cls-1" d="M278.83,572.15a4.06,4.06,0,1,1-4.05,4.05A4.05,4.05,0,0,1,278.83,572.15Z"/><path class="cls-1" d="M266.57,578.14a4.06,4.06,0,1,1-4.06,4.06A4.06,4.06,0,0,1,266.57,578.14Z"/><path class="cls-1" d="M416,494.51a4.06,4.06,0,1,1-4.06,4.05A4,4,0,0,1,416,494.51Z"/><path class="cls-1" d="M403.68,500.5a4.06,4.06,0,1,1-4.05,4.06A4.06,4.06,0,0,1,403.68,500.5Z"/><path class="cls-1" d="M391.33,506.49a4.06,4.06,0,1,1-4.06,4.06A4.05,4.05,0,0,1,391.33,506.49Z"/><path class="cls-1" d="M379.06,512.49a4.06,4.06,0,1,1-4.05,4A4.05,4.05,0,0,1,379.06,512.49Z"/><path class="cls-1" d="M366.8,518.48a4.06,4.06,0,1,1-4.06,4.06A4.06,4.06,0,0,1,366.8,518.48Z"/><path class="cls-1" d="M354.54,524.48a4.06,4.06,0,1,1-4.06,4A4,4,0,0,1,354.54,524.48Z"/><path class="cls-1" d="M342.18,530.47a4.06,4.06,0,1,1-4.06,4.06A4.06,4.06,0,0,1,342.18,530.47Z"/><path class="cls-1" d="M329.92,536.46a4.06,4.06,0,1,1-4.06,4.06A4.05,4.05,0,0,1,329.92,536.46Z"/><path class="cls-1" d="M317.65,542.46a4.06,4.06,0,1,1-4,4A4.05,4.05,0,0,1,317.65,542.46Z"/><path class="cls-1" d="M305.3,548.45a4.06,4.06,0,1,1-4.06,4.06A4.05,4.05,0,0,1,305.3,548.45Z"/><path class="cls-1" d="M293,554.44a4.06,4.06,0,1,1-4,4.06A4.06,4.06,0,0,1,293,554.44Z"/><path class="cls-1" d="M280.77,560.44a4.06,4.06,0,1,1-4.06,4A4.05,4.05,0,0,1,280.77,560.44Z"/><path class="cls-1" d="M268.51,566.43a4.06,4.06,0,1,1-4.06,4.06A4.05,4.05,0,0,1,268.51,566.43Z"/><path class="cls-1" d="M256.15,572.42a4.06,4.06,0,1,1-4.06,4.06A4.06,4.06,0,0,1,256.15,572.42Z"/><path class="cls-1" d="M405.53,488.79a4.06,4.06,0,1,1-4.06,4.06A4.05,4.05,0,0,1,405.53,488.79Z"/><path class="cls-1" d="M393.26,494.78a4.06,4.06,0,1,1-4.05,4.06A4.06,4.06,0,0,1,393.26,494.78Z"/><path class="cls-1" d="M381,500.78a4.06,4.06,0,1,1-4.06,4.05A4.05,4.05,0,0,1,381,500.78Z"/><path class="cls-1" d="M368.64,506.77a4.06,4.06,0,1,1-4.05,4.06A4.06,4.06,0,0,1,368.64,506.77Z"/><path class="cls-1" d="M356.38,512.76a4.06,4.06,0,1,1-4.06,4.06A4.06,4.06,0,0,1,356.38,512.76Z"/><path class="cls-1" d="M344.12,518.76a4.06,4.06,0,1,1-4.06,4A4,4,0,0,1,344.12,518.76Z"/><path class="cls-1" d="M331.85,524.75a4.06,4.06,0,1,1-4.05,4.06A4.06,4.06,0,0,1,331.85,524.75Z"/><path class="cls-1" d="M319.5,530.74a4.06,4.06,0,1,1-4.06,4.06A4.06,4.06,0,0,1,319.5,530.74Z"/><path class="cls-1" d="M307.23,536.74a4.06,4.06,0,1,1-4.05,4.06A4.05,4.05,0,0,1,307.23,536.74Z"/><path class="cls-1" d="M295,542.73a4.06,4.06,0,1,1-4.06,4.06A4.06,4.06,0,0,1,295,542.73Z"/><path class="cls-1" d="M282.61,548.73a4.06,4.06,0,1,1-4.05,4A4,4,0,0,1,282.61,548.73Z"/><path class="cls-1" d="M270.35,554.72a4.06,4.06,0,1,1-4.06,4.06A4.06,4.06,0,0,1,270.35,554.72Z"/><path class="cls-1" d="M258.09,560.71a4.06,4.06,0,1,1-4.06,4.06A4.06,4.06,0,0,1,258.09,560.71Z"/><path class="cls-1" d="M245.82,566.71a4.06,4.06,0,1,1-4,4A4.05,4.05,0,0,1,245.82,566.71Z"/><path class="cls-1" d="M407.46,477.08a4.06,4.06,0,1,1-4,4.06A4.06,4.06,0,0,1,407.46,477.08Z"/><path class="cls-1" d="M395.11,483.07a4.06,4.06,0,1,1-4.06,4.06A4.06,4.06,0,0,1,395.11,483.07Z"/><path class="cls-1" d="M382.84,489.07a4.06,4.06,0,1,1-4,4.05A4,4,0,0,1,382.84,489.07Z"/><path class="cls-1" d="M370.58,495.06a4.06,4.06,0,1,1-4.06,4.06A4.06,4.06,0,0,1,370.58,495.06Z"/><path class="cls-1" d="M358.32,501.05a4.06,4.06,0,1,1-4.06,4.06A4.05,4.05,0,0,1,358.32,501.05Z"/><path class="cls-1" d="M346,507.05a4.06,4.06,0,1,1-4.06,4.05A4.05,4.05,0,0,1,346,507.05Z"/><path class="cls-1" d="M333.7,513a4.06,4.06,0,1,1-4.06,4.06A4.06,4.06,0,0,1,333.7,513Z"/><path class="cls-1" d="M321.43,519a4.06,4.06,0,1,1-4.05,4.06A4.06,4.06,0,0,1,321.43,519Z"/><path class="cls-1" d="M309.08,525a4.06,4.06,0,1,1-4.06,4.06A4.06,4.06,0,0,1,309.08,525Z"/><path class="cls-1" d="M296.82,531a4.06,4.06,0,1,1-4.06,4.06A4.05,4.05,0,0,1,296.82,531Z"/><path class="cls-1" d="M284.55,537a4.06,4.06,0,1,1-4.06,4.06A4.06,4.06,0,0,1,284.55,537Z"/><path class="cls-1" d="M272.29,543a4.06,4.06,0,1,1-4.06,4.06A4,4,0,0,1,272.29,543Z"/><path class="cls-1" d="M259.93,549a4.06,4.06,0,1,1-4.06,4.06A4.06,4.06,0,0,1,259.93,549Z"/><path class="cls-1" d="M247.67,555a4.06,4.06,0,1,1-4.06,4A4.05,4.05,0,0,1,247.67,555Z"/><path class="cls-1" d="M235.41,561a4.06,4.06,0,1,1-4.06,4.06A4,4,0,0,1,235.41,561Z"/><path class="cls-1" d="M421.57,459.38a4.06,4.06,0,1,1-4.06,4.05A4.05,4.05,0,0,1,421.57,459.38Z"/><path class="cls-1" d="M409.31,465.37a4.06,4.06,0,1,1-4.06,4.06A4.06,4.06,0,0,1,409.31,465.37Z"/><path class="cls-1" d="M397,471.36a4.06,4.06,0,1,1-4.05,4.06A4.06,4.06,0,0,1,397,471.36Z"/><path class="cls-1" d="M384.78,477.36a4.06,4.06,0,1,1-4.06,4.05A4.05,4.05,0,0,1,384.78,477.36Z"/><path class="cls-1" d="M372.42,483.35a4.06,4.06,0,1,1-4.05,4.06A4.06,4.06,0,0,1,372.42,483.35Z"/><path class="cls-1" d="M360.16,489.34a4.06,4.06,0,1,1-4.06,4.06A4.06,4.06,0,0,1,360.16,489.34Z"/><path class="cls-1" d="M347.9,495.34a4.06,4.06,0,1,1-4.06,4.05A4,4,0,0,1,347.9,495.34Z"/><path class="cls-1" d="M335.63,501.33a4.06,4.06,0,1,1-4.05,4.06A4.06,4.06,0,0,1,335.63,501.33Z"/><path class="cls-1" d="M323.28,507.32a4.06,4.06,0,1,1-4.06,4.06A4.06,4.06,0,0,1,323.28,507.32Z"/><path class="cls-1" d="M311,513.32a4.06,4.06,0,1,1-4.06,4.06A4,4,0,0,1,311,513.32Z"/><path class="cls-1" d="M298.75,519.31a4.06,4.06,0,1,1-4.06,4.06A4.06,4.06,0,0,1,298.75,519.31Z"/><path class="cls-1" d="M286.4,525.3a4.06,4.06,0,1,1-4.06,4.06A4.05,4.05,0,0,1,286.4,525.3Z"/><path class="cls-1" d="M274.13,531.3a4.06,4.06,0,1,1-4.06,4.06A4.06,4.06,0,0,1,274.13,531.3Z"/><path class="cls-1" d="M261.87,537.29a4.06,4.06,0,1,1-4.06,4.06A4.06,4.06,0,0,1,261.87,537.29Z"/><path class="cls-1" d="M249.6,543.28a4.06,4.06,0,1,1-4,4.06A4.06,4.06,0,0,1,249.6,543.28Z"/><path class="cls-1" d="M237.25,549.28a4.06,4.06,0,1,1-4.06,4.06A4.06,4.06,0,0,1,237.25,549.28Z"/><path class="cls-1" d="M225,555.27a4.06,4.06,0,1,1-4.06,4.06A4.05,4.05,0,0,1,225,555.27Z"/><path class="cls-1" d="M411.24,453.66a4.06,4.06,0,1,1-4.05,4.06A4.06,4.06,0,0,1,411.24,453.66Z"/><path class="cls-1" d="M398.89,459.65a4.06,4.06,0,1,1-4.06,4.06A4.06,4.06,0,0,1,398.89,459.65Z"/><path class="cls-1" d="M386.63,465.65a4.06,4.06,0,1,1-4.06,4.05A4,4,0,0,1,386.63,465.65Z"/><path class="cls-1" d="M374.36,471.64a4.06,4.06,0,1,1-4.06,4.06A4.06,4.06,0,0,1,374.36,471.64Z"/><path class="cls-1" d="M362.1,477.63a4.06,4.06,0,1,1-4.06,4.06A4.06,4.06,0,0,1,362.1,477.63Z"/><path class="cls-1" d="M349.74,483.63a4.06,4.06,0,1,1-4.06,4.05A4.05,4.05,0,0,1,349.74,483.63Z"/><path class="cls-1" d="M337.48,489.62a4.06,4.06,0,1,1-4.06,4.06A4.06,4.06,0,0,1,337.48,489.62Z"/><path class="cls-1" d="M325.21,495.61a4.06,4.06,0,1,1-4,4.06A4.06,4.06,0,0,1,325.21,495.61Z"/><path class="cls-1" d="M312.86,501.61a4.06,4.06,0,1,1-4.06,4.05A4.05,4.05,0,0,1,312.86,501.61Z"/><path class="cls-1" d="M300.6,507.6a4.06,4.06,0,1,1-4.06,4.06A4.05,4.05,0,0,1,300.6,507.6Z"/><path class="cls-1" d="M288.33,513.59a4.06,4.06,0,1,1-4.05,4.06A4.06,4.06,0,0,1,288.33,513.59Z"/><circle class="cls-1" cx="276.07" cy="523.64" r="4.06" transform="translate(-297 672.02) rotate(-76.72)"/><path class="cls-1" d="M263.71,525.58a4.06,4.06,0,1,1-4,4.06A4.06,4.06,0,0,1,263.71,525.58Z"/><path class="cls-1" d="M251.45,531.57a4.06,4.06,0,1,1-4.06,4.06A4.06,4.06,0,0,1,251.45,531.57Z"/><path class="cls-1" d="M239.19,537.57a4.06,4.06,0,1,1-4.06,4.06A4,4,0,0,1,239.19,537.57Z"/><path class="cls-1" d="M226.83,543.56a4.06,4.06,0,1,1-4.06,4.06A4.06,4.06,0,0,1,226.83,543.56Z"/><path class="cls-1" d="M214.57,549.55a4.06,4.06,0,1,1-4.06,4.06A4.05,4.05,0,0,1,214.57,549.55Z"/><path class="cls-1" d="M413.09,442A4.06,4.06,0,1,1,409,446,4.06,4.06,0,0,1,413.09,442Z"/><path class="cls-1" d="M400.82,447.94a4.06,4.06,0,1,1-4.05,4.06A4.06,4.06,0,0,1,400.82,447.94Z"/><path class="cls-1" d="M388.56,453.94A4.06,4.06,0,1,1,384.5,458,4.05,4.05,0,0,1,388.56,453.94Z"/><path class="cls-1" d="M376.21,459.93a4.06,4.06,0,1,1-4.06,4.06A4.05,4.05,0,0,1,376.21,459.93Z"/><path class="cls-1" d="M363.94,465.92a4.06,4.06,0,1,1-4.05,4.06A4.06,4.06,0,0,1,363.94,465.92Z"/><path class="cls-1" d="M351.68,471.92a4.06,4.06,0,1,1-4.06,4.05A4.05,4.05,0,0,1,351.68,471.92Z"/><path class="cls-1" d="M339.41,477.91a4.06,4.06,0,1,1-4.05,4.06A4.06,4.06,0,0,1,339.41,477.91Z"/><path class="cls-1" d="M327.06,483.9A4.06,4.06,0,1,1,323,488,4.06,4.06,0,0,1,327.06,483.9Z"/><path class="cls-1" d="M314.8,489.9a4.06,4.06,0,1,1-4.06,4.05A4,4,0,0,1,314.8,489.9Z"/><path class="cls-1" d="M302.53,495.89a4.06,4.06,0,1,1-4.06,4.06A4.06,4.06,0,0,1,302.53,495.89Z"/><path class="cls-1" d="M290.18,501.88a4.06,4.06,0,1,1-4.06,4.06A4.05,4.05,0,0,1,290.18,501.88Z"/><path class="cls-1" d="M277.91,507.88a4.06,4.06,0,1,1-4.05,4.05A4.05,4.05,0,0,1,277.91,507.88Z"/><path class="cls-1" d="M265.65,513.87a4.06,4.06,0,1,1-4.06,4.06A4.06,4.06,0,0,1,265.65,513.87Z"/><path class="cls-1" d="M253.39,519.86a4.06,4.06,0,1,1-4.06,4.06A4.05,4.05,0,0,1,253.39,519.86Z"/><path class="cls-1" d="M241,525.86a4.06,4.06,0,1,1-4.06,4A4.05,4.05,0,0,1,241,525.86Z"/><path class="cls-1" d="M228.77,531.85a4.06,4.06,0,1,1-4.06,4.06A4.05,4.05,0,0,1,228.77,531.85Z"/><path class="cls-1" d="M216.5,537.85a4.06,4.06,0,1,1-4.05,4A4.05,4.05,0,0,1,216.5,537.85Z"/><path class="cls-1" d="M402.67,436.14a4.06,4.06,0,1,1-4.06,4.06A4.06,4.06,0,0,1,402.67,436.14Z"/><path class="cls-1" d="M390.41,442.13a4.06,4.06,0,1,1-4.06,4.06A4.05,4.05,0,0,1,390.41,442.13Z"/><path class="cls-1" d="M378.14,448.13a4.06,4.06,0,1,1-4.06,4.05A4.05,4.05,0,0,1,378.14,448.13Z"/><path class="cls-1" d="M365.88,454.12a4.06,4.06,0,1,1-4.06,4.06A4.06,4.06,0,0,1,365.88,454.12Z"/><path class="cls-1" d="M353.52,460.11a4.06,4.06,0,1,1-4.06,4.06A4.06,4.06,0,0,1,353.52,460.11Z"/><path class="cls-1" d="M341.26,466.11a4.06,4.06,0,1,1-4.06,4.05A4.05,4.05,0,0,1,341.26,466.11Z"/><path class="cls-1" d="M329,472.1a4.06,4.06,0,1,1-4.06,4.06A4.05,4.05,0,0,1,329,472.1Z"/><circle class="cls-1" cx="316.64" cy="482.15" r="4.06" transform="translate(-225.36 679.54) rotate(-76.72)"/><path class="cls-1" d="M304.38,484.09a4.06,4.06,0,1,1-4.06,4.06A4,4,0,0,1,304.38,484.09Z"/><path class="cls-1" d="M292.11,490.08a4.06,4.06,0,1,1-4.05,4.06A4.06,4.06,0,0,1,292.11,490.08Z"/><path class="cls-1" d="M279.85,496.07a4.06,4.06,0,1,1-4.06,4.06A4.06,4.06,0,0,1,279.85,496.07Z"/><path class="cls-1" d="M267.49,502.07a4.06,4.06,0,1,1-4.05,4.06A4.06,4.06,0,0,1,267.49,502.07Z"/><path class="cls-1" d="M255.23,508.06a4.06,4.06,0,1,1-4.06,4.06A4.06,4.06,0,0,1,255.23,508.06Z"/><path class="cls-1" d="M243,514.05a4.06,4.06,0,1,1-4.06,4.06A4.05,4.05,0,0,1,243,514.05Z"/><path class="cls-1" d="M230.61,520.05a4.06,4.06,0,1,1-4.06,4.06A4.06,4.06,0,0,1,230.61,520.05Z"/><path class="cls-1" d="M218.35,526a4.06,4.06,0,1,1-4.06,4.06A4.05,4.05,0,0,1,218.35,526Z"/><path class="cls-1" d="M206.08,532a4.06,4.06,0,1,1-4.05,4.05A4.05,4.05,0,0,1,206.08,532Z"/><path class="cls-1" d="M404.61,424.43a4.06,4.06,0,1,1-4.06,4.06A4.05,4.05,0,0,1,404.61,424.43Z"/><path class="cls-1" d="M392.34,430.42a4.06,4.06,0,1,1-4.06,4.06A4.06,4.06,0,0,1,392.34,430.42Z"/><path class="cls-1" d="M380,436.42a4.06,4.06,0,1,1-4.06,4.05A4,4,0,0,1,380,436.42Z"/><path class="cls-1" d="M367.72,442.41a4.06,4.06,0,1,1-4.05,4.06A4.06,4.06,0,0,1,367.72,442.41Z"/><path class="cls-1" d="M355.46,448.4a4.06,4.06,0,1,1-4.06,4.06A4.06,4.06,0,0,1,355.46,448.4Z"/><path class="cls-1" d="M343.2,454.4a4.06,4.06,0,1,1-4.06,4.05A4,4,0,0,1,343.2,454.4Z"/><path class="cls-1" d="M330.84,460.39a4.06,4.06,0,1,1-4.06,4.06A4.06,4.06,0,0,1,330.84,460.39Z"/><path class="cls-1" d="M318.58,466.38a4.06,4.06,0,1,1-4.06,4.06A4.05,4.05,0,0,1,318.58,466.38Z"/><path class="cls-1" d="M306.31,472.38a4.06,4.06,0,1,1-4.05,4.05A4.05,4.05,0,0,1,306.31,472.38Z"/><path class="cls-1" d="M294,478.37a4.06,4.06,0,1,1-4.06,4.06A4.05,4.05,0,0,1,294,478.37Z"/><path class="cls-1" d="M281.69,484.36a4.06,4.06,0,1,1-4.05,4.06A4.06,4.06,0,0,1,281.69,484.36Z"/><path class="cls-1" d="M269.43,490.36a4.06,4.06,0,1,1-4.06,4.06A4.06,4.06,0,0,1,269.43,490.36Z"/><path class="cls-1" d="M257.17,496.35a4.06,4.06,0,1,1-4.06,4.06A4.05,4.05,0,0,1,257.17,496.35Z"/><path class="cls-1" d="M244.81,502.35a4.06,4.06,0,1,1-4.06,4A4.05,4.05,0,0,1,244.81,502.35Z"/><path class="cls-1" d="M232.55,508.34a4.06,4.06,0,1,1-4.06,4.06A4.05,4.05,0,0,1,232.55,508.34Z"/><path class="cls-1" d="M220.28,514.33a4.06,4.06,0,1,1-4.05,4.06A4.06,4.06,0,0,1,220.28,514.33Z"/><path class="cls-1" d="M207.93,520.33a4.06,4.06,0,1,1-4.06,4A4,4,0,0,1,207.93,520.33Z"/><path class="cls-1" d="M195.66,526.32a4.06,4.06,0,1,1-4,4.06A4.06,4.06,0,0,1,195.66,526.32Z"/><path class="cls-1" d="M394.19,418.71a4.06,4.06,0,1,1-4.06,4.06A4.05,4.05,0,0,1,394.19,418.71Z"/><path class="cls-1" d="M381.92,424.71a4.06,4.06,0,1,1-4.05,4.05A4.05,4.05,0,0,1,381.92,424.71Z"/><path class="cls-1" d="M369.66,430.7a4.06,4.06,0,1,1-4.06,4.06A4.06,4.06,0,0,1,369.66,430.7Z"/><path class="cls-1" d="M357.3,436.69a4.06,4.06,0,1,1-4.05,4.06A4.06,4.06,0,0,1,357.3,436.69Z"/><path class="cls-1" d="M345,442.69a4.06,4.06,0,1,1-4.06,4.05A4.05,4.05,0,0,1,345,442.69Z"/><path class="cls-1" d="M332.78,448.68a4.06,4.06,0,1,1-4.06,4.06A4.05,4.05,0,0,1,332.78,448.68Z"/><path class="cls-1" d="M320.42,454.67a4.06,4.06,0,1,1-4.06,4.06A4.06,4.06,0,0,1,320.42,454.67Z"/><path class="cls-1" d="M308.16,460.67a4.06,4.06,0,1,1-4.06,4.05A4,4,0,0,1,308.16,460.67Z"/><path class="cls-1" d="M295.89,466.66a4.06,4.06,0,1,1-4.05,4.06A4.06,4.06,0,0,1,295.89,466.66Z"/><path class="cls-1" d="M283.63,472.65a4.06,4.06,0,1,1-4.06,4.06A4.06,4.06,0,0,1,283.63,472.65Z"/><path class="cls-1" d="M271.27,478.65a4.06,4.06,0,1,1-4,4.05A4.05,4.05,0,0,1,271.27,478.65Z"/><path class="cls-1" d="M259,484.64A4.06,4.06,0,1,1,255,488.7,4.06,4.06,0,0,1,259,484.64Z"/><path class="cls-1" d="M246.75,490.63a4.06,4.06,0,1,1-4.06,4.06A4.05,4.05,0,0,1,246.75,490.63Z"/><path class="cls-1" d="M234.39,496.63a4.06,4.06,0,1,1-4.06,4.05A4.05,4.05,0,0,1,234.39,496.63Z"/><path class="cls-1" d="M222.13,502.62a4.06,4.06,0,1,1-4.06,4.06A4.05,4.05,0,0,1,222.13,502.62Z"/><path class="cls-1" d="M209.86,508.62a4.06,4.06,0,1,1-4.05,4A4.05,4.05,0,0,1,209.86,508.62Z"/><path class="cls-1" d="M197.6,514.61a4.06,4.06,0,1,1-4.06,4.06A4.06,4.06,0,0,1,197.6,514.61Z"/><path class="cls-1" d="M383.77,413a4.06,4.06,0,1,1-4.06,4.05A4,4,0,0,1,383.77,413Z"/><path class="cls-1" d="M371.5,419a4.06,4.06,0,1,1-4.05,4.06A4.06,4.06,0,0,1,371.5,419Z"/><path class="cls-1" d="M359.24,425a4.06,4.06,0,1,1-4.06,4.06A4.06,4.06,0,0,1,359.24,425Z"/><path class="cls-1" d="M346.88,431a4.06,4.06,0,1,1-4.05,4A4.05,4.05,0,0,1,346.88,431Z"/><path class="cls-1" d="M334.62,437a4.06,4.06,0,1,1-4.06,4.06A4.06,4.06,0,0,1,334.62,437Z"/><path class="cls-1" d="M322.36,443A4.06,4.06,0,1,1,318.3,447,4.05,4.05,0,0,1,322.36,443Z"/><path class="cls-1" d="M310.09,449a4.06,4.06,0,1,1-4,4.05A4.05,4.05,0,0,1,310.09,449Z"/><path class="cls-1" d="M297.74,455a4.06,4.06,0,1,1-4.06,4.06A4.05,4.05,0,0,1,297.74,455Z"/><path class="cls-1" d="M285.47,460.94a4.06,4.06,0,1,1-4.05,4.06A4.06,4.06,0,0,1,285.47,460.94Z"/><path class="cls-1" d="M273.21,466.94a4.06,4.06,0,1,1-4.06,4.05A4.05,4.05,0,0,1,273.21,466.94Z"/><path class="cls-1" d="M261,472.93a4.06,4.06,0,1,1-4.06,4.06A4.05,4.05,0,0,1,261,472.93Z"/><path class="cls-1" d="M248.59,478.92a4.06,4.06,0,1,1-4.06,4.06A4.06,4.06,0,0,1,248.59,478.92Z"/><path class="cls-1" d="M236.33,484.92a4.06,4.06,0,1,1-4.06,4.06A4,4,0,0,1,236.33,484.92Z"/><path class="cls-1" d="M224.06,490.91A4.06,4.06,0,1,1,220,495,4.06,4.06,0,0,1,224.06,490.91Z"/><path class="cls-1" d="M211.71,496.9a4.06,4.06,0,1,1-4.06,4.06A4.05,4.05,0,0,1,211.71,496.9Z"/><path class="cls-1" d="M199.44,502.9a4.06,4.06,0,1,1-4.05,4.06A4.06,4.06,0,0,1,199.44,502.9Z"/><path class="cls-1" d="M187.18,508.89a4.06,4.06,0,1,1-4.06,4.06A4.06,4.06,0,0,1,187.18,508.89Z"/><path class="cls-1" d="M385.7,401.29a4.06,4.06,0,1,1-4.05,4A4.05,4.05,0,0,1,385.7,401.29Z"/><path class="cls-1" d="M373.44,407.28a4.06,4.06,0,1,1-4.06,4.06A4.06,4.06,0,0,1,373.44,407.28Z"/><path class="cls-1" d="M361.08,413.27a4.06,4.06,0,1,1-4.05,4.06A4.06,4.06,0,0,1,361.08,413.27Z"/><path class="cls-1" d="M348.82,419.27a4.06,4.06,0,1,1-4.06,4.05A4.05,4.05,0,0,1,348.82,419.27Z"/><path class="cls-1" d="M336.56,425.26a4.06,4.06,0,1,1-4.06,4.06A4.05,4.05,0,0,1,336.56,425.26Z"/><path class="cls-1" d="M324.2,431.25a4.06,4.06,0,1,1-4.06,4.06A4.06,4.06,0,0,1,324.2,431.25Z"/><path class="cls-1" d="M311.94,437.25a4.06,4.06,0,1,1-4.06,4.05A4,4,0,0,1,311.94,437.25Z"/><path class="cls-1" d="M299.67,443.24a4.06,4.06,0,1,1-4.05,4.06A4.06,4.06,0,0,1,299.67,443.24Z"/><path class="cls-1" d="M287.41,449.23a4.06,4.06,0,1,1-4.06,4.06A4.06,4.06,0,0,1,287.41,449.23Z"/><path class="cls-1" d="M275.05,455.23a4.06,4.06,0,1,1-4.05,4A4.05,4.05,0,0,1,275.05,455.23Z"/><path class="cls-1" d="M262.79,461.22a4.06,4.06,0,1,1-4.06,4.06A4.06,4.06,0,0,1,262.79,461.22Z"/><path class="cls-1" d="M250.53,467.21a4.06,4.06,0,1,1-4.06,4.06A4.05,4.05,0,0,1,250.53,467.21Z"/><path class="cls-1" d="M238.17,473.21a4.06,4.06,0,1,1-4.06,4.05A4.05,4.05,0,0,1,238.17,473.21Z"/><path class="cls-1" d="M225.91,479.2a4.06,4.06,0,1,1-4.06,4.06A4.05,4.05,0,0,1,225.91,479.2Z"/><path class="cls-1" d="M213.64,485.19a4.06,4.06,0,1,1-4,4.06A4.06,4.06,0,0,1,213.64,485.19Z"/><path class="cls-1" d="M201.38,491.19a4.06,4.06,0,1,1-4.06,4.06A4.06,4.06,0,0,1,201.38,491.19Z"/><path class="cls-1" d="M189,497.18a4.06,4.06,0,1,1-4.05,4.06A4.06,4.06,0,0,1,189,497.18Z"/><path class="cls-1" d="M350.66,407.56a4.06,4.06,0,1,1-4.05,4.05A4.05,4.05,0,0,1,350.66,407.56Z"/><path class="cls-1" d="M338.4,413.55a4.06,4.06,0,1,1-4.06,4.06A4.06,4.06,0,0,1,338.4,413.55Z"/><path class="cls-1" d="M326.14,419.54a4.06,4.06,0,1,1-4.06,4.06A4.05,4.05,0,0,1,326.14,419.54Z"/><circle class="cls-1" cx="313.87" cy="429.59" r="4.06"/><path class="cls-1" d="M301.52,431.53a4.06,4.06,0,1,1-4.06,4.06A4.05,4.05,0,0,1,301.52,431.53Z"/><path class="cls-1" d="M289.25,437.52a4.06,4.06,0,1,1-4.05,4.06A4.06,4.06,0,0,1,289.25,437.52Z"/><circle class="cls-1" cx="276.99" cy="447.57" r="4.06"/><path class="cls-1" d="M264.73,449.51a4.06,4.06,0,1,1-4.06,4.06A4.05,4.05,0,0,1,264.73,449.51Z"/><path class="cls-1" d="M252.37,455.5a4.06,4.06,0,1,1-4.06,4.06A4.06,4.06,0,0,1,252.37,455.5Z"/><circle class="cls-1" cx="240.11" cy="465.55" r="4.06"/><path class="cls-1" d="M227.84,467.49a4.06,4.06,0,1,1-4.05,4.06A4.06,4.06,0,0,1,227.84,467.49Z"/><path class="cls-1" d="M215.49,473.48a4.06,4.06,0,1,1-4.06,4.06A4.06,4.06,0,0,1,215.49,473.48Z"/><circle class="cls-1" cx="203.22" cy="483.53" r="4.06"/><path class="cls-1" d="M191,485.47a4.06,4.06,0,1,1-4.06,4.06A4.06,4.06,0,0,1,191,485.47Z"/><path class="cls-1" d="M352.6,395.85a4.06,4.06,0,1,1-4.06,4A4.05,4.05,0,0,1,352.6,395.85Z"/><path class="cls-1" d="M340.34,401.84a4.06,4.06,0,1,1-4.06,4.06A4.05,4.05,0,0,1,340.34,401.84Z"/><path class="cls-1" d="M328,407.83a4.06,4.06,0,1,1-4.06,4.06A4.06,4.06,0,0,1,328,407.83Z"/><path class="cls-1" d="M315.72,413.83a4.06,4.06,0,1,1-4.06,4.05A4.05,4.05,0,0,1,315.72,413.83Z"/><path class="cls-1" d="M303.45,419.82a4.06,4.06,0,1,1-4.05,4.06A4.06,4.06,0,0,1,303.45,419.82Z"/><path class="cls-1" d="M291.19,425.81a4.06,4.06,0,1,1-4.06,4.06A4.06,4.06,0,0,1,291.19,425.81Z"/><path class="cls-1" d="M278.83,431.81a4.06,4.06,0,1,1-4.05,4.05A4.05,4.05,0,0,1,278.83,431.81Z"/><path class="cls-1" d="M266.57,437.8a4.06,4.06,0,1,1-4.06,4.06A4.06,4.06,0,0,1,266.57,437.8Z"/><path class="cls-1" d="M254.31,443.79a4.06,4.06,0,1,1-4.06,4.06A4.05,4.05,0,0,1,254.31,443.79Z"/><path class="cls-1" d="M242,449.79a4.06,4.06,0,1,1-4.06,4A4.05,4.05,0,0,1,242,449.79Z"/><path class="cls-1" d="M229.69,455.78a4.06,4.06,0,1,1-4.06,4.06A4.05,4.05,0,0,1,229.69,455.78Z"/><path class="cls-1" d="M217.42,461.77a4.06,4.06,0,1,1-4,4.06A4.06,4.06,0,0,1,217.42,461.77Z"/><path class="cls-1" d="M205.16,467.77a4.06,4.06,0,1,1-4.06,4.05A4.05,4.05,0,0,1,205.16,467.77Z"/><path class="cls-1" d="M192.81,473.76a4.06,4.06,0,1,1-4.06,4.06A4.05,4.05,0,0,1,192.81,473.76Z"/><path class="cls-1" d="M180.54,479.75a4.06,4.06,0,1,1-4.06,4.06A4.06,4.06,0,0,1,180.54,479.75Z"/><path class="cls-1" d="M354.44,384.14a4.06,4.06,0,1,1-4.05,4.05A4.05,4.05,0,0,1,354.44,384.14Z"/><path class="cls-1" d="M342.18,390.13a4.06,4.06,0,1,1-4.06,4.06A4.06,4.06,0,0,1,342.18,390.13Z"/><path class="cls-1" d="M329.92,396.12a4.06,4.06,0,1,1-4.06,4.06A4.05,4.05,0,0,1,329.92,396.12Z"/><path class="cls-1" d="M317.65,402.12a4.06,4.06,0,1,1-4,4.05A4.05,4.05,0,0,1,317.65,402.12Z"/><path class="cls-1" d="M305.3,408.11a4.06,4.06,0,1,1-4.06,4.06A4.05,4.05,0,0,1,305.3,408.11Z"/><path class="cls-1" d="M293,414.1a4.06,4.06,0,1,1-4,4.06A4.06,4.06,0,0,1,293,414.1Z"/><path class="cls-1" d="M280.77,420.1a4.06,4.06,0,1,1-4.06,4A4.05,4.05,0,0,1,280.77,420.1Z"/><path class="cls-1" d="M268.51,426.09a4.06,4.06,0,1,1-4.06,4.06A4.05,4.05,0,0,1,268.51,426.09Z"/><path class="cls-1" d="M256.15,432.08a4.06,4.06,0,1,1-4.06,4.06A4.06,4.06,0,0,1,256.15,432.08Z"/><path class="cls-1" d="M243.89,438.08a4.06,4.06,0,1,1-4.06,4.05A4.05,4.05,0,0,1,243.89,438.08Z"/><path class="cls-1" d="M231.62,444.07a4.06,4.06,0,1,1-4.05,4.06A4.06,4.06,0,0,1,231.62,444.07Z"/><path class="cls-1" d="M219.27,450.06a4.06,4.06,0,1,1-4.06,4.06A4.06,4.06,0,0,1,219.27,450.06Z"/><path class="cls-1" d="M207,456.06a4.06,4.06,0,1,1-4.05,4.05A4,4,0,0,1,207,456.06Z"/><path class="cls-1" d="M194.74,462.05a4.06,4.06,0,1,1-4.06,4.06A4.06,4.06,0,0,1,194.74,462.05Z"/><path class="cls-1" d="M182.48,468a4.06,4.06,0,1,1-4.06,4.06A4.06,4.06,0,0,1,182.48,468Z"/><path class="cls-1" d="M344.12,378.42a4.06,4.06,0,1,1-4.06,4.06A4,4,0,0,1,344.12,378.42Z"/><path class="cls-1" d="M331.76,384.41a4.06,4.06,0,1,1-4.06,4.06A4.06,4.06,0,0,1,331.76,384.41Z"/><path class="cls-1" d="M319.5,390.41a4.06,4.06,0,1,1-4.06,4A4.05,4.05,0,0,1,319.5,390.41Z"/><path class="cls-1" d="M307.23,396.4a4.06,4.06,0,1,1-4.05,4.06A4.06,4.06,0,0,1,307.23,396.4Z"/><path class="cls-1" d="M295,402.39a4.06,4.06,0,1,1-4.06,4.06A4.06,4.06,0,0,1,295,402.39Z"/><path class="cls-1" d="M282.61,408.39a4.06,4.06,0,1,1-4.05,4.05A4,4,0,0,1,282.61,408.39Z"/><path class="cls-1" d="M270.35,414.38a4.06,4.06,0,1,1-4.06,4.06A4.06,4.06,0,0,1,270.35,414.38Z"/><path class="cls-1" d="M258.09,420.37a4.06,4.06,0,1,1-4.06,4.06A4.06,4.06,0,0,1,258.09,420.37Z"/><path class="cls-1" d="M245.73,426.37a4.06,4.06,0,1,1-4,4.05A4.05,4.05,0,0,1,245.73,426.37Z"/><path class="cls-1" d="M233.47,432.36a4.06,4.06,0,1,1-4.06,4.06A4.06,4.06,0,0,1,233.47,432.36Z"/><path class="cls-1" d="M221.21,438.35a4.06,4.06,0,1,1-4.06,4.06A4.05,4.05,0,0,1,221.21,438.35Z"/><path class="cls-1" d="M208.94,444.35a4.06,4.06,0,1,1-4.06,4A4.05,4.05,0,0,1,208.94,444.35Z"/><path class="cls-1" d="M196.59,450.34a4.06,4.06,0,1,1-4.06,4.06A4.05,4.05,0,0,1,196.59,450.34Z"/><path class="cls-1" d="M184.32,456.33a4.06,4.06,0,1,1-4.06,4.06A4.06,4.06,0,0,1,184.32,456.33Z"/><path class="cls-1" d="M172.06,462.33a4.06,4.06,0,1,1-4.06,4.05A4.05,4.05,0,0,1,172.06,462.33Z"/><path class="cls-1" d="M346,366.62a4.06,4.06,0,1,1-4.06,4.05A4.05,4.05,0,0,1,346,366.62Z"/><path class="cls-1" d="M333.7,372.61a4.06,4.06,0,1,1-4.06,4.06A4.06,4.06,0,0,1,333.7,372.61Z"/><path class="cls-1" d="M321.43,378.6a4.06,4.06,0,1,1-4.05,4.06A4.06,4.06,0,0,1,321.43,378.6Z"/><path class="cls-1" d="M309.08,384.6a4.06,4.06,0,1,1-4.06,4A4.05,4.05,0,0,1,309.08,384.6Z"/><path class="cls-1" d="M296.82,390.59a4.06,4.06,0,1,1-4.06,4.06A4.05,4.05,0,0,1,296.82,390.59Z"/><path class="cls-1" d="M284.55,396.58a4.06,4.06,0,1,1-4.06,4.06A4.06,4.06,0,0,1,284.55,396.58Z"/><path class="cls-1" d="M272.29,402.58a4.06,4.06,0,1,1-4.06,4.05A4,4,0,0,1,272.29,402.58Z"/><path class="cls-1" d="M259.93,408.57a4.06,4.06,0,1,1-4.06,4.06A4.06,4.06,0,0,1,259.93,408.57Z"/><path class="cls-1" d="M247.67,414.56a4.06,4.06,0,1,1-4.06,4.06A4.06,4.06,0,0,1,247.67,414.56Z"/><path class="cls-1" d="M235.41,420.56a4.06,4.06,0,1,1-4.06,4.05A4,4,0,0,1,235.41,420.56Z"/><path class="cls-1" d="M223.05,426.55a4.06,4.06,0,1,1-4.06,4.06A4.06,4.06,0,0,1,223.05,426.55Z"/><path class="cls-1" d="M210.79,432.54a4.06,4.06,0,1,1-4.06,4.06A4.05,4.05,0,0,1,210.79,432.54Z"/><path class="cls-1" d="M198.52,438.54a4.06,4.06,0,1,1-4.06,4A4.05,4.05,0,0,1,198.52,438.54Z"/><path class="cls-1" d="M186.26,444.62a4.06,4.06,0,1,1-4.06,4.06A4.06,4.06,0,0,1,186.26,444.62Z"/><path class="cls-1" d="M173.9,450.62a4.06,4.06,0,1,1-4.05,4.05A4.05,4.05,0,0,1,173.9,450.62Z"/><path class="cls-1" d="M161.64,456.61a4.06,4.06,0,1,1-4.06,4.06A4.06,4.06,0,0,1,161.64,456.61Z"/><path class="cls-1" d="M347.9,354.91a4.06,4.06,0,1,1-4.06,4A4,4,0,0,1,347.9,354.91Z"/><path class="cls-1" d="M323.28,366.89a4.06,4.06,0,1,1-4.06,4.06A4.06,4.06,0,0,1,323.28,366.89Z"/><path class="cls-1" d="M311,372.89a4.06,4.06,0,1,1-4.06,4.05A4,4,0,0,1,311,372.89Z"/><path class="cls-1" d="M298.75,378.88a4.06,4.06,0,1,1-4.06,4.06A4.06,4.06,0,0,1,298.75,378.88Z"/><path class="cls-1" d="M286.4,384.87a4.06,4.06,0,1,1-4.06,4.06A4.05,4.05,0,0,1,286.4,384.87Z"/><path class="cls-1" d="M274.13,390.87a4.06,4.06,0,1,1-4.06,4.05A4.05,4.05,0,0,1,274.13,390.87Z"/><path class="cls-1" d="M261.87,396.86a4.06,4.06,0,1,1-4.06,4.06A4.06,4.06,0,0,1,261.87,396.86Z"/><path class="cls-1" d="M249.51,402.85a4.06,4.06,0,1,1-4,4.06A4.06,4.06,0,0,1,249.51,402.85Z"/><path class="cls-1" d="M237.25,408.85a4.06,4.06,0,1,1-4.06,4A4.05,4.05,0,0,1,237.25,408.85Z"/><path class="cls-1" d="M225,414.84a4.06,4.06,0,1,1-4.06,4.06A4.05,4.05,0,0,1,225,414.84Z"/><path class="cls-1" d="M212.72,420.83a4.06,4.06,0,1,1-4.05,4.06A4.06,4.06,0,0,1,212.72,420.83Z"/><path class="cls-1" d="M200.37,426.83a4.06,4.06,0,1,1-4.06,4.05A4,4,0,0,1,200.37,426.83Z"/><path class="cls-1" d="M188.1,432.82a4.06,4.06,0,1,1-4,4.06A4.06,4.06,0,0,1,188.1,432.82Z"/><path class="cls-1" d="M175.84,438.81a4.06,4.06,0,1,1-4.06,4.06A4.06,4.06,0,0,1,175.84,438.81Z"/><path class="cls-1" d="M163.48,444.81a4.06,4.06,0,1,1-4,4.06A4.06,4.06,0,0,1,163.48,444.81Z"/><path class="cls-1" d="M300.6,367.17a4.06,4.06,0,1,1-4.06,4.06A4.05,4.05,0,0,1,300.6,367.17Z"/><path class="cls-1" d="M288.33,373.16a4.06,4.06,0,1,1-4.05,4.06A4.06,4.06,0,0,1,288.33,373.16Z"/><path class="cls-1" d="M276.07,379.16a4.06,4.06,0,1,1-4.06,4A4.05,4.05,0,0,1,276.07,379.16Z"/><path class="cls-1" d="M263.71,385.15a4.06,4.06,0,1,1-4,4.06A4.06,4.06,0,0,1,263.71,385.15Z"/><path class="cls-1" d="M251.45,391.14a4.06,4.06,0,1,1-4.06,4.06A4.06,4.06,0,0,1,251.45,391.14Z"/><path class="cls-1" d="M239.19,397.14a4.06,4.06,0,1,1-4.06,4.05A4,4,0,0,1,239.19,397.14Z"/><path class="cls-1" d="M226.83,403.13a4.06,4.06,0,1,1-4.06,4.06A4.06,4.06,0,0,1,226.83,403.13Z"/><path class="cls-1" d="M214.57,409.12a4.06,4.06,0,1,1-4.06,4.06A4.05,4.05,0,0,1,214.57,409.12Z"/><path class="cls-1" d="M202.3,415.12a4.06,4.06,0,1,1-4.05,4.05A4.05,4.05,0,0,1,202.3,415.12Z"/><path class="cls-1" d="M190,421.11a4.06,4.06,0,1,1-4.06,4.06A4.06,4.06,0,0,1,190,421.11Z"/><path class="cls-1" d="M177.68,427.1a4.06,4.06,0,1,1-4.05,4.06A4.06,4.06,0,0,1,177.68,427.1Z"/><path class="cls-1" d="M165.42,433.1a4.06,4.06,0,1,1-4.06,4A4.05,4.05,0,0,1,165.42,433.1Z"/><path class="cls-1" d="M153.16,439.09a4.06,4.06,0,1,1-4.06,4.06A4.05,4.05,0,0,1,153.16,439.09Z"/><path class="cls-1" d="M290.18,361.45a4.06,4.06,0,1,1-4.06,4.06A4.05,4.05,0,0,1,290.18,361.45Z"/><path class="cls-1" d="M277.91,367.45a4.06,4.06,0,1,1-4.05,4.05A4.05,4.05,0,0,1,277.91,367.45Z"/><path class="cls-1" d="M265.65,373.44a4.06,4.06,0,1,1-4.06,4.06A4.06,4.06,0,0,1,265.65,373.44Z"/><path class="cls-1" d="M253.29,379.43a4.06,4.06,0,1,1-4,4.06A4.06,4.06,0,0,1,253.29,379.43Z"/><path class="cls-1" d="M241,385.43a4.06,4.06,0,1,1-4.06,4.05A4.05,4.05,0,0,1,241,385.43Z"/><path class="cls-1" d="M228.77,391.42a4.06,4.06,0,1,1-4.06,4.06A4.05,4.05,0,0,1,228.77,391.42Z"/><path class="cls-1" d="M216.5,397.41a4.06,4.06,0,1,1-4.05,4.06A4.06,4.06,0,0,1,216.5,397.41Z"/><path class="cls-1" d="M204.15,403.41a4.06,4.06,0,1,1-4.06,4A4,4,0,0,1,204.15,403.41Z"/><path class="cls-1" d="M191.88,409.4a4.06,4.06,0,1,1-4,4.06A4.06,4.06,0,0,1,191.88,409.4Z"/><path class="cls-1" d="M179.62,415.39a4.06,4.06,0,1,1-4.06,4.06A4.06,4.06,0,0,1,179.62,415.39Z"/><path class="cls-1" d="M167.26,421.39a4.06,4.06,0,1,1-4,4.05A4.05,4.05,0,0,1,167.26,421.39Z"/><path class="cls-1" d="M155,427.38a4.06,4.06,0,1,1-4.06,4.06A4.06,4.06,0,0,1,155,427.38Z"/><path class="cls-1" d="M292.11,349.74a4.06,4.06,0,1,1-4.05,4.06A4.06,4.06,0,0,1,292.11,349.74Z"/><path class="cls-1" d="M279.76,355.74a4.06,4.06,0,1,1-4.06,4.05A4,4,0,0,1,279.76,355.74Z"/><path class="cls-1" d="M267.49,361.73a4.06,4.06,0,1,1-4.05,4.06A4.06,4.06,0,0,1,267.49,361.73Z"/><path class="cls-1" d="M255.23,367.72a4.06,4.06,0,1,1-4.06,4.06A4.06,4.06,0,0,1,255.23,367.72Z"/><path class="cls-1" d="M243,373.72a4.06,4.06,0,1,1-4.06,4A4,4,0,0,1,243,373.72Z"/><path class="cls-1" d="M230.61,379.71a4.06,4.06,0,1,1-4.06,4.06A4.06,4.06,0,0,1,230.61,379.71Z"/><path class="cls-1" d="M218.35,385.7a4.06,4.06,0,1,1-4.06,4.06A4.05,4.05,0,0,1,218.35,385.7Z"/><path class="cls-1" d="M206.08,391.7a4.06,4.06,0,1,1-4.05,4.05A4.05,4.05,0,0,1,206.08,391.7Z"/><path class="cls-1" d="M193.82,397.69a4.06,4.06,0,1,1-4.06,4.06A4.06,4.06,0,0,1,193.82,397.69Z"/><path class="cls-1" d="M181.46,403.68a4.06,4.06,0,1,1-4.05,4.06A4.06,4.06,0,0,1,181.46,403.68Z"/><path class="cls-1" d="M169.2,409.68a4.06,4.06,0,1,1-4.06,4.05A4.05,4.05,0,0,1,169.2,409.68Z"/><path class="cls-1" d="M156.94,415.67a4.06,4.06,0,1,1-4.06,4.06A4.05,4.05,0,0,1,156.94,415.67Z"/><path class="cls-1" d="M144.58,421.66a4.06,4.06,0,1,1-4.06,4.06A4.06,4.06,0,0,1,144.58,421.66Z"/><path class="cls-1" d="M281.69,344a4.06,4.06,0,1,1-4.05,4.05A4.05,4.05,0,0,1,281.69,344Z"/><path class="cls-1" d="M269.43,350a4.06,4.06,0,1,1-4.06,4.06A4.06,4.06,0,0,1,269.43,350Z"/><path class="cls-1" d="M257.07,356a4.06,4.06,0,1,1-4,4.06A4.06,4.06,0,0,1,257.07,356Z"/><path class="cls-1" d="M244.81,362a4.06,4.06,0,1,1-4.06,4.05A4.05,4.05,0,0,1,244.81,362Z"/><path class="cls-1" d="M232.55,368a4.06,4.06,0,1,1-4.06,4.06A4.05,4.05,0,0,1,232.55,368Z"/><path class="cls-1" d="M220.28,374a4.06,4.06,0,1,1-4.05,4.06A4.06,4.06,0,0,1,220.28,374Z"/><path class="cls-1" d="M207.93,380a4.06,4.06,0,1,1-4.06,4.05A4,4,0,0,1,207.93,380Z"/><path class="cls-1" d="M195.66,386a4.06,4.06,0,1,1-4,4.06A4.06,4.06,0,0,1,195.66,386Z"/><path class="cls-1" d="M183.4,392a4.06,4.06,0,1,1-4.06,4.06A4.06,4.06,0,0,1,183.4,392Z"/><path class="cls-1" d="M171,398a4.06,4.06,0,1,1-4,4A4,4,0,0,1,171,398Z"/><path class="cls-1" d="M158.78,404a4.06,4.06,0,1,1-4.06,4.06A4.06,4.06,0,0,1,158.78,404Z"/><path class="cls-1" d="M146.52,410a4.06,4.06,0,1,1-4.06,4.06A4.05,4.05,0,0,1,146.52,410Z"/><path class="cls-1" d="M271.27,338.31a4.06,4.06,0,1,1-4,4.06A4.06,4.06,0,0,1,271.27,338.31Z"/><path class="cls-1" d="M259,344.3a4.06,4.06,0,1,1-4.06,4.06A4.06,4.06,0,0,1,259,344.3Z"/><path class="cls-1" d="M246.75,350.3a4.06,4.06,0,1,1-4.06,4.05A4,4,0,0,1,246.75,350.3Z"/><path class="cls-1" d="M234.39,356.29a4.06,4.06,0,1,1-4.06,4.06A4.06,4.06,0,0,1,234.39,356.29Z"/><path class="cls-1" d="M222.13,362.28a4.06,4.06,0,1,1-4.06,4.06A4.05,4.05,0,0,1,222.13,362.28Z"/><path class="cls-1" d="M209.86,368.28a4.06,4.06,0,1,1-4.05,4.05A4.05,4.05,0,0,1,209.86,368.28Z"/><path class="cls-1" d="M197.6,374.27a4.06,4.06,0,1,1-4.06,4.06A4.06,4.06,0,0,1,197.6,374.27Z"/><path class="cls-1" d="M185.24,380.26a4.06,4.06,0,1,1-4.05,4.06A4.06,4.06,0,0,1,185.24,380.26Z"/><path class="cls-1" d="M173,386.26a4.06,4.06,0,1,1-4.06,4.05A4.05,4.05,0,0,1,173,386.26Z"/><path class="cls-1" d="M160.72,392.25a4.06,4.06,0,1,1-4.06,4.06A4.05,4.05,0,0,1,160.72,392.25Z"/><path class="cls-1" d="M148.36,398.24a4.06,4.06,0,1,1-4.06,4.06A4.06,4.06,0,0,1,148.36,398.24Z"/><path class="cls-1" d="M136.1,404.24a4.06,4.06,0,1,1-4.06,4.05A4,4,0,0,1,136.1,404.24Z"/><path class="cls-1" d="M273.21,326.6a4.06,4.06,0,1,1-4.06,4.06A4.06,4.06,0,0,1,273.21,326.6Z"/><path class="cls-1" d="M260.85,332.59a4.06,4.06,0,1,1-4.05,4.06A4.06,4.06,0,0,1,260.85,332.59Z"/><path class="cls-1" d="M248.59,338.58a4.06,4.06,0,1,1-4.06,4.06A4.06,4.06,0,0,1,248.59,338.58Z"/><path class="cls-1" d="M236.33,344.58a4.06,4.06,0,1,1-4.06,4.06A4,4,0,0,1,236.33,344.58Z"/><path class="cls-1" d="M224.06,350.57a4.06,4.06,0,1,1-4.05,4.06A4.06,4.06,0,0,1,224.06,350.57Z"/><path class="cls-1" d="M211.71,356.57a4.06,4.06,0,1,1-4.06,4.05A4,4,0,0,1,211.71,356.57Z"/><path class="cls-1" d="M199.44,362.56a4.06,4.06,0,1,1-4.05,4.06A4.06,4.06,0,0,1,199.44,362.56Z"/><path class="cls-1" d="M187.18,368.55a4.06,4.06,0,1,1-4.06,4.06A4.06,4.06,0,0,1,187.18,368.55Z"/><path class="cls-1" d="M174.83,374.55a4.06,4.06,0,1,1-4.06,4.05A4,4,0,0,1,174.83,374.55Z"/><path class="cls-1" d="M162.56,380.54a4.06,4.06,0,1,1-4.06,4.06A4.06,4.06,0,0,1,162.56,380.54Z"/><path class="cls-1" d="M150.3,386.53a4.06,4.06,0,1,1-4.06,4.06A4.05,4.05,0,0,1,150.3,386.53Z"/><path class="cls-1" d="M138,392.53a4.06,4.06,0,1,1-4.05,4.05A4,4,0,0,1,138,392.53Z"/><path class="cls-1" d="M262.79,320.88a4.06,4.06,0,1,1-4.06,4.06A4.06,4.06,0,0,1,262.79,320.88Z"/><path class="cls-1" d="M250.53,326.87a4.06,4.06,0,1,1-4.06,4.06A4.05,4.05,0,0,1,250.53,326.87Z"/><path class="cls-1" d="M238.17,332.87a4.06,4.06,0,1,1-4.06,4.06A4.06,4.06,0,0,1,238.17,332.87Z"/><path class="cls-1" d="M225.91,338.86a4.06,4.06,0,1,1-4.06,4.06A4.05,4.05,0,0,1,225.91,338.86Z"/><path class="cls-1" d="M213.64,344.85a4.06,4.06,0,1,1-4,4.06A4.06,4.06,0,0,1,213.64,344.85Z"/><path class="cls-1" d="M201.38,350.85a4.06,4.06,0,1,1-4.06,4.06A4.06,4.06,0,0,1,201.38,350.85Z"/><path class="cls-1" d="M189,356.84A4.06,4.06,0,1,1,185,360.9,4.06,4.06,0,0,1,189,356.84Z"/><path class="cls-1" d="M176.76,362.84a4.06,4.06,0,1,1-4.06,4.05A4.05,4.05,0,0,1,176.76,362.84Z"/><path class="cls-1" d="M164.5,368.83a4.06,4.06,0,1,1-4.06,4.06A4.06,4.06,0,0,1,164.5,368.83Z"/><path class="cls-1" d="M152.14,374.82a4.06,4.06,0,1,1-4.06,4.06A4.06,4.06,0,0,1,152.14,374.82Z"/><path class="cls-1" d="M139.88,380.82a4.06,4.06,0,1,1-4.06,4.05A4.05,4.05,0,0,1,139.88,380.82Z"/><path class="cls-1" d="M127.61,386.81a4.06,4.06,0,1,1-4,4.06A4.06,4.06,0,0,1,127.61,386.81Z"/><path class="cls-1" d="M252.37,315.07a4.06,4.06,0,1,1-4.06,4.06A4.06,4.06,0,0,1,252.37,315.07Z"/><path class="cls-1" d="M240.11,321.07a4.06,4.06,0,1,1-4.06,4.05A4.05,4.05,0,0,1,240.11,321.07Z"/><path class="cls-1" d="M227.84,327.06a4.06,4.06,0,1,1-4.05,4.06A4.06,4.06,0,0,1,227.84,327.06Z"/><path class="cls-1" d="M215.49,333.05a4.06,4.06,0,1,1-4.06,4.06A4.06,4.06,0,0,1,215.49,333.05Z"/><path class="cls-1" d="M203.22,339.05a4.06,4.06,0,1,1-4.05,4.05A4,4,0,0,1,203.22,339.05Z"/><path class="cls-1" d="M191,345a4.06,4.06,0,1,1-4.06,4.06A4.06,4.06,0,0,1,191,345Z"/><path class="cls-1" d="M178.61,351a4.06,4.06,0,1,1-4.06,4.06A4.05,4.05,0,0,1,178.61,351Z"/><path class="cls-1" d="M166.34,357.12a4.06,4.06,0,1,1-4.06,4.06A4.06,4.06,0,0,1,166.34,357.12Z"/><path class="cls-1" d="M154.08,363.11a4.06,4.06,0,1,1-4.06,4.06A4.06,4.06,0,0,1,154.08,363.11Z"/><path class="cls-1" d="M141.82,369.11a4.06,4.06,0,1,1-4.06,4.05A4,4,0,0,1,141.82,369.11Z"/><path class="cls-1" d="M129.46,375.1a4.06,4.06,0,1,1-4.06,4.06A4.06,4.06,0,0,1,129.46,375.1Z"/><path class="cls-1" d="M117.2,381.09a4.06,4.06,0,1,1-4.06,4.06A4.05,4.05,0,0,1,117.2,381.09Z"/><path class="cls-1" d="M254.31,303.36a4.06,4.06,0,1,1-4.06,4.06A4.05,4.05,0,0,1,254.31,303.36Z"/><path class="cls-1" d="M242,309.35a4.06,4.06,0,1,1-4.06,4.06A4.06,4.06,0,0,1,242,309.35Z"/><path class="cls-1" d="M229.69,315.35a4.06,4.06,0,1,1-4.06,4.06A4.05,4.05,0,0,1,229.69,315.35Z"/><path class="cls-1" d="M217.42,321.34a4.06,4.06,0,1,1-4,4.06A4.06,4.06,0,0,1,217.42,321.34Z"/><path class="cls-1" d="M205.16,327.34a4.06,4.06,0,1,1-4.06,4.05A4.05,4.05,0,0,1,205.16,327.34Z"/><path class="cls-1" d="M192.81,333.33a4.06,4.06,0,1,1-4.06,4.06A4.05,4.05,0,0,1,192.81,333.33Z"/><path class="cls-1" d="M180.54,339.32a4.06,4.06,0,1,1-4.06,4.06A4.06,4.06,0,0,1,180.54,339.32Z"/><path class="cls-1" d="M168.28,345.32a4.06,4.06,0,1,1-4.06,4.05A4.05,4.05,0,0,1,168.28,345.32Z"/><path class="cls-1" d="M155.92,351.31a4.06,4.06,0,1,1-4,4.06A4.06,4.06,0,0,1,155.92,351.31Z"/><path class="cls-1" d="M143.66,357.3a4.06,4.06,0,1,1-4.06,4.06A4.06,4.06,0,0,1,143.66,357.3Z"/><circle class="cls-1" cx="131.4" cy="367.35" r="4.06"/><path class="cls-1" d="M119.13,369.29a4.06,4.06,0,1,1-4.06,4.06A4.06,4.06,0,0,1,119.13,369.29Z"/><path class="cls-1" d="M243.89,297.65a4.06,4.06,0,1,1-4.06,4.05A4.05,4.05,0,0,1,243.89,297.65Z"/><path class="cls-1" d="M231.62,303.64a4.06,4.06,0,1,1-4.05,4.06A4.05,4.05,0,0,1,231.62,303.64Z"/><path class="cls-1" d="M219.27,309.63a4.06,4.06,0,1,1-4.06,4.06A4.06,4.06,0,0,1,219.27,309.63Z"/><path class="cls-1" d="M207,315.63a4.06,4.06,0,1,1-4.05,4.05A4,4,0,0,1,207,315.63Z"/><path class="cls-1" d="M194.74,321.62a4.06,4.06,0,1,1-4.06,4.06A4.06,4.06,0,0,1,194.74,321.62Z"/><path class="cls-1" d="M182.39,327.61a4.06,4.06,0,1,1-4.06,4.06A4.05,4.05,0,0,1,182.39,327.61Z"/><path class="cls-1" d="M170.12,333.61a4.06,4.06,0,1,1-4.05,4.05A4.05,4.05,0,0,1,170.12,333.61Z"/><path class="cls-1" d="M157.86,339.6a4.06,4.06,0,1,1-4.06,4.06A4.06,4.06,0,0,1,157.86,339.6Z"/><path class="cls-1" d="M145.6,345.59a4.06,4.06,0,1,1-4.06,4.06A4.05,4.05,0,0,1,145.6,345.59Z"/><path class="cls-1" d="M133.24,351.59a4.06,4.06,0,1,1-4.06,4.05A4.05,4.05,0,0,1,133.24,351.59Z"/><path class="cls-1" d="M121,357.58a4.06,4.06,0,1,1-4.06,4.06A4.05,4.05,0,0,1,121,357.58Z"/><path class="cls-1" d="M108.71,363.57a4.06,4.06,0,1,1-4,4.06A4.06,4.06,0,0,1,108.71,363.57Z"/><path class="cls-1" d="M245.73,285.93a4.06,4.06,0,1,1-4,4.06A4.06,4.06,0,0,1,245.73,285.93Z"/><path class="cls-1" d="M233.47,291.93a4.06,4.06,0,1,1-4.06,4.05A4.05,4.05,0,0,1,233.47,291.93Z"/><path class="cls-1" d="M221.21,297.92a4.06,4.06,0,1,1-4.06,4.06A4.05,4.05,0,0,1,221.21,297.92Z"/><path class="cls-1" d="M208.85,303.92a4.06,4.06,0,1,1-4.06,4.05A4.05,4.05,0,0,1,208.85,303.92Z"/><path class="cls-1" d="M196.59,309.91a4.06,4.06,0,1,1-4.06,4.06A4,4,0,0,1,196.59,309.91Z"/><path class="cls-1" d="M184.32,315.9a4.06,4.06,0,1,1-4.06,4.06A4.06,4.06,0,0,1,184.32,315.9Z"/><path class="cls-1" d="M172.06,321.9A4.06,4.06,0,1,1,168,326,4.05,4.05,0,0,1,172.06,321.9Z"/><path class="cls-1" d="M159.7,327.89a4.06,4.06,0,1,1-4,4.06A4.06,4.06,0,0,1,159.7,327.89Z"/><path class="cls-1" d="M147.44,333.88a4.06,4.06,0,1,1-4.06,4.06A4.06,4.06,0,0,1,147.44,333.88Z"/><path class="cls-1" d="M135.18,339.88a4.06,4.06,0,1,1-4.06,4.05A4,4,0,0,1,135.18,339.88Z"/><path class="cls-1" d="M122.91,345.87a4.06,4.06,0,1,1-4,4.06A4.06,4.06,0,0,1,122.91,345.87Z"/><path class="cls-1" d="M110.56,351.86a4.06,4.06,0,1,1-4.06,4.06A4.05,4.05,0,0,1,110.56,351.86Z"/><path class="cls-1" d="M235.41,280.22a4.06,4.06,0,1,1-4.06,4.06A4,4,0,0,1,235.41,280.22Z"/><path class="cls-1" d="M223.05,286.21a4.06,4.06,0,1,1-4.06,4.06A4.06,4.06,0,0,1,223.05,286.21Z"/><path class="cls-1" d="M210.79,292.2a4.06,4.06,0,1,1-4.06,4.06A4.05,4.05,0,0,1,210.79,292.2Z"/><path class="cls-1" d="M198.52,298.2a4.06,4.06,0,1,1-4.06,4.06A4.06,4.06,0,0,1,198.52,298.2Z"/><path class="cls-1" d="M186.17,304.19a4.06,4.06,0,1,1-4.06,4.06A4.05,4.05,0,0,1,186.17,304.19Z"/><path class="cls-1" d="M173.9,310.19a4.06,4.06,0,1,1-4.05,4.05A4.05,4.05,0,0,1,173.9,310.19Z"/><path class="cls-1" d="M161.64,316.18a4.06,4.06,0,1,1-4.06,4.06A4.06,4.06,0,0,1,161.64,316.18Z"/><path class="cls-1" d="M149.38,322.17a4.06,4.06,0,1,1-4.06,4.06A4.05,4.05,0,0,1,149.38,322.17Z"/><path class="cls-1" d="M137,328.17a4.06,4.06,0,1,1-4.06,4.05A4.05,4.05,0,0,1,137,328.17Z"/><path class="cls-1" d="M124.76,334.16a4.06,4.06,0,1,1-4.06,4.06A4.05,4.05,0,0,1,124.76,334.16Z"/><path class="cls-1" d="M112.49,340.15a4.06,4.06,0,1,1-4,4.06A4.06,4.06,0,0,1,112.49,340.15Z"/><path class="cls-1" d="M237.25,268.51a4.06,4.06,0,1,1-4.06,4.05A4.05,4.05,0,0,1,237.25,268.51Z"/><path class="cls-1" d="M225,274.5a4.06,4.06,0,1,1-4.06,4.06A4.05,4.05,0,0,1,225,274.5Z"/><path class="cls-1" d="M212.63,280.49a4.06,4.06,0,1,1-4.06,4.06A4.06,4.06,0,0,1,212.63,280.49Z"/><path class="cls-1" d="M200.37,286.49a4.06,4.06,0,1,1-4.06,4.06A4,4,0,0,1,200.37,286.49Z"/><path class="cls-1" d="M188.1,292.48a4.06,4.06,0,1,1-4,4.06A4.06,4.06,0,0,1,188.1,292.48Z"/><path class="cls-1" d="M175.84,298.47a4.06,4.06,0,1,1-4.06,4.06A4.06,4.06,0,0,1,175.84,298.47Z"/><path class="cls-1" d="M163.48,304.47a4.06,4.06,0,1,1-4,4.06A4.06,4.06,0,0,1,163.48,304.47Z"/><path class="cls-1" d="M151.22,310.46a4.06,4.06,0,1,1-4.06,4.06A4.06,4.06,0,0,1,151.22,310.46Z"/><path class="cls-1" d="M139,316.46a4.06,4.06,0,1,1-4.06,4.05A4,4,0,0,1,139,316.46Z"/><path class="cls-1" d="M126.69,322.45a4.06,4.06,0,1,1-4,4.06A4.06,4.06,0,0,1,126.69,322.45Z"/><path class="cls-1" d="M114.34,328.44a4.06,4.06,0,1,1-4.06,4.06A4.05,4.05,0,0,1,114.34,328.44Z"/><path class="cls-1" d="M102.07,334.44a4.06,4.06,0,1,1-4,4.05A4.05,4.05,0,0,1,102.07,334.44Z"/><circle class="cls-1" cx="239.19" cy="260.85" r="4.06"/><path class="cls-1" d="M226.83,262.79a4.06,4.06,0,1,1-4.06,4.06A4.06,4.06,0,0,1,226.83,262.79Z"/><path class="cls-1" d="M214.57,268.78a4.06,4.06,0,1,1-4.06,4.06A4.05,4.05,0,0,1,214.57,268.78Z"/><circle class="cls-1" cx="202.3" cy="278.83" r="4.06"/><path class="cls-1" d="M190,280.77a4.06,4.06,0,1,1-4.06,4.06A4.05,4.05,0,0,1,190,280.77Z"/><path class="cls-1" d="M177.68,286.76a4.06,4.06,0,1,1-4.05,4.06A4.06,4.06,0,0,1,177.68,286.76Z"/><circle class="cls-1" cx="165.42" cy="296.82" r="4.06" transform="translate(-161.46 389.62) rotate(-76.72)"/><path class="cls-1" d="M153.16,298.75a4.06,4.06,0,1,1-4.06,4.06A4.05,4.05,0,0,1,153.16,298.75Z"/><path class="cls-1" d="M140.8,304.74a4.06,4.06,0,1,1-4.06,4.06A4.06,4.06,0,0,1,140.8,304.74Z"/><path class="cls-1" d="M128.54,310.74a4.06,4.06,0,1,1-4.06,4.06A4.05,4.05,0,0,1,128.54,310.74Z"/><path class="cls-1" d="M116.27,316.73a4.06,4.06,0,1,1-4,4.06A4.06,4.06,0,0,1,116.27,316.73Z"/><path class="cls-1" d="M103.92,322.72a4.06,4.06,0,1,1-4.06,4.06A4.05,4.05,0,0,1,103.92,322.72Z"/><path class="cls-1" d="M91.65,328.72a4.06,4.06,0,1,1-4.05,4.06A4.06,4.06,0,0,1,91.65,328.72Z"/><path class="cls-1" d="M265.65,234.11a3,3,0,1,1-3,3A3,3,0,0,1,265.65,234.11Z"/><path class="cls-1" d="M253.29,239.09a4.06,4.06,0,1,1-4,4.06A4.06,4.06,0,0,1,253.29,239.09Z"/><path class="cls-1" d="M241,245.09a4.06,4.06,0,1,1-4.06,4A4.05,4.05,0,0,1,241,245.09Z"/><path class="cls-1" d="M228.77,251.08a4.06,4.06,0,1,1-4.06,4.06A4.05,4.05,0,0,1,228.77,251.08Z"/><path class="cls-1" d="M216.41,257.07a4.06,4.06,0,1,1-4.06,4.06A4.06,4.06,0,0,1,216.41,257.07Z"/><path class="cls-1" d="M204.15,263.07a4.06,4.06,0,1,1-4.06,4.05A4,4,0,0,1,204.15,263.07Z"/><path class="cls-1" d="M191.88,269.06a4.06,4.06,0,1,1-4,4.06A4.06,4.06,0,0,1,191.88,269.06Z"/><path class="cls-1" d="M179.62,275.05a4.06,4.06,0,1,1-4.06,4.06A4.06,4.06,0,0,1,179.62,275.05Z"/><path class="cls-1" d="M167.26,281.05a4.06,4.06,0,1,1-4,4.05A4.05,4.05,0,0,1,167.26,281.05Z"/><path class="cls-1" d="M155,287a4.06,4.06,0,1,1-4.06,4.06A4.06,4.06,0,0,1,155,287Z"/><path class="cls-1" d="M142.74,293a4.06,4.06,0,1,1-4.06,4.06A4.05,4.05,0,0,1,142.74,293Z"/><path class="cls-1" d="M130.47,299a4.06,4.06,0,1,1-4,4.05A4.05,4.05,0,0,1,130.47,299Z"/><path class="cls-1" d="M118.12,305a4.06,4.06,0,1,1-4.06,4.06A4.05,4.05,0,0,1,118.12,305Z"/><path class="cls-1" d="M105.85,311a4.06,4.06,0,1,1-4,4.05A4.05,4.05,0,0,1,105.85,311Z"/><path class="cls-1" d="M93.59,317a4.06,4.06,0,1,1-4.06,4.06A4.06,4.06,0,0,1,93.59,317Z"/><path class="cls-1" d="M255.23,227.38a4.06,4.06,0,1,1-4.06,4.06A4.06,4.06,0,0,1,255.23,227.38Z"/><path class="cls-1" d="M243,233.38a4.06,4.06,0,1,1-4.06,4.05A4,4,0,0,1,243,233.38Z"/><path class="cls-1" d="M230.61,239.37a4.06,4.06,0,1,1-4.06,4.06A4.06,4.06,0,0,1,230.61,239.37Z"/><path class="cls-1" d="M218.35,245.36a4.06,4.06,0,1,1-4.06,4.06A4.05,4.05,0,0,1,218.35,245.36Z"/><path class="cls-1" d="M206.08,251.36a4.06,4.06,0,1,1-4.05,4A4.05,4.05,0,0,1,206.08,251.36Z"/><path class="cls-1" d="M193.73,257.35a4.06,4.06,0,1,1-4.06,4.06A4.05,4.05,0,0,1,193.73,257.35Z"/><path class="cls-1" d="M181.46,263.34a4.06,4.06,0,1,1-4.05,4.06A4.06,4.06,0,0,1,181.46,263.34Z"/><path class="cls-1" d="M169.2,269.34a4.06,4.06,0,1,1-4.06,4.05A4.05,4.05,0,0,1,169.2,269.34Z"/><path class="cls-1" d="M156.94,275.33a4.06,4.06,0,1,1-4.06,4.06A4.05,4.05,0,0,1,156.94,275.33Z"/><path class="cls-1" d="M144.58,281.32a4.06,4.06,0,1,1-4.06,4.06A4.06,4.06,0,0,1,144.58,281.32Z"/><path class="cls-1" d="M132.32,287.32a4.06,4.06,0,1,1-4.06,4.05A4,4,0,0,1,132.32,287.32Z"/><path class="cls-1" d="M120.05,293.31a4.06,4.06,0,1,1-4,4.06A4.06,4.06,0,0,1,120.05,293.31Z"/><path class="cls-1" d="M107.7,299.3a4.06,4.06,0,1,1-4.06,4.06A4.06,4.06,0,0,1,107.7,299.3Z"/><path class="cls-1" d="M95.43,305.3a4.06,4.06,0,1,1-4.05,4.05A4,4,0,0,1,95.43,305.3Z"/><path class="cls-1" d="M257.07,215.58a4.06,4.06,0,1,1-4,4.06A4.06,4.06,0,0,1,257.07,215.58Z"/><path class="cls-1" d="M244.81,221.57a4.06,4.06,0,1,1-4.06,4.06A4.06,4.06,0,0,1,244.81,221.57Z"/><path class="cls-1" d="M232.55,227.57a4.06,4.06,0,1,1-4.06,4.05A4,4,0,0,1,232.55,227.57Z"/><path class="cls-1" d="M220.19,233.56a4.06,4.06,0,1,1-4.06,4.06A4.06,4.06,0,0,1,220.19,233.56Z"/><path class="cls-1" d="M207.93,239.55a4.06,4.06,0,1,1-4.06,4.06A4.05,4.05,0,0,1,207.93,239.55Z"/><path class="cls-1" d="M195.66,245.55a4.06,4.06,0,1,1-4,4A4.05,4.05,0,0,1,195.66,245.55Z"/><path class="cls-1" d="M183.4,251.54a4.06,4.06,0,1,1-4.06,4.06A4.06,4.06,0,0,1,183.4,251.54Z"/><path class="cls-1" d="M171,257.54a4.06,4.06,0,1,1-4,4A4,4,0,0,1,171,257.54Z"/><path class="cls-1" d="M158.78,263.62a4.06,4.06,0,1,1-4.06,4.06A4.06,4.06,0,0,1,158.78,263.62Z"/><path class="cls-1" d="M146.52,269.61a4.06,4.06,0,1,1-4.06,4.06A4.05,4.05,0,0,1,146.52,269.61Z"/><path class="cls-1" d="M134.25,275.61a4.06,4.06,0,1,1-4.05,4.05A4.05,4.05,0,0,1,134.25,275.61Z"/><path class="cls-1" d="M121.9,281.6a4.06,4.06,0,1,1-4.06,4.06A4.06,4.06,0,0,1,121.9,281.6Z"/><path class="cls-1" d="M109.63,287.59a4.06,4.06,0,1,1-4,4.06A4.06,4.06,0,0,1,109.63,287.59Z"/><path class="cls-1" d="M97.37,293.59a4.06,4.06,0,1,1-4.06,4.06A4.06,4.06,0,0,1,97.37,293.59Z"/><path class="cls-1" d="M85,299.58A4.06,4.06,0,1,1,81,303.64,4.06,4.06,0,0,1,85,299.58Z"/><path class="cls-1" d="M259,203.87a4.06,4.06,0,1,1-4.06,4.06A4.06,4.06,0,0,1,259,203.87Z"/><path class="cls-1" d="M246.75,209.86a4.06,4.06,0,1,1-4.06,4.06A4.05,4.05,0,0,1,246.75,209.86Z"/><path class="cls-1" d="M234.39,215.86a4.06,4.06,0,1,1-4.06,4A4.05,4.05,0,0,1,234.39,215.86Z"/><circle class="cls-1" cx="222.13" cy="225.91" r="4.06" transform="translate(-0.96 0.95) rotate(-0.24)"/><path class="cls-1" d="M209.86,227.84a4.06,4.06,0,1,1-4.05,4.06A4.06,4.06,0,0,1,209.86,227.84Z"/><path class="cls-1" d="M197.51,233.84a4.06,4.06,0,1,1-4.06,4A4.05,4.05,0,0,1,197.51,233.84Z"/><circle class="cls-1" cx="185.24" cy="243.89" r="4.06" transform="translate(-1.05 0.8) rotate(-0.25)"/><path class="cls-1" d="M173,245.82a4.06,4.06,0,1,1-4.06,4.06A4.06,4.06,0,0,1,173,245.82Z"/><path class="cls-1" d="M160.72,251.82a4.06,4.06,0,1,1-4.06,4.05A4,4,0,0,1,160.72,251.82Z"/><path class="cls-1" d="M148.36,257.81a4.06,4.06,0,1,1-4.06,4.06A4.06,4.06,0,0,1,148.36,257.81Z"/><path class="cls-1" d="M136.1,263.81a4.06,4.06,0,1,1-4.06,4.05A4,4,0,0,1,136.1,263.81Z"/><path class="cls-1" d="M123.83,269.8a4.06,4.06,0,1,1-4,4.06A4.06,4.06,0,0,1,123.83,269.8Z"/><path class="cls-1" d="M111.48,275.79a4.06,4.06,0,1,1-4.06,4.06A4.06,4.06,0,0,1,111.48,275.79Z"/><path class="cls-1" d="M99.22,281.79a4.06,4.06,0,1,1-4.06,4A4,4,0,0,1,99.22,281.79Z"/><path class="cls-1" d="M87,287.78a4.06,4.06,0,1,1-4.06,4.06A4.06,4.06,0,0,1,87,287.78Z"/><path class="cls-1" d="M74.69,293.77a4.06,4.06,0,1,1-4.06,4.06A4.05,4.05,0,0,1,74.69,293.77Z"/><path class="cls-1" d="M359.24,144.21a4.06,4.06,0,1,1-4.06,4.06A4.06,4.06,0,0,1,359.24,144.21Z"/><circle class="cls-1" cx="334.62" cy="160.26" r="4.06" transform="translate(172.96 494.2) rotate(-89.76)"/><circle class="cls-1" cx="260.85" cy="196.22" r="4.06" transform="translate(63.54 456.24) rotate(-89.76)"/><path class="cls-1" d="M248.59,198.15a4.06,4.06,0,1,1-4.06,4.06A4.06,4.06,0,0,1,248.59,198.15Z"/><path class="cls-1" d="M236.33,204.15a4.06,4.06,0,1,1-4.06,4A4,4,0,0,1,236.33,204.15Z"/><path class="cls-1" d="M224,210.14a4.06,4.06,0,1,1-4.06,4.06A4.06,4.06,0,0,1,224,210.14Z"/><path class="cls-1" d="M211.71,216.13a4.06,4.06,0,1,1-4.06,4.06A4.05,4.05,0,0,1,211.71,216.13Z"/><path class="cls-1" d="M199.44,222.13a4.06,4.06,0,1,1-4.05,4.05A4.05,4.05,0,0,1,199.44,222.13Z"/><path class="cls-1" d="M187.18,228.12a4.06,4.06,0,1,1-4.06,4.06A4.06,4.06,0,0,1,187.18,228.12Z"/><path class="cls-1" d="M174.83,234.11a4.06,4.06,0,1,1-4.06,4.06A4.05,4.05,0,0,1,174.83,234.11Z"/><path class="cls-1" d="M162.56,240.11a4.06,4.06,0,1,1-4.06,4.06A4.06,4.06,0,0,1,162.56,240.11Z"/><path class="cls-1" d="M150.3,246.1a4.06,4.06,0,1,1-4.06,4.06A4.05,4.05,0,0,1,150.3,246.1Z"/><path class="cls-1" d="M138,252.09a4.06,4.06,0,1,1-4.05,4.06A4.06,4.06,0,0,1,138,252.09Z"/><path class="cls-1" d="M125.68,258.09a4.06,4.06,0,1,1-4.06,4.06A4.06,4.06,0,0,1,125.68,258.09Z"/><path class="cls-1" d="M113.41,264.08a4.06,4.06,0,1,1-4,4.06A4.06,4.06,0,0,1,113.41,264.08Z"/><path class="cls-1" d="M101.15,270.07a4.06,4.06,0,1,1-4.06,4.06A4.06,4.06,0,0,1,101.15,270.07Z"/><path class="cls-1" d="M88.8,276.07a4.06,4.06,0,1,1-4.06,4.06A4,4,0,0,1,88.8,276.07Z"/><path class="cls-1" d="M76.53,282.06a4.06,4.06,0,1,1-4.06,4.06A4.06,4.06,0,0,1,76.53,282.06Z"/><path class="cls-1" d="M348.82,138.49a4.06,4.06,0,1,1-4.06,4.06A4.06,4.06,0,0,1,348.82,138.49Z"/><path class="cls-1" d="M336.46,144.49a4.06,4.06,0,1,1-4,4.06A4.06,4.06,0,0,1,336.46,144.49Z"/><path class="cls-1" d="M324.2,150.48a4.06,4.06,0,1,1-4.06,4.06A4.06,4.06,0,0,1,324.2,150.48Z"/><path class="cls-1" d="M311.94,156.48a4.06,4.06,0,1,1-4.06,4.05A4,4,0,0,1,311.94,156.48Z"/><path class="cls-1" d="M299.67,162.47a4.06,4.06,0,1,1-4.05,4.06A4.06,4.06,0,0,1,299.67,162.47Z"/><path class="cls-1" d="M287.32,168.46a4.06,4.06,0,1,1-4.06,4.06A4.05,4.05,0,0,1,287.32,168.46Z"/><path class="cls-1" d="M275.05,174.46a4.06,4.06,0,1,1-4.05,4A4.05,4.05,0,0,1,275.05,174.46Z"/><path class="cls-1" d="M262.79,180.45a4.06,4.06,0,1,1-4.06,4.06A4.06,4.06,0,0,1,262.79,180.45Z"/><path class="cls-1" d="M250.53,186.44a4.06,4.06,0,1,1-4.06,4.06A4.05,4.05,0,0,1,250.53,186.44Z"/><path class="cls-1" d="M238.17,192.44a4.06,4.06,0,1,1-4.06,4.05A4.05,4.05,0,0,1,238.17,192.44Z"/><path class="cls-1" d="M225.91,198.43a4.06,4.06,0,1,1-4.06,4.06A4.05,4.05,0,0,1,225.91,198.43Z"/><path class="cls-1" d="M213.64,204.42a4.06,4.06,0,1,1-4,4.06A4.06,4.06,0,0,1,213.64,204.42Z"/><path class="cls-1" d="M201.29,210.42a4.06,4.06,0,1,1-4.06,4.05A4.05,4.05,0,0,1,201.29,210.42Z"/><path class="cls-1" d="M189,216.41a4.06,4.06,0,1,1-4.05,4.06A4.06,4.06,0,0,1,189,216.41Z"/><path class="cls-1" d="M176.76,222.4a4.06,4.06,0,1,1-4.06,4.06A4.06,4.06,0,0,1,176.76,222.4Z"/><path class="cls-1" d="M164.5,228.4a4.06,4.06,0,1,1-4.06,4A4.05,4.05,0,0,1,164.5,228.4Z"/><path class="cls-1" d="M152.14,234.39a4.06,4.06,0,1,1-4.06,4.06A4.06,4.06,0,0,1,152.14,234.39Z"/><path class="cls-1" d="M139.88,240.38a4.06,4.06,0,1,1-4.06,4.06A4.06,4.06,0,0,1,139.88,240.38Z"/><path class="cls-1" d="M127.61,246.38a4.06,4.06,0,1,1-4,4.06A4.05,4.05,0,0,1,127.61,246.38Z"/><path class="cls-1" d="M115.26,252.37a4.06,4.06,0,1,1-4.06,4.06A4.06,4.06,0,0,1,115.26,252.37Z"/><path class="cls-1" d="M103,258.36a4.06,4.06,0,1,1-4.06,4.06A4.05,4.05,0,0,1,103,258.36Z"/><path class="cls-1" d="M90.73,264.36a4.06,4.06,0,1,1-4.06,4.06A4.06,4.06,0,0,1,90.73,264.36Z"/><path class="cls-1" d="M78.47,270.35a4.06,4.06,0,1,1-4.06,4.06A4.06,4.06,0,0,1,78.47,270.35Z"/><path class="cls-1" d="M66.11,276.34a4.06,4.06,0,1,1-4,4.06A4.06,4.06,0,0,1,66.11,276.34Z"/><path class="cls-1" d="M338.4,132.78a4.06,4.06,0,1,1-4.06,4.06A4.06,4.06,0,0,1,338.4,132.78Z"/><path class="cls-1" d="M326.14,138.77a4.06,4.06,0,1,1-4.06,4.06A4.05,4.05,0,0,1,326.14,138.77Z"/><path class="cls-1" d="M313.78,144.77a4.06,4.06,0,1,1-4.06,4A4.05,4.05,0,0,1,313.78,144.77Z"/><path class="cls-1" d="M301.52,150.76a4.06,4.06,0,1,1-4.06,4.06A4.05,4.05,0,0,1,301.52,150.76Z"/><path class="cls-1" d="M289.25,156.75a4.06,4.06,0,1,1-4.05,4.06A4.06,4.06,0,0,1,289.25,156.75Z"/><circle class="cls-1" cx="276.99" cy="166.8" r="4.06"/><path class="cls-1" d="M264.63,168.74a4.06,4.06,0,1,1-4.05,4.06A4.06,4.06,0,0,1,264.63,168.74Z"/><path class="cls-1" d="M252.37,174.73a4.06,4.06,0,1,1-4.06,4.06A4.06,4.06,0,0,1,252.37,174.73Z"/><circle class="cls-1" cx="240.11" cy="184.78" r="4.06" transform="translate(54.32 424.11) rotate(-89.76)"/><path class="cls-1" d="M227.75,186.72a4.06,4.06,0,1,1-4.06,4.06A4.06,4.06,0,0,1,227.75,186.72Z"/><path class="cls-1" d="M215.49,192.71a4.06,4.06,0,1,1-4.06,4.06A4.06,4.06,0,0,1,215.49,192.71Z"/><circle class="cls-1" cx="203.22" cy="202.76" r="4.06" transform="translate(-0.41 405.11) rotate(-89.75)"/><path class="cls-1" d="M191,204.7a4.06,4.06,0,1,1-4.06,4.06A4.06,4.06,0,0,1,191,204.7Z"/><path class="cls-1" d="M178.61,210.69a4.06,4.06,0,1,1-4.06,4.06A4.05,4.05,0,0,1,178.61,210.69Z"/><circle class="cls-1" cx="166.34" cy="220.74" r="4.06" transform="translate(-55.1 386.16) rotate(-89.76)"/><path class="cls-1" d="M154.08,222.68a4.06,4.06,0,1,1-4.06,4.06A4.06,4.06,0,0,1,154.08,222.68Z"/><path class="cls-1" d="M141.72,228.67a4.06,4.06,0,1,1-4.05,4.06A4.06,4.06,0,0,1,141.72,228.67Z"/><circle class="cls-1" cx="129.46" cy="238.72" r="4.06"/><path class="cls-1" d="M117.2,240.66a4.06,4.06,0,1,1-4.06,4.06A4.05,4.05,0,0,1,117.2,240.66Z"/><circle class="cls-1" cx="104.93" cy="250.71" r="4.06"/><circle class="cls-1" cx="92.58" cy="256.7" r="4.06" transform="translate(-1.11 0.4) rotate(-0.25)"/><path class="cls-1" d="M80.31,258.64a4.06,4.06,0,1,1-4,4.06A4.06,4.06,0,0,1,80.31,258.64Z"/><circle class="cls-1" cx="68.05" cy="268.69" r="4.06"/><path class="cls-1" d="M340.24,121.07a4.06,4.06,0,1,1-4.05,4.05A4,4,0,0,1,340.24,121.07Z"/><path class="cls-1" d="M328,127.06a4.06,4.06,0,1,1-4.06,4.06A4.06,4.06,0,0,1,328,127.06Z"/><path class="cls-1" d="M315.72,133.05a4.06,4.06,0,1,1-4.06,4.06A4.06,4.06,0,0,1,315.72,133.05Z"/><path class="cls-1" d="M303.45,139.05a4.06,4.06,0,1,1-4.05,4.06A4.06,4.06,0,0,1,303.45,139.05Z"/><path class="cls-1" d="M291.1,145A4.06,4.06,0,1,1,287,149.1,4.06,4.06,0,0,1,291.1,145Z"/><path class="cls-1" d="M278.83,151a4.06,4.06,0,1,1-4.05,4.05A4.05,4.05,0,0,1,278.83,151Z"/><path class="cls-1" d="M266.57,157a4.06,4.06,0,1,1-4.06,4.06A4.06,4.06,0,0,1,266.57,157Z"/><path class="cls-1" d="M254.31,163a4.06,4.06,0,1,1-4.06,4.06A4.05,4.05,0,0,1,254.31,163Z"/><path class="cls-1" d="M242,169a4.06,4.06,0,1,1-4.06,4A4.05,4.05,0,0,1,242,169Z"/><path class="cls-1" d="M229.69,175a4.06,4.06,0,1,1-4.06,4.06A4.05,4.05,0,0,1,229.69,175Z"/><path class="cls-1" d="M217.42,181a4.06,4.06,0,1,1-4,4.06A4.06,4.06,0,0,1,217.42,181Z"/><path class="cls-1" d="M205.07,187a4.06,4.06,0,1,1-4.06,4.05A4.05,4.05,0,0,1,205.07,187Z"/><path class="cls-1" d="M192.81,193a4.06,4.06,0,1,1-4.06,4.06A4.05,4.05,0,0,1,192.81,193Z"/><path class="cls-1" d="M180.54,199a4.06,4.06,0,1,1-4.06,4.06A4.06,4.06,0,0,1,180.54,199Z"/><path class="cls-1" d="M168.28,205a4.06,4.06,0,1,1-4.06,4.05A4.05,4.05,0,0,1,168.28,205Z"/><path class="cls-1" d="M155.92,211a4.06,4.06,0,1,1-4,4.06A4.06,4.06,0,0,1,155.92,211Z"/><path class="cls-1" d="M143.66,217A4.06,4.06,0,1,1,139.6,221,4.06,4.06,0,0,1,143.66,217Z"/><path class="cls-1" d="M131.4,223a4.06,4.06,0,1,1-4.06,4A4,4,0,0,1,131.4,223Z"/><path class="cls-1" d="M119,229A4.06,4.06,0,1,1,115,233,4.06,4.06,0,0,1,119,229Z"/><path class="cls-1" d="M106.78,234.94a4.06,4.06,0,1,1-4.06,4.06A4.05,4.05,0,0,1,106.78,234.94Z"/><path class="cls-1" d="M94.51,240.94A4.06,4.06,0,1,1,90.46,245,4.05,4.05,0,0,1,94.51,240.94Z"/><path class="cls-1" d="M82.25,246.93A4.06,4.06,0,1,1,78.19,251,4.06,4.06,0,0,1,82.25,246.93Z"/><path class="cls-1" d="M69.89,252.92a4.06,4.06,0,1,1-4,4.06A4.06,4.06,0,0,1,69.89,252.92Z"/><path class="cls-1" d="M57.63,258.92A4.06,4.06,0,1,1,53.57,263,4.05,4.05,0,0,1,57.63,258.92Z"/><path class="cls-1" d="M354.44,103.36a4.06,4.06,0,1,1-4.05,4.06A4.06,4.06,0,0,1,354.44,103.36Z"/><path class="cls-1" d="M342.18,109.36a4.06,4.06,0,1,1-4.06,4A4.05,4.05,0,0,1,342.18,109.36Z"/><path class="cls-1" d="M329.92,115.35a4.06,4.06,0,1,1-4.06,4.06A4.05,4.05,0,0,1,329.92,115.35Z"/><path class="cls-1" d="M317.56,121.34a4.06,4.06,0,1,1-4.06,4.06A4.06,4.06,0,0,1,317.56,121.34Z"/><path class="cls-1" d="M305.3,127.34a4.06,4.06,0,1,1-4.06,4.06A4,4,0,0,1,305.3,127.34Z"/><path class="cls-1" d="M293,133.33a4.06,4.06,0,1,1-4,4.06A4.06,4.06,0,0,1,293,133.33Z"/><path class="cls-1" d="M280.77,139.33a4.06,4.06,0,1,1-4.06,4A4.05,4.05,0,0,1,280.77,139.33Z"/><path class="cls-1" d="M268.42,145.32a4.06,4.06,0,1,1-4.06,4.06A4.05,4.05,0,0,1,268.42,145.32Z"/><path class="cls-1" d="M256.15,151.31a4.06,4.06,0,1,1-4.06,4.06A4.06,4.06,0,0,1,256.15,151.31Z"/><path class="cls-1" d="M243.89,157.31a4.06,4.06,0,1,1-4.06,4.05A4.05,4.05,0,0,1,243.89,157.31Z"/><path class="cls-1" d="M231.53,163.3a4.06,4.06,0,1,1-4.06,4.06A4.06,4.06,0,0,1,231.53,163.3Z"/><path class="cls-1" d="M219.27,169.29a4.06,4.06,0,1,1-4.06,4.06A4.06,4.06,0,0,1,219.27,169.29Z"/><path class="cls-1" d="M207,175.29a4.06,4.06,0,1,1-4.05,4.05A4,4,0,0,1,207,175.29Z"/><path class="cls-1" d="M194.74,181.28a4.06,4.06,0,1,1-4.06,4.06A4.06,4.06,0,0,1,194.74,181.28Z"/><path class="cls-1" d="M182.39,187.27a4.06,4.06,0,1,1-4.06,4.06A4.05,4.05,0,0,1,182.39,187.27Z"/><path class="cls-1" d="M170.12,193.27a4.06,4.06,0,1,1-4.05,4A4.05,4.05,0,0,1,170.12,193.27Z"/><path class="cls-1" d="M157.86,199.26a4.06,4.06,0,1,1-4.06,4.06A4.06,4.06,0,0,1,157.86,199.26Z"/><path class="cls-1" d="M145.5,205.25a4.06,4.06,0,1,1-4.05,4.06A4.06,4.06,0,0,1,145.5,205.25Z"/><circle class="cls-1" cx="133.24" cy="215.3" r="4.06" transform="translate(-100.63 312.34) rotate(-80.78)"/><path class="cls-1" d="M121,217.24a4.06,4.06,0,1,1-4.06,4.06A4.05,4.05,0,0,1,121,217.24Z"/><path class="cls-1" d="M108.71,223.23a4.06,4.06,0,1,1-4,4.06A4.06,4.06,0,0,1,108.71,223.23Z"/><circle class="cls-1" cx="96.36" cy="233.28" r="4.06" transform="translate(-152.83 273.47) rotate(-76.72)"/><path class="cls-1" d="M84.09,235.22a4.06,4.06,0,1,1-4,4.06A4.06,4.06,0,0,1,84.09,235.22Z"/><path class="cls-1" d="M71.83,241.21a4.06,4.06,0,1,1-4.06,4.06A4.06,4.06,0,0,1,71.83,241.21Z"/><path class="cls-1" d="M59.57,247.21a4.06,4.06,0,1,1-4.06,4A4,4,0,0,1,59.57,247.21Z"/><path class="cls-1" d="M356.38,91.65a4.06,4.06,0,1,1-4.06,4.06A4.06,4.06,0,0,1,356.38,91.65Z"/><path class="cls-1" d="M344,97.65a4.06,4.06,0,1,1-4.06,4A4,4,0,0,1,344,97.65Z"/><path class="cls-1" d="M331.76,103.64a4.06,4.06,0,1,1-4.06,4.06A4.06,4.06,0,0,1,331.76,103.64Z"/><path class="cls-1" d="M319.5,109.63a4.06,4.06,0,1,1-4.06,4.06A4.06,4.06,0,0,1,319.5,109.63Z"/><path class="cls-1" d="M307.23,115.63a4.06,4.06,0,1,1-4.05,4.05A4,4,0,0,1,307.23,115.63Z"/><path class="cls-1" d="M294.88,121.62a4.06,4.06,0,1,1-4.06,4.06A4.06,4.06,0,0,1,294.88,121.62Z"/><path class="cls-1" d="M282.61,127.61a4.06,4.06,0,1,1-4.05,4.06A4.06,4.06,0,0,1,282.61,127.61Z"/><path class="cls-1" d="M270.35,133.61a4.06,4.06,0,1,1-4.06,4.06A4.06,4.06,0,0,1,270.35,133.61Z"/><circle class="cls-1" cx="258.09" cy="143.66" r="4.06" transform="translate(113.35 401.14) rotate(-89.76)"/><path class="cls-1" d="M245.73,145.6a4.06,4.06,0,1,1-4,4.05A4.05,4.05,0,0,1,245.73,145.6Z"/><path class="cls-1" d="M233.47,151.59a4.06,4.06,0,1,1-4.06,4.06A4.06,4.06,0,0,1,233.47,151.59Z"/><circle class="cls-1" cx="221.21" cy="161.64" r="4.06" transform="translate(58.64 382.16) rotate(-89.76)"/><path class="cls-1" d="M208.85,163.58a4.06,4.06,0,1,1-4.06,4A4.05,4.05,0,0,1,208.85,163.58Z"/><path class="cls-1" d="M196.59,169.57a4.06,4.06,0,1,1-4.06,4.06A4.05,4.05,0,0,1,196.59,169.57Z"/><circle class="cls-1" cx="184.32" cy="179.62" r="4.06" transform="translate(-0.79 0.81) rotate(-0.25)"/><path class="cls-1" d="M172.06,181.56a4.06,4.06,0,1,1-4.06,4.05A4.05,4.05,0,0,1,172.06,181.56Z"/><path class="cls-1" d="M159.7,187.55a4.06,4.06,0,1,1-4,4.06A4.06,4.06,0,0,1,159.7,187.55Z"/><circle class="cls-1" cx="147.44" cy="197.6" r="4.06" transform="translate(-0.84 0.63) rotate(-0.24)"/><path class="cls-1" d="M135.18,199.54a4.06,4.06,0,1,1-4.06,4.05A4,4,0,0,1,135.18,199.54Z"/><path class="cls-1" d="M122.82,205.53a4.06,4.06,0,1,1-4.06,4.06A4.06,4.06,0,0,1,122.82,205.53Z"/><circle class="cls-1" cx="110.56" cy="215.58" r="4.06"/><path class="cls-1" d="M98.29,217.52a4.06,4.06,0,1,1-4.05,4A4.05,4.05,0,0,1,98.29,217.52Z"/><path class="cls-1" d="M86,223.51A4.06,4.06,0,1,1,82,227.57,4.06,4.06,0,0,1,86,223.51Z"/><circle class="cls-1" cx="73.67" cy="233.56" r="4.06"/><path class="cls-1" d="M61.41,235.5a4.06,4.06,0,1,1-4.06,4.05A4.05,4.05,0,0,1,61.41,235.5Z"/><path class="cls-1" d="M49.15,241.49a4.06,4.06,0,1,1-4.06,4.06A4.05,4.05,0,0,1,49.15,241.49Z"/><path class="cls-1" d="M346,86.21A3.78,3.78,0,1,1,342.18,90,3.78,3.78,0,0,1,346,86.21Z"/><path class="cls-1" d="M333.7,91.93A4.06,4.06,0,1,1,329.64,96,4.06,4.06,0,0,1,333.7,91.93Z"/><path class="cls-1" d="M321.34,97.92a4.06,4.06,0,1,1-4,4.06A4.06,4.06,0,0,1,321.34,97.92Z"/><path class="cls-1" d="M309.08,103.92a4.06,4.06,0,1,1-4.06,4A4.05,4.05,0,0,1,309.08,103.92Z"/><path class="cls-1" d="M296.82,109.91a4.06,4.06,0,1,1-4.06,4.06A4.05,4.05,0,0,1,296.82,109.91Z"/><path class="cls-1" d="M284.55,115.9a4.06,4.06,0,1,1-4.06,4.06A4.06,4.06,0,0,1,284.55,115.9Z"/><path class="cls-1" d="M272.2,121.9a4.06,4.06,0,1,1-4.06,4.06A4,4,0,0,1,272.2,121.9Z"/><path class="cls-1" d="M259.93,127.89a4.06,4.06,0,1,1-4.06,4.06A4.06,4.06,0,0,1,259.93,127.89Z"/><path class="cls-1" d="M247.67,133.88a4.06,4.06,0,1,1-4.06,4.06A4.06,4.06,0,0,1,247.67,133.88Z"/><path class="cls-1" d="M235.31,139.88a4.06,4.06,0,1,1-4.05,4.06A4.06,4.06,0,0,1,235.31,139.88Z"/><path class="cls-1" d="M223.05,145.87a4.06,4.06,0,1,1-4.06,4.06A4.06,4.06,0,0,1,223.05,145.87Z"/><path class="cls-1" d="M210.79,151.87a4.06,4.06,0,1,1-4.06,4A4,4,0,0,1,210.79,151.87Z"/><path class="cls-1" d="M198.52,157.86a4.06,4.06,0,1,1-4.06,4.06A4.06,4.06,0,0,1,198.52,157.86Z"/><path class="cls-1" d="M186.17,163.85a4.06,4.06,0,1,1-4.06,4.06A4.05,4.05,0,0,1,186.17,163.85Z"/><path class="cls-1" d="M173.9,169.85a4.06,4.06,0,1,1-4.05,4.05A4.05,4.05,0,0,1,173.9,169.85Z"/><path class="cls-1" d="M161.64,175.84a4.06,4.06,0,1,1-4.06,4.06A4.06,4.06,0,0,1,161.64,175.84Z"/><path class="cls-1" d="M149.28,181.83a4.06,4.06,0,1,1-4.05,4.06A4.06,4.06,0,0,1,149.28,181.83Z"/><path class="cls-1" d="M137,187.83a4.06,4.06,0,1,1-4.06,4A4.05,4.05,0,0,1,137,187.83Z"/><path class="cls-1" d="M124.76,193.82a4.06,4.06,0,1,1-4.06,4.06A4.05,4.05,0,0,1,124.76,193.82Z"/><path class="cls-1" d="M112.49,199.81a4.06,4.06,0,1,1-4,4.06A4.06,4.06,0,0,1,112.49,199.81Z"/><path class="cls-1" d="M100.14,205.81a4.06,4.06,0,1,1-4.06,4.05A4,4,0,0,1,100.14,205.81Z"/><path class="cls-1" d="M87.87,211.8a4.06,4.06,0,1,1-4.05,4.06A4.06,4.06,0,0,1,87.87,211.8Z"/><path class="cls-1" d="M75.61,217.79a4.06,4.06,0,1,1-4.06,4.06A4.06,4.06,0,0,1,75.61,217.79Z"/><path class="cls-1" d="M63.35,223.79a4.06,4.06,0,1,1-4.06,4.05A4,4,0,0,1,63.35,223.79Z"/><path class="cls-1" d="M51,229.78a4.06,4.06,0,1,1-4.06,4.06A4.06,4.06,0,0,1,51,229.78Z"/><path class="cls-1" d="M38.73,235.77a4.06,4.06,0,1,1-4.06,4.06A4.05,4.05,0,0,1,38.73,235.77Z"/><circle class="cls-1" cx="335.54" cy="84.19" r="4.06" transform="translate(249.95 419.37) rotate(-89.76)"/><path class="cls-1" d="M323.28,86.12a4.06,4.06,0,1,1-4.06,4.06A4.06,4.06,0,0,1,323.28,86.12Z"/><path class="cls-1" d="M311,92.11A4.06,4.06,0,1,1,307,96.17,4.05,4.05,0,0,1,311,92.11Z"/><circle class="cls-1" cx="298.66" cy="102.17" r="4.06" transform="translate(-0.45 1.31) rotate(-0.25)"/><path class="cls-1" d="M286.4,104.1a4.06,4.06,0,1,1-4.06,4.06A4.05,4.05,0,0,1,286.4,104.1Z"/><path class="cls-1" d="M274.13,110.1a4.06,4.06,0,1,1-4.06,4.05A4.05,4.05,0,0,1,274.13,110.1Z"/><circle class="cls-1" cx="261.78" cy="120.15" r="4.06" transform="translate(-0.51 1.12) rotate(-0.24)"/><path class="cls-1" d="M249.51,122.08a4.06,4.06,0,1,1-4,4.06A4.06,4.06,0,0,1,249.51,122.08Z"/><path class="cls-1" d="M237.25,128.08a4.06,4.06,0,1,1-4.06,4A4.05,4.05,0,0,1,237.25,128.08Z"/><path class="cls-1" d="M225,134.07a4.06,4.06,0,1,1-4.06,4.06A4.05,4.05,0,0,1,225,134.07Z"/><path class="cls-1" d="M212.63,140.06a4.06,4.06,0,1,1-4.06,4.06A4.06,4.06,0,0,1,212.63,140.06Z"/><path class="cls-1" d="M200.37,146.06a4.06,4.06,0,1,1-4.06,4.05A4,4,0,0,1,200.37,146.06Z"/><path class="cls-1" d="M188.1,152.05a4.06,4.06,0,1,1-4,4.06A4.06,4.06,0,0,1,188.1,152.05Z"/><path class="cls-1" d="M175.84,158a4.06,4.06,0,1,1-4.06,4.06A4.06,4.06,0,0,1,175.84,158Z"/><path class="cls-1" d="M163.48,164a4.06,4.06,0,1,1-4,4.05A4.05,4.05,0,0,1,163.48,164Z"/><path class="cls-1" d="M151.22,170.12a4.06,4.06,0,1,1-4.06,4.06A4.06,4.06,0,0,1,151.22,170.12Z"/><path class="cls-1" d="M139,176.12a4.06,4.06,0,1,1-4.06,4A4,4,0,0,1,139,176.12Z"/><circle class="cls-1" cx="126.6" cy="186.17" r="4.06"/><path class="cls-1" d="M114.34,188.1a4.06,4.06,0,1,1-4.06,4.06A4.05,4.05,0,0,1,114.34,188.1Z"/><path class="cls-1" d="M102.07,194.1a4.06,4.06,0,1,1-4,4.05A4.05,4.05,0,0,1,102.07,194.1Z"/><circle class="cls-1" cx="89.81" cy="204.15" r="4.06"/><path class="cls-1" d="M77.45,206.08a4.06,4.06,0,1,1-4,4.06A4.06,4.06,0,0,1,77.45,206.08Z"/><path class="cls-1" d="M65.19,212.08a4.06,4.06,0,1,1-4.06,4A4.05,4.05,0,0,1,65.19,212.08Z"/><circle class="cls-1" cx="52.93" cy="222.13" r="4.06"/><path class="cls-1" d="M40.57,224.06a4.06,4.06,0,1,1-4.06,4.06A4.06,4.06,0,0,1,40.57,224.06Z"/><path class="cls-1" d="M28.31,230.06a4.06,4.06,0,1,1-4.06,4.05A4,4,0,0,1,28.31,230.06Z"/><path class="cls-1" d="M312.86,80.4a4.06,4.06,0,1,1-4.06,4.06A4.06,4.06,0,0,1,312.86,80.4Z"/><path class="cls-1" d="M300.6,86.4a4.06,4.06,0,1,1-4.06,4.06A4,4,0,0,1,300.6,86.4Z"/><path class="cls-1" d="M288.33,92.39a4.06,4.06,0,1,1-4.05,4.06A4.06,4.06,0,0,1,288.33,92.39Z"/><path class="cls-1" d="M276,98.38a4.06,4.06,0,1,1-4.06,4.06A4.05,4.05,0,0,1,276,98.38Z"/><path class="cls-1" d="M263.71,104.38a4.06,4.06,0,1,1-4,4.06A4.06,4.06,0,0,1,263.71,104.38Z"/><path class="cls-1" d="M251.45,110.37a4.06,4.06,0,1,1-4.06,4.06A4.06,4.06,0,0,1,251.45,110.37Z"/><path class="cls-1" d="M239.09,116.37a4.06,4.06,0,1,1-4.05,4A4.05,4.05,0,0,1,239.09,116.37Z"/><path class="cls-1" d="M226.83,122.36a4.06,4.06,0,1,1-4.06,4.06A4.06,4.06,0,0,1,226.83,122.36Z"/><path class="cls-1" d="M214.57,128.35a4.06,4.06,0,1,1-4.06,4.06A4.05,4.05,0,0,1,214.57,128.35Z"/><path class="cls-1" d="M202.3,134.35a4.06,4.06,0,1,1-4.05,4.05A4.05,4.05,0,0,1,202.3,134.35Z"/><path class="cls-1" d="M190,140.34a4.06,4.06,0,1,1-4.06,4.06A4.05,4.05,0,0,1,190,140.34Z"/><path class="cls-1" d="M177.68,146.33a4.06,4.06,0,1,1-4.05,4.06A4.06,4.06,0,0,1,177.68,146.33Z"/><path class="cls-1" d="M165.42,152.33a4.06,4.06,0,1,1-4.06,4A4.05,4.05,0,0,1,165.42,152.33Z"/><path class="cls-1" d="M153.06,158.32a4.06,4.06,0,1,1-4.05,4.06A4.06,4.06,0,0,1,153.06,158.32Z"/><path class="cls-1" d="M140.8,164.31a4.06,4.06,0,1,1-4.06,4.06A4.06,4.06,0,0,1,140.8,164.31Z"/><path class="cls-1" d="M128.54,170.31a4.06,4.06,0,1,1-4.06,4.05A4,4,0,0,1,128.54,170.31Z"/><path class="cls-1" d="M116.27,176.3a4.06,4.06,0,1,1-4,4.06A4.06,4.06,0,0,1,116.27,176.3Z"/><path class="cls-1" d="M103.92,182.29a4.06,4.06,0,1,1-4.06,4.06A4.05,4.05,0,0,1,103.92,182.29Z"/><path class="cls-1" d="M91.65,188.29a4.06,4.06,0,1,1-4.05,4.05A4.05,4.05,0,0,1,91.65,188.29Z"/><path class="cls-1" d="M79.39,194.28a4.06,4.06,0,1,1-4.06,4.06A4.06,4.06,0,0,1,79.39,194.28Z"/><path class="cls-1" d="M67.13,200.27a4.06,4.06,0,1,1-4.06,4.06A4.05,4.05,0,0,1,67.13,200.27Z"/><path class="cls-1" d="M54.77,206.27a4.06,4.06,0,1,1-4.06,4A4.05,4.05,0,0,1,54.77,206.27Z"/><path class="cls-1" d="M42.51,212.26a4.06,4.06,0,1,1-4.06,4.06A4.05,4.05,0,0,1,42.51,212.26Z"/><path class="cls-1" d="M30.24,218.25a4.06,4.06,0,1,1-4,4.06A4.06,4.06,0,0,1,30.24,218.25Z"/><path class="cls-1" d="M17.89,224.25a4.06,4.06,0,1,1-4.06,4.06A4.06,4.06,0,0,1,17.89,224.25Z"/><path class="cls-1" d="M277.91,86.67a4.06,4.06,0,1,1-4.05,4.06A4.06,4.06,0,0,1,277.91,86.67Z"/><path class="cls-1" d="M265.56,92.67a4.06,4.06,0,1,1-4.06,4.06A4,4,0,0,1,265.56,92.67Z"/><path class="cls-1" d="M253.29,98.66a4.06,4.06,0,1,1-4,4.06A4.06,4.06,0,0,1,253.29,98.66Z"/><path class="cls-1" d="M241,104.66a4.06,4.06,0,1,1-4.06,4A4.05,4.05,0,0,1,241,104.66Z"/><path class="cls-1" d="M228.77,110.65a4.06,4.06,0,1,1-4.06,4.06A4,4,0,0,1,228.77,110.65Z"/><path class="cls-1" d="M216.41,116.64a4.06,4.06,0,1,1-4.06,4.06A4.06,4.06,0,0,1,216.41,116.64Z"/><path class="cls-1" d="M204.15,122.64a4.06,4.06,0,1,1-4.06,4A4,4,0,0,1,204.15,122.64Z"/><path class="cls-1" d="M191.88,128.63a4.06,4.06,0,1,1-4,4.06A4.06,4.06,0,0,1,191.88,128.63Z"/><path class="cls-1" d="M179.62,134.62a4.06,4.06,0,1,1-4.06,4.06A4.06,4.06,0,0,1,179.62,134.62Z"/><path class="cls-1" d="M167.26,140.62a4.06,4.06,0,1,1-4,4A4.05,4.05,0,0,1,167.26,140.62Z"/><path class="cls-1" d="M155,146.61a4.06,4.06,0,1,1-4.06,4.06A4.06,4.06,0,0,1,155,146.61Z"/><path class="cls-1" d="M142.74,152.6a4.06,4.06,0,1,1-4.06,4.06A4.05,4.05,0,0,1,142.74,152.6Z"/><circle class="cls-1" cx="130.38" cy="162.65" r="4.06"/><path class="cls-1" d="M118.12,164.59a4.06,4.06,0,1,1-4.06,4.06A4.05,4.05,0,0,1,118.12,164.59Z"/><circle class="cls-1" cx="105.85" cy="174.64" r="4.06"/><circle class="cls-1" cx="93.59" cy="180.63" r="4.06"/><path class="cls-1" d="M81.23,182.57a4.06,4.06,0,1,1-4,4.06A4.06,4.06,0,0,1,81.23,182.57Z"/><circle class="cls-1" cx="68.97" cy="192.62" r="4.06"/><circle class="cls-1" cx="56.71" cy="198.61" r="4.06"/><path class="cls-1" d="M44.35,200.55a4.06,4.06,0,1,1-4.06,4.06A4.06,4.06,0,0,1,44.35,200.55Z"/><circle class="cls-1" cx="32.09" cy="210.6" r="4.06"/><circle class="cls-1" cx="19.82" cy="216.59" r="4.06"/><path class="cls-1" d="M7.56,218.53a4.06,4.06,0,1,1-4.06,4.06A4.06,4.06,0,0,1,7.56,218.53Z"/><path class="cls-1" d="M255.23,87A4.06,4.06,0,1,1,251.17,91,4.06,4.06,0,0,1,255.23,87Z"/><path class="cls-1" d="M242.87,92.94A4.06,4.06,0,1,1,238.82,97,4.06,4.06,0,0,1,242.87,92.94Z"/><path class="cls-1" d="M230.61,98.94a4.06,4.06,0,1,1-4.06,4.06A4.06,4.06,0,0,1,230.61,98.94Z"/><path class="cls-1" d="M218.35,104.93a4.06,4.06,0,1,1-4.06,4.06A4.05,4.05,0,0,1,218.35,104.93Z"/><path class="cls-1" d="M206.08,110.93a4.06,4.06,0,1,1-4.05,4A4.05,4.05,0,0,1,206.08,110.93Z"/><path class="cls-1" d="M193.73,116.92a4.06,4.06,0,1,1-4.06,4.06A4.05,4.05,0,0,1,193.73,116.92Z"/><path class="cls-1" d="M181.46,122.91a4.06,4.06,0,1,1-4.05,4.06A4.06,4.06,0,0,1,181.46,122.91Z"/><path class="cls-1" d="M169.2,128.91a4.06,4.06,0,1,1-4.06,4.05A4.05,4.05,0,0,1,169.2,128.91Z"/><path class="cls-1" d="M156.84,134.9a4.06,4.06,0,1,1-4.05,4.06A4.06,4.06,0,0,1,156.84,134.9Z"/><path class="cls-1" d="M144.58,140.89a4.06,4.06,0,1,1-4.06,4.06A4.06,4.06,0,0,1,144.58,140.89Z"/><path class="cls-1" d="M132.32,146.89a4.06,4.06,0,1,1-4.06,4.05A4,4,0,0,1,132.32,146.89Z"/><path class="cls-1" d="M120.05,152.88a4.06,4.06,0,1,1-4,4.06A4.06,4.06,0,0,1,120.05,152.88Z"/><path class="cls-1" d="M107.7,158.87a4.06,4.06,0,1,1-4.06,4.06A4.06,4.06,0,0,1,107.7,158.87Z"/><path class="cls-1" d="M95.43,164.87a4.06,4.06,0,1,1-4.05,4A4,4,0,0,1,95.43,164.87Z"/><path class="cls-1" d="M83.17,170.86a4.06,4.06,0,1,1-4.06,4.06A4.06,4.06,0,0,1,83.17,170.86Z"/><path class="cls-1" d="M58.55,182.85a4.06,4.06,0,1,1-4.06,4.05A4.05,4.05,0,0,1,58.55,182.85Z"/><path class="cls-1" d="M46.29,188.84a4.06,4.06,0,1,1-4.06,4.06A4.06,4.06,0,0,1,46.29,188.84Z"/><path class="cls-1" d="M34,194.83A4.06,4.06,0,1,1,30,198.89,4.06,4.06,0,0,1,34,194.83Z"/><path class="cls-1" d="M21.67,200.83a4.06,4.06,0,1,1-4.06,4A4.05,4.05,0,0,1,21.67,200.83Z"/><path class="cls-1" d="M257.07,75.24a4.06,4.06,0,1,1-4,4.06A4.06,4.06,0,0,1,257.07,75.24Z"/><path class="cls-1" d="M244.81,81.23a4.06,4.06,0,1,1-4.06,4.06A4.06,4.06,0,0,1,244.81,81.23Z"/><path class="cls-1" d="M232.55,87.23a4.06,4.06,0,1,1-4.06,4.06A4,4,0,0,1,232.55,87.23Z"/><path class="cls-1" d="M220.19,93.22a4.06,4.06,0,1,1-4.06,4.06A4.06,4.06,0,0,1,220.19,93.22Z"/><path class="cls-1" d="M207.93,99.22a4.06,4.06,0,1,1-4.06,4A4,4,0,0,1,207.93,99.22Z"/><path class="cls-1" d="M195.66,105.21a4.06,4.06,0,1,1-4,4.06A4.06,4.06,0,0,1,195.66,105.21Z"/><path class="cls-1" d="M183.4,111.2a4.06,4.06,0,1,1-4.06,4.06A4.06,4.06,0,0,1,183.4,111.2Z"/><path class="cls-1" d="M171,117.2a4.06,4.06,0,1,1-4,4A4,4,0,0,1,171,117.2Z"/><path class="cls-1" d="M158.78,123.19a4.06,4.06,0,1,1-4.06,4.06A4.06,4.06,0,0,1,158.78,123.19Z"/><path class="cls-1" d="M146.52,129.18a4.06,4.06,0,1,1-4.06,4.06A4.05,4.05,0,0,1,146.52,129.18Z"/><circle class="cls-1" cx="134.16" cy="139.23" r="4.06"/><path class="cls-1" d="M121.9,141.17a4.06,4.06,0,1,1-4.06,4.06A4.06,4.06,0,0,1,121.9,141.17Z"/><circle class="cls-1" cx="109.63" cy="151.22" r="4.06"/><path class="cls-1" d="M97.37,153.16a4.06,4.06,0,1,1-4.06,4.05A4.05,4.05,0,0,1,97.37,153.16Z"/><path class="cls-1" d="M85,159.15A4.06,4.06,0,1,1,81,163.21,4.06,4.06,0,0,1,85,159.15Z"/><path class="cls-1" d="M48.13,177.13a4.06,4.06,0,1,1-4.06,4.06A4.06,4.06,0,0,1,48.13,177.13Z"/><circle class="cls-1" cx="35.87" cy="187.18" r="4.06" transform="translate(-154.64 192.6) rotate(-80.78)"/><path class="cls-1" d="M23.61,189.12a4.06,4.06,0,1,1-4.06,4A4,4,0,0,1,23.61,189.12Z"/><circle class="cls-1" cx="11.34" cy="199.17" r="4.06"/><path class="cls-1" d="M259,63.53A4.06,4.06,0,1,1,255,67.59,4.06,4.06,0,0,1,259,63.53Z"/><path class="cls-1" d="M246.65,69.52a4.06,4.06,0,1,1-4.05,4.06A4.06,4.06,0,0,1,246.65,69.52Z"/><path class="cls-1" d="M234.39,75.52a4.06,4.06,0,1,1-4.06,4A4.05,4.05,0,0,1,234.39,75.52Z"/><path class="cls-1" d="M222.13,81.51a4.06,4.06,0,1,1-4.06,4.06A4.05,4.05,0,0,1,222.13,81.51Z"/><path class="cls-1" d="M209.86,87.5a4.06,4.06,0,1,1-4.05,4.06A4.06,4.06,0,0,1,209.86,87.5Z"/><path class="cls-1" d="M197.51,93.5a4.06,4.06,0,1,1-4.06,4.06A4.06,4.06,0,0,1,197.51,93.5Z"/><circle class="cls-1" cx="185.24" cy="103.55" r="4.06" transform="translate(-0.44 0.79) rotate(-0.24)"/><path class="cls-1" d="M173,105.48a4.06,4.06,0,1,1-4.06,4.06A4.06,4.06,0,0,1,173,105.48Z"/><path class="cls-1" d="M160.62,111.48a4.06,4.06,0,1,1-4.05,4.06A4.05,4.05,0,0,1,160.62,111.48Z"/><circle class="cls-1" cx="148.36" cy="121.53" r="4.06"/><path class="cls-1" d="M136.1,123.47a4.06,4.06,0,1,1-4.06,4A4,4,0,0,1,136.1,123.47Z"/><circle class="cls-1" cx="123.83" cy="133.52" r="4.06"/><circle class="cls-1" cx="111.48" cy="139.51" r="4.06"/><path class="cls-1" d="M99.22,141.45a4.06,4.06,0,1,1-4.06,4.05A4,4,0,0,1,99.22,141.45Z"/><circle class="cls-1" cx="86.95" cy="151.5" r="4.06"/><circle class="cls-1" cx="50.07" cy="169.48" r="4.06"/><circle class="cls-1" cx="37.81" cy="175.47" r="4.06"/><path class="cls-1" d="M25.45,177.41a4.06,4.06,0,1,1-4.06,4.05A4.05,4.05,0,0,1,25.45,177.41Z"/><circle class="cls-1" cx="13.19" cy="187.46" r="4.06"/><path class="cls-1" d="M248.59,58.55a3.32,3.32,0,1,1-3.32,3.32A3.32,3.32,0,0,1,248.59,58.55Z"/><path class="cls-1" d="M236.33,63.81a4.06,4.06,0,1,1-4.06,4A4,4,0,0,1,236.33,63.81Z"/><path class="cls-1" d="M224,69.8a4.06,4.06,0,1,1-4.06,4.06A4.06,4.06,0,0,1,224,69.8Z"/><path class="cls-1" d="M211.71,75.79a4.06,4.06,0,1,1-4.06,4.06A4.05,4.05,0,0,1,211.71,75.79Z"/><path class="cls-1" d="M199.44,81.79a4.06,4.06,0,1,1-4.05,4.06A4.06,4.06,0,0,1,199.44,81.79Z"/><path class="cls-1" d="M187.18,87.78a4.06,4.06,0,1,1-4.06,4.06A4.06,4.06,0,0,1,187.18,87.78Z"/><path class="cls-1" d="M174.83,93.77a4.06,4.06,0,1,1-4.06,4.06A4.05,4.05,0,0,1,174.83,93.77Z"/><path class="cls-1" d="M162.56,99.77a4.06,4.06,0,1,1-4.06,4.06A4.06,4.06,0,0,1,162.56,99.77Z"/><path class="cls-1" d="M150.3,105.76a4.06,4.06,0,1,1-4.06,4.06A4.05,4.05,0,0,1,150.3,105.76Z"/><path class="cls-1" d="M137.94,111.76a4.06,4.06,0,1,1-4.06,4A4.05,4.05,0,0,1,137.94,111.76Z"/><path class="cls-1" d="M125.68,117.75a4.06,4.06,0,1,1-4.06,4.06A4.06,4.06,0,0,1,125.68,117.75Z"/><path class="cls-1" d="M113.41,123.74a4.06,4.06,0,1,1-4,4.06A4.06,4.06,0,0,1,113.41,123.74Z"/><path class="cls-1" d="M101.15,129.74a4.06,4.06,0,1,1-4.06,4A4.05,4.05,0,0,1,101.15,129.74Z"/><path class="cls-1" d="M39.65,159.7a4.06,4.06,0,1,1-4.06,4.06A4.06,4.06,0,0,1,39.65,159.7Z"/><path class="cls-1" d="M27.39,165.7a4.06,4.06,0,1,1-4.06,4.05A4,4,0,0,1,27.39,165.7Z"/><path class="cls-1" d="M15.12,171.69a4.06,4.06,0,1,1-4.06,4.06A4.06,4.06,0,0,1,15.12,171.69Z"/><circle class="cls-1" cx="2.77" cy="181.74" r="2.77"/><path class="cls-1" d="M238.17,52.1a4.06,4.06,0,1,1-4.06,4A4.05,4.05,0,0,1,238.17,52.1Z"/><path class="cls-1" d="M225.91,58.09a4.06,4.06,0,1,1-4.06,4.06A4.05,4.05,0,0,1,225.91,58.09Z"/><path class="cls-1" d="M213.64,64.08a4.06,4.06,0,1,1-4,4.06A4.06,4.06,0,0,1,213.64,64.08Z"/><path class="cls-1" d="M201.29,70.08a4.06,4.06,0,1,1-4.06,4A4.05,4.05,0,0,1,201.29,70.08Z"/><path class="cls-1" d="M189,76.07A4.06,4.06,0,1,1,185,80.13,4.06,4.06,0,0,1,189,76.07Z"/><path class="cls-1" d="M176.76,82.06a4.06,4.06,0,1,1-4.06,4.06A4.06,4.06,0,0,1,176.76,82.06Z"/><path class="cls-1" d="M164.41,88.06a4.06,4.06,0,1,1-4.06,4A4,4,0,0,1,164.41,88.06Z"/><path class="cls-1" d="M152.14,94.05a4.06,4.06,0,1,1-4.06,4.06A4.06,4.06,0,0,1,152.14,94.05Z"/><path class="cls-1" d="M139.88,100a4.06,4.06,0,1,1-4.06,4.06A4.06,4.06,0,0,1,139.88,100Z"/><path class="cls-1" d="M127.61,106a4.06,4.06,0,1,1-4,4.06A4.05,4.05,0,0,1,127.61,106Z"/><circle class="cls-1" cx="115.26" cy="116.09" r="4.06"/><path class="cls-1" d="M103,118a4.06,4.06,0,1,1-4.06,4A4,4,0,0,1,103,118Z"/><path class="cls-1" d="M17,160A4.06,4.06,0,1,1,12.91,164,4.05,4.05,0,0,1,17,160Z"/><path class="cls-1" d="M4.7,166a4.06,4.06,0,1,1-4,4.06A4.06,4.06,0,0,1,4.7,166Z"/><path class="cls-1" d="M227.75,46.38a4.06,4.06,0,1,1-4.06,4.06A4.06,4.06,0,0,1,227.75,46.38Z"/><path class="cls-1" d="M215.49,52.37a4.06,4.06,0,1,1-4.06,4.06A4.06,4.06,0,0,1,215.49,52.37Z"/><path class="cls-1" d="M203.22,58.37a4.06,4.06,0,1,1-4.05,4.05A4,4,0,0,1,203.22,58.37Z"/><path class="cls-1" d="M191,64.36a4.06,4.06,0,1,1-4.06,4.06A4.06,4.06,0,0,1,191,64.36Z"/><path class="cls-1" d="M178.61,70.35a4.06,4.06,0,1,1-4.06,4.06A4.05,4.05,0,0,1,178.61,70.35Z"/><path class="cls-1" d="M166.34,76.35a4.06,4.06,0,1,1-4.06,4.05A4.05,4.05,0,0,1,166.34,76.35Z"/><path class="cls-1" d="M18.9,148.27a4.06,4.06,0,1,1-4,4.06A4.06,4.06,0,0,1,18.9,148.27Z"/><path class="cls-1" d="M6.55,154.26a4.06,4.06,0,1,1-4.06,4.06A4.05,4.05,0,0,1,6.55,154.26Z"/><path class="cls-1" d="M229.69,34.58a4.06,4.06,0,1,1-4.06,4.05A4,4,0,0,1,229.69,34.58Z"/><path class="cls-1" d="M217.42,40.57a4.06,4.06,0,1,1-4,4.06A4.06,4.06,0,0,1,217.42,40.57Z"/><path class="cls-1" d="M205.07,46.56A4.06,4.06,0,1,1,201,50.62,4.06,4.06,0,0,1,205.07,46.56Z"/><path class="cls-1" d="M192.81,52.56a4.06,4.06,0,1,1-4.06,4.06A4,4,0,0,1,192.81,52.56Z"/><path class="cls-1" d="M180.54,58.55a4.06,4.06,0,1,1-4.06,4.06A4.06,4.06,0,0,1,180.54,58.55Z"/><circle class="cls-1" cx="20.75" cy="140.62" r="4.06"/><path class="cls-1" d="M8.48,142.55a4.06,4.06,0,1,1-4.05,4.06A4.06,4.06,0,0,1,8.48,142.55Z"/><path class="cls-1" d="M219.27,28.86a4.06,4.06,0,1,1-4.06,4.06A4.06,4.06,0,0,1,219.27,28.86Z"/><path class="cls-1" d="M207,34.85A4.06,4.06,0,1,1,203,38.91,4.06,4.06,0,0,1,207,34.85Z"/><path class="cls-1" d="M194.65,40.85a4.06,4.06,0,1,1-4.06,4A4.05,4.05,0,0,1,194.65,40.85Z"/><path class="cls-1" d="M22.68,124.76a4.06,4.06,0,1,1-4.05,4A4.05,4.05,0,0,1,22.68,124.76Z"/><path class="cls-1" d="M208.85,23.14a4.06,4.06,0,1,1-4.06,4.06A4.06,4.06,0,0,1,208.85,23.14Z"/><path class="cls-1" d="M196.59,29.14a4.06,4.06,0,1,1-4.06,4A4,4,0,0,1,196.59,29.14Z"/><path class="cls-1" d="M210.79,11.43a4.06,4.06,0,1,1-4.06,4.06A4.05,4.05,0,0,1,210.79,11.43Z"/><path class="cls-1" d="M198.43,17.43a4.06,4.06,0,1,1-4.06,4.05A4.05,4.05,0,0,1,198.43,17.43Z"/><path class="cls-1" d="M200.37,5.72a4.06,4.06,0,1,1-4.06,4.05A4,4,0,0,1,200.37,5.72Z"/><path class="cls-1" d="M188.1,12a3.78,3.78,0,1,1-3.78,3.78A3.78,3.78,0,0,1,188.1,12Z"/><path class="cls-1" d="M190,0a4.06,4.06,0,1,1-4.06,4.06A4.05,4.05,0,0,1,190,0Z"/></g></g></svg>