<svg xmlns="http://www.w3.org/2000/svg" viewBox="0 0 478.06 369.11"><defs><style>.cls-1{fill:#876a44;}.cls-11,.cls-2,.cls-28{font-size:11px;}.cls-11,.cls-17,.cls-2,.cls-28,.cls-44,.cls-58,.cls-59{fill:#fff;}.cls-11,.cls-17,.cls-2,.cls-28,.cls-45,.cls-58,.cls-59{font-family:Gesta-Regular, Gesta;}.cls-2{letter-spacing:0em;}.cls-3{letter-spacing:0.01em;}.cls-4{letter-spacing:0.01em;}.cls-5{letter-spacing:0.01em;}.cls-6{letter-spacing:0.01em;}.cls-7{letter-spacing:-0.03em;}.cls-8{letter-spacing:0.02em;}.cls-9{letter-spacing:0.01em;}.cls-10{letter-spacing:0em;}.cls-12{letter-spacing:0.01em;}.cls-13{letter-spacing:0.04em;}.cls-14,.cls-28{letter-spacing:0.04em;}.cls-15{letter-spacing:0.01em;}.cls-16{letter-spacing:0.04em;}.cls-17,.cls-58,.cls-59{font-size:12px;}.cls-18{letter-spacing:0.01em;}.cls-19,.cls-58{letter-spacing:0.02em;}.cls-20{letter-spacing:0.01em;}.cls-21{letter-spacing:0.01em;}.cls-22{letter-spacing:0em;}.cls-23{letter-spacing:0.01em;}.cls-24{letter-spacing:-0.03em;}.cls-25{letter-spacing:0.01em;}.cls-26{letter-spacing:0.01em;}.cls-27{letter-spacing:0.02em;}.cls-29{letter-spacing:0.04em;}.cls-30{letter-spacing:0.01em;}.cls-31{letter-spacing:-0.04em;}.cls-32{letter-spacing:0.01em;}.cls-33{letter-spacing:0em;}.cls-34{letter-spacing:0.02em;}.cls-35{letter-spacing:0.05em;}.cls-36{letter-spacing:0.05em;}.cls-37,.cls-38,.cls-39,.cls-40,.cls-41,.cls-42,.cls-43,.cls-62,.cls-63{fill:none;}.cls-37,.cls-62,.cls-63{stroke:#fff;}.cls-37,.cls-38{stroke-width:1.5px;}.cls-38,.cls-39,.cls-40,.cls-41,.cls-42{stroke:#876a44;}.cls-39,.cls-62{stroke-width:3px;}.cls-41,.cls-42,.cls-43{stroke-linecap:round;stroke-linejoin:round;}.cls-41{stroke-dasharray:0 2.02;}.cls-43{stroke:#876a43;}.cls-45{font-size:10.5px;}.cls-46{letter-spacing:0em;}.cls-47{letter-spacing:0.01em;}.cls-48{letter-spacing:0.01em;}.cls-49{letter-spacing:0.02em;}.cls-50{letter-spacing:0.01em;}.cls-51{letter-spacing:0.03em;}.cls-52{letter-spacing:0.03em;}.cls-53{letter-spacing:0.03em;}.cls-54{letter-spacing:0.01em;}.cls-55{letter-spacing:0.04em;}.cls-56{letter-spacing:0.01em;}.cls-57{letter-spacing:0.04em;}.cls-59{letter-spacing:0.03em;}.cls-60{letter-spacing:0em;}.cls-61{letter-spacing:0.04em;}</style></defs><title>Estruc-Sales</title><g id="Capa_2" data-name="Capa 2"><g id="Capa_1-2" data-name="Capa 1"><rect class="cls-1" y="84.99" width="179.29" height="28.57"/><text class="cls-2" transform="translate(49.1 101.89)">P<tspan class="cls-3" x="5.93" y="0">la</tspan><tspan class="cls-4" x="13.8" y="0">n</tspan><tspan class="cls-3" x="19.52" y="0">tas </tspan><tspan class="cls-5" x="35.68" y="0">d</tspan><tspan class="cls-6" x="41.29" y="0">e</tspan><tspan class="cls-3" x="46.44" y="0"> </tspan><tspan class="cls-7" x="49.04" y="0">F</tspan><tspan class="cls-8" x="53.95" y="0">o</tspan><tspan class="cls-3" x="59.65" y="0">s</tspan><tspan class="cls-6" x="64.24" y="0">f</tspan><tspan class="cls-9" x="67.68" y="0">a</tspan><tspan class="cls-10" x="72.98" y="0">to</tspan></text><text class="cls-11" transform="translate(8.63 23.73)"><tspan class="cls-12">R</tspan><tspan class="cls-13" x="6.25" y="0">O</tspan><tspan class="cls-14" x="13.75" y="0">C</tspan><tspan class="cls-15" x="19.99" y="0">A</tspan><tspan x="26.21" y="0"> </tspan></text><text class="cls-11" transform="translate(8.63 35.73)"><tspan class="cls-13">F</tspan><tspan class="cls-16" x="5.72" y="0">O</tspan><tspan class="cls-13" x="13.21" y="0">S</tspan><tspan class="cls-16" x="18.94" y="0">F</tspan><tspan class="cls-13" x="24.65" y="0">ÓR</tspan><tspan class="cls-14" x="38.74" y="0">I</tspan><tspan class="cls-13" x="41.83" y="0">C</tspan><tspan x="48.08" y="0">A</tspan></text><text class="cls-17" transform="translate(9.21 334.05)"><tspan class="cls-18">P</tspan><tspan x="6.62" y="0">r</tspan><tspan class="cls-19" x="10.68" y="0">o</tspan><tspan class="cls-20" x="17.02" y="0">du</tspan><tspan class="cls-21" x="29.29" y="0">c</tspan><tspan class="cls-22" x="34.63" y="0">t</tspan><tspan class="cls-23" x="38.52" y="0">o</tspan><tspan class="cls-22" x="44.72" y="0">s</tspan></text><text class="cls-17" transform="translate(9.21 347.05)"><tspan class="cls-24">F</tspan><tspan class="cls-21" x="5.36" y="0">o</tspan><tspan class="cls-25" x="11.58" y="0">s</tspan><tspan class="cls-18" x="16.58" y="0">f</tspan><tspan class="cls-26" x="20.34" y="0">ata</tspan><tspan class="cls-20" x="35.92" y="0">d</tspan><tspan class="cls-27" x="42.04" y="0">o</tspan><tspan x="48.25" y="0">s</tspan></text><text class="cls-28" transform="translate(108.55 23.9)">C<tspan class="cls-29" x="6.24" y="0">A</tspan><tspan x="12.73" y="0">R</tspan><tspan class="cls-13" x="19.3" y="0">B</tspan><tspan x="26.05" y="0">O</tspan><tspan class="cls-30" x="33.54" y="0">N</tspan><tspan class="cls-31" x="41.03" y="0">A</tspan><tspan class="cls-13" x="46.71" y="0">T</tspan><tspan class="cls-32" x="52.76" y="0">O</tspan><tspan class="cls-33" x="59.99" y="0"> </tspan></text><text class="cls-11" transform="translate(108.55 35.9)"><tspan class="cls-16">D</tspan><tspan class="cls-34" x="7.17" y="0">E </tspan><tspan class="cls-16" x="15.64" y="0">C</tspan><tspan class="cls-13" x="21.88" y="0">A</tspan><tspan class="cls-35" x="28.37" y="0">L</tspan><tspan class="cls-36" x="34.07" y="0">C</tspan><tspan class="cls-14" x="40.48" y="0">I</tspan><tspan x="43.57" y="0">O</tspan></text><path class="cls-37" d="M192.2,258.49H147.93s-5.67,0-5.67-5.67V209.75s0-5.67-5.67-5.67H94.16"/><polyline class="cls-37" points="98.71 208.31 94.16 204.08 98.71 199.86"/><line class="cls-37" x1="37.75" y1="55.31" x2="37.75" y2="77.14"/><polyline class="cls-37" points="41.97 72.6 37.75 77.14 33.52 72.6"/><line class="cls-37" x1="136.87" y1="55.31" x2="136.87" y2="77.14"/><polyline class="cls-37" points="141.09 72.6 136.87 77.14 132.64 72.6"/><path class="cls-38" d="M88.6,111.44V341s0,4-4,4H76.65"/><polyline class="cls-38" points="81.19 340.76 76.64 344.98 81.19 349.21"/><line class="cls-39" y1="2.1" x2="79.37" y2="2.1"/><line class="cls-39" y1="315.46" x2="70.87" y2="315.46"/><line class="cls-39" x1="99.21" y1="2.1" x2="178.58" y2="2.1"/><line class="cls-40" y1="55.25" x2="79.37" y2="55.25"/><line class="cls-40" y1="368.61" x2="70.87" y2="368.61"/><line class="cls-40" x1="99.21" y1="55.25" x2="178.58" y2="55.25"/><line class="cls-40" x1="78.85" y1="2.8" x2="78.85" y2="55.23"/><line class="cls-41" x1="70.37" y1="318.19" x2="70.37" y2="367.6"/><path class="cls-42" d="M70.37,368.61h0m0-52.44h0"/><line class="cls-41" x1="0.5" y1="318.19" x2="0.5" y2="367.6"/><path class="cls-43" d="M.5,368.61h0m0-52.44h0"/><line class="cls-40" x1="178.06" y1="2.8" x2="178.06" y2="55.23"/><line class="cls-40" x1="0.5" y1="2.8" x2="0.5" y2="55.23"/><line class="cls-40" x1="99.71" y1="2.8" x2="99.71" y2="55.23"/><rect class="cls-44" x="251.21" y="84.39" width="180.79" height="28.57"/><text class="cls-45" transform="translate(297.13 103.29)"><tspan class="cls-46">P</tspan><tspan class="cls-47" x="5.66" y="0">la</tspan><tspan class="cls-48" x="13.18" y="0">n</tspan><tspan class="cls-47" x="18.64" y="0">tas </tspan><tspan class="cls-49" x="34.06" y="0">C</tspan><tspan class="cls-50" x="39.83" y="0">l</tspan><tspan class="cls-47" x="42.23" y="0">o</tspan><tspan x="47.62" y="0">r</tspan><tspan class="cls-51" x="51.17" y="0">o</tspan><tspan class="cls-52" x="56.76" y="0">-</tspan><tspan class="cls-53" x="60.24" y="0">So</tspan><tspan class="cls-54" x="71.12" y="0">d</tspan><tspan x="76.52" y="0">a</tspan></text><text class="cls-17" transform="translate(262.67 30.41)"><tspan class="cls-55">ENE</tspan><tspan class="cls-56" x="21.29" y="0">R</tspan><tspan class="cls-55" x="28.1" y="0">G</tspan><tspan class="cls-57" x="35.69" y="0">Í</tspan><tspan x="39.06" y="0">A</tspan></text><text class="cls-58" transform="translate(310.26 166.53)">Cloro</text><text class="cls-59" transform="translate(211.05 166.52)">Hidrógeno</text><text class="cls-58" transform="translate(211.05 238.42)">Ácido </text><text class="cls-59" transform="translate(211.05 251.42)">Clorhídrico</text><text class="cls-17" transform="translate(361.88 30.38)"><tspan class="cls-60">S</tspan><tspan class="cls-61" x="5.83" y="0">A</tspan><tspan x="12.9" y="0">L</tspan></text><text class="cls-58" transform="translate(409.31 163.5)">Soda </text><text class="cls-58" transform="translate(409.31 176.5)">Caústica</text><line class="cls-37" x1="343.11" y1="110.84" x2="343.11" y2="140.24"/><polyline class="cls-37" points="347.33 135.7 343.11 140.24 338.89 135.7"/><path class="cls-37" d="M242.59,140.63v-7.92s0-5.67,5.67-5.67H437.55s5,0,5,5v8.59"/><polyline class="cls-37" points="246.82 136.09 242.59 140.63 238.37 136.09"/><polyline class="cls-37" points="446.77 136.09 442.55 140.63 438.32 136.09"/><line class="cls-37" x1="292.91" y1="54.71" x2="292.91" y2="76.54"/><polyline class="cls-37" points="297.13 72 292.91 76.54 288.68 72"/><line class="cls-37" x1="241.46" y1="188.11" x2="241.46" y2="209.94"/><polyline class="cls-37" points="245.68 205.4 241.46 209.94 237.24 205.4"/><line class="cls-37" x1="392.03" y1="54.71" x2="392.03" y2="76.54"/><polyline class="cls-37" points="396.25 72 392.03 76.54 387.81 72"/><line class="cls-39" x1="253.33" y1="1.5" x2="332.7" y2="1.5"/><line class="cls-62" x1="307.98" y1="148.9" x2="378.84" y2="148.9"/><line class="cls-62" x1="208.76" y1="148.9" x2="279.63" y2="148.9"/><line class="cls-62" x1="208.76" y1="218.82" x2="279.63" y2="218.82"/><line class="cls-39" x1="352.54" y1="1.5" x2="431.91" y2="1.5"/><line class="cls-62" x1="407.19" y1="148.9" x2="478.06" y2="148.9"/><line class="cls-40" x1="253.33" y1="54.65" x2="332.7" y2="54.65"/><line class="cls-63" x1="307.98" y1="188.05" x2="378.84" y2="188.05"/><line class="cls-63" x1="208.76" y1="188.05" x2="279.63" y2="188.05"/><line class="cls-63" x1="208.76" y1="266.96" x2="279.63" y2="266.96"/><line class="cls-40" x1="352.54" y1="54.65" x2="431.91" y2="54.65"/><line class="cls-63" x1="407.19" y1="188.05" x2="478.06" y2="188.05"/><line class="cls-40" x1="332.14" y1="2.2" x2="332.14" y2="54.63"/><line class="cls-40" x1="431.33" y1="2.2" x2="431.33" y2="54.63"/><line class="cls-40" x1="253.79" y1="2.2" x2="253.79" y2="54.63"/><line class="cls-40" x1="352.98" y1="2.2" x2="352.98" y2="54.63"/></g></g></svg>