<svg xmlns="http://www.w3.org/2000/svg" viewBox="0 0 288.15 434.82"><defs><style>.cls-1,.cls-25{fill:#876a44;}.cls-2{font-size:12px;}.cls-16,.cls-17,.cls-18,.cls-19,.cls-2{fill:#fff;font-family:Gesta-Regular, Gesta;}.cls-3{letter-spacing:0em;}.cls-4{letter-spacing:0.01em;}.cls-5{letter-spacing:0.01em;}.cls-6{letter-spacing:0.02em;}.cls-7{letter-spacing:0em;}.cls-8{letter-spacing:0.01em;}.cls-9{letter-spacing:0em;}.cls-10{letter-spacing:0.03em;}.cls-11{letter-spacing:0.03em;}.cls-12{letter-spacing:0.02em;}.cls-13{letter-spacing:0.04em;}.cls-14{letter-spacing:0.01em;}.cls-15{letter-spacing:0.04em;}.cls-16,.cls-18,.cls-19{font-size:11.5px;}.cls-16{letter-spacing:0.03em;}.cls-17{font-size:10px;letter-spacing:0.03em;}.cls-18{letter-spacing:0.03em;}.cls-19{letter-spacing:0.02em;}.cls-20{letter-spacing:0em;}.cls-21{letter-spacing:0.04em;}.cls-22,.cls-23,.cls-24,.cls-26,.cls-27,.cls-28,.cls-29{fill:none;}.cls-22,.cls-24,.cls-26,.cls-28,.cls-29{stroke:#fff;}.cls-22{stroke-width:1.5px;}.cls-23,.cls-25,.cls-27{stroke:#876a44;}.cls-23,.cls-24{stroke-width:3px;}.cls-28,.cls-29{stroke-linecap:round;stroke-linejoin:round;}.cls-28{stroke-dasharray:0 2.02;}</style></defs><title>Estruc-QUIMICOS</title><g id="Capa_2" data-name="Capa 2"><g id="Capa_1-2" data-name="Capa 1"><rect class="cls-1" x="42.44" y="84.39" width="180.79" height="28.57"/><text class="cls-2" transform="translate(88.37 103.29)"><tspan class="cls-3">P</tspan><tspan class="cls-4" x="6.47" y="0">la</tspan><tspan class="cls-5" x="15.06" y="0">n</tspan><tspan class="cls-4" x="21.3" y="0">tas </tspan><tspan class="cls-6" x="38.93" y="0">C</tspan><tspan class="cls-7" x="45.52" y="0">l</tspan><tspan class="cls-8" x="48.26" y="0">o</tspan><tspan class="cls-9" x="54.42" y="0">r</tspan><tspan class="cls-10" x="58.48" y="0">o</tspan><tspan class="cls-11" x="64.87" y="0">-</tspan><tspan class="cls-12" x="68.84" y="0">So</tspan><tspan class="cls-4" x="81.27" y="0">d</tspan><tspan x="87.45" y="0">a</tspan></text><text class="cls-2" transform="translate(53.91 30.41)"><tspan class="cls-13">ENE</tspan><tspan class="cls-14" x="21.29" y="0">R</tspan><tspan class="cls-13" x="28.1" y="0">G</tspan><tspan class="cls-15" x="35.69" y="0">Í</tspan><tspan x="39.06" y="0">A</tspan></text><text class="cls-16" transform="translate(101.5 163.53)">Cloro</text><text class="cls-16" transform="translate(108.58 329.39)">Cloro</text><text class="cls-17" transform="translate(108.58 339.39)">Líquido</text><text class="cls-18" transform="translate(2.28 163.52)">Hidrógeno</text><text class="cls-19" transform="translate(9.36 329.38)">Cloruro </text><text class="cls-18" transform="translate(9.36 339.38)">Férrico</text><text class="cls-18" transform="translate(2.28 238.42)">Ácido </text><text class="cls-19" transform="translate(2.28 248.42)">Clorhídrico</text><text class="cls-2" transform="translate(153.11 30.38)"><tspan class="cls-20">S</tspan><tspan class="cls-21" x="5.83" y="0">A</tspan><tspan x="12.9" y="0">L</tspan></text><text class="cls-19" transform="translate(200.54 163.5)">Soda </text><text class="cls-16" transform="translate(200.54 174.5)">Caústica</text><text class="cls-19" transform="translate(204.79 329.36)">Hipoclorito </text><text class="cls-19" transform="translate(204.79 339.36)">de Sodio</text><text class="cls-19" transform="translate(204.79 395.54)">Hipoclorito </text><text class="cls-19" transform="translate(204.79 405.54)">de Calcio</text><line class="cls-22" x1="135.41" y1="243.2" x2="81.18" y2="243.2"/><polyline class="cls-22" points="85.72 247.42 81.18 243.2 85.72 238.97"/><line class="cls-22" x1="287.72" y1="337.35" x2="276.07" y2="337.35"/><polyline class="cls-22" points="280.61 341.58 276.07 337.35 280.61 333.13"/><path class="cls-22" d="M135.32,280.84h92.31s5,0,5,5V293"/><polyline class="cls-22" points="236.85 288.44 232.63 292.98 228.41 288.44"/><path class="cls-22" d="M32.88,280.78H81s5.09,0,5.09,6v121s0,4-4,4h-8"/><polyline class="cls-22" points="78.64 407.52 74.09 411.75 78.64 415.97"/><line class="cls-22" x1="134.35" y1="112.96" x2="134.35" y2="140.24"/><polyline class="cls-22" points="138.57 135.7 134.34 140.24 130.12 135.7"/><line class="cls-22" x1="135.05" y1="187.94" x2="135.05" y2="292.46"/><polyline class="cls-22" points="139.28 287.92 135.05 292.46 130.83 287.92"/><path class="cls-22" d="M183.31,282.14V408.69s0,4,4,4h7.31"/><polyline class="cls-22" points="190.08 408.47 194.63 412.69 190.08 416.92"/><path class="cls-22" d="M33.83,140.63v-7.92s0-5.67,5.67-5.67H228.78s5,0,5,5v8.59"/><polyline class="cls-22" points="38.05 136.09 33.83 140.63 29.61 136.09"/><polyline class="cls-22" points="238 136.09 233.78 140.63 229.56 136.09"/><line class="cls-22" x1="84.14" y1="54.71" x2="84.14" y2="76.54"/><polyline class="cls-22" points="88.37 72 84.14 76.54 79.92 72"/><line class="cls-22" x1="32.69" y1="188.11" x2="32.69" y2="209.94"/><polyline class="cls-22" points="36.92 205.4 32.69 209.94 28.47 205.4"/><line class="cls-22" x1="32.69" y1="270.88" x2="32.69" y2="292.71"/><polyline class="cls-22" points="36.92 288.17 32.69 292.71 28.47 288.17"/><line class="cls-22" x1="183.26" y1="54.71" x2="183.26" y2="76.54"/><polyline class="cls-22" points="187.49 72 183.26 76.54 179.04 72"/><path class="cls-22" d="M274.25,164.82h9.67s3.48,0,3.48,4v250.8s0,4-4,4h-7.31"/><polyline class="cls-22" points="280.64 419.4 276.09 423.62 280.64 427.85"/><line class="cls-23" x1="44.57" y1="1.5" x2="123.94" y2="1.5"/><line class="cls-24" x1="99.21" y1="148.9" x2="170.08" y2="148.9"/><line class="cls-24" x1="99.21" y1="314.77" x2="170.08" y2="314.77"/><line class="cls-24" y1="148.9" x2="70.87" y2="148.9"/><line class="cls-24" y1="314.77" x2="70.87" y2="314.77"/><line class="cls-24" y1="218.82" x2="70.87" y2="218.82"/><line class="cls-23" x1="143.78" y1="1.5" x2="223.15" y2="1.5"/><line class="cls-24" x1="198.43" y1="148.9" x2="269.29" y2="148.9"/><line class="cls-24" x1="198.43" y1="314.77" x2="269.29" y2="314.77"/><line class="cls-24" x1="198.43" y1="380.95" x2="269.29" y2="380.95"/><line class="cls-25" x1="44.57" y1="54.65" x2="123.94" y2="54.65"/><line class="cls-26" x1="99.21" y1="188.05" x2="170.08" y2="188.05"/><line class="cls-26" x1="99.21" y1="367.92" x2="170.08" y2="367.92"/><line class="cls-26" y1="188.05" x2="70.87" y2="188.05"/><line class="cls-26" y1="367.92" x2="70.87" y2="367.92"/><line class="cls-26" y1="270.96" x2="70.87" y2="270.96"/><line class="cls-27" x1="143.78" y1="54.65" x2="223.15" y2="54.65"/><line class="cls-26" x1="198.43" y1="188.05" x2="269.29" y2="188.05"/><line class="cls-26" x1="198.43" y1="367.92" x2="269.29" y2="367.92"/><line class="cls-26" x1="198.43" y1="434.1" x2="269.29" y2="434.1"/><line class="cls-28" x1="70.37" y1="317.59" x2="70.37" y2="367"/><path class="cls-29" d="M70.37,368h0m0-52.44h0"/><line class="cls-28" x1="0.5" y1="317.59" x2="0.5" y2="367"/><path class="cls-29" d="M.5,368h0m0-52.44h0"/><line class="cls-28" x1="198.93" y1="317.59" x2="198.93" y2="367"/><path class="cls-29" d="M198.93,368h0m0-52.44h0"/><line class="cls-28" x1="99.71" y1="317.59" x2="99.71" y2="367"/><path class="cls-29" d="M99.71,368h0m0-52.44h0"/><line class="cls-28" x1="169.58" y1="317.48" x2="169.58" y2="366.88"/><path class="cls-29" d="M169.58,367.89h0m0-52.43h0"/><line class="cls-28" x1="268.94" y1="317.59" x2="268.94" y2="367"/><path class="cls-29" d="M268.94,368h0m0-52.44h0"/><text class="cls-19" transform="translate(9.36 395.78)">Cloruro de </text><text class="cls-19" transform="translate(9.36 405.78)">Calcio</text><line class="cls-24" y1="381.17" x2="70.87" y2="381.17"/><line class="cls-26" y1="434.32" x2="70.87" y2="434.32"/><line class="cls-28" x1="70.37" y1="383.89" x2="70.37" y2="433.3"/><line class="cls-28" x1="0.5" y1="383.89" x2="0.5" y2="433.3"/><line class="cls-28" x1="198.93" y1="383.67" x2="198.93" y2="433.08"/><path class="cls-29" d="M198.93,434.08h0m0-52.43h0"/><line class="cls-28" x1="268.94" y1="383.67" x2="268.94" y2="433.08"/><path class="cls-29" d="M268.94,434.08h0m0-52.43h0"/><line class="cls-25" x1="123.37" y1="2.2" x2="123.37" y2="54.63"/><line class="cls-27" x1="222.57" y1="2.2" x2="222.57" y2="54.63"/><line class="cls-25" x1="45.02" y1="2.2" x2="45.02" y2="54.63"/><line class="cls-27" x1="144.22" y1="2.2" x2="144.22" y2="54.63"/></g></g></svg>