<svg xmlns="http://www.w3.org/2000/svg" viewBox="0 0 479.47 461.21"><defs><style>.cls-1,.cls-17,.cls-23,.cls-53,.cls-69,.cls-8{fill:#8b7053;}.cls-17,.cls-2,.cls-23,.cls-3{font-size:10.5px;}.cls-2,.cls-25,.cls-28,.cls-3,.cls-31,.cls-38,.cls-44{fill:#fff;}.cls-17,.cls-2,.cls-23,.cls-25,.cls-28,.cls-3,.cls-31,.cls-44,.cls-53,.cls-69,.cls-8{font-family:Gesta-Regular, Gesta;}.cls-2{letter-spacing:0.01em;}.cls-4{letter-spacing:0.01em;}.cls-5{letter-spacing:0.01em;}.cls-6{letter-spacing:0.01em;}.cls-7{letter-spacing:0em;}.cls-31,.cls-44,.cls-53,.cls-8{font-size:10px;}.cls-53,.cls-9{letter-spacing:0em;}.cls-10{letter-spacing:0.04em;}.cls-11{letter-spacing:0.02em;}.cls-12{letter-spacing:0.02em;}.cls-13{letter-spacing:0.04em;}.cls-14{letter-spacing:0.01em;}.cls-15{letter-spacing:0.04em;}.cls-16{letter-spacing:0.01em;}.cls-18{letter-spacing:0em;}.cls-19{letter-spacing:0.04em;}.cls-20{letter-spacing:0.04em;}.cls-21{letter-spacing:0.04em;}.cls-22{letter-spacing:0.01em;}.cls-23{letter-spacing:0.03em;}.cls-24{letter-spacing:0em;}.cls-25,.cls-28{font-size:11px;}.cls-25,.cls-30{letter-spacing:0.02em;}.cls-26{letter-spacing:0.01em;}.cls-27{letter-spacing:0em;}.cls-29{letter-spacing:0.02em;}.cls-32{letter-spacing:0.01em;}.cls-33{letter-spacing:0.01em;}.cls-34{letter-spacing:0.01em;}.cls-35{letter-spacing:0.01em;}.cls-36{letter-spacing:0.01em;}.cls-37{letter-spacing:0.01em;}.cls-39{letter-spacing:0.01em;}.cls-40{letter-spacing:-0.01em;}.cls-41{letter-spacing:0em;}.cls-42{letter-spacing:0.01em;}.cls-43{letter-spacing:0em;}.cls-44,.cls-48{letter-spacing:0.01em;}.cls-45{letter-spacing:0.01em;}.cls-46{letter-spacing:0em;}.cls-47{letter-spacing:0em;}.cls-49{letter-spacing:0.02em;}.cls-50{letter-spacing:0.01em;}.cls-51{letter-spacing:0em;}.cls-52{letter-spacing:0em;}.cls-54{letter-spacing:0.01em;}.cls-55{letter-spacing:0.02em;}.cls-56{letter-spacing:0.03em;}.cls-57{letter-spacing:-0.02em;}.cls-58,.cls-59,.cls-60,.cls-61,.cls-62,.cls-63,.cls-64,.cls-65,.cls-66,.cls-67,.cls-68,.cls-76{fill:none;}.cls-58,.cls-59,.cls-61,.cls-63,.cls-64,.cls-65,.cls-68{stroke:#fff;}.cls-58,.cls-76{stroke-width:1.5px;}.cls-59,.cls-60{stroke-width:3px;}.cls-60,.cls-62,.cls-66,.cls-67,.cls-76{stroke:#8b7053;}.cls-63,.cls-64,.cls-65,.cls-66,.cls-67,.cls-68{stroke-linecap:round;stroke-linejoin:round;}.cls-63{stroke-dasharray:0 2.01;}.cls-65{stroke-dasharray:0 1.99;}.cls-66{stroke-dasharray:0 2.02;}.cls-68{stroke-dasharray:0 1.98;}.cls-69{font-size:9.5px;}.cls-70{letter-spacing:-0.01em;}.cls-71{letter-spacing:-0.02em;}.cls-72{letter-spacing:-0.02em;}.cls-73{letter-spacing:0em;}.cls-74{letter-spacing:-0.02em;}.cls-75{letter-spacing:-0.02em;}</style></defs><title>Estruc-Fosfatos</title><g id="Capa_2" data-name="Capa 2"><g id="Capa_1-2" data-name="Capa 1"><rect class="cls-1" y="84.39" width="148.25" height="28.63"/><text class="cls-2" transform="translate(43.53 102.31)">Salinas Otuma</text><rect class="cls-1" x="289.76" y="84.39" width="188.16" height="28.64"/><text class="cls-3" transform="translate(351.26 102.12)"><tspan class="cls-4">S</tspan><tspan class="cls-5" x="5.23" y="0">ali</tspan><tspan class="cls-6" x="15.2" y="0">n</tspan><tspan class="cls-5" x="20.66" y="0">as </tspan><tspan class="cls-6" x="32.58" y="0">H</tspan><tspan class="cls-5" x="39.37" y="0">u</tspan><tspan class="cls-7" x="44.81" y="0">ac</tspan><tspan x="54.39" y="0">ho</tspan></text><text class="cls-8" transform="translate(30.6 26.13)"><tspan class="cls-9">S</tspan><tspan class="cls-10" x="4.86" y="0">A</tspan><tspan class="cls-11" x="10.76" y="0">L</tspan><tspan class="cls-12" x="15.65" y="0"> </tspan><tspan class="cls-13" x="18.15" y="0">D</tspan><tspan class="cls-14" x="24.68" y="0">E</tspan><tspan x="29.77" y="0"> </tspan></text><text class="cls-8" transform="translate(30.6 36.13)"><tspan class="cls-10">M</tspan><tspan class="cls-15" x="8.01" y="0">I</tspan><tspan class="cls-16" x="10.82" y="0">N</tspan><tspan x="17.62" y="0">A</tspan></text><text class="cls-17" transform="translate(382.29 25.63)"><tspan class="cls-18">S</tspan><tspan class="cls-19" x="5.1" y="0">A</tspan><tspan class="cls-20" x="11.3" y="0">L</tspan><tspan class="cls-21" x="16.58" y="0">MUERA</tspan><tspan class="cls-22" x="50.14" y="0">S</tspan><tspan x="55.35" y="0"> </tspan></text><text class="cls-23" transform="translate(382.29 35.63)">S<tspan class="cls-21" x="5.42" y="0">U</tspan><tspan x="12.47" y="0">B</tspan><tspan class="cls-19" x="18.86" y="0">TE</tspan><tspan class="cls-20" x="30.24" y="0">R</tspan><tspan class="cls-21" x="36.52" y="0">RÁNEA</tspan><tspan class="cls-24" x="68.22" y="0">S</tspan></text><text class="cls-25" transform="translate(284.34 213.59)">S<tspan class="cls-26" x="5.48" y="0">a</tspan><tspan class="cls-27" x="10.78" y="0">l</tspan></text><text class="cls-28" transform="translate(284.34 223.59)"><tspan class="cls-29">C</tspan><tspan class="cls-26" x="6.09" y="0">ristali</tspan><tspan class="cls-30" x="31.21" y="0">z</tspan><tspan class="cls-26" x="35.8" y="0">ad</tspan><tspan x="46.77" y="0">a</tspan></text><text class="cls-31" transform="translate(291.42 417.97)"><tspan class="cls-32">S</tspan><tspan class="cls-33" x="4.98" y="0">al </tspan><tspan class="cls-12" x="14.5" y="0">C</tspan><tspan class="cls-34" x="20.04" y="0">onsu</tspan><tspan x="39.73" y="0">mo</tspan></text><text class="cls-31" transform="translate(291.42 427.97)"><tspan class="cls-35">In</tspan><tspan class="cls-36" x="7.73" y="0">d</tspan><tspan class="cls-32" x="12.83" y="0">u</tspan><tspan class="cls-34" x="18.06" y="0">str</tspan><tspan class="cls-37" x="29.05" y="0">i</tspan><tspan class="cls-34" x="31.38" y="0">a</tspan><tspan x="36.2" y="0">l</tspan></text><path class="cls-38" d="M354.55,320.94l.25-.06c.33-.1.4-.11.4-.71v-4.4c0-.61-.07-.62-.4-.71l-.25-.07v-.14h3.23c1.8,0,2.57.51,2.57,1.62a1.39,1.39,0,0,1-1.14,1.49v0a17.85,17.85,0,0,0,1.41,2.63.65.65,0,0,0,.38.29l.16,0v.15h-2.43a14.33,14.33,0,0,1-1.34-2.78h-.26v1.86c0,.59,0,.64.34.71l.26.06v.15h-3.18Zm3.88-4.32c0-1-.17-1.47-.82-1.47a2,2,0,0,0-.48,0V318a1.4,1.4,0,0,0,.34,0C358.09,318,358.43,317.75,358.43,316.62Zm2.48,2.16a2.42,2.42,0,0,1,2.44-2.53c1.31,0,2.1.63,2.14,2.19h-2.93c0,1.56.54,1.94,1.52,1.94a2.61,2.61,0,0,0,1.24-.31v.16a2.52,2.52,0,0,1-2,1A2.14,2.14,0,0,1,360.91,318.78Zm1.65-.57,1.32-.09c0-1.26-.13-1.62-.6-1.62S362.59,316.85,362.56,318.21Zm8.15-2,.07.05c0,.39,0,.72,0,1.16v2.91c0,.41,0,.44.38.53l.17,0v.15h-2.68v-.15l.15,0c.31-.07.32-.11.32-.54v-3c0-.52-.06-.57-.44-.57h-.73v3.53c0,.39,0,.46.32.53l.17,0v.15h-2.69v-.15l.17,0c.35-.09.37-.14.37-.53v-3.53h-.59v-.11l.59-.36v-.06c0-1.23.91-2.08,2.53-2.08.93,0,1.55.33,1.55.94,0,.32-.24.57-.71.57s-.72-.21-.83-1c0-.21-.09-.26-.24-.26-.37,0-.64.31-.64,1.13v.76H369Zm.69,4.69.17,0c.35-.09.37-.14.37-.53v-3c0-.38,0-.43-.3-.61l-.28-.2v-.09l2.14-.23.07.05V317h0a2.88,2.88,0,0,1,1.74-.72,1.07,1.07,0,0,1,1.16,1.21v2.91c0,.4,0,.43.39.53l.17,0v.15h-2.69v-.15l.14,0c.32-.07.33-.11.33-.54v-2.6c0-.5-.19-.64-.55-.64a3,3,0,0,0-.68.07v3.17c0,.43,0,.47.33.54l.15,0v.15H371.4Zm5.77-2.16a2.42,2.42,0,0,1,2.44-2.53c1.31,0,2.1.63,2.15,2.19h-2.94c0,1.56.54,1.94,1.52,1.94a2.65,2.65,0,0,0,1.25-.31v.16a2.54,2.54,0,0,1-2,1A2.15,2.15,0,0,1,377.17,318.78Zm1.65-.57,1.32-.09c0-1.26-.13-1.62-.6-1.62S378.85,316.85,378.82,318.21Zm3.15,2.73.17,0c.35-.09.37-.14.37-.53v-3c0-.38,0-.43-.3-.61l-.28-.2v-.09l2.15-.23.06.06V317h0a1.9,1.9,0,0,1,1.32-.77.67.67,0,0,1,.72.73.7.7,0,0,1-.72.79.65.65,0,0,1-.68-.46c-.07-.14-.11-.18-.22-.18a.63.63,0,0,0-.41.15v3.09c0,.43,0,.47.37.52l.22,0v.16H382Zm4.35,0,.17,0c.35-.09.37-.14.37-.53v-3c0-.38,0-.43-.31-.62l-.29-.2v-.08l2.23-.23.07.05c0,.4,0,.72,0,1.14v2.93c0,.39,0,.43.38.53l.17,0v.15h-2.75Zm.3-5.12,1.07-1.14a.72.72,0,0,1,.55-.26.62.62,0,0,1,.59.64.54.54,0,0,1-.49.56l-1.68.28Zm2.64,4.25c0-.86.71-1.08,1.47-1.3l1-.28v-.88c0-.8-.07-1.11-.49-1.11-.25,0-.36.06-.39.38,0,.75-.23.93-.74.93s-.69-.19-.69-.57c0-.61.67-1,2.12-1,1.15,0,1.86.34,1.86,1.27V320c0,.39,0,.5.2.6a1,1,0,0,0,.41.09v.12a1.86,1.86,0,0,1-1.16.36,1,1,0,0,1-1-.59h0a1.57,1.57,0,0,1-1.27.59C389.77,321.2,389.26,320.78,389.26,320.07Zm2.51.3v-1.52l-.24,0c-.46,0-.64.22-.64.86s.21.82.49.82A.43.43,0,0,0,391.77,320.37Zm2.56.64-.06-1.53h.17a6.11,6.11,0,0,0,.66,1,1,1,0,0,0,.85.42.62.62,0,0,0,.69-.64c0-.38-.2-.53-1.12-.89s-1.27-.74-1.27-1.51.65-1.64,2-1.64a3.59,3.59,0,0,1,1.27.18l.06,1.3h-.15a6.73,6.73,0,0,0-.58-.82,1,1,0,0,0-.79-.41.59.59,0,0,0-.67.58c0,.37.22.52,1,.81,1.14.42,1.52.87,1.52,1.61,0,1-.72,1.7-2.09,1.7A5.47,5.47,0,0,1,394.33,321Z"/><text class="cls-28" transform="translate(118.2 212.58)"><tspan class="cls-30">S</tspan><tspan class="cls-39" x="5.48" y="0">a</tspan><tspan x="10.78" y="0">l</tspan></text><text class="cls-28" transform="translate(118.2 222.58)"><tspan class="cls-40">U</tspan><tspan class="cls-39" x="6.88" y="0">pg</tspan><tspan class="cls-41" x="18.13" y="0">r</tspan><tspan class="cls-39" x="21.85" y="0">ad</tspan><tspan class="cls-42" x="32.81" y="0">i</tspan><tspan class="cls-43" x="35.38" y="0">n</tspan><tspan x="41.04" y="0">g</tspan></text><text class="cls-44" transform="translate(125.28 416.25)">S<tspan class="cls-45" x="4.98" y="0">al </tspan><tspan class="cls-46" x="14.5" y="0">P</tspan><tspan class="cls-45" x="19.89" y="0">lanta</tspan><tspan class="cls-47" x="40.42" y="0">s </tspan></text><text class="cls-31" transform="translate(125.28 426.25)"><tspan class="cls-37">Q</tspan><tspan class="cls-45" x="6.53" y="0">u</tspan><tspan class="cls-37" x="11.71" y="0">ími</tspan><tspan class="cls-45" x="24.21" y="0">ca</tspan><tspan x="33.43" y="0">s</tspan></text><text class="cls-8" transform="translate(36.7 415.24)"><tspan class="cls-48">S</tspan><tspan class="cls-45" x="4.98" y="0">a</tspan><tspan x="9.8" y="0">l </tspan></text><text class="cls-8" transform="translate(36.7 425.23)"><tspan class="cls-49">D</tspan><tspan class="cls-37" x="6.35" y="0">e</tspan><tspan class="cls-45" x="11.03" y="0">s</tspan><tspan class="cls-50" x="15.2" y="0">h</tspan><tspan class="cls-34" x="20.4" y="0">i</tspan><tspan class="cls-51" x="22.74" y="0">e</tspan><tspan class="cls-52" x="27.37" y="0">l</tspan><tspan x="29.66" y="0">o</tspan></text><text class="cls-53" transform="translate(173.75 25.42)">S<tspan class="cls-10" x="4.86" y="0">A</tspan><tspan class="cls-15" x="10.76" y="0">L</tspan><tspan class="cls-10" x="15.79" y="0">MUERA</tspan><tspan class="cls-54" x="47.75" y="0">S</tspan><tspan class="cls-47" x="52.72" y="0"> </tspan></text><text class="cls-8" transform="translate(173.75 35.42)"><tspan class="cls-15">D</tspan><tspan class="cls-55" x="6.52" y="0">E </tspan><tspan class="cls-10" x="14.22" y="0">MA</tspan><tspan x="28.13" y="0">R</tspan></text><text class="cls-25" transform="translate(409.21 215.57)">S<tspan class="cls-26" x="5.48" y="0">a</tspan><tspan class="cls-27" x="10.78" y="0">l </tspan></text><text class="cls-28" transform="translate(409.21 225.57)"><tspan class="cls-56">L</tspan><tspan class="cls-57" x="5.46" y="0">a</tspan><tspan x="10.44" y="0">v</tspan><tspan class="cls-26" x="15.36" y="0">ad</tspan><tspan x="26.32" y="0">a</tspan></text><text class="cls-31" transform="translate(404.51 418.96)"><tspan class="cls-32">S</tspan><tspan class="cls-33" x="4.98" y="0">al </tspan><tspan class="cls-12" x="14.5" y="0">C</tspan><tspan class="cls-34" x="20.04" y="0">onsu</tspan><tspan x="39.73" y="0">mo</tspan></text><text class="cls-31" transform="translate(404.51 428.95)"><tspan class="cls-37">H</tspan><tspan class="cls-34" x="6.47" y="0">u</tspan><tspan class="cls-35" x="11.65" y="0">m</tspan><tspan class="cls-34" x="19.49" y="0">a</tspan><tspan x="24.31" y="0">no</tspan></text><line class="cls-58" x1="59.72" y1="54.71" x2="59.72" y2="76.54"/><polyline class="cls-58" points="63.94 72 59.72 76.54 55.49 72"/><line class="cls-58" x1="417.85" y1="54.71" x2="417.85" y2="76.54"/><polyline class="cls-58" points="422.08 72 417.85 76.54 413.63 72"/><line class="cls-58" x1="148.6" y1="248.32" x2="148.6" y2="385.52"/><polyline class="cls-58" points="152.82 380.98 148.6 385.52 144.38 380.98"/><line class="cls-59" x1="21.97" y1="1.5" x2="101.34" y2="1.5"/><line class="cls-59" x1="373.65" y1="1.5" x2="464.36" y2="1.5"/><line class="cls-59" x1="282.05" y1="194.96" x2="352.91" y2="194.96"/><line class="cls-59" x1="282.05" y1="398.35" x2="367.09" y2="398.35"/><line class="cls-60" x1="345.12" y1="293.47" x2="415.98" y2="293.47"/><line class="cls-59" x1="115.91" y1="194.96" x2="186.77" y2="194.96"/><line class="cls-59" x1="115.91" y1="397.64" x2="186.77" y2="397.64"/><line class="cls-59" x1="25.35" y1="397.63" x2="96.22" y2="397.63"/><line class="cls-59" x1="164.41" y1="1.5" x2="243.78" y2="1.5"/><line class="cls-59" x1="407.09" y1="194.96" x2="477.95" y2="194.96"/><line class="cls-59" x1="394.02" y1="398.35" x2="479.05" y2="398.35"/><line class="cls-61" x1="21.97" y1="54.65" x2="101.34" y2="54.65"/><line class="cls-61" x1="373.65" y1="54.65" x2="464.36" y2="54.65"/><line class="cls-61" x1="282.05" y1="248.11" x2="352.91" y2="248.11"/><line class="cls-61" x1="282.05" y1="460.71" x2="367.09" y2="460.71"/><line class="cls-62" x1="345.12" y1="346.62" x2="415.98" y2="346.62"/><line class="cls-61" x1="115.91" y1="248.11" x2="186.77" y2="248.11"/><line class="cls-61" x1="115.91" y1="460.7" x2="186.77" y2="460.7"/><line class="cls-61" x1="25.35" y1="460.68" x2="96.22" y2="460.68"/><line class="cls-61" x1="164.41" y1="54.65" x2="243.78" y2="54.65"/><line class="cls-61" x1="407.09" y1="248.11" x2="477.95" y2="248.11"/><line class="cls-61" x1="394.02" y1="460.71" x2="479.05" y2="460.71"/><line class="cls-61" x1="100.82" y1="2.2" x2="100.82" y2="54.63"/><line class="cls-63" x1="95.72" y1="400.35" x2="95.72" y2="459.69"/><path class="cls-64" d="M95.72,460.7h0m0-62.36h0"/><line class="cls-63" x1="25.85" y1="400.35" x2="25.85" y2="459.69"/><path class="cls-64" d="M25.85,460.7h0m0-62.36h0"/><line class="cls-65" x1="394.52" y1="401.16" x2="394.52" y2="459.7"/><path class="cls-64" d="M394.52,460.7h0m0-61.53h0"/><line class="cls-65" x1="282.55" y1="401.16" x2="282.55" y2="459.7"/><path class="cls-64" d="M282.55,460.7h0m0-61.53h0"/><line class="cls-66" x1="345.62" y1="296.29" x2="345.62" y2="345.7"/><path class="cls-67" d="M345.62,346.71h0m0-52.44h0"/><line class="cls-65" x1="366.59" y1="401.03" x2="366.59" y2="459.57"/><path class="cls-64" d="M366.59,460.57h0m0-61.53h0"/><line class="cls-66" x1="415.48" y1="296.18" x2="415.48" y2="345.59"/><path class="cls-67" d="M415.48,346.6h0m0-52.44h0"/><line class="cls-68" x1="478.56" y1="401.16" x2="478.56" y2="459.62"/><path class="cls-64" d="M478.56,460.61h0m0-61.44h0"/><line class="cls-63" x1="186.27" y1="400.35" x2="186.27" y2="459.69"/><path class="cls-64" d="M186.27,460.7h0m0-62.36h0"/><line class="cls-63" x1="116.41" y1="400.35" x2="116.41" y2="459.69"/><path class="cls-64" d="M116.41,460.7h0m0-62.36h0"/><line class="cls-61" x1="243.26" y1="2.2" x2="243.26" y2="54.63"/><line class="cls-61" x1="463.86" y1="2.2" x2="463.86" y2="54.63"/><line class="cls-61" x1="22.47" y1="2.2" x2="22.47" y2="54.63"/><line class="cls-61" x1="164.91" y1="2.2" x2="164.91" y2="54.63"/><line class="cls-61" x1="374.11" y1="2.2" x2="374.11" y2="54.63"/><text class="cls-8" transform="translate(79.3 126.75)">Ica / 750,000 </text><text class="cls-8" transform="translate(136.55 126.75)">TM</text><text class="cls-69" transform="translate(255.57 311.38)">Chicl<tspan class="cls-70" x="18.23" y="0">a</tspan><tspan class="cls-71" x="22.6" y="0">y</tspan><tspan x="26.64" y="0">o / 19,000</tspan><tspan class="cls-72" x="67.06" y="0"> </tspan><tspan class="cls-73" x="69.05" y="0">TM</tspan></text><text class="cls-69" transform="translate(263.97 323.38)">Callao / 98,000<tspan class="cls-74" x="60.33" y="0"> </tspan><tspan class="cls-73" x="62.33" y="0">TM</tspan></text><text class="cls-69" transform="translate(258.4 335.39)">Huacho / 82,000<tspan class="cls-74" x="65.99" y="0"> </tspan><tspan class="cls-73" x="67.98" y="0">TM</tspan></text><text class="cls-8" transform="translate(389.03 126.38)">Huacho / 640,000<tspan class="cls-75" x="75.6" y="0"> </tspan><tspan x="77.69" y="0">TM</tspan></text><path class="cls-58" d="M204.05,54.71v37.7s0,5.67-5.67,5.67h-42.9"/><polyline class="cls-58" points="160.02 102.31 155.48 98.08 160.02 93.86"/><path class="cls-58" d="M442.87,248.1v66s0,5.67-5.67,5.67H422.48"/><polyline class="cls-58" points="427.03 323.96 422.48 319.73 427.03 315.51"/><line class="cls-76" x1="325.23" y1="112.02" x2="325.23" y2="186.69"/><polyline class="cls-76" points="329.45 182.15 325.23 186.69 321.01 182.15"/><line class="cls-76" x1="60.08" y1="111.97" x2="60.08" y2="385.52"/><polyline class="cls-76" points="64.3 380.97 60.08 385.52 55.85 380.97"/><line class="cls-58" x1="278.59" y1="221.09" x2="191.14" y2="221.09"/><polyline class="cls-58" points="195.68 225.32 191.14 221.09 195.68 216.87"/><line class="cls-58" x1="354.21" y1="221.09" x2="400.88" y2="221.09"/><polyline class="cls-58" points="396.33 216.87 400.88 221.09 396.33 225.31"/><path class="cls-76" d="M59.81,154.7H302.39s5.67,0,5.67,5.67v26.32"/><polyline class="cls-76" points="303.83 182.15 308.06 186.69 312.28 182.15"/><path class="cls-76" d="M322.82,385.55V374.87s0-5.67,5.67-5.67H430.76s5.67,0,5.67,5.67v10.64"/><polyline class="cls-76" points="318.6 381 322.82 385.55 327.04 381"/><polyline class="cls-76" points="432.21 380.97 436.43 385.51 440.65 380.97"/><line class="cls-76" x1="379.98" y1="346.39" x2="379.98" y2="369.24"/></g></g></svg>