<svg xmlns="http://www.w3.org/2000/svg" viewBox="0 0 479.06 461.21"><defs><style>.cls-1{fill:#8b7053;}.cls-2{isolation:isolate;}.cls-3{fill:#fff;}.cls-10,.cls-11,.cls-12,.cls-13,.cls-14,.cls-15,.cls-4,.cls-5,.cls-6,.cls-7,.cls-8,.cls-9{fill:none;}.cls-10,.cls-11,.cls-14,.cls-4,.cls-5,.cls-7,.cls-9{stroke:#fff;}.cls-15,.cls-4{stroke-width:1.5px;}.cls-5,.cls-6{stroke-width:3px;}.cls-12,.cls-13,.cls-15,.cls-6,.cls-8{stroke:#8b7053;}.cls-10,.cls-11,.cls-12,.cls-13,.cls-14,.cls-9{stroke-linecap:round;stroke-linejoin:round;}.cls-9{stroke-dasharray:0 2.01;}.cls-11{stroke-dasharray:0 1.99;}.cls-12{stroke-dasharray:0 2.02;}.cls-14{stroke-dasharray:0 1.98;}</style></defs><title>MAP-FOSFATOS</title><g id="Capa_2" data-name="Capa 2"><g id="Capa_1-2" data-name="Capa 1"><g id="Capa_1-2-2" data-name="Capa 1-2"><rect class="cls-1" y="84.39" width="148.25" height="28.63"/><g class="cls-2"><path class="cls-3" d="M44,101.52a8.46,8.46,0,0,0,1.74.21c1,0,1.68-.35,1.68-1.24s-.68-1-1.64-1.36S44,98.35,44,97.26s.81-1.82,2.32-1.82a9,9,0,0,1,1.71.21l-.13.69a7.45,7.45,0,0,0-1.6-.21c-.84,0-1.51.29-1.51,1.08s.79,1,1.67,1.33,1.83.7,1.83,1.93-.86,2-2.48,2a10.69,10.69,0,0,1-1.84-.2Z"/><path class="cls-3" d="M51.11,99.42a6.72,6.72,0,0,1,1.07.09V99c0-.79-.44-1-1.12-1a5.55,5.55,0,0,0-1.43.22l-.15-.61a6,6,0,0,1,1.63-.27c1,0,1.81.4,1.81,1.61v3.35h-.58l-.07-.43a2.52,2.52,0,0,1-1.53.54,1.48,1.48,0,0,1-1.64-1.5C49.1,99.89,49.9,99.42,51.11,99.42Zm-.25,2.39a2.18,2.18,0,0,0,1.32-.48v-1.27c-.36,0-.79-.06-1.06-.06-.74,0-1.26.24-1.26.9A.88.88,0,0,0,50.86,101.81Z"/><path class="cls-3" d="M54.58,95.55h.73v6.76h-.73Z"/><path class="cls-3" d="M57,95.55h.74v.92H57Zm0,1.91h.74v4.85H57Z"/><path class="cls-3" d="M59.49,97.46h.57l.06.47a2.81,2.81,0,0,1,1.64-.58A1.43,1.43,0,0,1,63.3,99v3.36h-.73V99c0-.72-.35-1-.94-1a2.7,2.7,0,0,0-1.41.48v3.82h-.73Z"/><path class="cls-3" d="M66.56,99.42a6.81,6.81,0,0,1,1.07.09V99c0-.79-.44-1-1.13-1a5.41,5.41,0,0,0-1.42.22l-.15-.61a6,6,0,0,1,1.63-.27c1,0,1.8.4,1.8,1.61v3.35h-.58l-.07-.43a2.49,2.49,0,0,1-1.52.54,1.48,1.48,0,0,1-1.64-1.5C64.55,99.89,65.35,99.42,66.56,99.42Zm-.26,2.39a2.21,2.21,0,0,0,1.33-.48v-1.27c-.36,0-.79-.06-1.06-.06-.75,0-1.26.24-1.26.9A.88.88,0,0,0,66.3,101.81Z"/><path class="cls-3" d="M69.73,101.58a6.92,6.92,0,0,0,1.45.18c.68,0,1.19-.2,1.19-.76s-.37-.61-1.12-.85-1.61-.51-1.61-1.43.72-1.37,1.85-1.37a7.13,7.13,0,0,1,1.35.16l-.1.64A7.37,7.37,0,0,0,71.47,98c-.71,0-1.07.25-1.07.68s.5.6,1.26.84,1.46.59,1.46,1.43-.71,1.46-2,1.46a7,7,0,0,1-1.54-.2Z"/><path class="cls-3" d="M79.45,95.44c2,0,2.89,1.17,2.89,3.49s-.94,3.49-2.89,3.49-2.89-1.17-2.89-3.49S77.5,95.44,79.45,95.44Zm0,6.29c1.4,0,2.1-.82,2.1-2.8s-.7-2.8-2.1-2.8-2.1.82-2.1,2.8S78.05,101.73,79.45,101.73Z"/><path class="cls-3" d="M83.91,98.07h-.7v-.54l.73,0L84,96h.65v1.42H86v.61H84.65v3c0,.5.11.74.55.74a2.1,2.1,0,0,0,.74-.16l.2.58a2.43,2.43,0,0,1-1,.24c-.76,0-1.21-.39-1.21-1.36Z"/><path class="cls-3" d="M87.18,97.46h.73v3.29c0,.72.36,1,1,1a2.61,2.61,0,0,0,1.38-.46V97.46H91v4.85H90.4l-.06-.45a2.8,2.8,0,0,1-1.61.56,1.43,1.43,0,0,1-1.55-1.6Z"/><path class="cls-3" d="M92.69,97.46h.57l.06.47a2.63,2.63,0,0,1,1.55-.58,1.32,1.32,0,0,1,1.24.68,2.74,2.74,0,0,1,1.68-.68A1.44,1.44,0,0,1,99.28,99v3.32h-.73V99.06c0-.73-.35-1-.92-1a2.28,2.28,0,0,0-1.33.51,2.34,2.34,0,0,1,0,.47v3.32h-.73V99.06c0-.73-.35-1-.91-1a2.23,2.23,0,0,0-1.29.47v3.83h-.73Z"/><path class="cls-3" d="M102.53,99.42a6.81,6.81,0,0,1,1.07.09V99c0-.79-.44-1-1.12-1a5.48,5.48,0,0,0-1.43.22l-.15-.61a6,6,0,0,1,1.63-.27c1,0,1.8.4,1.8,1.61v3.35h-.57l-.08-.43a2.46,2.46,0,0,1-1.52.54,1.48,1.48,0,0,1-1.64-1.5C100.52,99.89,101.32,99.42,102.53,99.42Zm-.25,2.39a2.18,2.18,0,0,0,1.32-.48v-1.27c-.36,0-.79-.06-1.06-.06-.75,0-1.26.24-1.26.9A.88.88,0,0,0,102.28,101.81Z"/></g><rect class="cls-1" x="289.76" y="84.39" width="188.16" height="28.64"/><g class="cls-2"><g class="cls-2"><path class="cls-3" d="M351.77,101.33a8.46,8.46,0,0,0,1.74.21c1,0,1.68-.35,1.68-1.24s-.68-1-1.64-1.36-1.87-.78-1.87-1.87.81-1.82,2.32-1.82a9,9,0,0,1,1.71.21l-.13.69a7.45,7.45,0,0,0-1.6-.21c-.84,0-1.51.29-1.51,1.08s.79,1,1.67,1.33,1.83.7,1.83,1.93-.86,2-2.48,2a10.69,10.69,0,0,1-1.84-.2Z"/></g><g class="cls-2"><path class="cls-3" d="M358.89,99.23a6.62,6.62,0,0,1,1.07.09v-.48c0-.79-.44-1-1.12-1a5.55,5.55,0,0,0-1.43.22l-.14-.61a6,6,0,0,1,1.62-.26c1,0,1.81.39,1.81,1.6v3.35h-.58l-.07-.43a2.49,2.49,0,0,1-1.52.54,1.48,1.48,0,0,1-1.64-1.5C356.89,99.7,357.69,99.23,358.89,99.23Zm-.25,2.39a2.16,2.16,0,0,0,1.32-.48V99.87c-.35,0-.78-.06-1.06-.06-.74,0-1.26.24-1.26.9A.88.88,0,0,0,358.64,101.62Z"/><path class="cls-3" d="M362.36,95.36h.73v6.76h-.73Z"/><path class="cls-3" d="M364.82,95.36h.73v.92h-.73Zm0,1.91h.73v4.85h-.73Z"/></g><g class="cls-2"><path class="cls-3" d="M367.27,97.27h.56l.07.47a2.8,2.8,0,0,1,1.64-.57,1.42,1.42,0,0,1,1.54,1.59v3.36h-.74V98.83c0-.72-.34-1-.93-1a2.67,2.67,0,0,0-1.41.48v3.82h-.73Z"/></g><g class="cls-2"><path class="cls-3" d="M374.32,99.23a6.62,6.62,0,0,1,1.07.09v-.48c0-.79-.44-1-1.12-1a5.55,5.55,0,0,0-1.43.22l-.14-.61a6,6,0,0,1,1.62-.26c1,0,1.81.39,1.81,1.6v3.35h-.58l-.07-.43a2.49,2.49,0,0,1-1.52.54,1.48,1.48,0,0,1-1.64-1.5C372.32,99.7,373.12,99.23,374.32,99.23Zm-.25,2.39a2.16,2.16,0,0,0,1.32-.48V99.87c-.35,0-.78-.06-1.06-.06-.74,0-1.25.24-1.25.9A.87.87,0,0,0,374.07,101.62Z"/><path class="cls-3" d="M377.5,101.39a6.91,6.91,0,0,0,1.44.18c.69,0,1.2-.19,1.2-.76s-.37-.61-1.12-.85-1.61-.51-1.61-1.43.71-1.36,1.85-1.36a7.15,7.15,0,0,1,1.35.15l-.1.64a7.37,7.37,0,0,0-1.27-.14c-.72,0-1.07.25-1.07.68s.5.6,1.26.84,1.46.59,1.46,1.43-.71,1.46-2,1.46a7,7,0,0,1-1.54-.2Z"/></g><g class="cls-2"><path class="cls-3" d="M384.73,95.36h.78v2.92h3.36V95.36h.78v6.76h-.78V99h-3.36v3.16h-.78Z"/></g><g class="cls-2"><path class="cls-3" d="M391.37,97.27h.73v3.29c0,.72.36,1,.94,1a2.65,2.65,0,0,0,1.39-.46V97.27h.74v4.85h-.58l-.07-.45a2.75,2.75,0,0,1-1.6.56,1.43,1.43,0,0,1-1.55-1.6Z"/></g><g class="cls-2"><path class="cls-3" d="M398.47,99.23a6.62,6.62,0,0,1,1.07.09v-.48c0-.79-.44-1-1.12-1A5.55,5.55,0,0,0,397,98l-.14-.61a6,6,0,0,1,1.62-.26c1,0,1.81.39,1.81,1.6v3.35h-.58l-.07-.43a2.49,2.49,0,0,1-1.52.54,1.48,1.48,0,0,1-1.64-1.5C396.47,99.7,397.27,99.23,398.47,99.23Zm-.25,2.39a2.16,2.16,0,0,0,1.32-.48V99.87c-.35,0-.78-.06-1.06-.06-.74,0-1.26.24-1.26.9A.88.88,0,0,0,398.22,101.62Z"/><path class="cls-3" d="M403.77,97.17a6.16,6.16,0,0,1,1.3.15L405,98a7.47,7.47,0,0,0-1.19-.13c-1.07,0-1.49.57-1.49,1.86,0,1.1.3,1.89,1.43,1.89a3.69,3.69,0,0,0,1.35-.29l.22.59a3.94,3.94,0,0,1-1.61.36c-1.49,0-2.15-1-2.15-2.58S402.07,97.17,403.77,97.17Z"/></g><g class="cls-2"><path class="cls-3" d="M406.46,95.36h.73v2.32a2.76,2.76,0,0,1,1.53-.51,1.42,1.42,0,0,1,1.55,1.59v3.36h-.74V98.83c0-.72-.34-1-.93-1a2.7,2.7,0,0,0-1.41.48v3.82h-.73Z"/><path class="cls-3" d="M413.65,97.17c1.56,0,2.17,1,2.17,2.53s-.61,2.53-2.17,2.53-2.16-1-2.16-2.53S412.1,97.17,413.65,97.17Zm0,4.4c1.1,0,1.42-.79,1.42-1.87s-.32-1.88-1.42-1.88-1.41.79-1.41,1.88S412.55,101.57,413.65,101.57Z"/></g></g><g class="cls-2"><g class="cls-2"><path class="cls-1" d="M31.09,25.38a8.28,8.28,0,0,0,1.65.2c1,0,1.6-.34,1.6-1.18s-.64-1-1.56-1.3S31,22.36,31,21.32s.77-1.73,2.21-1.73a8.25,8.25,0,0,1,1.63.2l-.12.65a7.44,7.44,0,0,0-1.53-.2c-.8,0-1.44.28-1.44,1s.76,1,1.59,1.27,1.75.67,1.75,1.84-.82,1.85-2.37,1.85A9.77,9.77,0,0,1,31,26Z"/></g><g class="cls-2"><path class="cls-1" d="M37.75,19.69h1c.63,1.57,1.51,4.29,2.1,6.44h-.75l-.46-1.61H36.84l-.46,1.61h-.74C36.24,24,37.12,21.26,37.75,19.69Zm1.67,4.19c-.36-1.19-.76-2.38-1.18-3.53h0c-.42,1.15-.82,2.34-1.19,3.53Z"/></g><g class="cls-2"><path class="cls-1" d="M42.21,19.69H43v5.79h2.89v.65H42.21Z"/></g><g class="cls-2"><path class="cls-1" d="M49.6,19.76a10.76,10.76,0,0,1,1.78-.17c2,0,3.08,1,3.08,3.35s-1,3.28-3.16,3.28a14.66,14.66,0,0,1-1.7-.11Zm1.68,5.81c1.65,0,2.43-.63,2.43-2.63s-.77-2.7-2.36-2.7a9.23,9.23,0,0,0-1,.07v5.22C50.67,25.56,51,25.57,51.28,25.57Z"/></g><g class="cls-2"><path class="cls-1" d="M56.13,19.69H59.8v.65H56.87V22.5h2.46v.64H56.87v2.34H59.8v.65H56.13Z"/></g></g><g class="cls-2"><g class="cls-2"><path class="cls-1" d="M31.64,29.69h1.07l1.69,4.46h0l1.68-4.46h1.07c.13,1.52.27,4.32.33,6.44h-.74c-.05-1.81-.13-3.66-.23-5.56h0l-1.7,4.48H34l-1.7-4.48h0c-.1,1.9-.17,3.75-.23,5.56h-.72C31.37,34,31.51,31.21,31.64,29.69Z"/></g><g class="cls-2"><path class="cls-1" d="M39.46,29.69h.74v6.44h-.74Z"/></g><g class="cls-2"><path class="cls-1" d="M42.27,29.69h1.1l3.11,5.55h0V29.69h.73v6.44h-1.1L43,30.58h0v5.55h-.73Z"/></g><g class="cls-2"><path class="cls-1" d="M50.51,29.69h1c.63,1.57,1.51,4.29,2.1,6.44h-.75l-.46-1.61H49.6l-.46,1.61H48.4C49,34,49.88,31.26,50.51,29.69Zm1.67,4.19c-.36-1.19-.76-2.38-1.18-3.53h0c-.42,1.15-.82,2.34-1.19,3.53Z"/></g></g><g class="cls-2"><g class="cls-2"><path class="cls-1" d="M382.8,24.84a8.46,8.46,0,0,0,1.74.21c1,0,1.68-.35,1.68-1.24s-.68-1-1.64-1.36-1.87-.78-1.87-1.87.81-1.82,2.32-1.82a9,9,0,0,1,1.71.21l-.12.69a7.62,7.62,0,0,0-1.61-.21c-.84,0-1.51.29-1.51,1.08s.79,1,1.67,1.33,1.83.7,1.83,1.93-.86,1.95-2.48,1.95a10.69,10.69,0,0,1-1.84-.2Z"/></g><g class="cls-2"><path class="cls-1" d="M389.79,18.87h1c.66,1.65,1.59,4.5,2.21,6.76h-.79l-.48-1.69h-2.9l-.48,1.69h-.78C388.21,23.37,389.13,20.52,389.79,18.87Zm1.76,4.4c-.38-1.25-.8-2.5-1.24-3.71h0c-.44,1.21-.86,2.46-1.25,3.71Z"/></g><g class="cls-2"><path class="cls-1" d="M394.48,18.87h.78V25h3v.68h-3.81Z"/></g><g class="cls-2"><path class="cls-1" d="M400,18.87h1.12l1.78,4.68h0l1.77-4.68h1.12c.13,1.59.28,4.53.34,6.76h-.77c-.05-1.9-.14-3.84-.24-5.84h-.05l-1.78,4.71h-.85l-1.79-4.71h0c-.1,2-.18,3.94-.24,5.84h-.75C399.68,23.4,399.83,20.46,400,18.87Z"/><path class="cls-1" d="M408.12,18.87h.78v4.24c0,1.41.45,1.94,1.74,1.94s1.73-.53,1.73-1.94V18.87h.77v4.34c0,1.65-.69,2.53-2.51,2.53s-2.51-.88-2.51-2.53Z"/><path class="cls-1" d="M415.27,18.87h3.85v.68h-3.07v2.27h2.58v.67h-2.58V25h3.07v.68h-3.85Z"/><path class="cls-1" d="M420.9,18.91a17.55,17.55,0,0,1,1.91-.15c1.46,0,2.55.45,2.55,2a1.79,1.79,0,0,1-1.56,1.92c.48.94,1.09,1.92,1.74,2.93v0h-.91c-.59-.93-1.16-1.91-1.65-2.84a11.22,11.22,0,0,1-1.29-.07v2.91h-.78Zm1.86,3.22c1.08,0,1.81-.26,1.81-1.35s-.69-1.32-1.76-1.32c-.32,0-.75,0-1.13.05v2.57C422.07,22.12,422.52,22.13,422.76,22.13Z"/><path class="cls-1" d="M428.72,18.87h1c.66,1.65,1.58,4.5,2.2,6.76h-.78l-.49-1.69h-2.9l-.48,1.69h-.78C427.13,23.37,428.06,20.52,428.72,18.87Zm1.75,4.4c-.37-1.25-.79-2.5-1.24-3.71h0c-.44,1.21-.86,2.46-1.25,3.71Z"/></g><g class="cls-2"><path class="cls-1" d="M432.94,24.84a8.46,8.46,0,0,0,1.74.21c1,0,1.68-.35,1.68-1.24s-.68-1-1.64-1.36-1.87-.78-1.87-1.87.81-1.82,2.32-1.82a9.08,9.08,0,0,1,1.71.21l-.13.69a7.45,7.45,0,0,0-1.6-.21c-.84,0-1.51.29-1.51,1.08s.79,1,1.67,1.33,1.83.7,1.83,1.93-.86,1.95-2.48,1.95a10.69,10.69,0,0,1-1.84-.2Z"/></g></g><g class="cls-2"><g class="cls-2"><path class="cls-1" d="M382.8,34.84a8.46,8.46,0,0,0,1.74.21c1,0,1.68-.35,1.68-1.24s-.68-1-1.64-1.36-1.87-.78-1.87-1.87.81-1.82,2.32-1.82a9,9,0,0,1,1.71.21l-.12.69a7.62,7.62,0,0,0-1.61-.21c-.84,0-1.51.29-1.51,1.08s.79,1,1.67,1.33,1.83.7,1.83,1.93-.86,2-2.48,2a10.69,10.69,0,0,1-1.84-.2Z"/></g><g class="cls-2"><path class="cls-1" d="M388.53,28.87h.78v4.24c0,1.41.45,1.94,1.74,1.94s1.73-.53,1.73-1.94V28.87h.77v4.34c0,1.65-.7,2.53-2.51,2.53s-2.51-.88-2.51-2.53Z"/></g><g class="cls-2"><path class="cls-1" d="M395.65,28.93a16.71,16.71,0,0,1,2-.17c1.59,0,2.43.57,2.43,1.76A1.44,1.44,0,0,1,399,32v0a1.54,1.54,0,0,1,1.26,1.69c0,1.46-1,2-2.69,2a17.75,17.75,0,0,1-1.92-.12Zm2.06,2.86c1,0,1.56-.26,1.56-1.18s-.65-1.16-1.68-1.16a11.45,11.45,0,0,0-1.16.07v2.27Zm-.16,3.26c1.2,0,1.92-.23,1.92-1.31s-.64-1.31-1.74-1.31h-1.3V35C396.88,35,397.18,35.05,397.55,35.05Z"/></g><g class="cls-2"><path class="cls-1" d="M403.45,29.55h-2.06v-.68h4.89v.68h-2v6.08h-.78Z"/><path class="cls-1" d="M407.84,28.87h3.85v.68h-3.07v2.27h2.58v.67h-2.58V35h3.07v.68h-3.85Z"/></g><g class="cls-2"><path class="cls-1" d="M413.42,28.91a17.55,17.55,0,0,1,1.91-.15c1.46,0,2.55.45,2.55,2a1.79,1.79,0,0,1-1.56,1.92c.48.94,1.09,1.92,1.74,2.93v0h-.9c-.6-.93-1.17-1.91-1.66-2.84a11.36,11.36,0,0,1-1.29-.07v2.91h-.78Zm1.86,3.22c1.08,0,1.82-.26,1.82-1.35s-.7-1.32-1.77-1.32c-.31,0-.74,0-1.13.05v2.57C414.6,32.12,415,32.13,415.28,32.13Z"/></g><g class="cls-2"><path class="cls-1" d="M419.7,28.91a17.55,17.55,0,0,1,1.91-.15c1.46,0,2.55.45,2.55,2a1.79,1.79,0,0,1-1.56,1.92c.48.94,1.09,1.92,1.74,2.93v0h-.9c-.6-.93-1.17-1.91-1.66-2.84a11.36,11.36,0,0,1-1.29-.07v2.91h-.78Zm1.86,3.22c1.08,0,1.82-.26,1.82-1.35s-.7-1.32-1.77-1.32c-.31,0-.74,0-1.13.05v2.57C420.88,32.12,421.32,32.13,421.56,32.13Z"/><path class="cls-1" d="M427.52,28.87h1c.66,1.65,1.59,4.5,2.21,6.76H430l-.48-1.69h-2.9l-.48,1.69h-.78C425.94,33.37,426.86,30.52,427.52,28.87Zm1.76,4.4c-.38-1.25-.8-2.5-1.24-3.71h0c-.44,1.21-.86,2.46-1.25,3.71Zm-1.53-4.93-.3-.29,1.09-1.48.55.51Z"/><path class="cls-1" d="M432.23,28.87h1.15l3.27,5.83h0V28.87h.77v6.76H436.3L433,29.8h0v5.83h-.77Z"/><path class="cls-1" d="M439.66,28.87h3.86v.68h-3.08v2.27H443v.67h-2.58V35h3.08v.68h-3.86Z"/><path class="cls-1" d="M446.8,28.87h1c.66,1.65,1.58,4.5,2.2,6.76h-.78l-.49-1.69h-2.89l-.49,1.69h-.77C445.22,33.37,446.14,30.52,446.8,28.87Zm1.75,4.4c-.37-1.25-.79-2.5-1.23-3.71h-.05c-.44,1.21-.86,2.46-1.25,3.71Z"/></g><g class="cls-2"><path class="cls-1" d="M451,34.84a8.46,8.46,0,0,0,1.74.21c1,0,1.68-.35,1.68-1.24s-.68-1-1.64-1.36-1.87-.78-1.87-1.87.81-1.82,2.32-1.82A9,9,0,0,1,455,29l-.13.69a7.45,7.45,0,0,0-1.6-.21c-.84,0-1.51.29-1.51,1.08s.79,1,1.67,1.33,1.83.7,1.83,1.93-.86,2-2.48,2a10.69,10.69,0,0,1-1.84-.2Z"/></g></g><g class="cls-2"><g class="cls-2"><path class="cls-3" d="M284.88,212.76a8.38,8.38,0,0,0,1.81.22c1.07,0,1.77-.37,1.77-1.29s-.71-1.09-1.72-1.43-2-.82-2-2,.85-1.91,2.43-1.91a8.44,8.44,0,0,1,1.79.23l-.13.71a8.12,8.12,0,0,0-1.68-.22c-.88,0-1.58.31-1.58,1.13s.83,1.09,1.74,1.4,1.93.74,1.93,2-.9,2-2.61,2a10.65,10.65,0,0,1-1.92-.21Z"/></g><g class="cls-2"><path class="cls-3" d="M292.34,210.56a8.88,8.88,0,0,1,1.12.09v-.49c0-.84-.46-1.08-1.18-1.08a6,6,0,0,0-1.49.23l-.16-.64a6.59,6.59,0,0,1,1.71-.27c1.07,0,1.89.42,1.89,1.68v3.51h-.6l-.08-.45a2.59,2.59,0,0,1-1.6.56,1.54,1.54,0,0,1-1.71-1.56C290.24,211.05,291.07,210.56,292.34,210.56Zm-.26,2.5a2.28,2.28,0,0,0,1.38-.49v-1.33c-.37,0-.82-.07-1.11-.07-.78,0-1.32.25-1.32,1A.92.92,0,0,0,292.08,213.06Z"/></g><g class="cls-2"><path class="cls-3" d="M296,206.5h.77v7.09H296Z"/></g></g><g class="cls-2"><g class="cls-2"><path class="cls-3" d="M284.86,220.05c0-2,.66-3.66,3.08-3.66a8.91,8.91,0,0,1,1.71.2l-.12.71a9,9,0,0,0-1.6-.19c-1.9,0-2.25,1.38-2.25,2.94S286,223,287.83,223a5.18,5.18,0,0,0,1.85-.39l.26.65a5.14,5.14,0,0,1-2.13.46C285.53,223.7,284.86,222.09,284.86,220.05Z"/></g><g class="cls-2"><path class="cls-3" d="M291.28,218.51h.59l.09.61a1.94,1.94,0,0,1,1.5-.72,3.14,3.14,0,0,1,.58.06l-.08.72a3.44,3.44,0,0,0-.53-.06,1.77,1.77,0,0,0-1.38.63v3.84h-.77Z"/><path class="cls-3" d="M295.11,216.5h.77v1h-.77Zm0,2h.77v5.08h-.77Z"/><path class="cls-3" d="M297.37,222.82a7,7,0,0,0,1.52.2c.71,0,1.25-.21,1.25-.81s-.38-.63-1.17-.89-1.69-.52-1.69-1.49.75-1.43,1.94-1.43a7.18,7.18,0,0,1,1.42.16l-.11.67a8.08,8.08,0,0,0-1.33-.15c-.75,0-1.12.26-1.12.71s.52.63,1.32.88,1.52.62,1.52,1.5-.73,1.53-2.06,1.53a7,7,0,0,1-1.62-.21Z"/><path class="cls-3" d="M302.44,219.15h-.73v-.57l.76,0,.06-1.52h.68v1.49h1.45v.64h-1.45v3.09c0,.52.12.78.58.78a2.16,2.16,0,0,0,.78-.18l.2.62a2.59,2.59,0,0,1-1.06.24c-.79,0-1.27-.41-1.27-1.42Z"/><path class="cls-3" d="M307.61,220.56a8.88,8.88,0,0,1,1.12.09v-.49c0-.84-.46-1.08-1.17-1.08a6,6,0,0,0-1.5.23l-.15-.64a6.51,6.51,0,0,1,1.7-.27c1.07,0,1.89.42,1.89,1.68v3.51h-.6l-.08-.45a2.54,2.54,0,0,1-1.59.56,1.54,1.54,0,0,1-1.72-1.56C305.51,221.05,306.35,220.56,307.61,220.56Zm-.26,2.5a2.28,2.28,0,0,0,1.38-.49v-1.33c-.37,0-.82-.07-1.11-.07-.78,0-1.32.25-1.32,1A.92.92,0,0,0,307.35,223.06Z"/><path class="cls-3" d="M311.24,216.5H312v7.09h-.77Z"/><path class="cls-3" d="M313.82,216.5h.77v1h-.77Zm0,2h.77v5.08h-.77Z"/></g><g class="cls-2"><path class="cls-3" d="M315.94,223.08l2.66-3.9H316v-.67h3.58v.5l-2.67,3.91h2.69v.67h-3.66Z"/></g><g class="cls-2"><path class="cls-3" d="M322.66,220.56a8.88,8.88,0,0,1,1.12.09v-.49c0-.84-.46-1.08-1.18-1.08a6,6,0,0,0-1.49.23l-.16-.64a6.59,6.59,0,0,1,1.71-.27c1.07,0,1.89.42,1.89,1.68v3.51H324l-.08-.45a2.59,2.59,0,0,1-1.6.56,1.54,1.54,0,0,1-1.71-1.56C320.56,221.05,321.39,220.56,322.66,220.56Zm-.26,2.5a2.28,2.28,0,0,0,1.38-.49v-1.33c-.37,0-.82-.07-1.11-.07-.78,0-1.32.25-1.32,1A.92.92,0,0,0,322.4,223.06Z"/><path class="cls-3" d="M326,221.08c0-1.78.68-2.68,2.2-2.68a5.46,5.46,0,0,1,1.14.13v-2h.77v7.09h-.61l-.07-.42a2.28,2.28,0,0,1-1.49.53C326.75,223.7,326,222.9,326,221.08Zm3.34,1.5v-3.39a4.71,4.71,0,0,0-1.08-.14c-1.11,0-1.47.68-1.47,2s.36,2,1.25,2A2.24,2.24,0,0,0,329.38,222.58Z"/></g><g class="cls-2"><path class="cls-3" d="M333.63,220.56a8.88,8.88,0,0,1,1.12.09v-.49c0-.84-.46-1.08-1.18-1.08a6,6,0,0,0-1.49.23l-.16-.64a6.59,6.59,0,0,1,1.71-.27c1.07,0,1.89.42,1.89,1.68v3.51h-.6l-.08-.45a2.59,2.59,0,0,1-1.6.56,1.54,1.54,0,0,1-1.71-1.56C331.53,221.05,332.36,220.56,333.63,220.56Zm-.26,2.5a2.28,2.28,0,0,0,1.38-.49v-1.33c-.37,0-.82-.07-1.11-.07-.78,0-1.32.25-1.32,1A.92.92,0,0,0,333.37,223.06Z"/></g></g><g class="cls-2"><g class="cls-2"><path class="cls-3" d="M291.91,417.22a8.28,8.28,0,0,0,1.65.2c1,0,1.6-.34,1.6-1.18s-.64-1-1.56-1.3-1.78-.74-1.78-1.78.77-1.73,2.21-1.73a8.25,8.25,0,0,1,1.63.2l-.12.65a7.44,7.44,0,0,0-1.53-.2c-.8,0-1.44.28-1.44,1s.76,1,1.59,1.27,1.75.67,1.75,1.84-.82,1.85-2.37,1.85a9.77,9.77,0,0,1-1.75-.19Z"/></g><g class="cls-2"><path class="cls-3" d="M298.69,415.22a7.35,7.35,0,0,1,1,.08v-.45c0-.76-.42-1-1.07-1a5.45,5.45,0,0,0-1.36.21l-.14-.58a5.84,5.84,0,0,1,1.55-.25c1,0,1.72.38,1.72,1.53V418h-.55l-.07-.41a2.35,2.35,0,0,1-1.45.51,1.4,1.4,0,0,1-1.56-1.42C296.78,415.66,297.54,415.22,298.69,415.22Zm-.24,2.27a2.11,2.11,0,0,0,1.26-.45v-1.21c-.34,0-.75-.06-1-.06-.71,0-1.2.23-1.2.86A.84.84,0,0,0,298.45,417.49Z"/><path class="cls-3" d="M302,411.53h.7V418H302Z"/></g><g class="cls-2"><path class="cls-3" d="M306.39,414.75c0-1.85.6-3.32,2.8-3.32a8.25,8.25,0,0,1,1.56.18l-.11.64a8.35,8.35,0,0,0-1.46-.17c-1.72,0-2,1.25-2,2.67s.28,2.67,1.95,2.67a4.72,4.72,0,0,0,1.68-.36l.24.59a4.71,4.71,0,0,1-1.94.42C307,418.07,306.39,416.61,306.39,414.75Z"/></g><g class="cls-2"><path class="cls-3" d="M314,413.25c1.49,0,2.07,1,2.07,2.41s-.58,2.41-2.07,2.41-2.06-1-2.06-2.41S312.49,413.25,314,413.25Zm0,4.2c1,0,1.35-.76,1.35-1.79s-.3-1.79-1.35-1.79-1.34.76-1.34,1.79S312.92,417.45,314,417.45Z"/><path class="cls-3" d="M317.35,413.35h.54l.06.45a2.66,2.66,0,0,1,1.56-.55,1.36,1.36,0,0,1,1.47,1.52V418h-.7v-3.13c0-.69-.33-1-.89-1a2.53,2.53,0,0,0-1.34.46V418h-.7Z"/><path class="cls-3" d="M322.27,417.27a6.41,6.41,0,0,0,1.38.18c.65,0,1.14-.19,1.14-.73s-.35-.58-1.07-.81-1.53-.48-1.53-1.36.68-1.3,1.76-1.3a6.61,6.61,0,0,1,1.29.15l-.1.61a6.68,6.68,0,0,0-1.21-.14c-.68,0-1,.24-1,.65s.48.57,1.2.8,1.39.56,1.39,1.36-.67,1.39-1.88,1.39a6.36,6.36,0,0,1-1.47-.19Z"/><path class="cls-3" d="M326.64,413.35h.7v3.13c0,.69.34,1,.9,1a2.51,2.51,0,0,0,1.32-.44v-3.66h.7V418h-.55l-.06-.43a2.63,2.63,0,0,1-1.53.53,1.36,1.36,0,0,1-1.48-1.52Z"/></g><g class="cls-2"><path class="cls-3" d="M331.92,413.35h.54l.06.45a2.48,2.48,0,0,1,1.48-.55,1.26,1.26,0,0,1,1.18.64,2.6,2.6,0,0,1,1.6-.64,1.37,1.37,0,0,1,1.42,1.56V418h-.7v-3.1c0-.69-.33-1-.87-1a2.19,2.19,0,0,0-1.27.49,2.14,2.14,0,0,1,.05.45V418h-.7v-3.1c0-.69-.33-1-.87-1a2.14,2.14,0,0,0-1.22.45V418h-.7Z"/><path class="cls-3" d="M341.41,413.25c1.49,0,2.07,1,2.07,2.41s-.58,2.41-2.07,2.41-2.06-1-2.06-2.41S339.93,413.25,341.41,413.25Zm0,4.2c1,0,1.35-.76,1.35-1.79s-.3-1.79-1.35-1.79-1.34.76-1.34,1.79S340.36,417.45,341.41,417.45Z"/></g></g><g class="cls-2"><g class="cls-2"><path class="cls-3" d="M292.27,421.53H293V428h-.74Z"/><path class="cls-3" d="M294.64,423.35h.54l.06.45a2.66,2.66,0,0,1,1.56-.55,1.36,1.36,0,0,1,1.47,1.52V428h-.7v-3.13c0-.69-.33-1-.89-1a2.53,2.53,0,0,0-1.34.46V428h-.7Z"/></g><g class="cls-2"><path class="cls-3" d="M299.69,425.69c0-1.62.62-2.44,2-2.44a5.18,5.18,0,0,1,1,.12v-1.84h.7V428h-.55l-.07-.38a2.06,2.06,0,0,1-1.35.48C300.34,428.07,299.69,427.34,299.69,425.69Zm3,1.36V424a4.41,4.41,0,0,0-1-.13c-1,0-1.34.62-1.34,1.84s.33,1.79,1.14,1.79A2,2,0,0,0,302.73,427.05Z"/></g><g class="cls-2"><path class="cls-3" d="M305,423.35h.7v3.13c0,.69.34,1,.9,1a2.51,2.51,0,0,0,1.32-.44v-3.66h.7V428H308l-.06-.43a2.63,2.63,0,0,1-1.53.53,1.36,1.36,0,0,1-1.48-1.52Z"/></g><g class="cls-2"><path class="cls-3" d="M310,427.27a6.41,6.41,0,0,0,1.38.18c.65,0,1.14-.19,1.14-.73s-.35-.58-1.07-.81-1.53-.48-1.53-1.36.68-1.3,1.76-1.3a6.61,6.61,0,0,1,1.29.15l-.1.61a6.68,6.68,0,0,0-1.21-.14c-.68,0-1,.24-1,.65s.48.57,1.2.8,1.39.56,1.39,1.36-.67,1.39-1.88,1.39a6.36,6.36,0,0,1-1.47-.19Z"/><path class="cls-3" d="M314.57,423.93h-.67v-.51l.7,0,0-1.38h.62v1.35h1.32v.58h-1.32v2.81c0,.48.11.71.53.71a1.88,1.88,0,0,0,.7-.16l.19.56a2.35,2.35,0,0,1-1,.22c-.72,0-1.15-.37-1.15-1.29Z"/><path class="cls-3" d="M317.74,423.35h.54l.08.56a1.76,1.76,0,0,1,1.36-.66,2.58,2.58,0,0,1,.53.06l-.07.65a2.8,2.8,0,0,0-.48,0,1.63,1.63,0,0,0-1.26.57V428h-.7Z"/></g><g class="cls-2"><path class="cls-3" d="M321.24,421.53h.7v.88h-.7Zm0,1.82h.7V428h-.7Z"/></g><g class="cls-2"><path class="cls-3" d="M325.09,425.22a7.35,7.35,0,0,1,1,.08v-.45c0-.76-.42-1-1.07-1a5.45,5.45,0,0,0-1.36.21l-.14-.58a5.84,5.84,0,0,1,1.55-.25c1,0,1.72.38,1.72,1.53V428h-.55l-.07-.41a2.35,2.35,0,0,1-1.45.51,1.4,1.4,0,0,1-1.56-1.42C323.18,425.66,323.94,425.22,325.09,425.22Zm-.24,2.27a2.11,2.11,0,0,0,1.26-.45v-1.21c-.34,0-.75-.06-1-.06-.71,0-1.2.23-1.2.86A.84.84,0,0,0,324.85,427.49Z"/></g><g class="cls-2"><path class="cls-3" d="M328.39,421.53h.7V428h-.7Z"/></g></g><path class="cls-3" d="M354.55,320.94l.25-.06c.33-.1.4-.11.4-.71v-4.4c0-.61-.07-.62-.4-.71l-.25-.07v-.14h3.23c1.8,0,2.57.51,2.57,1.62a1.39,1.39,0,0,1-1.14,1.49h0a19,19,0,0,0,1.41,2.63.65.65,0,0,0,.38.29h.16V321h-2.43a14.52,14.52,0,0,1-1.34-2.78h-.26v1.86c0,.59,0,.64.34.71l.26.06V321h-3.18Zm3.88-4.32c0-1-.17-1.47-.82-1.47a1.93,1.93,0,0,0-.48,0V318h.34C358.09,318,358.43,317.75,358.43,316.62Zm2.48,2.16a2.42,2.42,0,0,1,2.31-2.53h.13c1.31,0,2.1.63,2.14,2.19h-2.93c0,1.56.54,1.94,1.52,1.94a2.68,2.68,0,0,0,1.24-.31v.16a2.49,2.49,0,0,1-2,1,2.15,2.15,0,0,1-2.42-1.82A2.66,2.66,0,0,1,360.91,318.78Zm1.65-.57,1.32-.09c0-1.26-.13-1.62-.6-1.62S362.59,316.85,362.56,318.21Zm8.15-2,.07.05v4.07c0,.41,0,.44.38.53h.17V321h-2.68v-.15h.15c.31-.07.32-.11.32-.54v-3c0-.52-.06-.57-.44-.57H368v3.53c0,.39,0,.46.32.53h.17V321h-2.69v-.15h.17c.35-.09.37-.14.37-.53v-3.53h-.59v-.11l.59-.36v-.06c0-1.23.91-2.08,2.53-2.08.93,0,1.55.33,1.55.94,0,.32-.24.57-.71.57s-.72-.21-.83-1c0-.21-.09-.26-.24-.26-.37,0-.64.31-.64,1.13v.76H369Zm.69,4.69h.17c.35-.09.37-.14.37-.53v-3c0-.38,0-.43-.3-.61l-.28-.2v-.09l2.14-.23.07.05V317h0a2.88,2.88,0,0,1,1.74-.72,1.08,1.08,0,0,1,1.17,1,1.93,1.93,0,0,1,0,.24v2.91c0,.4,0,.43.39.53H377v.15h-2.69v-.15h.14c.32-.07.33-.11.33-.54v-2.6c0-.5-.19-.64-.55-.64a3.08,3.08,0,0,0-.68.07v3.17c0,.43,0,.47.33.54h.15v.15H371.4Zm5.77-2.16a2.42,2.42,0,0,1,2.31-2.53h.13c1.31,0,2.1.63,2.15,2.19h-2.94c0,1.56.54,1.94,1.52,1.94a2.69,2.69,0,0,0,1.25-.31v.16a2.56,2.56,0,0,1-2,1,2.15,2.15,0,0,1-2.42-1.84,2.72,2.72,0,0,1,0-.57Zm1.65-.57,1.32-.09c0-1.26-.13-1.62-.6-1.62s-.69.39-.72,1.75ZM382,320.9h.17c.35-.09.37-.14.37-.53v-3c0-.38,0-.43-.3-.61l-.28-.2v-.09l2.15-.23.06.06v.7h0a1.89,1.89,0,0,1,1.32-.77.67.67,0,0,1,.72.62V317a.7.7,0,0,1-.6.78h-.12a.64.64,0,0,1-.68-.46c-.07-.14-.11-.18-.22-.18a.61.61,0,0,0-.41.15v3.09c0,.43,0,.47.37.52h.22V321H382Zm4.35,0h.17c.35-.09.37-.14.37-.53v-3c0-.38,0-.43-.31-.62l-.29-.2v-.08l2.23-.23.07.05v4.07c0,.39,0,.43.38.53h.17V321h-2.75Zm.3-5.12,1.07-1.14a.74.74,0,0,1,.55-.26.62.62,0,0,1,.59.64.54.54,0,0,1-.49.56l-1.68.28Zm2.64,4.25c0-.86.71-1.08,1.47-1.3l1-.28v-.88c0-.8-.07-1.11-.49-1.11-.25,0-.36.06-.39.38,0,.75-.23.93-.74.93s-.69-.19-.69-.57c0-.61.67-1,2.12-1,1.15,0,1.86.34,1.86,1.27V320c0,.39,0,.5.2.6a1,1,0,0,0,.41.09v.12a1.86,1.86,0,0,1-1.16.36,1,1,0,0,1-1-.59h0a1.6,1.6,0,0,1-1.27.59c-.81,0-1.32-.39-1.32-1.1Zm2.51.3v-1.52h-.24c-.46,0-.64.22-.64.86s.21.82.49.82a.43.43,0,0,0,.39-.12Zm2.56.64-.06-1.53h.17a6.65,6.65,0,0,0,.66,1,1,1,0,0,0,.85.42.63.63,0,0,0,.69-.55v-.09c0-.38-.2-.53-1.12-.89s-1.27-.74-1.27-1.51a1.78,1.78,0,0,1,2-1.64,3.43,3.43,0,0,1,1.27.18l.06,1.3h-.15a6.74,6.74,0,0,0-.58-.82,1,1,0,0,0-.79-.41.59.59,0,0,0-.66.5.22.22,0,0,0,0,.08c0,.37.22.52,1,.81,1.14.42,1.52.87,1.52,1.61,0,1-.72,1.7-2.09,1.7a5.34,5.34,0,0,1-1.49-.13Z"/><g class="cls-2"><g class="cls-2"><path class="cls-3" d="M118.74,211.75a8.38,8.38,0,0,0,1.81.22c1.07,0,1.76-.37,1.76-1.29s-.7-1.09-1.71-1.43-2-.82-2-2,.85-1.91,2.43-1.91a8.44,8.44,0,0,1,1.79.23l-.13.71a8.12,8.12,0,0,0-1.68-.22c-.88,0-1.58.31-1.58,1.13s.83,1.09,1.74,1.4,1.93.74,1.93,2-.9,2-2.61,2a10.75,10.75,0,0,1-1.92-.21Z"/></g><g class="cls-2"><path class="cls-3" d="M126.2,209.55a8.88,8.88,0,0,1,1.12.09v-.49c0-.84-.46-1.08-1.18-1.08a6,6,0,0,0-1.49.23l-.16-.64a6.59,6.59,0,0,1,1.71-.27c1.07,0,1.89.42,1.89,1.68v3.51h-.6l-.08-.45a2.59,2.59,0,0,1-1.6.56,1.54,1.54,0,0,1-1.71-1.56C124.1,210,124.93,209.55,126.2,209.55Zm-.26,2.5a2.28,2.28,0,0,0,1.38-.49v-1.33c-.37,0-.82-.07-1.11-.07-.78,0-1.32.25-1.32,1A.92.92,0,0,0,125.94,212.05Z"/></g><g class="cls-2"><path class="cls-3" d="M129.83,205.5h.77v7.08h-.77Z"/></g></g><g class="cls-2"><g class="cls-2"><path class="cls-3" d="M119.06,215.5h.81v4.44c0,1.47.48,2,1.83,2s1.81-.56,1.81-2V215.5h.81V220c0,1.74-.73,2.65-2.63,2.65s-2.63-.91-2.63-2.65Z"/></g><g class="cls-2"><path class="cls-3" d="M126.7,224.58h-.77V217.5h.59l.08.43a2.41,2.41,0,0,1,1.52-.54c1.24,0,1.92.86,1.92,2.66s-.66,2.64-2.2,2.64a5.55,5.55,0,0,1-1.14-.14Zm1.11-2.54c1.13,0,1.44-.7,1.44-2s-.37-2-1.25-2a2.33,2.33,0,0,0-1.3.44v3.4A5,5,0,0,0,127.81,222Z"/><path class="cls-3" d="M133.35,224c.72,0,1.26-.21,1.26-1.17v-.57a2.43,2.43,0,0,1-1.36.4c-1.31,0-2-.86-2-2.61s.7-2.67,2.3-2.67a5.79,5.79,0,0,1,1.81.32v5.11c0,1.38-.78,1.87-2,1.87a6.35,6.35,0,0,1-1.53-.19l.11-.68A6.67,6.67,0,0,0,133.35,224Zm1.26-2.39v-3.44a4.06,4.06,0,0,0-1-.14c-1.14,0-1.51.69-1.51,2s.36,1.94,1.28,1.94A2.34,2.34,0,0,0,134.61,221.62Z"/></g><g class="cls-2"><path class="cls-3" d="M137.18,217.5h.59l.09.61a1.94,1.94,0,0,1,1.5-.72,3.14,3.14,0,0,1,.58.06l-.08.72a3.44,3.44,0,0,0-.53-.06,1.77,1.77,0,0,0-1.38.63v3.84h-.77Z"/></g><g class="cls-2"><path class="cls-3" d="M142.57,219.55a8.88,8.88,0,0,1,1.12.09v-.49c0-.84-.46-1.08-1.18-1.08a6,6,0,0,0-1.49.23l-.16-.64a6.59,6.59,0,0,1,1.71-.27c1.07,0,1.89.42,1.89,1.68v3.51h-.6l-.08-.45a2.59,2.59,0,0,1-1.6.56,1.54,1.54,0,0,1-1.71-1.56C140.47,220,141.3,219.55,142.57,219.55Zm-.26,2.5a2.28,2.28,0,0,0,1.38-.49v-1.33c-.37,0-.82-.07-1.11-.07-.78,0-1.32.25-1.32,1A.92.92,0,0,0,142.31,222.05Z"/><path class="cls-3" d="M146,220.07c0-1.78.68-2.68,2.2-2.68a5.46,5.46,0,0,1,1.14.13v-2h.77v7.08h-.6l-.08-.42a2.28,2.28,0,0,1-1.49.53C146.66,222.69,146,221.89,146,220.07Zm3.34,1.5v-3.39a4.71,4.71,0,0,0-1.08-.14c-1.11,0-1.47.68-1.47,2s.36,2,1.25,2A2.24,2.24,0,0,0,149.29,221.57Z"/></g><g class="cls-2"><path class="cls-3" d="M151.86,215.5h.77v1h-.77Zm0,2h.77v5.08h-.77Z"/></g><g class="cls-2"><path class="cls-3" d="M154.43,217.5H155l.07.49a2.9,2.9,0,0,1,1.71-.6,1.5,1.5,0,0,1,1.62,1.67v3.52h-.77v-3.44c0-.76-.36-1.07-1-1.07a2.7,2.7,0,0,0-1.47.51v4h-.77Z"/></g><g class="cls-2"><path class="cls-3" d="M161.85,224c.71,0,1.25-.21,1.25-1.17v-.57a2.4,2.4,0,0,1-1.35.4c-1.31,0-2-.86-2-2.61s.69-2.67,2.3-2.67a5.67,5.67,0,0,1,1.8.32v5.11c0,1.38-.78,1.87-2,1.87a6.35,6.35,0,0,1-1.53-.19l.11-.68A6.51,6.51,0,0,0,161.85,224Zm1.25-2.39v-3.44a4,4,0,0,0-1-.14c-1.15,0-1.52.69-1.52,2s.36,1.94,1.29,1.94A2.3,2.3,0,0,0,163.1,221.62Z"/></g></g><g class="cls-2"><g class="cls-2"><path class="cls-3" d="M125.77,415.5a8.28,8.28,0,0,0,1.65.2c1,0,1.6-.34,1.6-1.18s-.64-1-1.56-1.3-1.78-.74-1.78-1.78.77-1.73,2.21-1.73a8.25,8.25,0,0,1,1.63.2l-.12.65a7.44,7.44,0,0,0-1.53-.2c-.8,0-1.44.28-1.44,1s.76,1,1.59,1.27,1.75.67,1.75,1.84-.82,1.85-2.37,1.85a9.77,9.77,0,0,1-1.75-.19Z"/></g><g class="cls-2"><path class="cls-3" d="M132.55,413.5a7.35,7.35,0,0,1,1,.08v-.45c0-.76-.42-1-1.07-1a5.45,5.45,0,0,0-1.36.21l-.14-.58a5.84,5.84,0,0,1,1.55-.25c1,0,1.72.38,1.72,1.53v3.19h-.55l-.07-.41a2.35,2.35,0,0,1-1.45.51,1.4,1.4,0,0,1-1.56-1.42C130.64,413.94,131.4,413.5,132.55,413.5Zm-.24,2.27a2.11,2.11,0,0,0,1.26-.45v-1.21c-.34,0-.75-.06-1-.06-.71,0-1.2.23-1.2.86A.84.84,0,0,0,132.31,415.77Z"/><path class="cls-3" d="M135.84,409.81h.7v6.44h-.7Z"/></g><g class="cls-2"><path class="cls-3" d="M140.63,409.86a14.48,14.48,0,0,1,1.81-.14c1.44,0,2.52.43,2.52,2s-1.13,2-2.54,2a10.24,10.24,0,0,1-1-.06v2.57h-.74Zm1.8,3.24c1,0,1.78-.26,1.78-1.38s-.68-1.35-1.78-1.35c-.3,0-.71,0-1.06.05V413A10.27,10.27,0,0,0,142.43,413.1Z"/></g><g class="cls-2"><path class="cls-3" d="M145.94,409.81h.7v6.44h-.7Z"/><path class="cls-3" d="M149.79,413.5a7.35,7.35,0,0,1,1,.08v-.45c0-.76-.42-1-1.07-1a5.45,5.45,0,0,0-1.36.21l-.14-.58a5.84,5.84,0,0,1,1.55-.25c1,0,1.72.38,1.72,1.53v3.19H151l-.07-.41a2.35,2.35,0,0,1-1.45.51,1.4,1.4,0,0,1-1.56-1.42C147.88,413.94,148.64,413.5,149.79,413.5Zm-.24,2.27a2.11,2.11,0,0,0,1.26-.45v-1.21c-.34,0-.75-.06-1-.06-.71,0-1.2.23-1.2.86A.84.84,0,0,0,149.55,415.77Z"/><path class="cls-3" d="M153.08,411.63h.54l.06.45a2.66,2.66,0,0,1,1.56-.55,1.36,1.36,0,0,1,1.47,1.52v3.2H156v-3.13c0-.69-.33-1-.89-1a2.53,2.53,0,0,0-1.34.46v3.64h-.7Z"/><path class="cls-3" d="M158.44,412.21h-.67v-.51l.7,0,.05-1.38h.62v1.35h1.32v.58h-1.32V415c0,.48.11.71.53.71a1.88,1.88,0,0,0,.7-.16l.19.56a2.35,2.35,0,0,1-1,.22c-.72,0-1.15-.37-1.15-1.29Z"/><path class="cls-3" d="M163.13,413.5a7.35,7.35,0,0,1,1,.08v-.45c0-.76-.42-1-1.07-1a5.45,5.45,0,0,0-1.36.21l-.14-.58a5.84,5.84,0,0,1,1.55-.25c1,0,1.72.38,1.72,1.53v3.19h-.55l-.07-.41a2.35,2.35,0,0,1-1.45.51,1.4,1.4,0,0,1-1.56-1.42C161.22,413.94,162,413.5,163.13,413.5Zm-.24,2.27a2.11,2.11,0,0,0,1.26-.45v-1.21c-.34,0-.75-.06-1-.06-.71,0-1.2.23-1.2.86A.84.84,0,0,0,162.89,415.77Z"/></g><g class="cls-2"><path class="cls-3" d="M166.19,415.55a6.41,6.41,0,0,0,1.38.18c.65,0,1.14-.19,1.14-.73s-.35-.58-1.07-.81-1.53-.48-1.53-1.36.68-1.3,1.76-1.3a6.61,6.61,0,0,1,1.29.15l-.1.61a6.68,6.68,0,0,0-1.21-.14c-.68,0-1,.24-1,.65s.48.57,1.2.8,1.39.56,1.39,1.36-.67,1.39-1.88,1.39a6.36,6.36,0,0,1-1.47-.19Z"/></g></g><g class="cls-2"><g class="cls-2"><path class="cls-3" d="M125.75,423.06c0-2.24.89-3.35,2.74-3.35s2.76,1.11,2.76,3.3-.79,3.14-2.41,3.24v0a7.79,7.79,0,0,1,1.73.63l-.36.71c-1.44-.86-2.57-1.22-3.22-1.63S125.75,424.73,125.75,423.06Zm4.75,0c0-1.89-.67-2.67-2-2.67s-2,.78-2,2.67.67,2.67,2,2.67S130.5,424.92,130.5,423Z"/></g><g class="cls-2"><path class="cls-3" d="M132.51,421.63h.7v3.13c0,.69.34,1,.9,1a2.51,2.51,0,0,0,1.32-.44v-3.66h.7v4.62h-.55l-.06-.43a2.63,2.63,0,0,1-1.53.53,1.36,1.36,0,0,1-1.48-1.52Z"/></g><g class="cls-2"><path class="cls-3" d="M137.84,421.07l-.29-.28,1-1.41.52.49Zm-.08.56h.7v4.62h-.7Z"/><path class="cls-3" d="M140.09,421.63h.54l.06.45a2.48,2.48,0,0,1,1.48-.55,1.26,1.26,0,0,1,1.18.64,2.6,2.6,0,0,1,1.6-.64,1.37,1.37,0,0,1,1.42,1.56v3.16h-.7v-3.1c0-.69-.33-1-.87-1a2.19,2.19,0,0,0-1.27.49,2.14,2.14,0,0,1,.05.45v3.16h-.7v-3.1c0-.69-.33-1-.87-1a2.14,2.14,0,0,0-1.22.45v3.65h-.7Z"/><path class="cls-3" d="M147.93,419.81h.7v.88h-.7Zm0,1.82h.7v4.62h-.7Z"/></g><g class="cls-2"><path class="cls-3" d="M152.1,421.53a5.61,5.61,0,0,1,1.24.15l-.1.6a6.85,6.85,0,0,0-1.14-.13c-1,0-1.42.55-1.42,1.78,0,1,.29,1.8,1.37,1.8a3.52,3.52,0,0,0,1.28-.28l.21.56a3.75,3.75,0,0,1-1.53.34c-1.42,0-2-.92-2-2.45S150.48,421.53,152.1,421.53Z"/><path class="cls-3" d="M156.17,423.5a7.35,7.35,0,0,1,1,.08v-.45c0-.76-.42-1-1.07-1a5.45,5.45,0,0,0-1.36.21l-.14-.58a5.84,5.84,0,0,1,1.55-.25c1,0,1.72.38,1.72,1.53v3.19h-.55l-.07-.41a2.35,2.35,0,0,1-1.45.51,1.4,1.4,0,0,1-1.56-1.42C154.26,423.94,155,423.5,156.17,423.5Zm-.24,2.27a2.11,2.11,0,0,0,1.26-.45v-1.21c-.34,0-.75-.06-1-.06-.71,0-1.2.23-1.2.86A.84.84,0,0,0,155.93,425.77Z"/></g><g class="cls-2"><path class="cls-3" d="M159.2,425.55a6.41,6.41,0,0,0,1.38.18c.65,0,1.14-.19,1.14-.73s-.35-.58-1.07-.81-1.53-.48-1.53-1.36.68-1.3,1.76-1.3a6.61,6.61,0,0,1,1.29.15l-.1.61a6.68,6.68,0,0,0-1.21-.14c-.68,0-1,.24-1,.65s.48.57,1.2.8,1.39.56,1.39,1.36-.67,1.39-1.88,1.39a6.36,6.36,0,0,1-1.47-.19Z"/></g></g><g class="cls-2"><g class="cls-2"><path class="cls-1" d="M37.19,414.49a8.28,8.28,0,0,0,1.65.2c1,0,1.6-.34,1.6-1.18s-.64-1-1.56-1.3-1.78-.74-1.78-1.78.77-1.73,2.21-1.73a8.25,8.25,0,0,1,1.63.2l-.12.65a7.44,7.44,0,0,0-1.53-.2c-.8,0-1.44.28-1.44,1s.76,1,1.59,1.27,1.75.67,1.75,1.84-.82,1.85-2.37,1.85a9.77,9.77,0,0,1-1.75-.19Z"/></g><g class="cls-2"><path class="cls-1" d="M44,412.49a7.35,7.35,0,0,1,1,.08v-.45c0-.76-.42-1-1.07-1a5.45,5.45,0,0,0-1.36.21l-.14-.58a5.84,5.84,0,0,1,1.55-.25c1,0,1.72.38,1.72,1.53v3.19h-.55l-.07-.41a2.35,2.35,0,0,1-1.45.51,1.4,1.4,0,0,1-1.56-1.42C42.06,412.93,42.82,412.49,44,412.49Zm-.24,2.27a2.11,2.11,0,0,0,1.26-.45V413.1c-.34,0-.75-.06-1-.06-.71,0-1.2.23-1.2.86A.84.84,0,0,0,43.73,414.76Z"/></g><g class="cls-2"><path class="cls-1" d="M47.27,408.8H48v6.44h-.7Z"/></g></g><g class="cls-2"><g class="cls-2"><path class="cls-1" d="M37.55,418.86a10.76,10.76,0,0,1,1.78-.17c2.05,0,3.08,1,3.08,3.35s-1,3.28-3.16,3.28a14.66,14.66,0,0,1-1.7-.11Zm1.68,5.81c1.65,0,2.43-.63,2.43-2.63s-.77-2.7-2.36-2.7a9.23,9.23,0,0,0-1,.07v5.22C38.62,424.66,39,424.67,39.23,424.67Z"/></g><g class="cls-2"><path class="cls-1" d="M45.43,420.51c1.21,0,1.76.91,1.76,2.07a5.14,5.14,0,0,1,0,.59H44.22c.05.93.39,1.54,1.36,1.54a3.12,3.12,0,0,0,1.33-.34l.24.56a3.64,3.64,0,0,1-1.61.4c-1.28,0-2-.77-2-2.36S44.2,420.51,45.43,420.51Zm1.07,2.1c0-.75-.25-1.48-1.08-1.48s-1.16.63-1.2,1.48Z"/></g><g class="cls-2"><path class="cls-1" d="M48.22,424.53a6.41,6.41,0,0,0,1.38.18c.65,0,1.14-.19,1.14-.73s-.35-.58-1.07-.81-1.53-.48-1.53-1.36.68-1.3,1.76-1.3a6.61,6.61,0,0,1,1.29.15l-.1.61a6.68,6.68,0,0,0-1.21-.14c-.68,0-1,.24-1,.65s.48.57,1.2.8,1.39.56,1.39,1.36-.67,1.39-1.88,1.39a6.36,6.36,0,0,1-1.47-.19Z"/></g><g class="cls-2"><path class="cls-1" d="M52.67,418.79h.7V421a2.59,2.59,0,0,1,1.45-.49A1.36,1.36,0,0,1,56.3,422v3.2h-.7V422.1c0-.69-.33-1-.89-1a2.53,2.53,0,0,0-1.34.46v3.64h-.7Z"/></g><g class="cls-2"><path class="cls-1" d="M57.87,418.79h.7v.88h-.7Zm0,1.82h.7v4.62h-.7Z"/></g><g class="cls-2"><path class="cls-1" d="M61.82,420.51c1.21,0,1.76.91,1.76,2.07a5.14,5.14,0,0,1,0,.59H60.61c0,.93.39,1.54,1.36,1.54a3.12,3.12,0,0,0,1.33-.34l.24.56a3.64,3.64,0,0,1-1.61.4c-1.28,0-2-.77-2-2.36S60.59,420.51,61.82,420.51Zm1.07,2.1c0-.75-.25-1.48-1.08-1.48s-1.16.63-1.2,1.48Z"/></g><g class="cls-2"><path class="cls-1" d="M64.84,418.79h.7v6.44h-.7Z"/></g><g class="cls-2"><path class="cls-1" d="M68.87,420.51c1.49,0,2.07,1,2.07,2.41s-.58,2.41-2.07,2.41-2.06-1-2.06-2.41S67.39,420.51,68.87,420.51Zm0,4.2c1,0,1.35-.76,1.35-1.79s-.3-1.79-1.35-1.79-1.34.76-1.34,1.79S67.82,424.71,68.87,424.71Z"/></g></g><g class="cls-2"><g class="cls-2"><path class="cls-1" d="M174.24,24.67a8.28,8.28,0,0,0,1.65.2c1,0,1.6-.34,1.6-1.18s-.64-1-1.56-1.3-1.78-.74-1.78-1.78.77-1.73,2.21-1.73a8.25,8.25,0,0,1,1.63.2l-.12.65a7.44,7.44,0,0,0-1.53-.2c-.8,0-1.44.28-1.44,1s.76,1,1.59,1.27,1.75.67,1.75,1.84-.82,1.85-2.37,1.85a9.77,9.77,0,0,1-1.75-.19Z"/></g><g class="cls-2"><path class="cls-1" d="M180.9,19h1c.63,1.57,1.51,4.29,2.1,6.44h-.75l-.46-1.61H180l-.46,1.61h-.74C179.39,23.27,180.27,20.55,180.9,19Zm1.67,4.19c-.36-1.19-.76-2.38-1.18-3.53h0c-.42,1.15-.82,2.34-1.19,3.53Z"/></g><g class="cls-2"><path class="cls-1" d="M185.36,19h.74v5.79H189v.65h-3.63Z"/></g><g class="cls-2"><path class="cls-1" d="M190.58,19h1.07l1.69,4.46h0L195.06,19h1.07c.13,1.52.27,4.32.33,6.44h-.74c-.05-1.81-.13-3.66-.23-5.56h0l-1.7,4.48h-.81l-1.7-4.48h0c-.1,1.9-.17,3.75-.23,5.56h-.72C190.31,23.3,190.45,20.5,190.58,19Z"/><path class="cls-1" d="M198.34,19h.74v4c0,1.34.43,1.85,1.66,1.85s1.65-.51,1.65-1.85V19h.73v4.13c0,1.58-.66,2.41-2.39,2.41s-2.39-.83-2.39-2.41Z"/><path class="cls-1" d="M205.14,19h3.67v.65h-2.93v2.16h2.46v.64h-2.46v2.34h2.93v.65h-3.67Z"/><path class="cls-1" d="M210.49,19a15.93,15.93,0,0,1,1.82-.14c1.39,0,2.43.42,2.43,1.9a1.7,1.7,0,0,1-1.49,1.83c.46.9,1,1.83,1.66,2.79v0H214c-.57-.89-1.11-1.82-1.58-2.71a10.62,10.62,0,0,1-1.23-.06v2.77h-.74Zm1.77,3.07c1,0,1.73-.25,1.73-1.29s-.66-1.26-1.68-1.26c-.3,0-.71,0-1.08.05V22C211.61,22.08,212,22.09,212.26,22.09Z"/><path class="cls-1" d="M217.93,19h1c.63,1.57,1.51,4.29,2.1,6.44h-.75l-.46-1.61H217l-.46,1.61h-.74C216.42,23.27,217.3,20.55,217.93,19Zm1.67,4.19c-.36-1.19-.76-2.38-1.18-3.53h0c-.42,1.15-.82,2.34-1.19,3.53Z"/></g><g class="cls-2"><path class="cls-1" d="M222,24.67a8.28,8.28,0,0,0,1.65.2c1,0,1.6-.34,1.6-1.18s-.64-1-1.56-1.3-1.78-.74-1.78-1.78.77-1.73,2.21-1.73a8.25,8.25,0,0,1,1.63.2l-.12.65a7.44,7.44,0,0,0-1.53-.2c-.8,0-1.44.28-1.44,1s.76,1,1.59,1.27,1.75.67,1.75,1.84-.82,1.85-2.37,1.85a9.77,9.77,0,0,1-1.75-.19Z"/></g></g><g class="cls-2"><g class="cls-2"><path class="cls-1" d="M174.6,29.05a10.76,10.76,0,0,1,1.78-.17c2.05,0,3.08,1,3.08,3.35s-1,3.28-3.16,3.28a14.66,14.66,0,0,1-1.7-.11Zm1.68,5.81c1.65,0,2.43-.63,2.43-2.63s-.77-2.7-2.36-2.7a9.23,9.23,0,0,0-1,.07v5.22C175.67,34.85,176,34.86,176.28,34.86Z"/></g><g class="cls-2"><path class="cls-1" d="M181.12,29h3.67v.65h-2.93v2.16h2.46v.64h-2.46v2.34h2.93v.65h-3.67Z"/></g><g class="cls-2"><path class="cls-1" d="M189,29h1.07l1.69,4.46h0L193.49,29h1.07c.13,1.52.27,4.32.33,6.44h-.74c-.05-1.81-.13-3.66-.23-5.56h0l-1.7,4.48h-.81l-1.7-4.48h0c-.1,1.9-.17,3.75-.23,5.56h-.72C188.74,33.3,188.88,30.5,189,29Z"/><path class="cls-1" d="M198.28,29h1c.63,1.57,1.51,4.29,2.1,6.44h-.75l-.46-1.61h-2.76l-.46,1.61h-.74C196.77,33.27,197.65,30.55,198.28,29ZM200,33.17c-.36-1.19-.76-2.38-1.18-3.53h0c-.42,1.15-.82,2.34-1.19,3.53Z"/></g><g class="cls-2"><path class="cls-1" d="M202.73,29a15.93,15.93,0,0,1,1.82-.14c1.39,0,2.43.42,2.43,1.9a1.7,1.7,0,0,1-1.49,1.83c.46.9,1,1.83,1.66,2.79v0h-.86c-.57-.89-1.11-1.82-1.58-2.71a10.62,10.62,0,0,1-1.23-.06v2.77h-.74Zm1.77,3.07c1,0,1.73-.25,1.73-1.29s-.66-1.26-1.68-1.26c-.3,0-.71,0-1.08.05V32C203.85,32.08,204.27,32.09,204.5,32.09Z"/></g></g><g class="cls-2"><g class="cls-2"><path class="cls-3" d="M409.75,214.74a9.06,9.06,0,0,0,1.81.22c1.07,0,1.76-.37,1.76-1.29s-.7-1.09-1.71-1.43-2-.82-2-2,.85-1.91,2.43-1.91a8.62,8.62,0,0,1,1.8.23l-.14.71a8.12,8.12,0,0,0-1.68-.22c-.88,0-1.59.31-1.59,1.13s.84,1.09,1.75,1.4,1.93.74,1.93,2-.9,2-2.61,2a10.75,10.75,0,0,1-1.92-.21Z"/></g><g class="cls-2"><path class="cls-3" d="M417.21,212.54a8.88,8.88,0,0,1,1.12.09v-.49c0-.84-.46-1.08-1.18-1.08a6,6,0,0,0-1.49.23l-.16-.64a6.59,6.59,0,0,1,1.71-.27c1.07,0,1.89.42,1.89,1.68v3.51h-.6l-.08-.45a2.59,2.59,0,0,1-1.6.56,1.54,1.54,0,0,1-1.71-1.56C415.11,213,415.94,212.54,417.21,212.54ZM417,215a2.34,2.34,0,0,0,1.38-.49v-1.33c-.37,0-.82-.07-1.11-.07-.78,0-1.32.25-1.32.95A.92.92,0,0,0,417,215Z"/></g><g class="cls-2"><path class="cls-3" d="M420.84,208.48h.77v7.09h-.77Z"/></g></g><g class="cls-2"><g class="cls-2"><path class="cls-3" d="M410.14,218.48H411v6.37h3.18v.72h-4Z"/></g><g class="cls-2"><path class="cls-3" d="M417.19,222.54a8.88,8.88,0,0,1,1.12.09v-.49c0-.84-.46-1.08-1.18-1.08a6,6,0,0,0-1.49.23l-.16-.64a6.59,6.59,0,0,1,1.71-.27c1.07,0,1.89.42,1.89,1.68v3.51h-.6l-.08-.45a2.59,2.59,0,0,1-1.6.56,1.54,1.54,0,0,1-1.71-1.56C415.09,223,415.92,222.54,417.19,222.54Zm-.26,2.5a2.34,2.34,0,0,0,1.38-.49v-1.33c-.37,0-.82-.07-1.11-.07-.78,0-1.32.25-1.32.95A.92.92,0,0,0,416.93,225Z"/></g><g class="cls-2"><path class="cls-3" d="M419.94,220.49h.78a35.59,35.59,0,0,0,1.38,4.42h0a37.36,37.36,0,0,0,1.38-4.42h.75a32.88,32.88,0,0,1-1.67,5.08h-1A32.88,32.88,0,0,1,419.94,220.49Z"/></g><g class="cls-2"><path class="cls-3" d="M427.09,222.54a8.88,8.88,0,0,1,1.12.09v-.49c0-.84-.46-1.08-1.18-1.08a6,6,0,0,0-1.49.23l-.16-.64a6.59,6.59,0,0,1,1.71-.27c1.07,0,1.89.42,1.89,1.68v3.51h-.6l-.08-.45a2.59,2.59,0,0,1-1.6.56,1.54,1.54,0,0,1-1.71-1.56C425,223,425.82,222.54,427.09,222.54Zm-.26,2.5a2.34,2.34,0,0,0,1.38-.49v-1.33c-.37,0-.82-.07-1.11-.07-.78,0-1.32.25-1.32.95A.92.92,0,0,0,426.83,225Z"/><path class="cls-3" d="M430.47,223.06c0-1.78.68-2.68,2.2-2.68a5.46,5.46,0,0,1,1.14.13v-2h.77v7.09H434l-.08-.42a2.28,2.28,0,0,1-1.49.53C431.18,225.68,430.47,224.88,430.47,223.06Zm3.34,1.5v-3.39a4.71,4.71,0,0,0-1.08-.14c-1.11,0-1.47.68-1.47,2s.36,2,1.25,2A2.24,2.24,0,0,0,433.81,224.56Z"/></g><g class="cls-2"><path class="cls-3" d="M438.05,222.54a8.88,8.88,0,0,1,1.12.09v-.49c0-.84-.46-1.08-1.18-1.08a6,6,0,0,0-1.49.23l-.16-.64a6.59,6.59,0,0,1,1.71-.27c1.07,0,1.89.42,1.89,1.68v3.51h-.6l-.08-.45a2.59,2.59,0,0,1-1.6.56,1.54,1.54,0,0,1-1.71-1.56C436,223,436.78,222.54,438.05,222.54Zm-.26,2.5a2.34,2.34,0,0,0,1.38-.49v-1.33c-.37,0-.82-.07-1.11-.07-.78,0-1.32.25-1.32.95A.92.92,0,0,0,437.79,225Z"/></g></g><g class="cls-2"><g class="cls-2"><path class="cls-3" d="M405,418.21a8.28,8.28,0,0,0,1.65.2c1,0,1.6-.34,1.6-1.18s-.64-1-1.56-1.3-1.78-.74-1.78-1.78.77-1.73,2.21-1.73a8.25,8.25,0,0,1,1.63.2l-.12.65a7.44,7.44,0,0,0-1.53-.2c-.8,0-1.44.28-1.44,1s.76,1,1.59,1.27,1.75.67,1.75,1.84-.82,1.85-2.37,1.85a9.77,9.77,0,0,1-1.75-.19Z"/></g><g class="cls-2"><path class="cls-3" d="M411.78,416.21a7.35,7.35,0,0,1,1,.08v-.45c0-.76-.42-1-1.07-1a5.45,5.45,0,0,0-1.36.21l-.14-.58a5.84,5.84,0,0,1,1.55-.25c1,0,1.72.38,1.72,1.53V419H413l-.07-.41a2.35,2.35,0,0,1-1.45.51,1.4,1.4,0,0,1-1.56-1.42C409.87,416.65,410.63,416.21,411.78,416.21Zm-.24,2.27a2.11,2.11,0,0,0,1.26-.45v-1.21c-.34,0-.75-.06-1-.06-.71,0-1.2.23-1.2.86A.84.84,0,0,0,411.54,418.48Z"/><path class="cls-3" d="M415.07,412.52h.7V419h-.7Z"/></g><g class="cls-2"><path class="cls-3" d="M419.48,415.74c0-1.85.6-3.32,2.8-3.32a8.25,8.25,0,0,1,1.56.18l-.11.64a8.35,8.35,0,0,0-1.46-.17c-1.72,0-2,1.25-2,2.67s.28,2.67,1.95,2.67a4.72,4.72,0,0,0,1.68-.36l.24.59a4.71,4.71,0,0,1-1.94.42C420.09,419.06,419.48,417.6,419.48,415.74Z"/></g><g class="cls-2"><path class="cls-3" d="M427.06,414.24c1.49,0,2.07,1,2.07,2.41s-.58,2.41-2.07,2.41-2.06-1-2.06-2.41S425.58,414.24,427.06,414.24Zm0,4.2c1.05,0,1.35-.76,1.35-1.79s-.3-1.79-1.35-1.79-1.34.76-1.34,1.79S426,418.44,427.06,418.44Z"/><path class="cls-3" d="M430.44,414.34H431l.06.45a2.66,2.66,0,0,1,1.56-.55,1.36,1.36,0,0,1,1.47,1.52V419h-.7v-3.13c0-.69-.33-1-.89-1a2.53,2.53,0,0,0-1.34.46V419h-.7Z"/><path class="cls-3" d="M435.36,418.26a6.41,6.41,0,0,0,1.38.18c.65,0,1.14-.19,1.14-.73s-.35-.58-1.07-.81-1.53-.48-1.53-1.36.68-1.3,1.76-1.3a6.61,6.61,0,0,1,1.29.15l-.1.61a6.68,6.68,0,0,0-1.21-.14c-.68,0-1,.24-1,.65s.48.57,1.2.8,1.39.56,1.39,1.36-.67,1.39-1.88,1.39a6.36,6.36,0,0,1-1.47-.19Z"/><path class="cls-3" d="M439.73,414.34h.7v3.13c0,.69.34,1,.9,1a2.51,2.51,0,0,0,1.32-.44v-3.66h.7V419h-.55l-.06-.43a2.63,2.63,0,0,1-1.53.53,1.36,1.36,0,0,1-1.48-1.52Z"/></g><g class="cls-2"><path class="cls-3" d="M445,414.34h.54l.06.45a2.48,2.48,0,0,1,1.48-.55,1.26,1.26,0,0,1,1.18.64,2.6,2.6,0,0,1,1.6-.64,1.37,1.37,0,0,1,1.42,1.56V419h-.7v-3.1c0-.69-.33-1-.87-1a2.19,2.19,0,0,0-1.27.49,2.14,2.14,0,0,1,.05.45V419h-.7v-3.1c0-.69-.33-1-.87-1a2.14,2.14,0,0,0-1.22.45V419H445Z"/><path class="cls-3" d="M454.5,414.24c1.49,0,2.07,1,2.07,2.41s-.58,2.41-2.07,2.41-2.06-1-2.06-2.41S453,414.24,454.5,414.24Zm0,4.2c1.05,0,1.35-.76,1.35-1.79s-.3-1.79-1.35-1.79-1.34.76-1.34,1.79S453.45,418.44,454.5,418.44Z"/></g></g><g class="cls-2"><g class="cls-2"><path class="cls-3" d="M405.36,422.51h.74v2.78h3.2v-2.78H410V429h-.74v-3h-3.2v3h-.74Z"/></g><g class="cls-2"><path class="cls-3" d="M411.68,424.33h.7v3.13c0,.69.34,1,.9,1a2.51,2.51,0,0,0,1.32-.44v-3.66h.7V429h-.55l-.06-.43a2.63,2.63,0,0,1-1.53.53,1.36,1.36,0,0,1-1.48-1.52Z"/></g><g class="cls-2"><path class="cls-3" d="M416.93,424.33h.54l.06.45a2.48,2.48,0,0,1,1.48-.55,1.26,1.26,0,0,1,1.18.64,2.6,2.6,0,0,1,1.6-.64,1.37,1.37,0,0,1,1.42,1.56V429h-.7v-3.1c0-.69-.33-1-.87-1a2.19,2.19,0,0,0-1.27.49,2.14,2.14,0,0,1,.05.45V429h-.7v-3.1c0-.69-.33-1-.87-1a2.14,2.14,0,0,0-1.22.45V429h-.7Z"/></g><g class="cls-2"><path class="cls-3" d="M426.29,426.2a7.35,7.35,0,0,1,1,.08v-.45c0-.76-.42-1-1.07-1a5.45,5.45,0,0,0-1.36.21l-.14-.58a5.84,5.84,0,0,1,1.55-.25c1,0,1.72.38,1.72,1.53V429h-.55l-.07-.41a2.35,2.35,0,0,1-1.45.51,1.4,1.4,0,0,1-1.56-1.42C424.38,426.64,425.14,426.2,426.29,426.2Zm-.24,2.27a2.11,2.11,0,0,0,1.26-.45v-1.21c-.34,0-.75-.06-1-.06-.71,0-1.2.23-1.2.86A.84.84,0,0,0,426.05,428.47Z"/></g><g class="cls-2"><path class="cls-3" d="M429.59,424.33h.54l.06.45a2.66,2.66,0,0,1,1.56-.55,1.36,1.36,0,0,1,1.47,1.52V429h-.7v-3.13c0-.69-.33-1-.89-1a2.53,2.53,0,0,0-1.34.46V429h-.7Z"/><path class="cls-3" d="M436.44,424.23c1.49,0,2.07,1,2.07,2.41s-.58,2.41-2.07,2.41-2.06-1-2.06-2.41S435,424.23,436.44,424.23Zm0,4.2c1.05,0,1.35-.76,1.35-1.79s-.3-1.79-1.35-1.79-1.34.76-1.34,1.79S435.39,428.43,436.44,428.43Z"/></g></g><line class="cls-4" x1="59.72" y1="54.71" x2="59.72" y2="76.54"/><polyline class="cls-4" points="63.94 72 59.72 76.54 55.49 72"/><line class="cls-4" x1="417.85" y1="54.71" x2="417.85" y2="76.54"/><polyline class="cls-4" points="422.08 72 417.85 76.54 413.63 72"/><line class="cls-4" x1="148.6" y1="248.32" x2="148.6" y2="385.52"/><polyline class="cls-4" points="152.82 380.98 148.6 385.52 144.38 380.98"/><line class="cls-5" x1="21.97" y1="1.5" x2="101.34" y2="1.5"/><line class="cls-5" x1="373.65" y1="1.5" x2="464.36" y2="1.5"/><line class="cls-5" x1="282.05" y1="194.96" x2="352.91" y2="194.96"/><line class="cls-5" x1="282.05" y1="398.35" x2="367.09" y2="398.35"/><line class="cls-6" x1="345.12" y1="293.47" x2="415.98" y2="293.47"/><line class="cls-5" x1="115.91" y1="194.96" x2="186.77" y2="194.96"/><line class="cls-5" x1="115.91" y1="397.64" x2="186.77" y2="397.64"/><line class="cls-5" x1="25.35" y1="397.63" x2="96.22" y2="397.63"/><line class="cls-5" x1="164.41" y1="1.5" x2="243.78" y2="1.5"/><line class="cls-5" x1="407.09" y1="194.96" x2="477.95" y2="194.96"/><line class="cls-5" x1="394.02" y1="398.35" x2="479.05" y2="398.35"/><line class="cls-7" x1="21.97" y1="54.65" x2="101.34" y2="54.65"/><line class="cls-7" x1="373.65" y1="54.65" x2="464.36" y2="54.65"/><line class="cls-7" x1="282.05" y1="248.11" x2="352.91" y2="248.11"/><line class="cls-7" x1="282.05" y1="460.71" x2="367.09" y2="460.71"/><line class="cls-8" x1="345.12" y1="346.62" x2="415.98" y2="346.62"/><line class="cls-7" x1="115.91" y1="248.11" x2="186.77" y2="248.11"/><line class="cls-7" x1="115.91" y1="460.7" x2="186.77" y2="460.7"/><line class="cls-7" x1="25.35" y1="460.68" x2="96.22" y2="460.68"/><line class="cls-7" x1="164.41" y1="54.65" x2="243.78" y2="54.65"/><line class="cls-7" x1="407.09" y1="248.11" x2="477.95" y2="248.11"/><line class="cls-7" x1="394.02" y1="460.71" x2="479.05" y2="460.71"/><line class="cls-7" x1="100.82" y1="2.2" x2="100.82" y2="54.63"/><line class="cls-9" x1="95.72" y1="400.35" x2="95.72" y2="459.69"/><path class="cls-10" d="M95.72,460.7h0m0-62.36h0"/><line class="cls-9" x1="25.85" y1="400.35" x2="25.85" y2="459.69"/><path class="cls-10" d="M25.85,460.7h0m0-62.36h0"/><line class="cls-11" x1="394.52" y1="401.16" x2="394.52" y2="459.7"/><path class="cls-10" d="M394.52,460.7h0m0-61.53h0"/><line class="cls-11" x1="282.55" y1="401.16" x2="282.55" y2="459.7"/><path class="cls-10" d="M282.55,460.7h0m0-61.53h0"/><line class="cls-12" x1="345.62" y1="296.29" x2="345.62" y2="345.7"/><path class="cls-13" d="M345.62,346.71h0m0-52.44h0"/><line class="cls-11" x1="366.59" y1="401.03" x2="366.59" y2="459.57"/><path class="cls-10" d="M366.59,460.57h0m0-61.53h0"/><line class="cls-12" x1="415.48" y1="296.18" x2="415.48" y2="345.59"/><path class="cls-13" d="M415.48,346.6h0m0-52.44h0"/><line class="cls-14" x1="478.56" y1="401.16" x2="478.56" y2="459.62"/><path class="cls-10" d="M478.56,460.61h0m0-61.44h0"/><line class="cls-9" x1="186.27" y1="400.35" x2="186.27" y2="459.69"/><path class="cls-10" d="M186.27,460.7h0m0-62.36h0"/><line class="cls-9" x1="116.41" y1="400.35" x2="116.41" y2="459.69"/><path class="cls-10" d="M116.41,460.7h0m0-62.36h0"/><line class="cls-7" x1="243.26" y1="2.2" x2="243.26" y2="54.63"/><line class="cls-7" x1="463.86" y1="2.2" x2="463.86" y2="54.63"/><line class="cls-7" x1="22.47" y1="2.2" x2="22.47" y2="54.63"/><line class="cls-7" x1="164.91" y1="2.2" x2="164.91" y2="54.63"/><line class="cls-7" x1="374.11" y1="2.2" x2="374.11" y2="54.63"/><g class="cls-2"><path class="cls-1" d="M80.15,120.31h.74v6.44h-.74Z"/><path class="cls-1" d="M84.27,122a5.61,5.61,0,0,1,1.24.15l-.1.6a6.85,6.85,0,0,0-1.14-.13c-1,0-1.42.55-1.42,1.78,0,1,.29,1.8,1.37,1.8A3.52,3.52,0,0,0,85.5,126l.21.56a3.75,3.75,0,0,1-1.53.34c-1.42,0-2.05-.92-2.05-2.45S82.65,122,84.27,122Z"/><path class="cls-1" d="M88.25,124a7.35,7.35,0,0,1,1,.08v-.45c0-.76-.42-1-1.07-1a5.45,5.45,0,0,0-1.36.21l-.14-.58a5.84,5.84,0,0,1,1.55-.25c1,0,1.72.38,1.72,1.53v3.19h-.55l-.07-.41a2.35,2.35,0,0,1-1.45.51,1.4,1.4,0,0,1-1.56-1.42C86.34,124.44,87.1,124,88.25,124ZM88,126.27a2.11,2.11,0,0,0,1.26-.45v-1.21c-.34,0-.75-.06-1-.06-.71,0-1.2.23-1.2.86A.84.84,0,0,0,88,126.27Z"/><path class="cls-1" d="M95.77,120.11h.63L93.74,127h-.63Z"/><path class="cls-1" d="M102.33,121H99.05v-.65h4.1v.46c-.66,1.81-1.52,4-2.38,6H100C100.83,124.81,101.64,122.84,102.33,121Z"/><path class="cls-1" d="M104,126a8.63,8.63,0,0,0,1.66.19c.93,0,1.59-.25,1.59-1.35s-.51-1.31-1.68-1.31H104l.11-3.23h3.4V121h-2.7l-.07,1.94h.77c1.71,0,2.42.62,2.42,1.92,0,1.48-.9,2-2.36,2a8.67,8.67,0,0,1-1.75-.2Z"/><path class="cls-1" d="M109.08,123.53c0-2.07.39-3.32,2.29-3.32s2.29,1.25,2.29,3.32-.39,3.32-2.29,3.32S109.08,125.6,109.08,123.53Zm3.83,0c0-1.64-.12-2.67-1.54-2.67s-1.54,1-1.54,2.67.12,2.67,1.54,2.67S112.91,125.17,112.91,123.53Z"/><path class="cls-1" d="M115,125.94l.72,0c0,.12,0,.25,0,.4a3.36,3.36,0,0,1-.42,1.64l-.35,0a5.1,5.1,0,0,0,.1-1A5.79,5.79,0,0,0,115,125.94Z"/><path class="cls-1" d="M117.15,123.53c0-2.07.39-3.32,2.29-3.32s2.29,1.25,2.29,3.32-.39,3.32-2.29,3.32S117.15,125.6,117.15,123.53Zm3.83,0c0-1.64-.12-2.67-1.54-2.67s-1.54,1-1.54,2.67.12,2.67,1.54,2.67S121,125.17,121,123.53Z"/><path class="cls-1" d="M123,123.53c0-2.07.39-3.32,2.29-3.32s2.29,1.25,2.29,3.32-.39,3.32-2.29,3.32S123,125.6,123,123.53Zm3.83,0c0-1.64-.12-2.67-1.54-2.67s-1.54,1-1.54,2.67.12,2.67,1.54,2.67S126.82,125.17,126.82,123.53Z"/><path class="cls-1" d="M128.83,123.53c0-2.07.39-3.32,2.29-3.32s2.29,1.25,2.29,3.32-.39,3.32-2.29,3.32S128.83,125.6,128.83,123.53Zm3.83,0c0-1.64-.12-2.67-1.54-2.67s-1.54,1-1.54,2.67.12,2.67,1.54,2.67S132.66,125.17,132.66,123.53Z"/></g><g class="cls-2"><path class="cls-1" d="M138.74,121h-2v-.65h4.66V121h-2v5.79h-.74Z"/><path class="cls-1" d="M142.71,120.31h1.07l1.69,4.46h0l1.68-4.46h1.07c.13,1.52.27,4.32.33,6.44h-.74c0-1.81-.13-3.66-.23-5.56h0l-1.7,4.48h-.81l-1.7-4.48h0c-.1,1.9-.17,3.75-.23,5.56h-.72C142.44,124.63,142.58,121.83,142.71,120.31Z"/></g><g class="cls-2"><g class="cls-2"><path class="cls-1" d="M256,308.32c0-1.76.57-3.16,2.66-3.16a8.36,8.36,0,0,1,1.48.17l-.1.61a8.55,8.55,0,0,0-1.39-.16c-1.64,0-1.94,1.19-1.94,2.54s.27,2.54,1.85,2.54a4.29,4.29,0,0,0,1.6-.35l.23.57a4.59,4.59,0,0,1-1.85.39C256.6,311.47,256,310.09,256,308.32Z"/><path class="cls-1" d="M261.34,305.26H262v2.1a2.45,2.45,0,0,1,1.38-.47,1.3,1.3,0,0,1,1.41,1.45v3h-.67v-3c0-.65-.31-.92-.84-.92a2.42,2.42,0,0,0-1.28.44v3.46h-.66Z"/><path class="cls-1" d="M266.19,305.26h.67v.83h-.67Zm0,1.73h.67v4.39h-.67Z"/><path class="cls-1" d="M270.07,306.89a5.08,5.08,0,0,1,1.18.15l-.1.57a6.14,6.14,0,0,0-1.08-.13c-1,0-1.35.52-1.35,1.69,0,1,.27,1.72,1.3,1.72a3.4,3.4,0,0,0,1.22-.27l.2.53a3.57,3.57,0,0,1-1.46.32c-1.35,0-2-.87-2-2.32S268.53,306.89,270.07,306.89Z"/><path class="cls-1" d="M272.4,305.26h.67v6.12h-.67Z"/></g><g class="cls-2"><path class="cls-1" d="M276,308.77a6.71,6.71,0,0,1,1,.07v-.43c0-.72-.4-.93-1-.93a5.35,5.35,0,0,0-1.29.2l-.14-.55a5.72,5.72,0,0,1,1.48-.24c.92,0,1.63.36,1.63,1.46v3h-.52L277,311a2.21,2.21,0,0,1-1.38.48,1.33,1.33,0,0,1-1.48-1.35C274.16,309.18,274.88,308.77,276,308.77Zm-.23,2.15a2.06,2.06,0,0,0,1.2-.42v-1.15c-.33,0-.72-.06-1-.06-.68,0-1.14.22-1.14.82S275.22,310.92,275.75,310.92Z"/></g><g class="cls-2"><path class="cls-1" d="M278.41,307h.67a35.34,35.34,0,0,0,1.17,3.82h0c.48-1.27.92-2.62,1.25-3.82h.65a40.48,40.48,0,0,1-2.19,6.12h-.65c.26-.54.49-1.12.73-1.73h-.27A30,30,0,0,1,278.41,307Z"/></g><g class="cls-2"><path class="cls-1" d="M284.6,306.89c1.41,0,2,.93,2,2.29s-.55,2.29-2,2.29-2-.93-2-2.29S283.19,306.89,284.6,306.89Zm0,4c1,0,1.28-.73,1.28-1.71s-.29-1.7-1.28-1.7-1.28.73-1.28,1.7S283.6,310.89,284.6,310.89Z"/><path class="cls-1" d="M291.83,305.07h.59l-2.52,6.5h-.6Z"/><path class="cls-1" d="M296.56,306l-1.32.5L295,306l1.63-.73h.6v6.12h-.7Z"/><path class="cls-1" d="M299.34,310.67a5.56,5.56,0,0,0,1.29.19c1.28,0,1.63-.81,1.66-2.23a4.66,4.66,0,0,1-1.57.3,1.68,1.68,0,0,1-1.89-1.83,1.82,1.82,0,0,1,2.08-1.94c1.6,0,2.11,1,2.11,3s-.52,3.29-2.39,3.29a5.61,5.61,0,0,1-1.42-.19Zm3-2.61c0-1.52-.28-2.28-1.43-2.28a1.16,1.16,0,0,0-1.31,1.3c0,.84.42,1.25,1.29,1.25A4.69,4.69,0,0,0,302.29,308.06Z"/><path class="cls-1" d="M304.45,310.61l.68,0c0,.12,0,.24,0,.38a3.18,3.18,0,0,1-.4,1.56l-.33,0a4.55,4.55,0,0,0,.1-1A5.19,5.19,0,0,0,304.45,310.61Z"/><path class="cls-1" d="M306.45,308.32c0-2,.38-3.16,2.18-3.16s2.18,1.19,2.18,3.16-.37,3.15-2.18,3.15S306.45,310.29,306.45,308.32Zm3.64,0c0-1.56-.11-2.54-1.46-2.54s-1.46,1-1.46,2.54.11,2.54,1.46,2.54S310.09,309.88,310.09,308.32Z"/><path class="cls-1" d="M312,308.32c0-2,.37-3.16,2.18-3.16s2.18,1.19,2.18,3.16-.37,3.15-2.18,3.15S312,310.29,312,308.32Zm3.64,0c0-1.56-.11-2.54-1.46-2.54s-1.47,1-1.47,2.54.12,2.54,1.47,2.54S315.64,309.88,315.64,308.32Z"/><path class="cls-1" d="M317.55,308.32c0-2,.37-3.16,2.18-3.16s2.17,1.19,2.17,3.16-.37,3.15-2.17,3.15S317.55,310.29,317.55,308.32Zm3.64,0c0-1.56-.11-2.54-1.46-2.54s-1.47,1-1.47,2.54.12,2.54,1.47,2.54S321.19,309.88,321.19,308.32Z"/></g><g class="cls-2"><path class="cls-1" d="M326.7,305.88h-1.86v-.62h4.43v.62h-1.86v5.5h-.71Z"/><path class="cls-1" d="M330.47,305.26h1l1.61,4.24h0l1.6-4.24h1c.12,1.44.25,4.1.31,6.12h-.7c-.05-1.72-.12-3.48-.22-5.29h0l-1.61,4.26h-.77l-1.62-4.26h0c-.09,1.81-.16,3.57-.22,5.29h-.68C330.22,309.36,330.35,306.7,330.47,305.26Z"/></g></g><g class="cls-2"><g class="cls-2"><path class="cls-1" d="M264.42,320.32c0-1.76.57-3.16,2.66-3.16a8.36,8.36,0,0,1,1.48.17l-.1.61a8.55,8.55,0,0,0-1.39-.16c-1.64,0-1.94,1.19-1.94,2.54s.27,2.54,1.85,2.54a4.25,4.25,0,0,0,1.6-.35l.23.57a4.59,4.59,0,0,1-1.85.39C265,323.47,264.42,322.09,264.42,320.32Z"/><path class="cls-1" d="M271.18,320.77a6.52,6.52,0,0,1,1,.07v-.43c0-.72-.4-.93-1-.93a5.43,5.43,0,0,0-1.29.2l-.13-.55a5.72,5.72,0,0,1,1.47-.24c.92,0,1.64.36,1.64,1.46v3h-.53l-.06-.39a2.21,2.21,0,0,1-1.38.48,1.33,1.33,0,0,1-1.48-1.35C269.37,321.18,270.09,320.77,271.18,320.77Zm-.23,2.15a2,2,0,0,0,1.2-.42v-1.15c-.32,0-.71-.06-1-.06-.67,0-1.14.22-1.14.82S270.42,322.92,271,322.92Z"/><path class="cls-1" d="M274.22,317.26h.67v6.12h-.67Z"/><path class="cls-1" d="M276.35,317.26H277v6.12h-.66Z"/><path class="cls-1" d="M279.92,320.77a6.52,6.52,0,0,1,1,.07v-.43c0-.72-.4-.93-1-.93a5.43,5.43,0,0,0-1.29.2l-.13-.55a5.72,5.72,0,0,1,1.47-.24c.92,0,1.64.36,1.64,1.46v3H281L281,323a2.23,2.23,0,0,1-1.38.48,1.33,1.33,0,0,1-1.48-1.35C278.11,321.18,278.83,320.77,279.92,320.77Zm-.23,2.15a2,2,0,0,0,1.2-.42v-1.15c-.32,0-.71-.06-1-.06-.67,0-1.14.22-1.14.82S279.16,322.92,279.69,322.92Z"/><path class="cls-1" d="M284.62,318.89c1.41,0,2,.93,2,2.29s-.55,2.29-2,2.29-2-.93-2-2.29S283.21,318.89,284.62,318.89Zm0,4c1,0,1.28-.73,1.28-1.71s-.29-1.7-1.28-1.7-1.28.73-1.28,1.7S283.62,322.89,284.62,322.89Z"/><path class="cls-1" d="M291.84,317.07h.6l-2.53,6.5h-.59Z"/><path class="cls-1" d="M295.71,322.67a5.64,5.64,0,0,0,1.29.19c1.28,0,1.63-.81,1.67-2.23a4.76,4.76,0,0,1-1.58.3,1.67,1.67,0,0,1-1.88-1.83,1.82,1.82,0,0,1,2.07-1.94c1.6,0,2.11,1,2.11,3s-.51,3.29-2.39,3.29a5.67,5.67,0,0,1-1.42-.19Zm3-2.61c0-1.52-.29-2.28-1.44-2.28a1.16,1.16,0,0,0-1.31,1.3c0,.84.42,1.25,1.29,1.25A4.81,4.81,0,0,0,298.67,320.06Z"/><path class="cls-1" d="M301.63,320.2v0a1.3,1.3,0,0,1-1-1.37c0-1,.66-1.63,2-1.63s2,.65,2,1.63a1.3,1.3,0,0,1-1,1.37v0a1.42,1.42,0,0,1,1.13,1.53c0,1.09-.7,1.74-2.13,1.74s-2.13-.65-2.13-1.74A1.42,1.42,0,0,1,301.63,320.2Zm1,2.66c.88,0,1.41-.34,1.41-1.16s-.6-1.21-1.41-1.21-1.42.33-1.42,1.21S301.75,322.86,302.63,322.86Zm1.28-4c0-.7-.42-1-1.28-1s-1.28.34-1.28,1,.56,1.08,1.28,1.08S303.91,319.62,303.91,318.82Z"/><path class="cls-1" d="M306.12,322.61l.69,0c0,.12,0,.24,0,.38a3.28,3.28,0,0,1-.39,1.56l-.34,0a4.55,4.55,0,0,0,.1-1A5.19,5.19,0,0,0,306.12,322.61Z"/><path class="cls-1" d="M308.13,320.32c0-2,.37-3.16,2.17-3.16s2.18,1.19,2.18,3.16-.37,3.15-2.18,3.15S308.13,322.29,308.13,320.32Zm3.64,0c0-1.56-.12-2.54-1.47-2.54s-1.46,1-1.46,2.54.11,2.54,1.46,2.54S311.77,321.88,311.77,320.32Z"/><path class="cls-1" d="M313.67,320.32c0-2,.37-3.16,2.18-3.16s2.18,1.19,2.18,3.16-.37,3.15-2.18,3.15S313.67,322.29,313.67,320.32Zm3.64,0c0-1.56-.11-2.54-1.46-2.54s-1.46,1-1.46,2.54.11,2.54,1.46,2.54S317.31,321.88,317.31,320.32Z"/><path class="cls-1" d="M319.22,320.32c0-2,.37-3.16,2.18-3.16s2.18,1.19,2.18,3.16-.37,3.15-2.18,3.15S319.22,322.29,319.22,320.32Zm3.64,0c0-1.56-.11-2.54-1.46-2.54s-1.47,1-1.47,2.54.12,2.54,1.47,2.54S322.86,321.88,322.86,320.32Z"/></g><g class="cls-2"><path class="cls-1" d="M328.38,317.88h-1.86v-.62H331v.62h-1.87v5.5h-.7Z"/><path class="cls-1" d="M332.15,317.26h1l1.61,4.24h0l1.6-4.24h1c.12,1.44.26,4.1.31,6.12H337c-.05-1.72-.12-3.48-.22-5.29h0l-1.61,4.26h-.77l-1.62-4.26h0c-.09,1.81-.16,3.57-.22,5.29h-.68C331.9,321.36,332,318.7,332.15,317.26Z"/></g></g><g class="cls-2"><g class="cls-2"><path class="cls-1" d="M259.21,329.27h.7v2.64h3v-2.64h.71v6.12H263v-2.86h-3v2.86h-.7Z"/><path class="cls-1" d="M265.13,331h.66v3c0,.66.33.93.86.93a2.36,2.36,0,0,0,1.25-.42V331h.67v4.39H268L268,335a2.48,2.48,0,0,1-1.46.5,1.29,1.29,0,0,1-1.4-1.44Z"/><path class="cls-1" d="M271.46,332.78a6.52,6.52,0,0,1,1,.07v-.43c0-.72-.4-.93-1-.93a5.44,5.44,0,0,0-1.3.2l-.13-.55a5.72,5.72,0,0,1,1.47-.24c.93,0,1.64.36,1.64,1.46v3h-.52l-.07-.39a2.21,2.21,0,0,1-1.38.48,1.33,1.33,0,0,1-1.48-1.35C269.65,333.19,270.37,332.78,271.46,332.78Zm-.22,2.15a2,2,0,0,0,1.19-.42v-1.15c-.32,0-.71-.06-1-.06-.67,0-1.14.22-1.14.82S270.7,334.93,271.24,334.93Z"/><path class="cls-1" d="M276.25,330.9a5.69,5.69,0,0,1,1.18.14l-.09.58a6.37,6.37,0,0,0-1.09-.13c-1,0-1.35.52-1.35,1.69,0,1,.28,1.72,1.3,1.72a3.4,3.4,0,0,0,1.22-.27l.2.53a3.56,3.56,0,0,1-1.45.32c-1.35,0-1.95-.87-1.95-2.32S274.71,330.9,276.25,330.9Z"/><path class="cls-1" d="M278.59,329.27h.66v2.1a2.45,2.45,0,0,1,1.38-.47,1.3,1.3,0,0,1,1.41,1.45v3h-.67v-3c0-.65-.31-.92-.84-.92a2.42,2.42,0,0,0-1.28.44v3.46h-.66Z"/><path class="cls-1" d="M285.1,330.9c1.41,0,2,.93,2,2.29s-.55,2.29-2,2.29-2-.93-2-2.29S283.69,330.9,285.1,330.9Zm0,4c1,0,1.28-.73,1.28-1.71s-.29-1.7-1.28-1.7-1.28.72-1.28,1.7S284.1,334.9,285.1,334.9Z"/><path class="cls-1" d="M292.33,329.08h.59l-2.52,6.5h-.6Z"/><path class="cls-1" d="M296.88,332.21v0a1.29,1.29,0,0,1-1-1.37c0-1,.65-1.63,2-1.63s2,.65,2,1.63a1.31,1.31,0,0,1-1,1.37v0a1.41,1.41,0,0,1,1.12,1.53c0,1.09-.69,1.74-2.13,1.74s-2.13-.65-2.13-1.74A1.43,1.43,0,0,1,296.88,332.21Zm1,2.66c.89,0,1.42-.34,1.42-1.16s-.6-1.21-1.42-1.21-1.41.33-1.41,1.21S297,334.87,297.88,334.87Zm1.29-4c0-.7-.42-1-1.29-1s-1.27.34-1.27,1,.56,1.08,1.27,1.08S299.17,331.62,299.17,330.83Z"/><path class="cls-1" d="M301,334.88c1.67-1.48,3-2.75,3-4,0-.71-.43-1.13-1.24-1.13a4.15,4.15,0,0,0-1.55.37l-.22-.56a4.54,4.54,0,0,1,1.8-.43,1.7,1.7,0,0,1,1.93,1.72c0,1.37-1.22,2.57-2.66,3.84l0,0h2.81v.62H301Z"/><path class="cls-1" d="M306.2,334.62l.69,0c0,.12,0,.24,0,.38a3.29,3.29,0,0,1-.4,1.56l-.34,0a4.55,4.55,0,0,0,.1-1A5.19,5.19,0,0,0,306.2,334.62Z"/><path class="cls-1" d="M308.21,332.33c0-2,.37-3.16,2.17-3.16s2.18,1.19,2.18,3.16-.37,3.15-2.18,3.15S308.21,334.3,308.21,332.33Zm3.64,0c0-1.56-.12-2.54-1.47-2.54s-1.46,1-1.46,2.54.12,2.54,1.46,2.54S311.85,333.89,311.85,332.33Z"/><path class="cls-1" d="M313.76,332.33c0-2,.37-3.16,2.17-3.16s2.18,1.19,2.18,3.16-.37,3.15-2.18,3.15S313.76,334.3,313.76,332.33Zm3.64,0c0-1.56-.12-2.54-1.47-2.54s-1.46,1-1.46,2.54.11,2.54,1.46,2.54S317.4,333.89,317.4,332.33Z"/><path class="cls-1" d="M319.3,332.33c0-2,.37-3.16,2.18-3.16s2.18,1.19,2.18,3.16-.37,3.15-2.18,3.15S319.3,334.3,319.3,332.33Zm3.65,0c0-1.56-.12-2.54-1.47-2.54s-1.46,1-1.46,2.54.11,2.54,1.46,2.54S323,333.89,323,332.33Z"/></g><g class="cls-2"><path class="cls-1" d="M328.46,329.89H326.6v-.62H331v.62h-1.86v5.5h-.71Z"/><path class="cls-1" d="M332.23,329.27h1l1.61,4.24h0l1.6-4.24h1c.12,1.44.26,4.1.31,6.12h-.7c-.05-1.72-.12-3.48-.22-5.29h0l-1.61,4.26h-.77l-1.62-4.26h0c-.09,1.81-.16,3.57-.22,5.29h-.68C332,333.37,332.11,330.71,332.23,329.27Z"/></g></g><g class="cls-2"><g class="cls-2"><path class="cls-1" d="M389.88,119.94h.74v2.78h3.2v-2.78h.74v6.44h-.74v-3h-3.2v3h-.74Z"/><path class="cls-1" d="M396.11,121.76h.7v3.13c0,.69.34,1,.9,1a2.51,2.51,0,0,0,1.32-.44v-3.66h.7v4.62h-.55l-.06-.43a2.63,2.63,0,0,1-1.53.53,1.36,1.36,0,0,1-1.48-1.52Z"/><path class="cls-1" d="M402.78,123.63a7.35,7.35,0,0,1,1,.08v-.45c0-.76-.42-1-1.07-1a5.45,5.45,0,0,0-1.36.21l-.14-.58a5.84,5.84,0,0,1,1.55-.25c1,0,1.72.38,1.72,1.53v3.19H404l-.07-.41a2.35,2.35,0,0,1-1.45.51,1.4,1.4,0,0,1-1.56-1.42C400.87,124.07,401.63,123.63,402.78,123.63Zm-.24,2.27a2.11,2.11,0,0,0,1.26-.45v-1.21c-.34,0-.75-.06-1-.06-.71,0-1.2.23-1.2.86A.84.84,0,0,0,402.54,125.9Z"/><path class="cls-1" d="M407.82,121.66a5.61,5.61,0,0,1,1.24.15l-.1.6a6.85,6.85,0,0,0-1.14-.13c-1,0-1.42.55-1.42,1.78,0,1,.29,1.8,1.37,1.8a3.52,3.52,0,0,0,1.28-.28l.21.56a3.75,3.75,0,0,1-1.53.34c-1.42,0-2.05-.92-2.05-2.45S406.2,121.66,407.82,121.66Z"/><path class="cls-1" d="M410.28,119.94h.7v2.21a2.59,2.59,0,0,1,1.45-.49,1.36,1.36,0,0,1,1.48,1.52v3.2h-.7v-3.13c0-.69-.33-1-.89-1a2.53,2.53,0,0,0-1.34.46v3.64h-.7Z"/><path class="cls-1" d="M417.13,121.66c1.49,0,2.07,1,2.07,2.41s-.58,2.41-2.07,2.41-2.06-1-2.06-2.41S415.65,121.66,417.13,121.66Zm0,4.2c1.05,0,1.35-.76,1.35-1.79s-.3-1.79-1.35-1.79-1.34.76-1.34,1.79S416.08,125.86,417.13,125.86Z"/><path class="cls-1" d="M424.74,119.74h.63l-2.66,6.84h-.63Z"/><path class="cls-1" d="M428.43,123.35c0-2.1.49-3.51,2.49-3.51a5.64,5.64,0,0,1,1.5.22l-.13.63a6.18,6.18,0,0,0-1.37-.2c-1.3,0-1.68.81-1.73,2.34a4.87,4.87,0,0,1,1.64-.31,1.77,1.77,0,0,1,2,1.91,1.92,1.92,0,0,1-2.18,2C428.93,126.48,428.43,125.36,428.43,123.35Zm3.66,1.12c0-.87-.42-1.32-1.4-1.32a5,5,0,0,0-1.5.26c0,1.64.29,2.42,1.5,2.42A1.22,1.22,0,0,0,432.09,124.47Z"/><path class="cls-1" d="M433.58,124.36c.68-1.28,1.61-2.85,2.57-4.42h.77c-.94,1.53-1.84,3-2.51,4.31h2.26l.09-1.42h.65v1.42h1.23v.65h-1.23v1.48h-.74V124.9h-3.09Z"/><path class="cls-1" d="M439.39,123.16c0-2.07.39-3.32,2.29-3.32s2.29,1.25,2.29,3.32-.39,3.32-2.29,3.32S439.39,125.23,439.39,123.16Zm3.83,0c0-1.64-.12-2.67-1.54-2.67s-1.54,1-1.54,2.67.12,2.67,1.54,2.67S443.22,124.8,443.22,123.16Z"/><path class="cls-1" d="M445.35,125.57l.72,0c0,.12,0,.25,0,.4a3.36,3.36,0,0,1-.42,1.64l-.35,0a5.1,5.1,0,0,0,.1-1A5.79,5.79,0,0,0,445.35,125.57Z"/><path class="cls-1" d="M447.46,123.16c0-2.07.39-3.32,2.29-3.32s2.29,1.25,2.29,3.32-.39,3.32-2.29,3.32S447.46,125.23,447.46,123.16Zm3.83,0c0-1.64-.12-2.67-1.54-2.67s-1.54,1-1.54,2.67.12,2.67,1.54,2.67S451.29,124.8,451.29,123.16Z"/><path class="cls-1" d="M453.3,123.16c0-2.07.39-3.32,2.29-3.32s2.29,1.25,2.29,3.32-.39,3.32-2.29,3.32S453.3,125.23,453.3,123.16Zm3.83,0c0-1.64-.12-2.67-1.54-2.67s-1.54,1-1.54,2.67.12,2.67,1.54,2.67S457.13,124.8,457.13,123.16Z"/><path class="cls-1" d="M459.14,123.16c0-2.07.39-3.32,2.29-3.32s2.29,1.25,2.29,3.32-.39,3.32-2.29,3.32S459.14,125.23,459.14,123.16Zm3.83,0c0-1.64-.12-2.67-1.54-2.67s-1.54,1-1.54,2.67.12,2.67,1.54,2.67S463,124.8,463,123.16Z"/></g><g class="cls-2"><path class="cls-1" d="M468.91,120.59h-2v-.65h4.66v.65h-2v5.79h-.74Z"/><path class="cls-1" d="M472.88,119.94H474l1.69,4.46h0l1.68-4.46h1.07c.13,1.52.27,4.32.33,6.44H478c0-1.81-.13-3.66-.23-5.56h0l-1.7,4.48h-.81l-1.7-4.48h0c-.1,1.9-.17,3.75-.23,5.56h-.72C472.61,124.26,472.75,121.46,472.88,119.94Z"/></g></g><path class="cls-4" d="M204.05,54.71v37.7s0,5.67-5.67,5.67h-42.9"/><polyline class="cls-4" points="160.02 102.31 155.48 98.08 160.02 93.86"/><path class="cls-4" d="M442.87,248.1v66s0,5.67-5.67,5.67H422.48"/><polyline class="cls-4" points="427.03 323.96 422.48 319.73 427.03 315.51"/><line class="cls-15" x1="325.23" y1="112.02" x2="325.23" y2="186.69"/><polyline class="cls-15" points="329.45 182.15 325.23 186.69 321.01 182.15"/><line class="cls-15" x1="60.08" y1="111.97" x2="60.08" y2="385.52"/><polyline class="cls-15" points="64.3 380.97 60.08 385.52 55.85 380.97"/><line class="cls-4" x1="278.59" y1="221.09" x2="191.14" y2="221.09"/><polyline class="cls-4" points="195.68 225.32 191.14 221.09 195.68 216.87"/><line class="cls-4" x1="354.21" y1="221.09" x2="400.88" y2="221.09"/><polyline class="cls-4" points="396.33 216.87 400.88 221.09 396.33 225.31"/><path class="cls-15" d="M59.81,154.7H302.39s5.67,0,5.67,5.67v26.32"/><polyline class="cls-15" points="303.83 182.15 308.06 186.69 312.28 182.15"/><path class="cls-15" d="M322.82,385.55V374.87s0-5.67,5.67-5.67H430.76s5.67,0,5.67,5.67v10.64"/><polyline class="cls-15" points="318.6 381 322.82 385.55 327.04 381"/><polyline class="cls-15" points="432.21 380.97 436.43 385.51 440.65 380.97"/><line class="cls-15" x1="379.98" y1="346.39" x2="379.98" y2="369.24"/></g></g></g></svg>