<svg xmlns="http://www.w3.org/2000/svg" viewBox="0 0 478.06 369.11"><defs><style>.cls-1{fill:#876a44;}.cls-2{isolation:isolate;}.cls-3{fill:#fff;}.cls-10,.cls-11,.cls-12,.cls-4,.cls-5,.cls-6,.cls-7,.cls-8,.cls-9{fill:none;}.cls-11,.cls-12,.cls-4{stroke:#fff;}.cls-4,.cls-5{stroke-width:1.5px;}.cls-5,.cls-6,.cls-7,.cls-8,.cls-9{stroke:#876a44;}.cls-11,.cls-6{stroke-width:3px;}.cls-10,.cls-8,.cls-9{stroke-linecap:round;stroke-linejoin:round;}.cls-8{stroke-dasharray:0 2.02;}.cls-10{stroke:#876a43;}</style></defs><title>MAP SALES</title><g id="Capa_2" data-name="Capa 2"><g id="Capa_1-2" data-name="Capa 1"><g id="Capa_2-2" data-name="Capa 2"><g id="Capa_1-2-2" data-name="Capa 1-2"><rect class="cls-1" y="84.99" width="179.29" height="28.57"/><g class="cls-2"><g class="cls-2"><path class="cls-3" d="M50,94.86a15.32,15.32,0,0,1,2-.15c1.58,0,2.77.47,2.77,2.19s-1.24,2.23-2.8,2.23a9.8,9.8,0,0,1-1.15-.07v2.83H50Zm2,3.56c1.15,0,1.95-.28,1.95-1.51s-.74-1.49-1.95-1.49c-.33,0-.79,0-1.17.06v2.88C51.23,98.4,51.7,98.42,52,98.42Z"/></g><g class="cls-2"><path class="cls-3" d="M55.88,94.81h.77v7.08h-.77Z"/><path class="cls-3" d="M60.12,98.86a9.18,9.18,0,0,1,1.13.09v-.49c0-.84-.47-1.08-1.18-1.08a6,6,0,0,0-1.5.23L58.42,97a6.51,6.51,0,0,1,1.7-.27c1.07,0,1.9.42,1.9,1.68v3.51h-.61l-.08-.45a2.54,2.54,0,0,1-1.59.56A1.54,1.54,0,0,1,58,100.44C58,99.35,58.86,98.86,60.12,98.86Zm-.26,2.5a2.33,2.33,0,0,0,1.39-.49V99.54c-.38,0-.83-.07-1.12-.07-.78,0-1.32.25-1.32,1A.92.92,0,0,0,59.86,101.36Z"/></g><g class="cls-2"><path class="cls-3" d="M63.75,96.81h.59l.07.49a2.9,2.9,0,0,1,1.71-.6,1.5,1.5,0,0,1,1.62,1.67v3.52H67V98.45c0-.76-.36-1.07-1-1.07a2.7,2.7,0,0,0-1.47.51v4h-.77Z"/></g><g class="cls-2"><path class="cls-3" d="M69.64,97.45h-.73v-.57l.77,0,0-1.52h.68v1.49h1.46v.64H70.41v3.09c0,.52.12.78.59.78a2.11,2.11,0,0,0,.77-.18l.21.62a2.64,2.64,0,0,1-1.07.24c-.79,0-1.27-.41-1.27-1.42Z"/><path class="cls-3" d="M74.81,98.86a9.18,9.18,0,0,1,1.13.09v-.49c0-.84-.47-1.08-1.18-1.08a6,6,0,0,0-1.5.23L73.11,97a6.51,6.51,0,0,1,1.7-.27c1.07,0,1.9.42,1.9,1.68v3.51H76.1l-.08-.45a2.54,2.54,0,0,1-1.59.56,1.54,1.54,0,0,1-1.72-1.56C72.71,99.35,73.55,98.86,74.81,98.86Zm-.26,2.5a2.33,2.33,0,0,0,1.39-.49V99.54c-.38,0-.83-.07-1.12-.07-.78,0-1.32.25-1.32,1A.92.92,0,0,0,74.55,101.36Z"/><path class="cls-3" d="M78.13,101.12a7.08,7.08,0,0,0,1.52.2c.72,0,1.26-.21,1.26-.8s-.39-.64-1.18-.9-1.68-.52-1.68-1.49S78.79,96.7,80,96.7a7.09,7.09,0,0,1,1.42.16l-.11.67A8,8,0,0,0,80,97.38c-.75,0-1.12.26-1.12.71s.53.63,1.32.89c.94.3,1.53.61,1.53,1.49S81,102,79.62,102a7.11,7.11,0,0,1-1.62-.21Z"/></g><g class="cls-2"><path class="cls-3" d="M85.37,99.38c0-1.78.69-2.68,2.2-2.68a5.55,5.55,0,0,1,1.15.13v-2h.77v7.08h-.61l-.07-.42a2.28,2.28,0,0,1-1.49.53C86.09,102,85.37,101.2,85.37,99.38Zm3.35,1.5V97.49a4.71,4.71,0,0,0-1.08-.14c-1.11,0-1.47.68-1.47,2s.36,2,1.25,2A2.26,2.26,0,0,0,88.72,100.88Z"/></g><g class="cls-2"><path class="cls-3" d="M93,96.7c1.33,0,1.93,1,1.93,2.28a5.92,5.92,0,0,1,0,.64H91.68c0,1,.43,1.7,1.49,1.7a3.44,3.44,0,0,0,1.47-.38l.26.62a4,4,0,0,1-1.77.44c-1.41,0-2.24-.85-2.24-2.6S91.66,96.7,93,96.7ZM94.19,99c0-.83-.28-1.63-1.19-1.63s-1.28.69-1.32,1.63Z"/></g><g class="cls-2"><path class="cls-3" d="M99.08,94.81h4v.71H99.89V98h2.74v.7H99.89v3.17h-.81Z"/></g><g class="cls-2"><path class="cls-3" d="M105.81,96.7c1.64,0,2.28,1.08,2.28,2.65s-.64,2.65-2.28,2.65-2.27-1.08-2.27-2.65S104.18,96.7,105.81,96.7Zm0,4.62c1.16,0,1.49-.84,1.49-2s-.33-2-1.49-2-1.47.84-1.47,2S104.66,101.32,105.81,101.32Z"/></g><g class="cls-2"><path class="cls-3" d="M109.29,101.12a7,7,0,0,0,1.52.2c.71,0,1.25-.21,1.25-.8s-.38-.64-1.18-.9-1.68-.52-1.68-1.49.75-1.43,1.94-1.43a7.18,7.18,0,0,1,1.42.16l-.11.67a8.2,8.2,0,0,0-1.33-.15c-.75,0-1.13.26-1.13.71s.53.63,1.32.89c1,.3,1.53.61,1.53,1.49s-.73,1.53-2.07,1.53a7,7,0,0,1-1.61-.21Z"/></g><g class="cls-2"><path class="cls-3" d="M114.46,97.45h-.73v-.57l.73,0v-.63A1.35,1.35,0,0,1,116,94.69a4.61,4.61,0,0,1,.72.07l-.06.66c-.21,0-.46,0-.63,0-.54,0-.81.2-.81.83v.6h1.14v.64h-1.14v4.44h-.77Z"/></g><g class="cls-2"><path class="cls-3" d="M119.3,98.86a8.88,8.88,0,0,1,1.12.09v-.49c0-.84-.46-1.08-1.18-1.08a6,6,0,0,0-1.49.23l-.16-.64a6.59,6.59,0,0,1,1.71-.27c1.07,0,1.89.42,1.89,1.68v3.51h-.6l-.08-.45a2.59,2.59,0,0,1-1.6.56,1.54,1.54,0,0,1-1.71-1.56C117.2,99.35,118,98.86,119.3,98.86Zm-.26,2.5a2.28,2.28,0,0,0,1.38-.49V99.54c-.37,0-.82-.07-1.11-.07-.78,0-1.32.25-1.32,1A.92.92,0,0,0,119,101.36Z"/></g><g class="cls-2"><path class="cls-3" d="M123.1,97.45h-.73v-.57l.77,0,0-1.52h.68v1.49h1.46v.64h-1.46v3.09c0,.52.12.78.59.78a2.11,2.11,0,0,0,.77-.18l.21.62a2.64,2.64,0,0,1-1.07.24c-.79,0-1.27-.41-1.27-1.42Z"/><path class="cls-3" d="M128.41,96.7c1.63,0,2.27,1.08,2.27,2.65S130,102,128.41,102s-2.27-1.08-2.27-2.65S126.78,96.7,128.41,96.7Zm0,4.62c1.15,0,1.48-.84,1.48-2s-.33-2-1.48-2-1.48.84-1.48,2S127.25,101.32,128.41,101.32Z"/></g></g><g class="cls-2"><g class="cls-2"><path class="cls-3" d="M9.56,16.69a17,17,0,0,1,2-.16c1.53,0,2.67.47,2.67,2.1a1.87,1.87,0,0,1-1.64,2c.51,1,1.15,2,1.83,3.07v0h-.95c-.63-1-1.22-2-1.74-3a10.39,10.39,0,0,1-1.35-.07v3.05H9.56Zm1.95,3.38c1.14,0,1.91-.28,1.91-1.42s-.73-1.39-1.85-1.39c-.33,0-.78,0-1.19.06V20A10.3,10.3,0,0,0,11.51,20.07Z"/></g><g class="cls-2"><path class="cls-3" d="M18.42,16.53c2,0,3,1.23,3,3.66s-1,3.65-3,3.65-3-1.22-3-3.65S16.38,16.53,18.42,16.53Zm0,6.59c1.47,0,2.2-.85,2.2-2.93s-.73-2.94-2.2-2.94-2.2.86-2.2,2.94S17,23.12,18.42,23.12Z"/></g><g class="cls-2"><path class="cls-3" d="M22.9,20.19c0-2,.66-3.66,3.08-3.66a8.91,8.91,0,0,1,1.71.2l-.12.71a9,9,0,0,0-1.6-.19c-1.9,0-2.25,1.38-2.25,2.94s.31,2.93,2.15,2.93a5.23,5.23,0,0,0,1.85-.39l.26.65a5.14,5.14,0,0,1-2.13.46C23.57,23.84,22.9,22.23,22.9,20.19Z"/></g><g class="cls-2"><path class="cls-3" d="M31.14,16.65H32.2c.69,1.72,1.66,4.71,2.31,7.08h-.83L33.17,22h-3l-.51,1.77h-.81C29.48,21.36,30.45,18.37,31.14,16.65ZM33,21.25c-.4-1.3-.84-2.61-1.3-3.88h-.05c-.46,1.27-.9,2.58-1.3,3.88Z"/></g></g><g class="cls-2"><g class="cls-2"><path class="cls-3" d="M9.56,28.65h4v.71H10.38v2.5h2.74v.7H10.38v3.17H9.56Z"/></g><g class="cls-2"><path class="cls-3" d="M17.89,28.53c2.05,0,3,1.23,3,3.66s-1,3.65-3,3.65-3-1.22-3-3.65S15.85,28.53,17.89,28.53Zm0,6.59c1.47,0,2.2-.85,2.2-2.93s-.73-2.94-2.2-2.94-2.2.86-2.2,2.94S16.43,35.12,17.89,35.12Z"/></g><g class="cls-2"><path class="cls-3" d="M22.38,34.9a8.38,8.38,0,0,0,1.81.22c1.07,0,1.76-.37,1.76-1.29s-.7-1.09-1.71-1.43-2-.82-2-2,.85-1.91,2.43-1.91a8.44,8.44,0,0,1,1.79.23l-.13.71a8.12,8.12,0,0,0-1.68-.22c-.88,0-1.59.31-1.59,1.13s.84,1.09,1.75,1.4,1.93.74,1.93,2-.9,2-2.61,2a10.65,10.65,0,0,1-1.92-.21Z"/></g><g class="cls-2"><path class="cls-3" d="M28.5,28.65h4v.71H29.32v2.5h2.74v.7H29.32v3.17H28.5Z"/></g><g class="cls-2"><path class="cls-3" d="M36.82,28.53c2,0,3,1.23,3,3.66s-1,3.65-3,3.65-3-1.22-3-3.65S34.78,28.53,36.82,28.53Zm0,6.59c1.47,0,2.2-.85,2.2-2.93s-.73-2.94-2.2-2.94-2.2.86-2.2,2.94S35.36,35.12,36.82,35.12Zm-.29-7-.32-.31,1.14-1.55.57.53Z"/><path class="cls-3" d="M41.74,28.69a16.84,16.84,0,0,1,2-.16c1.53,0,2.67.47,2.67,2.1a1.87,1.87,0,0,1-1.63,2,35.62,35.62,0,0,0,1.82,3.07v0h-1c-.62-1-1.22-2-1.73-3a10.46,10.46,0,0,1-1.36-.07v3h-.81Zm1.95,3.38c1.13,0,1.9-.28,1.9-1.42s-.73-1.39-1.85-1.39c-.33,0-.78,0-1.19.06V32A10.35,10.35,0,0,0,43.69,32.07Z"/></g><g class="cls-2"><path class="cls-3" d="M48.31,28.65h.81v7.08h-.81Z"/></g><g class="cls-2"><path class="cls-3" d="M51,32.19c0-2,.66-3.66,3.08-3.66a8.91,8.91,0,0,1,1.71.2l-.12.71a9,9,0,0,0-1.6-.19c-1.9,0-2.25,1.38-2.25,2.94s.31,2.93,2.15,2.93a5.23,5.23,0,0,0,1.85-.39l.26.65a5.14,5.14,0,0,1-2.13.46C51.65,35.84,51,34.23,51,32.19Z"/></g><g class="cls-2"><path class="cls-3" d="M59.23,28.65h1.06C61,30.37,62,33.36,62.6,35.73h-.83L61.26,34h-3l-.51,1.77h-.81C57.57,33.36,58.54,30.37,59.23,28.65Zm1.84,4.6c-.4-1.3-.84-2.61-1.3-3.88h-.05c-.46,1.27-.9,2.58-1.3,3.88Z"/></g></g><g class="cls-2"><g class="cls-2"><path class="cls-3" d="M10.23,326.39a16.63,16.63,0,0,1,2.17-.17c1.73,0,3,.51,3,2.38s-1.35,2.44-3,2.44a11.52,11.52,0,0,1-1.26-.07v3.08h-.89Zm2.16,3.88c1.26,0,2.13-.31,2.13-1.65S13.71,327,12.39,327c-.36,0-.85,0-1.27.06v3.14A11.69,11.69,0,0,0,12.39,330.27Z"/></g><g class="cls-2"><path class="cls-3" d="M16.75,328.51h.65l.1.67a2.11,2.11,0,0,1,1.63-.79,2.74,2.74,0,0,1,.63.07l-.08.78a3,3,0,0,0-.58-.06,2,2,0,0,0-1.51.68v4.19h-.84Z"/></g><g class="cls-2"><path class="cls-3" d="M22.9,328.39c1.79,0,2.48,1.17,2.48,2.89s-.69,2.89-2.48,2.89-2.47-1.18-2.47-2.89S21.13,328.39,22.9,328.39Zm0,5c1.26,0,1.62-.92,1.62-2.15s-.36-2.15-1.62-2.15-1.61.91-1.61,2.15S21.64,333.43,22.9,333.43Z"/></g><g class="cls-2"><path class="cls-3" d="M26.88,331.32c0-1.95.74-2.93,2.4-2.93a6.37,6.37,0,0,1,1.24.14v-2.2h.84v7.72H30.7l-.08-.46a2.45,2.45,0,0,1-1.62.58C27.66,334.17,26.88,333.29,26.88,331.32ZM30.52,333v-3.7a5.52,5.52,0,0,0-1.17-.15c-1.21,0-1.61.74-1.61,2.2s.4,2.15,1.37,2.15A2.4,2.4,0,0,0,30.52,333Z"/><path class="cls-3" d="M33.25,328.51h.84v3.75c0,.83.41,1.17,1.08,1.17a3.07,3.07,0,0,0,1.58-.53v-4.39h.84v5.54h-.66l-.07-.52a3.13,3.13,0,0,1-1.84.64,1.63,1.63,0,0,1-1.77-1.82Z"/></g><g class="cls-2"><path class="cls-3" d="M41.63,328.39a6.68,6.68,0,0,1,1.49.18l-.12.72a8.56,8.56,0,0,0-1.37-.16c-1.22,0-1.7.66-1.7,2.14,0,1.24.34,2.16,1.64,2.16a4.37,4.37,0,0,0,1.54-.34l.25.67a4.46,4.46,0,0,1-1.84.41c-1.7,0-2.46-1.1-2.46-2.94C39.06,329.56,39.69,328.39,41.63,328.39Z"/></g><g class="cls-2"><path class="cls-3" d="M45,329.2h-.81v-.61l.84,0,.06-1.65h.74v1.62h1.59v.69H45.79v3.37c0,.58.14.86.64.86a2.12,2.12,0,0,0,.84-.2l.23.68a2.89,2.89,0,0,1-1.17.26c-.86,0-1.37-.44-1.37-1.55Z"/></g><g class="cls-2"><path class="cls-3" d="M50.74,328.39c1.79,0,2.48,1.17,2.48,2.89s-.69,2.89-2.48,2.89-2.47-1.18-2.47-2.89S49,328.39,50.74,328.39Zm0,5c1.26,0,1.62-.92,1.62-2.15s-.36-2.15-1.62-2.15-1.61.91-1.61,2.15S49.48,333.43,50.74,333.43Z"/></g><g class="cls-2"><path class="cls-3" d="M54.52,333.21a7.48,7.48,0,0,0,1.65.22c.78,0,1.37-.23,1.37-.88s-.42-.69-1.28-1S54.42,331,54.42,330s.82-1.56,2.11-1.56a7.65,7.65,0,0,1,1.55.18l-.12.73a8.46,8.46,0,0,0-1.45-.17c-.82,0-1.22.29-1.22.78s.57.69,1.43,1c1,.34,1.67.67,1.67,1.63s-.8,1.67-2.25,1.67a7.79,7.79,0,0,1-1.77-.23Z"/></g></g><g class="cls-2"><g class="cls-2"><path class="cls-3" d="M10.23,339.33h4.4v.78H11.12v2.72h3v.77h-3v3.45h-.89Z"/></g><g class="cls-2"><path class="cls-3" d="M17.58,341.39c1.79,0,2.48,1.17,2.48,2.89s-.69,2.89-2.48,2.89-2.47-1.18-2.47-2.89S15.81,341.39,17.58,341.39Zm0,5c1.26,0,1.62-.92,1.62-2.15s-.36-2.15-1.62-2.15S16,343,16,344.28,16.32,346.43,17.58,346.43Z"/></g><g class="cls-2"><path class="cls-3" d="M21.38,346.21a7.48,7.48,0,0,0,1.65.22c.78,0,1.37-.23,1.37-.88s-.42-.69-1.28-1S21.28,344,21.28,343s.82-1.56,2.11-1.56a7.65,7.65,0,0,1,1.55.18l-.12.73a8.46,8.46,0,0,0-1.45-.17c-.82,0-1.22.29-1.22.78s.57.69,1.43,1c1,.34,1.67.67,1.67,1.63s-.8,1.67-2.25,1.67a7.79,7.79,0,0,1-1.77-.23Z"/></g><g class="cls-2"><path class="cls-3" d="M27,342.2h-.8v-.61l.8,0v-.68c0-1.1.53-1.65,1.69-1.65a4.26,4.26,0,0,1,.78.07l-.06.72a5.75,5.75,0,0,0-.69-.05c-.59,0-.88.22-.88.91v.65h1.24v.69H27.85v4.85H27Z"/></g><g class="cls-2"><path class="cls-3" d="M32.3,343.75a8.84,8.84,0,0,1,1.22.1v-.54c0-.91-.5-1.18-1.28-1.18a6.54,6.54,0,0,0-1.63.25l-.17-.69a6.7,6.7,0,0,1,1.86-.3c1.16,0,2.06.45,2.06,1.83v3.83H33.7l-.08-.49a2.87,2.87,0,0,1-1.74.61,1.68,1.68,0,0,1-1.87-1.7C30,344.28,30.92,343.75,32.3,343.75ZM32,346.47a2.51,2.51,0,0,0,1.51-.54v-1.45c-.41,0-.9-.07-1.21-.07-.85,0-1.44.28-1.44,1A1,1,0,0,0,32,346.47Z"/><path class="cls-3" d="M36.45,342.2h-.8v-.61l.83,0,.06-1.65h.75v1.62h1.58v.69H37.29v3.37c0,.58.13.86.63.86a2.12,2.12,0,0,0,.84-.2l.23.68a2.87,2.87,0,0,1-1.16.26c-.87,0-1.38-.44-1.38-1.55Z"/><path class="cls-3" d="M42.09,343.75a8.72,8.72,0,0,1,1.22.1v-.54c0-.91-.5-1.18-1.28-1.18a6.54,6.54,0,0,0-1.63.25l-.17-.69a6.77,6.77,0,0,1,1.86-.3c1.16,0,2.06.45,2.06,1.83v3.83h-.66l-.08-.49a2.85,2.85,0,0,1-1.74.61,1.68,1.68,0,0,1-1.87-1.7C39.8,344.28,40.71,343.75,42.09,343.75Zm-.29,2.72a2.49,2.49,0,0,0,1.51-.54v-1.45c-.41,0-.9-.07-1.21-.07-.85,0-1.44.28-1.44,1A1,1,0,0,0,41.8,346.47Z"/></g><g class="cls-2"><path class="cls-3" d="M45.78,344.32c0-1.95.74-2.93,2.4-2.93a6.37,6.37,0,0,1,1.24.14v-2.2h.84v7.72H49.6l-.08-.46a2.45,2.45,0,0,1-1.62.58C46.56,347.17,45.78,346.29,45.78,344.32ZM49.42,346v-3.7a5.52,5.52,0,0,0-1.17-.15c-1.21,0-1.61.74-1.61,2.2s.4,2.15,1.37,2.15A2.4,2.4,0,0,0,49.42,346Z"/></g><g class="cls-2"><path class="cls-3" d="M54.26,341.39c1.79,0,2.48,1.17,2.48,2.89s-.69,2.89-2.48,2.89-2.47-1.18-2.47-2.89S52.49,341.39,54.26,341.39Zm0,5c1.26,0,1.62-.92,1.62-2.15s-.36-2.15-1.62-2.15-1.61.91-1.61,2.15S53,346.43,54.26,346.43Z"/></g><g class="cls-2"><path class="cls-3" d="M58.05,346.21a7.48,7.48,0,0,0,1.65.22c.78,0,1.37-.23,1.37-.88s-.42-.69-1.28-1S58,344,58,343s.82-1.56,2.11-1.56a7.65,7.65,0,0,1,1.55.18l-.12.73a8.46,8.46,0,0,0-1.45-.17c-.82,0-1.22.29-1.22.78s.57.69,1.43,1c1,.34,1.67.67,1.67,1.63s-.8,1.67-2.25,1.67a7.79,7.79,0,0,1-1.77-.23Z"/></g></g><g class="cls-2"><g class="cls-2"><path class="cls-3" d="M109.07,20.36c0-2,.66-3.66,3.08-3.66a8.91,8.91,0,0,1,1.71.2l-.12.71a9,9,0,0,0-1.6-.19c-1.9,0-2.25,1.38-2.25,2.94s.31,2.93,2.15,2.93a5.23,5.23,0,0,0,1.85-.39l.26.65A5.14,5.14,0,0,1,112,24C109.74,24,109.07,22.4,109.07,20.36Z"/></g><g class="cls-2"><path class="cls-3" d="M117.31,16.81h1.06c.69,1.73,1.66,4.72,2.31,7.09h-.83l-.51-1.77h-3l-.51,1.77H115C115.65,21.53,116.62,18.54,117.31,16.81Zm1.84,4.61c-.4-1.3-.84-2.61-1.3-3.88h0c-.46,1.27-.9,2.58-1.3,3.88Z"/></g><g class="cls-2"><path class="cls-3" d="M122.21,16.86a17,17,0,0,1,2-.16c1.53,0,2.67.47,2.67,2.1a1.87,1.87,0,0,1-1.64,2c.51,1,1.15,2,1.83,3.07v0h-.95c-.63-1-1.22-2-1.74-3a10.39,10.39,0,0,1-1.35-.07v3h-.82Zm2,3.38c1.14,0,1.91-.28,1.91-1.42s-.73-1.39-1.85-1.39c-.33,0-.78,0-1.19.06v2.69A10.3,10.3,0,0,0,124.16,20.24Z"/></g><g class="cls-2"><path class="cls-3" d="M128.79,16.88a16.07,16.07,0,0,1,2.06-.18c1.68,0,2.56.6,2.56,1.84a1.52,1.52,0,0,1-1.12,1.6v0a1.61,1.61,0,0,1,1.32,1.77c0,1.53-1,2.06-2.81,2.06a19.57,19.57,0,0,1-2-.13Zm2.15,3c1,0,1.64-.27,1.64-1.23s-.68-1.22-1.76-1.22a10,10,0,0,0-1.22.08v2.37Zm-.16,3.42c1.25,0,2-.24,2-1.37s-.67-1.38-1.83-1.38H129.6v2.69C130.07,23.27,130.39,23.29,130.78,23.29Z"/></g><g class="cls-2"><path class="cls-3" d="M138.14,16.7c2.05,0,3,1.23,3,3.66s-1,3.65-3,3.65-3-1.22-3-3.65S136.1,16.7,138.14,16.7Zm0,6.59c1.47,0,2.2-.85,2.2-2.93s-.73-2.94-2.2-2.94-2.2.86-2.2,2.94S136.68,23.29,138.14,23.29Z"/></g><g class="cls-2"><path class="cls-3" d="M143,16.81h1.22l3.42,6.11h0V16.81h.8V23.9h-1.21l-3.42-6.11h0V23.9H143Z"/></g><g class="cls-2"><path class="cls-3" d="M152.1,16.81h1.06c.69,1.73,1.66,4.72,2.31,7.09h-.83l-.51-1.77h-3l-.51,1.77h-.81C150.44,21.53,151.41,18.54,152.1,16.81Zm1.84,4.61c-.4-1.3-.84-2.61-1.3-3.88h0c-.46,1.27-.9,2.58-1.3,3.88Z"/></g><g class="cls-2"><path class="cls-3" d="M157.67,17.53h-2.16v-.72h5.13v.72h-2.16V23.9h-.81Z"/></g><g class="cls-2"><path class="cls-3" d="M164.85,16.7c2.05,0,3,1.23,3,3.66s-1,3.65-3,3.65-3-1.22-3-3.65S162.81,16.7,164.85,16.7Zm0,6.59c1.47,0,2.2-.85,2.2-2.93s-.73-2.94-2.2-2.94-2.2.86-2.2,2.94S163.39,23.29,164.85,23.29Z"/></g></g><g class="cls-2"><g class="cls-2"><path class="cls-3" d="M109.48,28.89a11.85,11.85,0,0,1,2-.19c2.26,0,3.39,1.12,3.39,3.69S113.73,36,111.35,36a18.07,18.07,0,0,1-1.87-.12Zm1.85,6.39c1.82,0,2.68-.69,2.68-2.89s-.85-3-2.6-3a8.6,8.6,0,0,0-1.11.08v5.74C110.66,35.27,111.07,35.28,111.33,35.28Z"/></g><g class="cls-2"><path class="cls-3" d="M116.66,28.81h4v.72h-3.22v2.38h2.71v.7h-2.71v2.58h3.22v.71h-4Z"/></g><g class="cls-2"><path class="cls-3" d="M124.71,32.36c0-2,.66-3.66,3.08-3.66a8.91,8.91,0,0,1,1.71.2l-.12.71a9,9,0,0,0-1.6-.19c-1.9,0-2.25,1.38-2.25,2.94s.31,2.93,2.15,2.93a5.23,5.23,0,0,0,1.85-.39l.26.65a5.14,5.14,0,0,1-2.13.46C125.38,36,124.71,34.4,124.71,32.36Z"/></g><g class="cls-2"><path class="cls-3" d="M133,28.81H134c.69,1.73,1.66,4.72,2.31,7.09h-.83L135,34.13h-3l-.51,1.77h-.81C131.29,33.53,132.26,30.54,133,28.81Zm1.84,4.61c-.4-1.3-.84-2.61-1.3-3.88h-.05c-.46,1.27-.9,2.58-1.3,3.88Z"/></g><g class="cls-2"><path class="cls-3" d="M137.85,28.81h.82v6.38h3.18v.71h-4Z"/></g><g class="cls-2"><path class="cls-3" d="M143.14,32.36c0-2,.66-3.66,3.08-3.66a8.91,8.91,0,0,1,1.71.2l-.12.71a9,9,0,0,0-1.6-.19c-1.9,0-2.25,1.38-2.25,2.94s.31,2.93,2.15,2.93A5.18,5.18,0,0,0,148,34.9l.26.65a5.14,5.14,0,0,1-2.13.46C143.81,36,143.14,34.4,143.14,32.36Z"/></g><g class="cls-2"><path class="cls-3" d="M150,28.81h.82V35.9H150Z"/></g><g class="cls-2"><path class="cls-3" d="M155.66,28.7c2.05,0,3,1.23,3,3.66s-1,3.65-3,3.65-3-1.22-3-3.65S153.62,28.7,155.66,28.7Zm0,6.59c1.47,0,2.2-.85,2.2-2.93s-.73-2.94-2.2-2.94-2.2.86-2.2,2.94S154.2,35.29,155.66,35.29Z"/></g></g><path class="cls-4" d="M192.2,258.49H147.93s-5.67,0-5.67-5.67V209.75s0-5.67-5.67-5.67H94.16"/><polyline class="cls-4" points="98.71 208.31 94.16 204.08 98.71 199.86"/><line class="cls-4" x1="37.75" y1="55.31" x2="37.75" y2="77.14"/><polyline class="cls-4" points="41.97 72.6 37.75 77.14 33.52 72.6"/><line class="cls-4" x1="136.87" y1="55.31" x2="136.87" y2="77.14"/><polyline class="cls-4" points="141.09 72.6 136.87 77.14 132.64 72.6"/><path class="cls-5" d="M88.6,111.44V341s0,4-4,4H76.65"/><polyline class="cls-5" points="81.19 340.76 76.64 344.98 81.19 349.21"/><line class="cls-6" y1="2.1" x2="79.37" y2="2.1"/><line class="cls-6" y1="315.46" x2="70.87" y2="315.46"/><line class="cls-6" x1="99.21" y1="2.1" x2="178.58" y2="2.1"/><line class="cls-7" y1="55.25" x2="79.37" y2="55.25"/><line class="cls-7" y1="368.61" x2="70.87" y2="368.61"/><line class="cls-7" x1="99.21" y1="55.25" x2="178.58" y2="55.25"/><line class="cls-7" x1="78.85" y1="2.8" x2="78.85" y2="55.23"/><line class="cls-8" x1="70.37" y1="318.19" x2="70.37" y2="367.6"/><path class="cls-9" d="M70.37,368.61h0m0-52.44h0"/><line class="cls-8" x1="0.5" y1="318.19" x2="0.5" y2="367.6"/><path class="cls-10" d="M.5,368.61h0m0-52.44h0"/><line class="cls-7" x1="178.06" y1="2.8" x2="178.06" y2="55.23"/><line class="cls-7" x1="0.5" y1="2.8" x2="0.5" y2="55.23"/><line class="cls-7" x1="99.71" y1="2.8" x2="99.71" y2="55.23"/><rect class="cls-3" x="251.21" y="84.39" width="180.79" height="28.57"/><g class="cls-2"><g class="cls-2"><path d="M298,96.58a16.14,16.14,0,0,1,1.9-.15c1.51,0,2.65.46,2.65,2.09s-1.19,2.14-2.67,2.14c-.32,0-.7,0-1.1-.07v2.7H298Zm1.89,3.4c1.1,0,1.87-.27,1.87-1.45s-.71-1.41-1.87-1.41c-.31,0-.74,0-1.11,0v2.75C299.17,100,299.61,100,299.91,100Z"/></g><g class="cls-2"><path d="M303.6,96.53h.73v6.76h-.73Z"/><path d="M307.65,100.4a6.62,6.62,0,0,1,1.07.09V100c0-.79-.44-1-1.12-1a5.55,5.55,0,0,0-1.43.22L306,98.6a6,6,0,0,1,1.63-.27c1,0,1.81.4,1.81,1.61v3.35h-.58l-.07-.43a2.52,2.52,0,0,1-1.53.54,1.47,1.47,0,0,1-1.63-1.5C305.65,100.87,306.44,100.4,307.65,100.4Zm-.25,2.39a2.18,2.18,0,0,0,1.32-.48V101c-.35,0-.79-.06-1.06-.06-.74,0-1.26.24-1.26.9A.88.88,0,0,0,307.4,102.79Z"/></g><g class="cls-2"><path d="M311.12,98.44h.56l.07.47a2.81,2.81,0,0,1,1.64-.58,1.43,1.43,0,0,1,1.54,1.6v3.36h-.74V100c0-.72-.34-1-.93-1a2.67,2.67,0,0,0-1.41.48v3.82h-.73Z"/></g><g class="cls-2"><path d="M316.75,99.05H316v-.54l.74,0,.05-1.45h.65v1.42h1.39v.61h-1.39v3c0,.5.12.74.56.74a2,2,0,0,0,.73-.16l.2.58a2.4,2.4,0,0,1-1,.24c-.75,0-1.2-.39-1.2-1.36Z"/><path d="M321.68,100.4a6.62,6.62,0,0,1,1.07.09V100c0-.79-.44-1-1.12-1a5.55,5.55,0,0,0-1.43.22l-.15-.61a6,6,0,0,1,1.63-.27c1,0,1.81.4,1.81,1.61v3.35h-.58l-.07-.43a2.52,2.52,0,0,1-1.53.54,1.47,1.47,0,0,1-1.63-1.5C319.68,100.87,320.47,100.4,321.68,100.4Zm-.25,2.39a2.18,2.18,0,0,0,1.32-.48V101c-.36,0-.79-.06-1.06-.06-.74,0-1.26.24-1.26.9A.88.88,0,0,0,321.43,102.79Z"/><path d="M324.85,102.56a7.1,7.1,0,0,0,1.45.18c.68,0,1.2-.2,1.2-.76s-.37-.61-1.12-.85-1.61-.51-1.61-1.43.71-1.37,1.85-1.37a7.23,7.23,0,0,1,1.35.16l-.1.64A7.48,7.48,0,0,0,326.6,99c-.72,0-1.08.25-1.08.68s.51.6,1.26.84c.91.29,1.46.59,1.46,1.43s-.7,1.46-2,1.46a6.9,6.9,0,0,1-1.54-.2Z"/></g><g class="cls-2"><path d="M331.68,99.91c0-1.94.63-3.49,2.94-3.49a9,9,0,0,1,1.64.19l-.11.68a8.23,8.23,0,0,0-1.54-.18c-1.8,0-2.14,1.31-2.14,2.8s.29,2.8,2,2.8a4.91,4.91,0,0,0,1.76-.38l.25.62a4.84,4.84,0,0,1-2,.45C332.32,103.4,331.68,101.86,331.68,99.91Z"/></g><g class="cls-2"><path d="M337.77,96.53h.73v6.76h-.73Z"/></g><g class="cls-2"><path d="M342,98.33c1.56,0,2.17,1,2.17,2.54s-.61,2.53-2.17,2.53-2.17-1-2.17-2.53S340.44,98.33,342,98.33Zm0,4.41c1.1,0,1.41-.79,1.41-1.87S343.1,99,342,99s-1.41.79-1.41,1.88S340.89,102.74,342,102.74Z"/></g><g class="cls-2"><path d="M345.56,98.44h.56l.09.59a1.83,1.83,0,0,1,1.43-.7,2.64,2.64,0,0,1,.55.07l-.07.68a3.13,3.13,0,0,0-.5,0,1.72,1.72,0,0,0-1.33.6v3.66h-.73Z"/></g><g class="cls-2"><path d="M350.93,98.33c1.57,0,2.18,1,2.18,2.54s-.61,2.53-2.18,2.53-2.16-1-2.16-2.53S349.38,98.33,350.93,98.33Zm0,4.41c1.11,0,1.42-.79,1.42-1.87S352,99,350.93,99s-1.4.79-1.4,1.88S349.83,102.74,350.93,102.74Z"/></g><g class="cls-2"><path d="M354.36,100.38h2.23V101h-2.23Z"/></g><g class="cls-2"><path d="M357.88,102.5a8.46,8.46,0,0,0,1.74.21c1,0,1.68-.35,1.68-1.24s-.68-1-1.64-1.36-1.87-.78-1.87-1.87.81-1.82,2.32-1.82a9,9,0,0,1,1.71.21l-.12.69a7.62,7.62,0,0,0-1.61-.21c-.84,0-1.51.29-1.51,1.08s.8,1,1.67,1.33,1.83.7,1.83,1.93-.86,2-2.48,2a10.69,10.69,0,0,1-1.84-.2Z"/><path d="M365.39,98.33c1.57,0,2.17,1,2.17,2.54s-.6,2.53-2.17,2.53-2.16-1-2.16-2.53S363.84,98.33,365.39,98.33Zm0,4.41c1.1,0,1.42-.79,1.42-1.87S366.49,99,365.39,99s-1.41.79-1.41,1.88S364.29,102.74,365.39,102.74Z"/></g><g class="cls-2"><path d="M368.82,100.9c0-1.7.65-2.57,2.1-2.57a5.79,5.79,0,0,1,1.09.13V96.53h.73v6.76h-.57l-.08-.4a2.2,2.2,0,0,1-1.42.51C369.5,103.4,368.82,102.63,368.82,100.9Zm3.19,1.42V99.09a5,5,0,0,0-1-.14c-1.06,0-1.41.66-1.41,1.94s.35,1.87,1.2,1.87A2.06,2.06,0,0,0,372,102.32Z"/></g><g class="cls-2"><path d="M376.05,100.4a6.62,6.62,0,0,1,1.07.09V100c0-.79-.44-1-1.12-1a5.55,5.55,0,0,0-1.43.22l-.14-.61a6,6,0,0,1,1.62-.27c1,0,1.81.4,1.81,1.61v3.35h-.58l-.07-.43a2.49,2.49,0,0,1-1.52.54,1.48,1.48,0,0,1-1.64-1.5C374.05,100.87,374.85,100.4,376.05,100.4Zm-.25,2.39a2.16,2.16,0,0,0,1.32-.48V101c-.35,0-.78-.06-1.06-.06-.74,0-1.26.24-1.26.9A.88.88,0,0,0,375.8,102.79Z"/></g></g><g class="cls-2"><g class="cls-2"><path class="cls-3" d="M263.69,22.69h4.4v.78h-3.51v2.59h2.95v.76h-2.95v2.81h3.51v.78h-4.4Z"/><path class="cls-3" d="M270.12,22.69h1.32l3.73,6.65h.05V22.69h.87v7.72h-1.32L271,23.75h0v6.66h-.88Z"/><path class="cls-3" d="M278.62,22.69H283v.78H279.5v2.59h3v.76h-3v2.81H283v.78h-4.4Z"/></g><g class="cls-2"><path class="cls-3" d="M285,22.73a20,20,0,0,1,2.18-.16c1.67,0,2.92.5,2.92,2.28A2,2,0,0,1,288.29,27c.55,1.08,1.25,2.19,2,3.35v0h-1c-.69-1.07-1.33-2.18-1.9-3.25a12.25,12.25,0,0,1-1.47-.07v3.32H285Zm2.12,3.69c1.24,0,2.08-.3,2.08-1.55s-.79-1.51-2-1.51c-.36,0-.85,0-1.29.06v2.94C286.32,26.4,286.83,26.42,287.1,26.42Z"/></g><g class="cls-2"><path class="cls-3" d="M291.35,26.51c0-2.23.77-3.94,3.47-3.94a9,9,0,0,1,2,.24l-.14.76a10.42,10.42,0,0,0-1.86-.22c-2.09,0-2.56,1.38-2.56,3.17s.39,3.23,2.37,3.23a4.49,4.49,0,0,0,1.55-.29v-3h.88V30a5.76,5.76,0,0,1-2.48.58C292.12,30.53,291.35,28.74,291.35,26.51Z"/></g><g class="cls-2"><path class="cls-3" d="M299.5,22.09l-.35-.34,1.25-1.69.62.59Zm-.12.6h.89v7.72h-.89Z"/></g><g class="cls-2"><path class="cls-3" d="M304.48,22.69h1.15c.75,1.88,1.81,5.14,2.52,7.72h-.9l-.55-1.93h-3.32l-.55,1.93H302C302.67,27.83,303.72,24.57,304.48,22.69Zm2,5c-.43-1.43-.91-2.85-1.42-4.23h0c-.51,1.38-1,2.8-1.43,4.23Z"/></g></g><g class="cls-2"><path class="cls-3" d="M310.82,162.67c0-2.22.72-4,3.36-4a9.72,9.72,0,0,1,1.87.21l-.13.77a9.65,9.65,0,0,0-1.75-.2c-2.06,0-2.45,1.5-2.45,3.2s.34,3.2,2.34,3.2a5.7,5.7,0,0,0,2-.43l.28.71a5.66,5.66,0,0,1-2.32.5C311.56,166.65,310.82,164.9,310.82,162.67Z"/><path class="cls-3" d="M317.78,158.81h.84v7.72h-.84Z"/><path class="cls-3" d="M322.8,160.87c1.78,0,2.48,1.17,2.48,2.89s-.7,2.89-2.48,2.89-2.47-1.18-2.47-2.89S321,160.87,322.8,160.87Zm0,5c1.26,0,1.62-.91,1.62-2.15s-.36-2.15-1.62-2.15-1.61.91-1.61,2.15S321.54,165.91,322.8,165.91Z"/><path class="cls-3" d="M327,161h.64l.1.67a2.11,2.11,0,0,1,1.63-.79,3.68,3.68,0,0,1,.64.07l-.09.78a2.91,2.91,0,0,0-.57-.06,1.94,1.94,0,0,0-1.51.68v4.19H327Z"/><path class="cls-3" d="M333.14,160.87c1.79,0,2.48,1.17,2.48,2.89s-.69,2.89-2.48,2.89-2.47-1.18-2.47-2.89S331.37,160.87,333.14,160.87Zm0,5c1.26,0,1.62-.91,1.62-2.15s-.36-2.15-1.62-2.15-1.6.91-1.6,2.15S331.88,165.91,333.14,165.91Z"/></g><g class="cls-2"><path class="cls-3" d="M212.07,158.8H213v3.33h3.83V158.8h.89v7.72h-.89v-3.61H213v3.61h-.89Z"/><path class="cls-3" d="M219.88,158.8h.84v1h-.84Zm0,2.18h.84v5.54h-.84Z"/><path class="cls-3" d="M222.64,163.79c0-1.95.74-2.93,2.4-2.93a6.56,6.56,0,0,1,1.25.14v-2.2h.84v7.72h-.66l-.09-.46a2.45,2.45,0,0,1-1.62.58C223.42,166.64,222.64,165.76,222.64,163.79Zm3.65,1.63v-3.7a5.69,5.69,0,0,0-1.18-.15c-1.21,0-1.61.74-1.61,2.2s.4,2.15,1.37,2.15A2.4,2.4,0,0,0,226.29,165.42Z"/><path class="cls-3" d="M229.32,161H230l.1.67a2.11,2.11,0,0,1,1.63-.79,3.44,3.44,0,0,1,.63.07l-.08.78a2.91,2.91,0,0,0-.57-.06,2,2,0,0,0-1.52.68v4.19h-.84Z"/><path class="cls-3" d="M235.59,160.86c1.79,0,2.48,1.17,2.48,2.89s-.69,2.89-2.48,2.89-2.47-1.18-2.47-2.89S233.81,160.86,235.59,160.86Zm0,5c1.26,0,1.62-.92,1.62-2.15s-.36-2.15-1.62-2.15-1.61.91-1.61,2.15S234.33,165.9,235.59,165.9Zm-.33-5.59-.34-.34,1.24-1.69.63.59Z"/><path class="cls-3" d="M241.8,168.08c.78,0,1.37-.23,1.37-1.27v-.63a2.54,2.54,0,0,1-1.47.44c-1.43,0-2.16-.94-2.16-2.85s.75-2.91,2.5-2.91a6.41,6.41,0,0,1,2,.35v5.57c0,1.5-.85,2-2.23,2a7.63,7.63,0,0,1-1.67-.2l.12-.74A7.93,7.93,0,0,0,241.8,168.08Zm1.37-2.6v-3.76a4.78,4.78,0,0,0-1.11-.15c-1.25,0-1.66.75-1.66,2.2s.4,2.11,1.4,2.11A2.61,2.61,0,0,0,243.17,165.48Z"/><path class="cls-3" d="M248.14,160.86c1.45,0,2.11,1.09,2.11,2.48a5,5,0,0,1-.05.71h-3.51c.06,1.11.47,1.85,1.63,1.85a3.72,3.72,0,0,0,1.6-.41l.28.67a4.35,4.35,0,0,1-1.93.48c-1.53,0-2.44-.92-2.44-2.83S246.67,160.86,248.14,160.86Zm1.28,2.52c0-.9-.3-1.78-1.29-1.78s-1.39.76-1.44,1.78Z"/><path class="cls-3" d="M252.06,161h.65l.07.54a3.19,3.19,0,0,1,1.88-.66,1.63,1.63,0,0,1,1.76,1.82v3.84h-.84v-3.75c0-.83-.4-1.17-1.07-1.17a3.1,3.1,0,0,0-1.61.55v4.37h-.84Z"/><path class="cls-3" d="M260.63,160.86c1.79,0,2.48,1.17,2.48,2.89s-.69,2.89-2.48,2.89-2.47-1.18-2.47-2.89S258.86,160.86,260.63,160.86Zm0,5c1.26,0,1.62-.92,1.62-2.15s-.36-2.15-1.62-2.15-1.61.91-1.61,2.15S259.37,165.9,260.63,165.9Z"/></g><g class="cls-2"><path class="cls-3" d="M213.8,230.7H215c.75,1.88,1.81,5.14,2.52,7.72h-.9l-.55-1.93h-3.31l-.56,1.93h-.88C212,235.84,213,232.58,213.8,230.7Zm2,5c-.43-1.43-.91-2.85-1.42-4.23h0c-.51,1.38-1,2.8-1.43,4.23Zm-1.74-5.62-.35-.34,1.25-1.69.62.59Z"/><path class="cls-3" d="M221,232.76a6.61,6.61,0,0,1,1.49.18l-.12.72a8.43,8.43,0,0,0-1.37-.16c-1.22,0-1.7.66-1.7,2.14,0,1.24.35,2.16,1.64,2.16a4.33,4.33,0,0,0,1.54-.34l.25.67a4.46,4.46,0,0,1-1.84.41c-1.7,0-2.45-1.1-2.45-2.94C218.41,233.93,219,232.76,221,232.76Z"/><path class="cls-3" d="M224.17,230.7H225v1.05h-.83Zm0,2.18H225v5.54h-.83Z"/><path class="cls-3" d="M226.82,235.69c0-1.95.74-2.93,2.4-2.93a6.37,6.37,0,0,1,1.24.14v-2.2h.84v7.72h-.66l-.08-.46a2.45,2.45,0,0,1-1.62.58C227.6,238.54,226.82,237.66,226.82,235.69Zm3.64,1.63v-3.7a5.52,5.52,0,0,0-1.17-.15c-1.21,0-1.61.74-1.61,2.2s.4,2.15,1.37,2.15A2.4,2.4,0,0,0,230.46,237.32Z"/><path class="cls-3" d="M235.48,232.76c1.79,0,2.48,1.17,2.48,2.89s-.69,2.89-2.48,2.89-2.47-1.18-2.47-2.89S233.7,232.76,235.48,232.76Zm0,5c1.26,0,1.62-.92,1.62-2.15s-.36-2.15-1.62-2.15-1.61.91-1.61,2.15S234.22,237.8,235.48,237.8Z"/></g><g class="cls-2"><path class="cls-3" d="M211.61,247.56c0-2.22.72-4,3.36-4a9.72,9.72,0,0,1,1.87.21l-.13.77a9.65,9.65,0,0,0-1.75-.2c-2.06,0-2.45,1.5-2.45,3.2s.34,3.2,2.34,3.2a5.7,5.7,0,0,0,2-.43l.28.71a5.66,5.66,0,0,1-2.32.5C212.35,251.54,211.61,249.79,211.61,247.56Z"/><path class="cls-3" d="M218.68,243.7h.84v7.72h-.84Z"/><path class="cls-3" d="M223.8,245.76c1.79,0,2.49,1.17,2.49,2.89s-.7,2.89-2.49,2.89-2.47-1.18-2.47-2.89S222,245.76,223.8,245.76Zm0,5c1.26,0,1.62-.92,1.62-2.15s-.36-2.15-1.62-2.15-1.6.91-1.6,2.15S222.54,250.8,223.8,250.8Z"/><path class="cls-3" d="M228.1,245.88h.65l.09.67a2.13,2.13,0,0,1,1.64-.79,2.81,2.81,0,0,1,.63.07l-.08.78a3.09,3.09,0,0,0-.58-.06,2,2,0,0,0-1.51.68v4.19h-.84Z"/><path class="cls-3" d="M232.5,243.7h.84v2.65a3.15,3.15,0,0,1,1.74-.59,1.63,1.63,0,0,1,1.78,1.82v3.84H236v-3.75c0-.83-.4-1.17-1.07-1.17a3.1,3.1,0,0,0-1.61.55v4.37h-.84Z"/><path class="cls-3" d="M239.08,245.21l-.35-.34,1.25-1.69.62.59Zm-.1.67h.84v5.54H239Z"/><path class="cls-3" d="M241.75,248.69c0-1.95.74-2.93,2.39-2.93a6.56,6.56,0,0,1,1.25.14v-2.2h.84v7.72h-.66l-.08-.46a2.47,2.47,0,0,1-1.62.58C242.53,251.54,241.75,250.66,241.75,248.69Zm3.64,1.63v-3.7a5.6,5.6,0,0,0-1.17-.15c-1.22,0-1.61.74-1.61,2.2s.39,2.15,1.37,2.15A2.4,2.4,0,0,0,245.39,250.32Z"/><path class="cls-3" d="M248.43,245.88h.65l.09.67a2.12,2.12,0,0,1,1.63-.79,2.91,2.91,0,0,1,.64.07l-.08.78a3.09,3.09,0,0,0-.58-.06,2,2,0,0,0-1.51.68v4.19h-.84Z"/><path class="cls-3" d="M252.83,243.7h.84v1.05h-.84Zm0,2.18h.84v5.54h-.84Z"/><path class="cls-3" d="M258.08,245.76a6.52,6.52,0,0,1,1.48.18l-.12.72a8.3,8.3,0,0,0-1.36-.16c-1.23,0-1.71.66-1.71,2.14,0,1.24.35,2.16,1.65,2.16a4.27,4.27,0,0,0,1.53-.34l.25.67a4.44,4.44,0,0,1-1.83.41c-1.71,0-2.46-1.1-2.46-2.94C255.51,246.93,256.13,245.76,258.08,245.76Z"/><path class="cls-3" d="M263.46,245.76c1.79,0,2.49,1.17,2.49,2.89s-.7,2.89-2.49,2.89-2.47-1.18-2.47-2.89S261.69,245.76,263.46,245.76Zm0,5c1.26,0,1.62-.92,1.62-2.15s-.36-2.15-1.62-2.15-1.6.91-1.6,2.15S262.2,250.8,263.46,250.8Z"/></g><g class="cls-2"><g class="cls-2"><path class="cls-3" d="M362.47,29.48a9.94,9.94,0,0,0,2,.24c1.16,0,1.92-.41,1.92-1.42s-.77-1.18-1.87-1.55-2.14-.89-2.14-2.14.92-2.07,2.65-2.07a9.29,9.29,0,0,1,1.95.24l-.14.78a8.89,8.89,0,0,0-1.83-.24c-1,0-1.73.33-1.73,1.23s.91,1.19,1.91,1.52,2.1.81,2.1,2.21-1,2.22-2.85,2.22a11.84,11.84,0,0,1-2.1-.23Z"/></g><g class="cls-2"><path class="cls-3" d="M370.46,22.66h1.15c.75,1.88,1.81,5.14,2.52,7.72h-.9l-.55-1.93h-3.31l-.56,1.93h-.88C368.65,27.8,369.7,24.54,370.46,22.66Zm2,5c-.43-1.43-.91-2.85-1.42-4.23h0c-.51,1.38-1,2.8-1.43,4.23Z"/></g><g class="cls-2"><path class="cls-3" d="M375.8,22.66h.89V29.6h3.46v.78H375.8Z"/></g></g><g class="cls-2"><path class="cls-3" d="M409.9,162.6a9.85,9.85,0,0,0,2,.24c1.16,0,1.91-.41,1.91-1.42s-.76-1.18-1.87-1.55-2.13-.89-2.13-2.14.92-2.07,2.65-2.07a9.29,9.29,0,0,1,1.95.24l-.14.78a8.89,8.89,0,0,0-1.83-.24c-1,0-1.73.33-1.73,1.23s.91,1.19,1.91,1.52,2.1.81,2.1,2.21-1,2.22-2.85,2.22a11.84,11.84,0,0,1-2.1-.23Z"/><path class="cls-3" d="M418.36,157.84c1.78,0,2.48,1.17,2.48,2.89s-.7,2.89-2.48,2.89-2.48-1.18-2.48-2.89S416.58,157.84,418.36,157.84Zm0,5c1.26,0,1.61-.92,1.61-2.15s-.35-2.15-1.61-2.15-1.61.91-1.61,2.15S417.1,162.88,418.36,162.88Z"/><path class="cls-3" d="M422.27,160.77c0-2,.74-2.93,2.4-2.93a6.56,6.56,0,0,1,1.25.14v-2.2h.83v7.72h-.66L426,163a2.45,2.45,0,0,1-1.62.58C423.05,163.62,422.27,162.74,422.27,160.77Zm3.65,1.63v-3.7a5.69,5.69,0,0,0-1.18-.15c-1.21,0-1.61.74-1.61,2.2s.4,2.15,1.37,2.15A2.43,2.43,0,0,0,425.92,162.4Z"/><path class="cls-3" d="M430.67,160.2a8.72,8.72,0,0,1,1.22.1v-.54c0-.91-.5-1.18-1.28-1.18a6.54,6.54,0,0,0-1.63.25l-.17-.69a7.17,7.17,0,0,1,1.86-.3c1.16,0,2.06.45,2.06,1.83v3.83h-.66L432,163a2.85,2.85,0,0,1-1.74.61,1.68,1.68,0,0,1-1.87-1.7C428.38,160.73,429.29,160.2,430.67,160.2Zm-.29,2.72a2.49,2.49,0,0,0,1.51-.54v-1.45c-.41,0-.9-.07-1.21-.07-.85,0-1.44.28-1.44,1A1,1,0,0,0,430.38,162.92Z"/></g><g class="cls-2"><path class="cls-3" d="M409.87,172.64c0-2.22.72-4,3.36-4a9.72,9.72,0,0,1,1.87.21l-.13.77a9.65,9.65,0,0,0-1.75-.2c-2.06,0-2.45,1.5-2.45,3.2s.34,3.2,2.34,3.2a5.7,5.7,0,0,0,2-.43l.28.71a5.66,5.66,0,0,1-2.32.5C410.61,176.62,409.87,174.87,409.87,172.64Z"/><path class="cls-3" d="M418.66,173.2a8.84,8.84,0,0,1,1.22.1v-.54c0-.91-.5-1.18-1.28-1.18a6.69,6.69,0,0,0-1.64.25l-.16-.69a7.09,7.09,0,0,1,1.86-.3c1.16,0,2.06.45,2.06,1.83v3.83h-.66L420,176a2.87,2.87,0,0,1-1.74.61,1.68,1.68,0,0,1-1.87-1.7C416.37,173.73,417.28,173.2,418.66,173.2Zm-.29,2.72a2.51,2.51,0,0,0,1.51-.54v-1.45c-.41,0-.9-.07-1.21-.07-.85,0-1.44.28-1.44,1A1,1,0,0,0,418.37,175.92Z"/><path class="cls-3" d="M422.65,171h.84v3.75c0,.83.41,1.17,1.08,1.17a3.08,3.08,0,0,0,1.59-.53V171H427v5.54h-.67l-.07-.52a3.1,3.1,0,0,1-1.83.64,1.64,1.64,0,0,1-1.78-1.82Zm1.85-.67-.35-.34,1.25-1.69.62.59Z"/><path class="cls-3" d="M428.74,175.66a7.48,7.48,0,0,0,1.65.22c.78,0,1.37-.23,1.37-.88s-.42-.69-1.28-1-1.84-.58-1.84-1.63.82-1.56,2.11-1.56a7.65,7.65,0,0,1,1.55.18l-.12.73a8.46,8.46,0,0,0-1.45-.17c-.82,0-1.23.29-1.23.78s.58.69,1.44,1c1,.34,1.67.67,1.67,1.63s-.8,1.67-2.25,1.67a7.79,7.79,0,0,1-1.77-.23Z"/><path class="cls-3" d="M434.39,171.65h-.8V171l.83,0,.07-1.66h.74V171h1.58v.69h-1.58V175c0,.58.13.86.63.86a2.12,2.12,0,0,0,.84-.2l.23.68a2.87,2.87,0,0,1-1.16.26c-.87,0-1.38-.44-1.38-1.55Z"/><path class="cls-3" d="M438.33,168.78h.84v1.05h-.84Zm0,2.18h.84v5.54h-.84Z"/><path class="cls-3" d="M443.46,170.84A6.68,6.68,0,0,1,445,171l-.12.72a8.56,8.56,0,0,0-1.37-.16c-1.22,0-1.7.66-1.7,2.14,0,1.24.34,2.16,1.64,2.16a4.27,4.27,0,0,0,1.53-.34l.26.67a4.46,4.46,0,0,1-1.84.41c-1.7,0-2.46-1.1-2.46-2.94C440.89,172,441.52,170.84,443.46,170.84Z"/><path class="cls-3" d="M448.48,173.2a8.84,8.84,0,0,1,1.22.1v-.54c0-.91-.5-1.18-1.28-1.18a6.69,6.69,0,0,0-1.64.25l-.16-.69a7.09,7.09,0,0,1,1.86-.3c1.16,0,2.06.45,2.06,1.83v3.83h-.66l-.09-.49a2.82,2.82,0,0,1-1.73.61,1.69,1.69,0,0,1-1.88-1.7C446.18,173.73,447.1,173.2,448.48,173.2Zm-.29,2.72a2.51,2.51,0,0,0,1.51-.54v-1.45c-.41,0-.9-.07-1.21-.07-.85,0-1.44.28-1.44,1A1,1,0,0,0,448.19,175.92Z"/></g><line class="cls-4" x1="343.11" y1="110.84" x2="343.11" y2="140.24"/><polyline class="cls-4" points="347.33 135.7 343.11 140.24 338.89 135.7"/><path class="cls-4" d="M242.59,140.63v-7.92s0-5.67,5.67-5.67H437.55s5,0,5,5v8.59"/><polyline class="cls-4" points="246.82 136.09 242.59 140.63 238.37 136.09"/><polyline class="cls-4" points="446.77 136.09 442.55 140.63 438.32 136.09"/><line class="cls-4" x1="292.91" y1="54.71" x2="292.91" y2="76.54"/><polyline class="cls-4" points="297.13 72 292.91 76.54 288.68 72"/><line class="cls-4" x1="241.46" y1="188.11" x2="241.46" y2="209.94"/><polyline class="cls-4" points="245.68 205.4 241.46 209.94 237.24 205.4"/><line class="cls-4" x1="392.03" y1="54.71" x2="392.03" y2="76.54"/><polyline class="cls-4" points="396.25 72 392.03 76.54 387.81 72"/><line class="cls-6" x1="253.33" y1="1.5" x2="332.7" y2="1.5"/><line class="cls-11" x1="307.98" y1="148.9" x2="378.84" y2="148.9"/><line class="cls-11" x1="208.76" y1="148.9" x2="279.63" y2="148.9"/><line class="cls-11" x1="208.76" y1="218.82" x2="279.63" y2="218.82"/><line class="cls-6" x1="352.54" y1="1.5" x2="431.91" y2="1.5"/><line class="cls-11" x1="407.19" y1="148.9" x2="478.06" y2="148.9"/><line class="cls-7" x1="253.33" y1="54.65" x2="332.7" y2="54.65"/><line class="cls-12" x1="307.98" y1="188.05" x2="378.84" y2="188.05"/><line class="cls-12" x1="208.76" y1="188.05" x2="279.63" y2="188.05"/><line class="cls-12" x1="208.76" y1="266.96" x2="279.63" y2="266.96"/><line class="cls-7" x1="352.54" y1="54.65" x2="431.91" y2="54.65"/><line class="cls-12" x1="407.19" y1="188.05" x2="478.06" y2="188.05"/><line class="cls-7" x1="332.14" y1="2.2" x2="332.14" y2="54.63"/><line class="cls-7" x1="431.33" y1="2.2" x2="431.33" y2="54.63"/><line class="cls-7" x1="253.79" y1="2.2" x2="253.79" y2="54.63"/><line class="cls-7" x1="352.98" y1="2.2" x2="352.98" y2="54.63"/></g></g></g></g></svg>