<svg xmlns="http://www.w3.org/2000/svg" viewBox="0 0 288.15 434.82"><defs><style>.cls-1{fill:#876a44;}.cls-2{isolation:isolate;}.cls-3{fill:#fff;}.cls-10,.cls-4,.cls-5,.cls-6,.cls-7,.cls-8,.cls-9{fill:none;}.cls-10,.cls-4,.cls-6,.cls-8,.cls-9{stroke:#fff;}.cls-4{stroke-width:1.5px;}.cls-5,.cls-7{stroke:#876a44;}.cls-5,.cls-6{stroke-width:3px;}.cls-10,.cls-9{stroke-linecap:round;stroke-linejoin:round;}.cls-9{stroke-dasharray:0 2.02;}</style></defs><title>MAP-QUIMICOS</title><g id="Capa_2" data-name="Capa 2"><g id="Capa_1-2" data-name="Capa 1"><g id="Capa_2-2" data-name="Capa 2"><g id="Capa_1-2-2" data-name="Capa 1-2"><rect class="cls-1" x="42.44" y="84.39" width="180.79" height="28.57"/><g class="cls-2"><g class="cls-2"><path class="cls-3" d="M89.39,95.63a16.63,16.63,0,0,1,2.17-.17c1.73,0,3,.51,3,2.38s-1.35,2.44-3,2.44a11.52,11.52,0,0,1-1.26-.07v3.08h-.89Zm2.16,3.88c1.26,0,2.13-.31,2.13-1.65s-.81-1.62-2.13-1.62c-.36,0-.85,0-1.27.06v3.14A11.69,11.69,0,0,0,91.55,99.51Z"/></g><g class="cls-2"><path class="cls-3" d="M95.76,95.57h.84v7.72h-.84Z"/><path class="cls-3" d="M100.39,100a9,9,0,0,1,1.23.1v-.54c0-.91-.51-1.18-1.29-1.18a6.69,6.69,0,0,0-1.63.25l-.16-.69a7.09,7.09,0,0,1,1.85-.3c1.17,0,2.07.45,2.07,1.83v3.83h-.66l-.09-.49a2.85,2.85,0,0,1-1.74.61,1.68,1.68,0,0,1-1.87-1.7C98.1,100.52,99,100,100.39,100Zm-.28,2.72a2.51,2.51,0,0,0,1.51-.54v-1.45c-.41,0-.9-.07-1.21-.07-.86,0-1.44.28-1.44,1A1,1,0,0,0,100.11,102.71Z"/></g><g class="cls-2"><path class="cls-3" d="M104.35,97.75H105l.07.54a3.16,3.16,0,0,1,1.87-.66,1.63,1.63,0,0,1,1.77,1.82v3.84h-.84V99.54c0-.83-.4-1.17-1.07-1.17a3.1,3.1,0,0,0-1.61.55v4.37h-.84Z"/></g><g class="cls-2"><path class="cls-3" d="M110.79,98.44H110v-.61l.84,0,.06-1.66h.74v1.62h1.59v.69h-1.59v3.37c0,.58.14.86.64.86a2.12,2.12,0,0,0,.84-.2l.23.68a2.89,2.89,0,0,1-1.17.26c-.86,0-1.37-.44-1.37-1.55Z"/><path class="cls-3" d="M116.42,100a9,9,0,0,1,1.23.1v-.54c0-.91-.51-1.18-1.29-1.18a6.69,6.69,0,0,0-1.63.25l-.16-.69a7.09,7.09,0,0,1,1.85-.3c1.17,0,2.07.45,2.07,1.83v3.83h-.66l-.09-.49a2.85,2.85,0,0,1-1.74.61,1.68,1.68,0,0,1-1.87-1.7C114.13,100.52,115,100,116.42,100Zm-.28,2.72a2.51,2.51,0,0,0,1.51-.54v-1.45c-.41,0-.9-.07-1.21-.07-.86,0-1.44.28-1.44,1S115.46,102.71,116.14,102.71Z"/><path class="cls-3" d="M120.05,102.45a7.48,7.48,0,0,0,1.65.22c.78,0,1.37-.23,1.37-.88s-.42-.69-1.28-1-1.84-.58-1.84-1.63.82-1.56,2.11-1.56a7.57,7.57,0,0,1,1.55.18l-.12.73a8.34,8.34,0,0,0-1.45-.17c-.82,0-1.22.29-1.22.78s.57.69,1.44,1c1,.34,1.66.67,1.66,1.63s-.8,1.67-2.25,1.67a7.63,7.63,0,0,1-1.76-.23Z"/></g><g class="cls-2"><path class="cls-3" d="M127.86,99.43c0-2.22.72-4,3.36-4a9.72,9.72,0,0,1,1.87.21l-.13.77a9.65,9.65,0,0,0-1.75-.2c-2.06,0-2.45,1.5-2.45,3.2s.34,3.2,2.34,3.2a5.7,5.7,0,0,0,2-.43l.28.71a5.66,5.66,0,0,1-2.32.5C128.6,103.41,127.86,101.66,127.86,99.43Z"/></g><g class="cls-2"><path class="cls-3" d="M134.81,95.57h.84v7.72h-.84Z"/></g><g class="cls-2"><path class="cls-3" d="M139.64,97.63c1.79,0,2.48,1.17,2.48,2.89s-.69,2.89-2.48,2.89-2.47-1.18-2.47-2.89S137.87,97.63,139.64,97.63Zm0,5c1.26,0,1.62-.92,1.62-2.15s-.36-2.15-1.62-2.15-1.61.91-1.61,2.15S138.38,102.67,139.64,102.67Z"/></g><g class="cls-2"><path class="cls-3" d="M143.71,97.75h.65l.1.67a2.11,2.11,0,0,1,1.63-.79,3.44,3.44,0,0,1,.63.07l-.08.78a3,3,0,0,0-.58-.06,2,2,0,0,0-1.51.68v4.19h-.84Z"/></g><g class="cls-2"><path class="cls-3" d="M149.86,97.63c1.79,0,2.48,1.17,2.48,2.89s-.69,2.89-2.48,2.89-2.47-1.18-2.47-2.89S148.08,97.63,149.86,97.63Zm0,5c1.26,0,1.62-.92,1.62-2.15s-.36-2.15-1.62-2.15-1.61.91-1.61,2.15S148.6,102.67,149.86,102.67Z"/></g><g class="cls-2"><path class="cls-3" d="M153.78,100h2.54v.69h-2.54Z"/></g><g class="cls-2"><path class="cls-3" d="M157.8,102.39a9.94,9.94,0,0,0,2,.24c1.16,0,1.92-.41,1.92-1.42s-.77-1.18-1.88-1.55-2.13-.89-2.13-2.14.92-2.07,2.65-2.07a9.29,9.29,0,0,1,1.95.24l-.14.78a8.89,8.89,0,0,0-1.83-.24c-1,0-1.73.33-1.73,1.23s.91,1.19,1.91,1.52,2.1.81,2.1,2.21-1,2.22-2.85,2.22a11.84,11.84,0,0,1-2.1-.23Z"/><path class="cls-3" d="M166.26,97.63c1.78,0,2.48,1.17,2.48,2.89s-.7,2.89-2.48,2.89-2.47-1.18-2.47-2.89S164.48,97.63,166.26,97.63Zm0,5c1.26,0,1.62-.92,1.62-2.15s-.36-2.15-1.62-2.15-1.61.91-1.61,2.15S165,102.67,166.26,102.67Z"/></g><g class="cls-2"><path class="cls-3" d="M170.29,100.56c0-2,.74-2.93,2.4-2.93a6.37,6.37,0,0,1,1.24.14v-2.2h.84v7.72h-.66l-.08-.46a2.45,2.45,0,0,1-1.62.58C171.07,103.41,170.29,102.53,170.29,100.56Zm3.64,1.63v-3.7a5.52,5.52,0,0,0-1.17-.15c-1.21,0-1.61.74-1.61,2.2s.4,2.15,1.37,2.15A2.4,2.4,0,0,0,173.93,102.19Z"/></g><g class="cls-2"><path class="cls-3" d="M178.57,100a8.84,8.84,0,0,1,1.22.1v-.54c0-.91-.5-1.18-1.28-1.18a6.54,6.54,0,0,0-1.63.25l-.17-.69a7.09,7.09,0,0,1,1.86-.3c1.16,0,2.06.45,2.06,1.83v3.83H180l-.08-.49a2.87,2.87,0,0,1-1.74.61,1.68,1.68,0,0,1-1.87-1.7C176.28,100.52,177.19,100,178.57,100Zm-.29,2.72a2.51,2.51,0,0,0,1.51-.54v-1.45c-.41,0-.9-.07-1.21-.07-.85,0-1.44.28-1.44,1A1,1,0,0,0,178.28,102.71Z"/></g></g><g class="cls-2"><g class="cls-2"><path class="cls-3" d="M54.93,22.69h4.4v.78H55.82v2.59h3v.76h-3v2.81h3.51v.78h-4.4Z"/><path class="cls-3" d="M61.36,22.69h1.32l3.73,6.65h0V22.69h.87v7.72H66l-3.73-6.66h0v6.66h-.88Z"/><path class="cls-3" d="M69.86,22.69h4.4v.78H70.74v2.59h3v.76h-3v2.81h3.52v.78h-4.4Z"/></g><g class="cls-2"><path class="cls-3" d="M76.22,22.73a20,20,0,0,1,2.18-.16c1.67,0,2.92.5,2.92,2.28A2,2,0,0,1,79.53,27c.55,1.08,1.25,2.19,2,3.35v0h-1c-.69-1.07-1.33-2.18-1.9-3.25a12.25,12.25,0,0,1-1.47-.07v3.32h-.89Zm2.12,3.69c1.24,0,2.08-.3,2.08-1.55s-.79-1.51-2-1.51c-.36,0-.85,0-1.29.06v2.94C77.56,26.4,78.07,26.42,78.34,26.42Z"/></g><g class="cls-2"><path class="cls-3" d="M82.59,26.51c0-2.23.78-3.94,3.47-3.94a8.89,8.89,0,0,1,2,.24l-.14.76a10.42,10.42,0,0,0-1.86-.22c-2.09,0-2.56,1.38-2.56,3.17s.39,3.23,2.37,3.23a4.49,4.49,0,0,0,1.55-.29v-3h.88V30a5.72,5.72,0,0,1-2.48.58C83.37,30.53,82.59,28.74,82.59,26.51Z"/></g><g class="cls-2"><path class="cls-3" d="M90.74,22.09l-.35-.34,1.25-1.69.62.59Zm-.12.6h.89v7.72h-.89Z"/></g><g class="cls-2"><path class="cls-3" d="M95.72,22.69h1.15c.75,1.88,1.81,5.14,2.52,7.72h-.9l-.55-1.93H94.62l-.55,1.93h-.88C93.91,27.83,95,24.57,95.72,22.69Zm2,5c-.43-1.43-.91-2.85-1.42-4.23h0c-.51,1.38-1,2.8-1.43,4.23Z"/></g></g><g class="cls-2"><path class="cls-3" d="M102,159.83c0-2.13.69-3.82,3.22-3.82a9.91,9.91,0,0,1,1.8.2l-.13.74a9.78,9.78,0,0,0-1.68-.2c-2,0-2.35,1.44-2.35,3.08s.33,3.07,2.25,3.07a5.47,5.47,0,0,0,1.93-.42l.28.68a5.48,5.48,0,0,1-2.24.49C102.74,163.65,102,162,102,159.83Z"/><path class="cls-3" d="M108.83,156.12h.8v7.41h-.8Z"/><path class="cls-3" d="M113.75,158.1c1.71,0,2.38,1.13,2.38,2.77s-.67,2.78-2.38,2.78-2.37-1.13-2.37-2.78S112.05,158.1,113.75,158.1Zm0,4.83c1.21,0,1.55-.87,1.55-2.06s-.34-2.06-1.55-2.06-1.54.88-1.54,2.06S112.54,162.93,113.75,162.93Z"/><path class="cls-3" d="M117.88,158.21h.62l.09.65a2,2,0,0,1,1.56-.76,2.63,2.63,0,0,1,.61.07l-.08.75a2.64,2.64,0,0,0-.55-.06,1.88,1.88,0,0,0-1.45.65v4h-.8Z"/><path class="cls-3" d="M123.89,158.1c1.72,0,2.38,1.13,2.38,2.77s-.66,2.78-2.38,2.78-2.37-1.13-2.37-2.78S122.19,158.1,123.89,158.1Zm0,4.83c1.21,0,1.55-.87,1.55-2.06s-.34-2.06-1.55-2.06-1.54.88-1.54,2.06S122.68,162.93,123.89,162.93Z"/></g><g class="cls-2"><path class="cls-3" d="M109.12,325.68c0-2.12.69-3.81,3.22-3.81a9.91,9.91,0,0,1,1.8.2l-.13.74a9.78,9.78,0,0,0-1.68-.2c-2,0-2.35,1.44-2.35,3.07s.33,3.08,2.25,3.08a5.47,5.47,0,0,0,1.93-.42l.28.68a5.47,5.47,0,0,1-2.24.48C109.82,329.5,109.12,327.83,109.12,325.68Z"/><path class="cls-3" d="M115.91,322h.8v7.41h-.8Z"/><path class="cls-3" d="M120.83,324c1.71,0,2.38,1.13,2.38,2.77s-.67,2.77-2.38,2.77-2.37-1.12-2.37-2.77S119.13,324,120.83,324Zm0,4.83c1.21,0,1.55-.87,1.55-2.06s-.34-2.06-1.55-2.06-1.54.88-1.54,2.06S119.62,328.79,120.83,328.79Z"/><path class="cls-3" d="M125,324.07h.62l.09.65a2,2,0,0,1,1.56-.76,2.63,2.63,0,0,1,.61.07l-.08.75a2.64,2.64,0,0,0-.55-.06,1.88,1.88,0,0,0-1.45.65v4H125Z"/><path class="cls-3" d="M131,324c1.72,0,2.38,1.13,2.38,2.77s-.66,2.77-2.38,2.77-2.37-1.12-2.37-2.77S129.27,324,131,324Zm0,4.83c1.21,0,1.55-.87,1.55-2.06s-.34-2.06-1.55-2.06-1.54.88-1.54,2.06S129.76,328.79,131,328.79Z"/></g><g class="cls-2"><path class="cls-3" d="M109.43,333h.74v5.79h2.89v.65h-3.63Z"/><path class="cls-3" d="M114.38,334.21l-.29-.28,1-1.41.52.49Zm-.08.56h.7v4.62h-.7Z"/><path class="cls-3" d="M118.69,334.67a5.11,5.11,0,0,1,1.65.3v6.24h-.7v-2.07a2.27,2.27,0,0,1-1.24.35c-1.19,0-1.8-.78-1.8-2.38S117.23,334.67,118.69,334.67Zm1,3.88v-3.16a3.8,3.8,0,0,0-.94-.13c-1,0-1.38.63-1.38,1.85s.33,1.77,1.17,1.77A2.29,2.29,0,0,0,119.64,338.55Z"/><path class="cls-3" d="M122.1,334.77h.7v3.13c0,.69.34,1,.9,1a2.51,2.51,0,0,0,1.32-.44v-3.66h.7v4.62h-.55l-.06-.43a2.63,2.63,0,0,1-1.53.53A1.36,1.36,0,0,1,122.1,338Z"/><path class="cls-3" d="M127.54,333h.7v.88h-.7Zm0,1.82h.7v4.62h-.7Z"/><path class="cls-3" d="M129.84,337.11c0-1.62.62-2.44,2-2.44a5.18,5.18,0,0,1,1,.12V333h.7v6.44H133L133,339a2.06,2.06,0,0,1-1.35.48C130.49,339.49,129.84,338.76,129.84,337.11Zm3,1.36v-3.08a4.41,4.41,0,0,0-1-.13c-1,0-1.34.62-1.34,1.84s.33,1.79,1.14,1.79A2,2,0,0,0,132.88,338.47Z"/><path class="cls-3" d="M137.15,334.67c1.49,0,2.07,1,2.07,2.41s-.58,2.41-2.07,2.41-2.06-1-2.06-2.41S135.67,334.67,137.15,334.67Zm0,4.2c1,0,1.35-.76,1.35-1.79s-.3-1.79-1.35-1.79-1.34.76-1.34,1.79S136.1,338.87,137.15,338.87Z"/></g><g class="cls-2"><path class="cls-3" d="M3.26,156.11h.85v3.2H7.79v-3.2h.85v7.41H7.79v-3.46H4.11v3.46H3.26Z"/><path class="cls-3" d="M10.76,156.11h.8v1h-.8Zm0,2.09h.8v5.32h-.8Z"/><path class="cls-3" d="M13.41,160.9c0-1.87.71-2.81,2.3-2.81a6,6,0,0,1,1.2.14v-2.12h.8v7.41h-.63l-.08-.44a2.37,2.37,0,0,1-1.55.56C14.16,163.64,13.41,162.8,13.41,160.9Zm3.5,1.56v-3.54a5.17,5.17,0,0,0-1.13-.15c-1.16,0-1.54.71-1.54,2.12s.38,2.05,1.31,2.05A2.27,2.27,0,0,0,16.91,162.46Z"/><path class="cls-3" d="M19.83,158.2h.62l.09.65a2,2,0,0,1,1.57-.76,2.63,2.63,0,0,1,.61.07l-.08.75a2.81,2.81,0,0,0-.56-.06,1.9,1.9,0,0,0-1.45.65v4h-.8Z"/><path class="cls-3" d="M25.84,158.09c1.72,0,2.39,1.13,2.39,2.77s-.67,2.78-2.39,2.78-2.37-1.13-2.37-2.78S24.14,158.09,25.84,158.09Zm0,4.83c1.21,0,1.56-.87,1.56-2.06s-.35-2.06-1.56-2.06-1.54.88-1.54,2.06S24.64,162.92,25.84,162.92Zm-.31-5.36-.33-.32,1.2-1.62.6.56Z"/><path class="cls-3" d="M31.81,165c.75,0,1.31-.22,1.31-1.22v-.6a2.48,2.48,0,0,1-1.41.41c-1.37,0-2.07-.9-2.07-2.72s.72-2.8,2.4-2.8a6.26,6.26,0,0,1,1.89.33v5.35c0,1.44-.82,2-2.14,2a6.94,6.94,0,0,1-1.6-.2l.12-.71A7.15,7.15,0,0,0,31.81,165Zm1.31-2.5v-3.6a4.32,4.32,0,0,0-1.07-.15c-1.19,0-1.58.72-1.58,2.12s.38,2,1.34,2A2.49,2.49,0,0,0,33.12,162.52Z"/><path class="cls-3" d="M37.9,158.09c1.39,0,2,1,2,2.38,0,.25,0,.47,0,.68H36.5c.06,1.07.45,1.77,1.57,1.77a3.57,3.57,0,0,0,1.53-.39l.28.65a4.25,4.25,0,0,1-1.86.46c-1.47,0-2.34-.89-2.34-2.72S36.48,158.09,37.9,158.09Zm1.23,2.42c0-.87-.29-1.71-1.25-1.71s-1.33.73-1.38,1.71Z"/><path class="cls-3" d="M41.67,158.2h.62l.07.52a3.05,3.05,0,0,1,1.79-.63,1.56,1.56,0,0,1,1.69,1.75v3.68H45v-3.6c0-.79-.38-1.12-1-1.12a3,3,0,0,0-1.54.53v4.19h-.8Z"/><path class="cls-3" d="M49.89,158.09c1.71,0,2.38,1.13,2.38,2.77s-.67,2.78-2.38,2.78-2.37-1.13-2.37-2.78S48.19,158.09,49.89,158.09Zm0,4.83c1.21,0,1.55-.87,1.55-2.06s-.34-2.06-1.55-2.06-1.54.88-1.54,2.06S48.68,162.92,49.89,162.92Z"/></g><g class="cls-2"><path class="cls-3" d="M9.9,325.67c0-2.12.69-3.81,3.22-3.81a9.91,9.91,0,0,1,1.8.2l-.13.74a9.78,9.78,0,0,0-1.68-.2c-2,0-2.35,1.44-2.35,3.07s.33,3.08,2.25,3.08a5.47,5.47,0,0,0,1.93-.42l.28.68a5.48,5.48,0,0,1-2.24.49C10.6,329.5,9.9,327.82,9.9,325.67Z"/><path class="cls-3" d="M16.56,322h.8v7.41h-.8Z"/><path class="cls-3" d="M21.36,324c1.71,0,2.38,1.13,2.38,2.77s-.67,2.78-2.38,2.78S19,328.37,19,326.72,19.65,324,21.36,324Zm0,4.83c1.2,0,1.55-.87,1.55-2.06s-.35-2.06-1.55-2.06-1.55.88-1.55,2.06S20.15,328.78,21.36,328.78Z"/><path class="cls-3" d="M25.36,324.06H26l.09.65a2,2,0,0,1,1.56-.76,2.63,2.63,0,0,1,.61.07l-.08.75a2.64,2.64,0,0,0-.55-.06,1.88,1.88,0,0,0-1.45.65v4h-.8Z"/><path class="cls-3" d="M29.38,324.06h.81v3.61c0,.79.39,1.11,1,1.11a2.93,2.93,0,0,0,1.52-.5v-4.22h.81v5.32h-.64l-.07-.5a2.94,2.94,0,0,1-1.76.62,1.57,1.57,0,0,1-1.7-1.75Z"/><path class="cls-3" d="M35.52,324.06h.62l.1.65A2,2,0,0,1,37.8,324a2.63,2.63,0,0,1,.61.07l-.08.75a2.8,2.8,0,0,0-.55-.06,1.88,1.88,0,0,0-1.45.65v4h-.81Z"/><path class="cls-3" d="M41.41,324c1.72,0,2.38,1.13,2.38,2.77s-.66,2.78-2.38,2.78S39,328.37,39,326.72,39.71,324,41.41,324Zm0,4.83c1.21,0,1.55-.87,1.55-2.06s-.34-2.06-1.55-2.06-1.54.88-1.54,2.06S40.2,328.78,41.41,328.78Z"/></g><g class="cls-2"><path class="cls-3" d="M10.34,332h4.22v.75H11.19v2.61h2.86v.74H11.19v3.31h-.85Z"/><path class="cls-3" d="M17.64,334c1.39,0,2,1.05,2,2.38a6.77,6.77,0,0,1-.05.68H16.25c.06,1.07.45,1.77,1.56,1.77a3.54,3.54,0,0,0,1.53-.39l.28.65a4.24,4.24,0,0,1-1.85.46c-1.48,0-2.35-.89-2.35-2.72S16.23,334,17.64,334Zm1.23,2.42c0-.87-.29-1.71-1.24-1.71s-1.34.73-1.38,1.71Zm-1.56-2.95L17,333.1l1.2-1.62.6.56Z"/><path class="cls-3" d="M21.41,334.06H22l.1.65a2,2,0,0,1,1.56-.76,2.63,2.63,0,0,1,.61.07l-.08.75a2.8,2.8,0,0,0-.55-.06,1.88,1.88,0,0,0-1.45.65v4h-.81Z"/><path class="cls-3" d="M25.64,334.06h.63l.09.65a2,2,0,0,1,1.56-.76,2.63,2.63,0,0,1,.61.07l-.08.75a2.8,2.8,0,0,0-.55-.06,1.88,1.88,0,0,0-1.45.65v4h-.81Z"/><path class="cls-3" d="M29.88,332h.8v1h-.8Zm0,2.09h.8v5.32h-.8Z"/><path class="cls-3" d="M34.91,334a6.66,6.66,0,0,1,1.43.17l-.11.69a7.83,7.83,0,0,0-1.32-.15c-1.17,0-1.63.64-1.63,2,0,1.2.33,2.07,1.58,2.07a3.94,3.94,0,0,0,1.47-.32l.24.64a4.27,4.27,0,0,1-1.76.4c-1.63,0-2.36-1.06-2.36-2.82C32.45,335.08,33.05,334,34.91,334Z"/><path class="cls-3" d="M40.09,334c1.71,0,2.38,1.13,2.38,2.77s-.67,2.78-2.38,2.78-2.37-1.13-2.37-2.78S38.39,334,40.09,334Zm0,4.83c1.21,0,1.55-.87,1.55-2.06s-.34-2.06-1.55-2.06-1.54.88-1.54,2.06S38.88,338.78,40.09,338.78Z"/></g><g class="cls-2"><path class="cls-3" d="M4.92,231H6c.72,1.81,1.74,4.94,2.42,7.41H7.57L7,236.57H3.87l-.53,1.85H2.49C3.18,236,4.19,232.82,4.92,231Zm1.92,4.82c-.42-1.37-.88-2.74-1.36-4.06H5.43c-.48,1.32-.94,2.69-1.37,4.06Zm-1.67-5.39-.34-.33L6,228.49l.6.56Z"/><path class="cls-3" d="M11.91,233a6.57,6.57,0,0,1,1.42.17l-.11.69a7.83,7.83,0,0,0-1.31-.15c-1.18,0-1.64.64-1.64,2.05,0,1.2.34,2.07,1.58,2.07a3.94,3.94,0,0,0,1.47-.32l.24.64a4.27,4.27,0,0,1-1.76.4c-1.63,0-2.36-1.06-2.36-2.82C9.44,234.12,10,233,11.91,233Z"/><path class="cls-3" d="M15.08,231h.8v1h-.8Zm0,2.09h.8v5.32h-.8Z"/><path class="cls-3" d="M17.74,235.8c0-1.87.71-2.81,2.3-2.81a6,6,0,0,1,1.19.14V231H22v7.41h-.63l-.08-.44a2.42,2.42,0,0,1-1.56.56C18.48,238.54,17.74,237.7,17.74,235.8Zm3.49,1.56v-3.54a5.16,5.16,0,0,0-1.12-.15c-1.17,0-1.55.71-1.55,2.12s.38,2.05,1.32,2.05A2.27,2.27,0,0,0,21.23,237.36Z"/><path class="cls-3" d="M26.16,233c1.71,0,2.38,1.13,2.38,2.77s-.67,2.78-2.38,2.78-2.37-1.13-2.37-2.78S24.45,233,26.16,233Zm0,4.83c1.2,0,1.55-.87,1.55-2.06s-.35-2.06-1.55-2.06-1.55.88-1.55,2.06S25,237.82,26.16,237.82Z"/></g><g class="cls-2"><path class="cls-3" d="M2.82,244.71c0-2.12.69-3.81,3.22-3.81a9.91,9.91,0,0,1,1.8.2l-.13.74a9.78,9.78,0,0,0-1.68-.2c-2,0-2.35,1.44-2.35,3.07s.33,3.08,2.25,3.08a5.47,5.47,0,0,0,1.93-.42l.28.68a5.48,5.48,0,0,1-2.24.49C3.52,248.54,2.82,246.86,2.82,244.71Z"/><path class="cls-3" d="M9.48,241h.81v7.41H9.48Z"/><path class="cls-3" d="M14.28,243c1.71,0,2.38,1.13,2.38,2.77s-.67,2.78-2.38,2.78-2.37-1.13-2.37-2.78S12.57,243,14.28,243Zm0,4.83c1.2,0,1.55-.87,1.55-2.06s-.35-2.06-1.55-2.06-1.55.88-1.55,2.06S13.07,247.82,14.28,247.82Z"/><path class="cls-3" d="M18.28,243.1h.62l.09.65a2,2,0,0,1,1.56-.76,2.79,2.79,0,0,1,.62.07l-.09.75a2.64,2.64,0,0,0-.55-.06,1.88,1.88,0,0,0-1.45.65v4h-.8Z"/><path class="cls-3" d="M22.38,241h.81v2.54a3,3,0,0,1,1.67-.56,1.56,1.56,0,0,1,1.7,1.75v3.68h-.81v-3.6c0-.79-.38-1.12-1-1.12a2.93,2.93,0,0,0-1.54.53v4.19h-.81Z"/><path class="cls-3" d="M28.57,242.46l-.33-.32,1.19-1.62.6.56Zm-.09.64h.8v5.32h-.8Z"/><path class="cls-3" d="M31,245.8c0-1.87.71-2.81,2.3-2.81a6,6,0,0,1,1.19.14V241h.81v7.41h-.63L34.6,248a2.42,2.42,0,0,1-1.56.56C31.75,248.54,31,247.7,31,245.8Zm3.49,1.56v-3.54a5.16,5.16,0,0,0-1.12-.15c-1.17,0-1.55.71-1.55,2.12s.38,2.05,1.32,2.05A2.27,2.27,0,0,0,34.5,247.36Z"/><path class="cls-3" d="M37.3,243.1h.62l.09.65a2,2,0,0,1,1.57-.76,2.69,2.69,0,0,1,.61.07l-.09.75a2.64,2.64,0,0,0-.55-.06,1.88,1.88,0,0,0-1.45.65v4h-.8Z"/><path class="cls-3" d="M41.4,241h.81v1H41.4Zm0,2.09h.81v5.32H41.4Z"/><path class="cls-3" d="M46.31,243a6.66,6.66,0,0,1,1.43.17l-.11.69a7.83,7.83,0,0,0-1.32-.15c-1.17,0-1.63.64-1.63,2.05,0,1.2.33,2.07,1.58,2.07a3.94,3.94,0,0,0,1.47-.32l.24.64a4.27,4.27,0,0,1-1.76.4c-1.63,0-2.36-1.06-2.36-2.82C43.85,244.12,44.45,243,46.31,243Z"/><path class="cls-3" d="M51.36,243c1.72,0,2.38,1.13,2.38,2.77s-.66,2.78-2.38,2.78S49,247.41,49,245.76,49.66,243,51.36,243Zm0,4.83c1.21,0,1.56-.87,1.56-2.06s-.35-2.06-1.56-2.06-1.54.88-1.54,2.06S50.15,247.82,51.36,247.82Z"/></g><g class="cls-2"><g class="cls-2"><path class="cls-3" d="M153.7,29.48a9.94,9.94,0,0,0,2,.24c1.16,0,1.92-.41,1.92-1.42s-.77-1.18-1.88-1.55-2.13-.89-2.13-2.14.92-2.07,2.65-2.07a9.46,9.46,0,0,1,2,.24l-.15.78a8.89,8.89,0,0,0-1.83-.24c-1,0-1.73.33-1.73,1.23s.91,1.19,1.91,1.52,2.1.81,2.1,2.21-1,2.22-2.85,2.22a11.84,11.84,0,0,1-2.1-.23Z"/></g><g class="cls-2"><path class="cls-3" d="M161.69,22.66h1.15c.75,1.88,1.81,5.14,2.52,7.72h-.9l-.55-1.93H160.6L160,30.38h-.88C159.88,27.8,160.93,24.54,161.69,22.66Zm2,5c-.43-1.43-.91-2.85-1.42-4.23h0c-.51,1.38-1,2.8-1.43,4.23Z"/></g><g class="cls-2"><path class="cls-3" d="M167,22.66h.89V29.6h3.46v.78H167Z"/></g></g><g class="cls-2"><path class="cls-3" d="M201.1,162.64a10,10,0,0,0,1.9.23c1.12,0,1.84-.39,1.84-1.36s-.73-1.14-1.79-1.5-2.05-.85-2.05-2,.89-2,2.54-2a9.29,9.29,0,0,1,1.88.23l-.14.74a8.91,8.91,0,0,0-1.76-.23c-.92,0-1.66.33-1.66,1.19s.88,1.14,1.83,1.46,2,.77,2,2.12-1,2.13-2.73,2.13a11.56,11.56,0,0,1-2-.22Z"/><path class="cls-3" d="M209.2,158.07c1.72,0,2.38,1.13,2.38,2.77s-.66,2.78-2.38,2.78-2.37-1.13-2.37-2.78S207.5,158.07,209.2,158.07Zm0,4.83c1.21,0,1.55-.87,1.55-2.06s-.34-2.06-1.55-2.06-1.54.88-1.54,2.06S208,162.9,209.2,162.9Z"/><path class="cls-3" d="M212.94,160.88c0-1.87.71-2.81,2.3-2.81a6,6,0,0,1,1.19.14v-2.12h.81v7.41h-.63l-.08-.44a2.42,2.42,0,0,1-1.56.56C213.68,163.62,212.94,162.78,212.94,160.88Zm3.49,1.56V158.9a5.16,5.16,0,0,0-1.12-.15c-1.17,0-1.54.71-1.54,2.12s.37,2,1.31,2A2.27,2.27,0,0,0,216.43,162.44Z"/><path class="cls-3" d="M221,160.34a8.09,8.09,0,0,1,1.17.09v-.52c0-.87-.48-1.13-1.23-1.13a6.61,6.61,0,0,0-1.57.24l-.16-.66a6.7,6.7,0,0,1,1.79-.29c1.11,0,2,.44,2,1.76v3.67h-.64l-.08-.47a2.71,2.71,0,0,1-1.67.59,1.62,1.62,0,0,1-1.79-1.64C218.78,160.84,219.65,160.34,221,160.34ZM220.7,163a2.42,2.42,0,0,0,1.45-.52V161c-.39,0-.86-.07-1.16-.07-.82,0-1.38.26-1.38,1A1,1,0,0,0,220.7,163Z"/></g><g class="cls-2"><path class="cls-3" d="M201.08,170.79c0-2.12.69-3.81,3.22-3.81a9.91,9.91,0,0,1,1.8.2l-.13.74a9.78,9.78,0,0,0-1.68-.2c-2,0-2.35,1.44-2.35,3.07s.33,3.08,2.25,3.08a5.47,5.47,0,0,0,1.93-.42l.28.68a5.48,5.48,0,0,1-2.24.49C201.78,174.62,201.08,172.94,201.08,170.79Z"/><path class="cls-3" d="M209.61,171.34a8.12,8.12,0,0,1,1.18.09v-.52c0-.87-.49-1.13-1.23-1.13A6.61,6.61,0,0,0,208,170l-.16-.66a6.62,6.62,0,0,1,1.78-.29c1.12,0,2,.44,2,1.76v3.67H211l-.08-.47a2.71,2.71,0,0,1-1.67.59,1.62,1.62,0,0,1-1.79-1.64C207.42,171.84,208.29,171.34,209.61,171.34Zm-.27,2.61a2.45,2.45,0,0,0,1.45-.52V172c-.39,0-.87-.07-1.16-.07-.82,0-1.38.26-1.38,1A1,1,0,0,0,209.34,174Z"/><path class="cls-3" d="M213.56,169.18h.8v3.61c0,.79.39,1.11,1,1.11a2.93,2.93,0,0,0,1.52-.5v-4.22h.8v5.32h-.63L217,174a3,3,0,0,1-1.76.62,1.57,1.57,0,0,1-1.7-1.75Zm1.77-.64-.33-.32,1.19-1.62.6.56Z"/><path class="cls-3" d="M219.5,173.69a7,7,0,0,0,1.59.21c.75,0,1.31-.22,1.31-.84s-.4-.67-1.23-.93-1.76-.55-1.76-1.56.78-1.5,2-1.5a7.7,7.7,0,0,1,1.48.17l-.11.7a7.78,7.78,0,0,0-1.4-.16c-.78,0-1.17.28-1.17.75s.55.66,1.38.92c1,.32,1.6.65,1.6,1.57s-.77,1.6-2.16,1.6a7.58,7.58,0,0,1-1.69-.22Z"/><path class="cls-3" d="M225,169.85h-.78v-.58l.81-.05.06-1.59h.71v1.55h1.52v.67h-1.52v3.23c0,.56.13.82.61.82a2.3,2.3,0,0,0,.81-.18l.21.64a2.67,2.67,0,0,1-1.11.26c-.83,0-1.32-.43-1.32-1.49Z"/><path class="cls-3" d="M228.92,167.09h.81v1h-.81Zm0,2.09h.81v5.32h-.81Z"/><path class="cls-3" d="M234,169.07a6.74,6.74,0,0,1,1.43.17l-.12.69a7.83,7.83,0,0,0-1.31-.15c-1.17,0-1.63.64-1.63,2.05,0,1.2.33,2.07,1.57,2.07a4,4,0,0,0,1.48-.32l.24.64a4.34,4.34,0,0,1-1.76.4c-1.64,0-2.36-1.06-2.36-2.82C231.5,170.2,232.1,169.07,234,169.07Z"/><path class="cls-3" d="M238.88,171.34a7.88,7.88,0,0,1,1.17.09v-.52c0-.87-.48-1.13-1.23-1.13a6.6,6.6,0,0,0-1.56.24l-.16-.66a6.62,6.62,0,0,1,1.78-.29c1.12,0,2,.44,2,1.76v3.67h-.63l-.08-.47a2.73,2.73,0,0,1-1.67.59,1.62,1.62,0,0,1-1.8-1.64C236.68,171.84,237.56,171.34,238.88,171.34Zm-.27,2.61a2.42,2.42,0,0,0,1.44-.52V172c-.39,0-.86-.07-1.16-.07-.81,0-1.38.26-1.38,1A1,1,0,0,0,238.61,174Z"/></g><g class="cls-2"><path class="cls-3" d="M205.77,322h.85v3.2h3.68V322h.85v7.41h-.85V325.9h-3.68v3.46h-.85Z"/><path class="cls-3" d="M213.14,322h.8v1h-.8Zm0,2.09h.8v5.32h-.8Z"/><path class="cls-3" d="M216.74,331.45h-.81V324h.62l.09.45a2.51,2.51,0,0,1,1.58-.56c1.3,0,2,.9,2,2.78s-.69,2.77-2.3,2.77a5.4,5.4,0,0,1-1.2-.15Zm1.16-2.65c1.19,0,1.51-.74,1.51-2.06s-.39-2.11-1.31-2.11a2.47,2.47,0,0,0-1.36.46v3.56A5.59,5.59,0,0,0,217.9,328.8Z"/><path class="cls-3" d="M224,323.93c1.72,0,2.38,1.13,2.38,2.77s-.66,2.78-2.38,2.78-2.37-1.13-2.37-2.78S222.26,323.93,224,323.93Zm0,4.83c1.21,0,1.55-.87,1.55-2.06s-.34-2.06-1.55-2.06-1.54.88-1.54,2.06S222.75,328.76,224,328.76Z"/><path class="cls-3" d="M230.08,323.93a6.74,6.74,0,0,1,1.43.17l-.12.69a7.83,7.83,0,0,0-1.31-.15c-1.17,0-1.63.64-1.63,2.05,0,1.2.33,2.07,1.57,2.07a3.94,3.94,0,0,0,1.47-.32l.25.64a4.34,4.34,0,0,1-1.76.4c-1.64,0-2.36-1.06-2.36-2.82C227.62,325.06,228.22,323.93,230.08,323.93Z"/><path class="cls-3" d="M233.13,322h.8v7.41h-.8Z"/><path class="cls-3" d="M237.92,323.93c1.72,0,2.38,1.13,2.38,2.77s-.66,2.78-2.38,2.78-2.37-1.13-2.37-2.78S236.22,323.93,237.92,323.93Zm0,4.83c1.21,0,1.56-.87,1.56-2.06s-.35-2.06-1.56-2.06-1.54.88-1.54,2.06S236.71,328.76,237.92,328.76Z"/><path class="cls-3" d="M241.92,324h.62l.1.65a2,2,0,0,1,1.56-.76,2.63,2.63,0,0,1,.61.07l-.08.75a2.8,2.8,0,0,0-.55-.06,1.88,1.88,0,0,0-1.45.65v4h-.81Z"/><path class="cls-3" d="M246,322h.8v1H246Zm0,2.09h.8v5.32H246Z"/><path class="cls-3" d="M249,324.71h-.77v-.58l.8-.05.06-1.59h.71V324h1.52v.67h-1.52V328c0,.55.13.81.61.81a2.3,2.3,0,0,0,.81-.18l.22.64a2.68,2.68,0,0,1-1.12.26c-.83,0-1.32-.43-1.32-1.49Z"/><path class="cls-3" d="M254.77,323.93c1.71,0,2.38,1.13,2.38,2.77s-.67,2.78-2.38,2.78-2.37-1.13-2.37-2.78S253.07,323.93,254.77,323.93Zm0,4.83c1.21,0,1.55-.87,1.55-2.06s-.34-2.06-1.55-2.06-1.54.88-1.54,2.06S253.56,328.76,254.77,328.76Z"/></g><g class="cls-2"><path class="cls-3" d="M205.41,336.74c0-1.87.71-2.81,2.3-2.81a6,6,0,0,1,1.2.14V332h.8v7.41h-.63l-.08-.44a2.32,2.32,0,0,1-1.55.56C206.16,339.48,205.41,338.64,205.41,336.74Zm3.5,1.56v-3.54a5.17,5.17,0,0,0-1.13-.15c-1.16,0-1.54.71-1.54,2.12s.38,2.06,1.31,2.06A2.31,2.31,0,0,0,208.91,338.3Z"/><path class="cls-3" d="M213.55,333.93c1.4,0,2,1.05,2,2.38a4.72,4.72,0,0,1-.05.68h-3.37c.06,1.07.45,1.77,1.57,1.77a3.57,3.57,0,0,0,1.53-.39l.27.65a4.16,4.16,0,0,1-1.85.46c-1.47,0-2.35-.89-2.35-2.72S212.14,333.93,213.55,333.93Zm1.24,2.42c0-.87-.29-1.71-1.25-1.71s-1.33.73-1.38,1.71Z"/><path class="cls-3" d="M219.69,338.5a10,10,0,0,0,1.9.23c1.12,0,1.84-.39,1.84-1.36s-.73-1.14-1.79-1.5-2-.85-2-2,.89-2,2.54-2a9.29,9.29,0,0,1,1.88.23l-.14.74a8.91,8.91,0,0,0-1.76-.23c-.92,0-1.66.33-1.66,1.19s.88,1.14,1.83,1.46,2,.77,2,2.12-1,2.13-2.73,2.13a11.56,11.56,0,0,1-2-.22Z"/><path class="cls-3" d="M227.79,333.93c1.71,0,2.38,1.13,2.38,2.77s-.67,2.78-2.38,2.78-2.37-1.13-2.37-2.78S226.09,333.93,227.79,333.93Zm0,4.83c1.21,0,1.55-.87,1.55-2.06s-.34-2.06-1.55-2.06-1.54.88-1.54,2.06S226.58,338.76,227.79,338.76Z"/><path class="cls-3" d="M231.53,336.74c0-1.87.71-2.81,2.3-2.81a6,6,0,0,1,1.19.14V332h.81v7.41h-.63l-.08-.44a2.37,2.37,0,0,1-1.56.56C232.28,339.48,231.53,338.64,231.53,336.74ZM235,338.3v-3.54a5.08,5.08,0,0,0-1.12-.15c-1.16,0-1.54.71-1.54,2.12s.38,2.06,1.31,2.06A2.28,2.28,0,0,0,235,338.3Z"/><path class="cls-3" d="M237.82,332h.8v1h-.8Zm0,2.09h.8v5.32h-.8Z"/><path class="cls-3" d="M242.61,333.93c1.72,0,2.39,1.13,2.39,2.77s-.67,2.78-2.39,2.78-2.37-1.13-2.37-2.78S240.91,333.93,242.61,333.93Zm0,4.83c1.21,0,1.56-.87,1.56-2.06s-.35-2.06-1.56-2.06-1.54.88-1.54,2.06S241.41,338.76,242.61,338.76Z"/></g><g class="cls-2"><path class="cls-3" d="M205.77,388.13h.85v3.2h3.68v-3.2h.85v7.41h-.85v-3.46h-3.68v3.46h-.85Z"/><path class="cls-3" d="M213.14,388.13h.8v1h-.8Zm0,2.09h.8v5.32h-.8Z"/><path class="cls-3" d="M216.74,397.63h-.81v-7.41h.62l.09.45a2.51,2.51,0,0,1,1.58-.56c1.3,0,2,.9,2,2.78s-.69,2.77-2.3,2.77a5.4,5.4,0,0,1-1.2-.15ZM217.9,395c1.19,0,1.51-.74,1.51-2.06s-.39-2.11-1.31-2.11a2.47,2.47,0,0,0-1.36.46v3.56A5.59,5.59,0,0,0,217.9,395Z"/><path class="cls-3" d="M224,390.11c1.72,0,2.38,1.13,2.38,2.77s-.66,2.78-2.38,2.78-2.37-1.13-2.37-2.78S222.26,390.11,224,390.11Zm0,4.83c1.21,0,1.55-.87,1.55-2.06s-.34-2.06-1.55-2.06-1.54.88-1.54,2.06S222.75,394.94,224,394.94Z"/><path class="cls-3" d="M230.08,390.11a6.74,6.74,0,0,1,1.43.17l-.12.69a7.83,7.83,0,0,0-1.31-.15c-1.17,0-1.63.64-1.63,2.05,0,1.2.33,2.07,1.57,2.07a3.94,3.94,0,0,0,1.47-.32l.25.64a4.34,4.34,0,0,1-1.76.4c-1.64,0-2.36-1.06-2.36-2.82C227.62,391.24,228.22,390.11,230.08,390.11Z"/><path class="cls-3" d="M233.13,388.13h.8v7.41h-.8Z"/><path class="cls-3" d="M237.92,390.11c1.72,0,2.38,1.13,2.38,2.77s-.66,2.78-2.38,2.78-2.37-1.13-2.37-2.78S236.22,390.11,237.92,390.11Zm0,4.83c1.21,0,1.56-.87,1.56-2.06s-.35-2.06-1.56-2.06-1.54.88-1.54,2.06S236.71,394.94,237.92,394.94Z"/><path class="cls-3" d="M241.92,390.22h.62l.1.65a2,2,0,0,1,1.56-.76,2.63,2.63,0,0,1,.61.07l-.08.75a2.8,2.8,0,0,0-.55-.06,1.88,1.88,0,0,0-1.45.65v4h-.81Z"/><path class="cls-3" d="M246,388.13h.8v1H246Zm0,2.09h.8v5.32H246Z"/><path class="cls-3" d="M249,390.89h-.77v-.58l.8-.05.06-1.59h.71v1.55h1.52v.67h-1.52v3.23c0,.56.13.82.61.82a2.3,2.3,0,0,0,.81-.18l.22.64a2.68,2.68,0,0,1-1.12.26c-.83,0-1.32-.43-1.32-1.49Z"/><path class="cls-3" d="M254.77,390.11c1.71,0,2.38,1.13,2.38,2.77s-.67,2.78-2.38,2.78-2.37-1.13-2.37-2.78S253.07,390.11,254.77,390.11Zm0,4.83c1.21,0,1.55-.87,1.55-2.06s-.34-2.06-1.55-2.06-1.54.88-1.54,2.06S253.56,394.94,254.77,394.94Z"/></g><g class="cls-2"><path class="cls-3" d="M205.41,402.92c0-1.87.71-2.81,2.3-2.81a6,6,0,0,1,1.2.14v-2.12h.8v7.41h-.63l-.08-.44a2.37,2.37,0,0,1-1.55.56C206.16,405.66,205.41,404.82,205.41,402.92Zm3.5,1.56v-3.54a5.17,5.17,0,0,0-1.13-.15c-1.16,0-1.54.71-1.54,2.12s.38,2,1.31,2A2.3,2.3,0,0,0,208.91,404.48Z"/><path class="cls-3" d="M213.55,400.11c1.4,0,2,1.05,2,2.38a4.72,4.72,0,0,1-.05.68h-3.37c.06,1.07.45,1.77,1.57,1.77a3.57,3.57,0,0,0,1.53-.39l.27.65a4.16,4.16,0,0,1-1.85.46c-1.47,0-2.35-.89-2.35-2.72S212.14,400.11,213.55,400.11Zm1.24,2.42c0-.87-.29-1.71-1.25-1.71s-1.33.73-1.38,1.71Z"/><path class="cls-3" d="M219.67,401.83c0-2.12.69-3.81,3.22-3.81a9.91,9.91,0,0,1,1.8.2l-.13.74a9.78,9.78,0,0,0-1.68-.2c-2,0-2.35,1.44-2.35,3.07s.33,3.08,2.25,3.08a5.47,5.47,0,0,0,1.93-.42l.28.68a5.48,5.48,0,0,1-2.24.49C220.37,405.66,219.67,404,219.67,401.83Z"/><path class="cls-3" d="M228.08,402.38a8.09,8.09,0,0,1,1.17.09V402c0-.87-.48-1.13-1.23-1.13a6.45,6.45,0,0,0-1.56.24l-.17-.66a6.7,6.7,0,0,1,1.79-.29c1.11,0,2,.44,2,1.76v3.67h-.64l-.08-.47a2.68,2.68,0,0,1-1.66.59,1.62,1.62,0,0,1-1.8-1.64C225.88,402.88,226.75,402.38,228.08,402.38ZM227.8,405a2.42,2.42,0,0,0,1.45-.52v-1.39c-.39,0-.86-.07-1.16-.07-.82,0-1.38.26-1.38,1A1,1,0,0,0,227.8,405Z"/><path class="cls-3" d="M232,398.13h.8v7.41H232Z"/><path class="cls-3" d="M236.89,400.11a6.57,6.57,0,0,1,1.42.17l-.11.69a7.83,7.83,0,0,0-1.31-.15c-1.18,0-1.64.64-1.64,2.05,0,1.2.34,2.07,1.58,2.07a3.94,3.94,0,0,0,1.47-.32l.24.64a4.27,4.27,0,0,1-1.76.4c-1.63,0-2.36-1.06-2.36-2.82C234.42,401.24,235,400.11,236.89,400.11Z"/><path class="cls-3" d="M239.93,398.13h.81v1h-.81Zm0,2.09h.81v5.32h-.81Z"/><path class="cls-3" d="M244.73,400.11c1.71,0,2.38,1.13,2.38,2.77s-.67,2.78-2.38,2.78-2.37-1.13-2.37-2.78S243,400.11,244.73,400.11Zm0,4.83c1.21,0,1.55-.87,1.55-2.06s-.34-2.06-1.55-2.06-1.54.88-1.54,2.06S243.52,404.94,244.73,404.94Z"/></g><line class="cls-4" x1="135.41" y1="243.2" x2="81.18" y2="243.2"/><polyline class="cls-4" points="85.72 247.42 81.18 243.2 85.72 238.97"/><line class="cls-4" x1="287.72" y1="337.35" x2="276.07" y2="337.35"/><polyline class="cls-4" points="280.61 341.58 276.07 337.35 280.61 333.13"/><path class="cls-4" d="M135.32,280.84h92.31s5,0,5,5V293"/><polyline class="cls-4" points="236.85 288.44 232.63 292.98 228.41 288.44"/><path class="cls-4" d="M32.88,280.78H81s5.09,0,5.09,6v121s0,4-4,4h-8"/><polyline class="cls-4" points="78.64 407.52 74.09 411.75 78.64 415.97"/><line class="cls-4" x1="134.35" y1="112.96" x2="134.35" y2="140.24"/><polyline class="cls-4" points="138.57 135.7 134.34 140.24 130.12 135.7"/><line class="cls-4" x1="135.05" y1="187.94" x2="135.05" y2="292.46"/><polyline class="cls-4" points="139.28 287.92 135.05 292.46 130.83 287.92"/><path class="cls-4" d="M183.31,282.14V408.69s0,4,4,4h7.31"/><polyline class="cls-4" points="190.08 408.47 194.63 412.69 190.08 416.92"/><path class="cls-4" d="M33.83,140.63v-7.92s0-5.67,5.67-5.67H228.78s5,0,5,5v8.59"/><polyline class="cls-4" points="38.05 136.09 33.83 140.63 29.61 136.09"/><polyline class="cls-4" points="238 136.09 233.78 140.63 229.56 136.09"/><line class="cls-4" x1="84.14" y1="54.71" x2="84.14" y2="76.54"/><polyline class="cls-4" points="88.37 72 84.14 76.54 79.92 72"/><line class="cls-4" x1="32.69" y1="188.11" x2="32.69" y2="209.94"/><polyline class="cls-4" points="36.92 205.4 32.69 209.94 28.47 205.4"/><line class="cls-4" x1="32.69" y1="270.88" x2="32.69" y2="292.71"/><polyline class="cls-4" points="36.92 288.17 32.69 292.71 28.47 288.17"/><line class="cls-4" x1="183.26" y1="54.71" x2="183.26" y2="76.54"/><polyline class="cls-4" points="187.49 72 183.26 76.54 179.04 72"/><path class="cls-4" d="M274.25,164.82h9.67s3.48,0,3.48,4v250.8s0,4-4,4h-7.31"/><polyline class="cls-4" points="280.64 419.4 276.09 423.62 280.64 427.85"/><line class="cls-5" x1="44.57" y1="1.5" x2="123.94" y2="1.5"/><line class="cls-6" x1="99.21" y1="148.9" x2="170.08" y2="148.9"/><line class="cls-6" x1="99.21" y1="314.77" x2="170.08" y2="314.77"/><line class="cls-6" y1="148.9" x2="70.87" y2="148.9"/><line class="cls-6" y1="314.77" x2="70.87" y2="314.77"/><line class="cls-6" y1="218.82" x2="70.87" y2="218.82"/><line class="cls-5" x1="143.78" y1="1.5" x2="223.15" y2="1.5"/><line class="cls-6" x1="198.43" y1="148.9" x2="269.29" y2="148.9"/><line class="cls-6" x1="198.43" y1="314.77" x2="269.29" y2="314.77"/><line class="cls-6" x1="198.43" y1="380.95" x2="269.29" y2="380.95"/><line class="cls-7" x1="44.57" y1="54.65" x2="123.94" y2="54.65"/><line class="cls-8" x1="99.21" y1="188.05" x2="170.08" y2="188.05"/><line class="cls-8" x1="99.21" y1="367.92" x2="170.08" y2="367.92"/><line class="cls-8" y1="188.05" x2="70.87" y2="188.05"/><line class="cls-8" y1="367.92" x2="70.87" y2="367.92"/><line class="cls-8" y1="270.96" x2="70.87" y2="270.96"/><line class="cls-7" x1="143.78" y1="54.65" x2="223.15" y2="54.65"/><line class="cls-8" x1="198.43" y1="188.05" x2="269.29" y2="188.05"/><line class="cls-8" x1="198.43" y1="367.92" x2="269.29" y2="367.92"/><line class="cls-8" x1="198.43" y1="434.1" x2="269.29" y2="434.1"/><line class="cls-9" x1="70.37" y1="317.59" x2="70.37" y2="367"/><path class="cls-10" d="M70.37,368h0m0-52.44h0"/><line class="cls-9" x1="0.5" y1="317.59" x2="0.5" y2="367"/><path class="cls-10" d="M.5,368h0m0-52.44h0"/><line class="cls-9" x1="198.93" y1="317.59" x2="198.93" y2="367"/><path class="cls-10" d="M198.93,368h0m0-52.44h0"/><line class="cls-9" x1="99.71" y1="317.59" x2="99.71" y2="367"/><path class="cls-10" d="M99.71,368h0m0-52.44h0"/><line class="cls-9" x1="169.58" y1="317.48" x2="169.58" y2="366.88"/><path class="cls-10" d="M169.58,367.89h0m0-52.43h0"/><line class="cls-9" x1="268.94" y1="317.59" x2="268.94" y2="367"/><path class="cls-10" d="M268.94,368h0m0-52.44h0"/><g class="cls-2"><path class="cls-3" d="M9.9,392.08c0-2.13.69-3.82,3.22-3.82a9.91,9.91,0,0,1,1.8.2l-.13.74a9.78,9.78,0,0,0-1.68-.2c-2,0-2.35,1.44-2.35,3.08s.33,3.07,2.25,3.07a5.47,5.47,0,0,0,1.93-.42l.28.68a5.48,5.48,0,0,1-2.24.49C10.6,395.9,9.9,394.22,9.9,392.08Z"/><path class="cls-3" d="M16.56,388.37h.8v7.41h-.8Z"/><path class="cls-3" d="M21.36,390.35c1.71,0,2.38,1.13,2.38,2.77s-.67,2.78-2.38,2.78S19,394.77,19,393.12,19.65,390.35,21.36,390.35Zm0,4.83c1.2,0,1.55-.87,1.55-2.06s-.35-2.06-1.55-2.06-1.55.88-1.55,2.06S20.15,395.18,21.36,395.18Z"/><path class="cls-3" d="M25.36,390.46H26l.09.65a2,2,0,0,1,1.56-.76,2.63,2.63,0,0,1,.61.07l-.08.75a2.64,2.64,0,0,0-.55-.06,1.88,1.88,0,0,0-1.45.65v4h-.8Z"/><path class="cls-3" d="M29.38,390.46h.81v3.61c0,.79.39,1.11,1,1.11a2.93,2.93,0,0,0,1.52-.5v-4.22h.81v5.32h-.64l-.07-.49a3,3,0,0,1-1.76.61,1.57,1.57,0,0,1-1.7-1.75Z"/><path class="cls-3" d="M35.52,390.46h.62l.1.65a2,2,0,0,1,1.56-.76,2.63,2.63,0,0,1,.61.07l-.08.75a2.8,2.8,0,0,0-.55-.06,1.88,1.88,0,0,0-1.45.65v4h-.81Z"/><path class="cls-3" d="M41.41,390.35c1.72,0,2.38,1.13,2.38,2.77s-.66,2.78-2.38,2.78S39,394.77,39,393.12,39.71,390.35,41.41,390.35Zm0,4.83c1.21,0,1.55-.87,1.55-2.06s-.34-2.06-1.55-2.06-1.54.88-1.54,2.06S40.2,395.18,41.41,395.18Z"/><path class="cls-3" d="M48,393.16c0-1.87.71-2.81,2.3-2.81a6,6,0,0,1,1.19.14v-2.12h.81v7.41h-.63l-.08-.44a2.37,2.37,0,0,1-1.56.56C48.71,395.9,48,395.06,48,393.16Zm3.49,1.56v-3.54a5.16,5.16,0,0,0-1.12-.15c-1.17,0-1.55.71-1.55,2.12s.38,2.06,1.32,2.06A2.28,2.28,0,0,0,51.46,394.72Z"/><path class="cls-3" d="M56.11,390.35c1.39,0,2,1,2,2.38,0,.25,0,.47,0,.68H54.72c.05,1.07.45,1.77,1.56,1.77a3.57,3.57,0,0,0,1.53-.39l.28.65a4.25,4.25,0,0,1-1.86.46c-1.47,0-2.34-.89-2.34-2.72S54.69,390.35,56.11,390.35Zm1.23,2.42c0-.87-.29-1.71-1.24-1.71s-1.34.73-1.38,1.71Z"/></g><g class="cls-2"><path class="cls-3" d="M9.9,402.08c0-2.13.69-3.82,3.22-3.82a9.91,9.91,0,0,1,1.8.2l-.13.74a9.78,9.78,0,0,0-1.68-.2c-2,0-2.35,1.44-2.35,3.08s.33,3.07,2.25,3.07a5.47,5.47,0,0,0,1.93-.42l.28.68a5.48,5.48,0,0,1-2.24.49C10.6,405.9,9.9,404.22,9.9,402.08Z"/><path class="cls-3" d="M18.31,402.62a8.09,8.09,0,0,1,1.17.09v-.52c0-.87-.48-1.13-1.23-1.13a6.45,6.45,0,0,0-1.56.24l-.17-.66a6.7,6.7,0,0,1,1.79-.29c1.11,0,2,.44,2,1.76v3.67h-.64l-.08-.47a2.68,2.68,0,0,1-1.66.59,1.62,1.62,0,0,1-1.8-1.64C16.11,403.12,17,402.62,18.31,402.62ZM18,405.23a2.42,2.42,0,0,0,1.45-.52v-1.39c-.39,0-.86-.07-1.16-.07-.82,0-1.38.26-1.38,1A1,1,0,0,0,18,405.23Z"/><path class="cls-3" d="M22.21,398.37H23v7.41h-.8Z"/><path class="cls-3" d="M27.12,400.35a6.57,6.57,0,0,1,1.42.17l-.11.69a7.83,7.83,0,0,0-1.31-.15c-1.18,0-1.64.64-1.64,2.05,0,1.2.34,2.07,1.58,2.07a3.94,3.94,0,0,0,1.47-.32l.24.64a4.27,4.27,0,0,1-1.76.4c-1.63,0-2.36-1.06-2.36-2.82C24.65,401.48,25.25,400.35,27.12,400.35Z"/><path class="cls-3" d="M30.16,398.37H31v1h-.81Zm0,2.09H31v5.32h-.81Z"/><path class="cls-3" d="M35,400.35c1.71,0,2.38,1.13,2.38,2.77s-.67,2.78-2.38,2.78-2.37-1.13-2.37-2.78S33.26,400.35,35,400.35Zm0,4.83c1.21,0,1.55-.87,1.55-2.06s-.34-2.06-1.55-2.06-1.54.88-1.54,2.06S33.75,405.18,35,405.18Z"/></g><line class="cls-6" y1="381.17" x2="70.87" y2="381.17"/><line class="cls-8" y1="434.32" x2="70.87" y2="434.32"/><line class="cls-9" x1="70.37" y1="383.89" x2="70.37" y2="433.3"/><line class="cls-9" x1="0.5" y1="383.89" x2="0.5" y2="433.3"/><line class="cls-9" x1="198.93" y1="383.67" x2="198.93" y2="433.08"/><path class="cls-10" d="M198.93,434.08h0m0-52.43h0"/><line class="cls-9" x1="268.94" y1="383.67" x2="268.94" y2="433.08"/><path class="cls-10" d="M268.94,434.08h0m0-52.43h0"/><line class="cls-7" x1="123.37" y1="2.2" x2="123.37" y2="54.63"/><line class="cls-7" x1="222.57" y1="2.2" x2="222.57" y2="54.63"/><line class="cls-7" x1="45.02" y1="2.2" x2="45.02" y2="54.63"/><line class="cls-7" x1="144.22" y1="2.2" x2="144.22" y2="54.63"/></g></g></g></g></svg>