<svg xmlns="http://www.w3.org/2000/svg" viewBox="0 0 41 41"><defs><style>.cls-1{fill:#fff;}.cls-2{fill:none;stroke:#fff;stroke-miterlimit:10;}</style></defs><title>icon-carpet</title><g id="Capa_2" data-name="Capa 2"><g id="Capa_1-2" data-name="Capa 1"><path class="cls-1" d="M12.19,14.25a.35.35,0,0,0,.35-.35,1,1,0,0,1,1-1h3.15l2.47,2.71a.36.36,0,0,0,.26.11h8a1,1,0,0,1,1,1,.35.35,0,0,0,.35.35.35.35,0,0,0,.35-.35A1.69,1.69,0,0,0,27.43,15H19.56l-2.48-2.7a.34.34,0,0,0-.26-.12h-3.3a1.69,1.69,0,0,0-1.69,1.69.36.36,0,0,0,.36.35Z"/><path class="cls-1" d="M27.43,17.38H19.56l-2.48-2.71a.36.36,0,0,0-.26-.11h-3.3a1.69,1.69,0,0,0-1.69,1.68v7a.36.36,0,0,0,.71,0v-7a1,1,0,0,1,1-1h3.15L19.14,18a.34.34,0,0,0,.26.12h8a1,1,0,0,1,1,1v8a1,1,0,0,1-1,1H13.52a1,1,0,0,1-1-1,.36.36,0,0,0-.71,0,1.69,1.69,0,0,0,1.69,1.69H27.43a1.69,1.69,0,0,0,1.68-1.69v-8a1.68,1.68,0,0,0-1.68-1.68Z"/><circle class="cls-2" cx="20.5" cy="20.5" r="20"/></g></g></svg>