<svg xmlns="http://www.w3.org/2000/svg" viewBox="0 0 365.2 113"><defs><style>.cls-1{fill:#e21f23;}.cls-2,.cls-3{fill:none;stroke:#e21f23;stroke-width:1.52px;}.cls-2{stroke-miterlimit:10;}.cls-3{stroke-linecap:round;stroke-linejoin:round;}.cls-4{fill:#fff;}</style></defs><title>logotipo-QUIMPAC</title><g id="Capa_2" data-name="Capa 2"><g id="Capa_1-2" data-name="Capa 1"><circle class="cls-1" cx="6.83" cy="36.4" r="6.83"/><path class="cls-2" d="M33.37,36.4c-.76-.76-22.75,0-22.75,0L31.09,47"/><polyline class="cls-2" points="34.13 47.78 21.99 61.43 32.61 61.43"/><circle class="cls-1" cx="18.2" cy="60.67" r="6.83"/><circle class="cls-1" cx="99.35" cy="38.68" r="6.83"/><polyline class="cls-2" points="79.63 37.92 96.31 37.92 81.15 53.09"/><polyline class="cls-3" points="50.05 33.37 74.32 9.1 60.67 33.37"/><circle cx="75.84" cy="6.83" r="6.83"/><polyline class="cls-3" points="43.99 77.36 29.58 102.38 54.6 78.11"/><circle cx="27.68" cy="105.8" r="7.2"/><polyline class="cls-2" points="79.36 60.86 101.98 72.49 79.99 72.25"/><circle class="cls-1" cx="106.9" cy="73.68" r="6.83"/><rect class="cls-4" x="34.13" y="38.68" width="45.5" height="42.47"/><circle cx="67.88" cy="52.71" r="4.17"/><path d="M29.58,31.85v49.3H50.43V58.42a8.34,8.34,0,1,1,0-11.43V44.37h3.79V81.15H58V44.37h3.79V47a8.35,8.35,0,1,1,0,11.43V81.15H82.66V31.85Z"/><circle cx="44.37" cy="52.71" r="4.17"/><path class="cls-1" d="M153.68,64.18c.85.61,1.4,1,1.66,1.14a17.28,17.28,0,0,0,1.57.79L155,70a21.9,21.9,0,0,1-2.82-1.69c-.92-.65-1.57-1.14-1.94-1.47a13.81,13.81,0,0,1-5.63,1,11.12,11.12,0,0,1-7.88-2.68q-3.4-3.17-3.41-8.92c0-3.72,1-6.61,3-8.67s4.77-3.09,8.34-3.09,6.45,1,8.43,3,3,4.9,3,8.65A12.45,12.45,0,0,1,153.68,64.18Zm-5.19-3.57a9.68,9.68,0,0,0,.81-4.47q0-3.42-1.24-4.89a4.21,4.21,0,0,0-3.4-1.46,4.1,4.1,0,0,0-3.28,1.49A7.24,7.24,0,0,0,140.13,56q0,3.7,1.22,5.19a4.12,4.12,0,0,0,3.37,1.5,6,6,0,0,0,1.3-.14,8.33,8.33,0,0,0-2.69-1.6l1.06-2.51a5.66,5.66,0,0,1,1.4.41,19.82,19.82,0,0,1,2,1.3Z"/><path class="cls-1" d="M174,44.89h6.76V58.35a11.78,11.78,0,0,1-.6,3.78,8.24,8.24,0,0,1-1.9,3.11,7.7,7.7,0,0,1-2.71,1.87,13.41,13.41,0,0,1-4.75.75,27.8,27.8,0,0,1-3.49-.23,8.94,8.94,0,0,1-3.16-.91,8,8,0,0,1-2.33-2,7.26,7.26,0,0,1-1.44-2.6,13.84,13.84,0,0,1-.63-3.82V44.89h6.76V58.67a4,4,0,0,0,1,2.88,4.2,4.2,0,0,0,5.51,0,4,4,0,0,0,1-2.9Z"/><path class="cls-1" d="M185.51,44.89h6.79V67.48h-6.79Z"/><path class="cls-1" d="M197.09,44.89H206l3.44,13.74,3.41-13.74h8.91V67.48h-5.55V50.25l-4.28,17.23h-5l-4.27-17.23V67.48h-5.55Z"/><path class="cls-1" d="M226.05,44.89h11.26q3.69,0,5.52,1.8a6.87,6.87,0,0,1,1.83,5.13,7.09,7.09,0,0,1-2,5.35c-1.33,1.28-3.36,1.93-6.09,1.93h-3.71v8.38h-6.81Zm6.81,9.63h1.66a4.17,4.17,0,0,0,2.75-.7,2.29,2.29,0,0,0,.79-1.8,2.57,2.57,0,0,0-.68-1.8,3.53,3.53,0,0,0-2.59-.74h-1.93Z"/><path class="cls-1" d="M259.08,63.75h-7.69l-1.07,3.73H243.4l8.25-22.59H259l8.24,22.59h-7.1Zm-1.4-4.88-2.42-8.12-2.4,8.12Z"/><path class="cls-1" d="M283.48,58.23l5.94,1.85a11.4,11.4,0,0,1-1.89,4.3,8.19,8.19,0,0,1-3.19,2.6,11.57,11.57,0,0,1-4.86.88,13.63,13.63,0,0,1-5.84-1.07A9.39,9.39,0,0,1,269.73,63a13.05,13.05,0,0,1-1.65-6.9q0-5.61,2.9-8.61t8.19-3a10.87,10.87,0,0,1,6.51,1.73,10.18,10.18,0,0,1,3.53,5.3l-6,1.37a5.35,5.35,0,0,0-.66-1.51,3.9,3.9,0,0,0-1.39-1.23,3.84,3.84,0,0,0-1.84-.43,3.94,3.94,0,0,0-3.53,1.91,8.35,8.35,0,0,0-.92,4.44c0,2.51.37,4.22,1.1,5.15a3.75,3.75,0,0,0,3.11,1.39A3.71,3.71,0,0,0,282,61.5,7,7,0,0,0,283.48,58.23Z"/><path class="cls-1" d="M301.74,60l6.45-.41a5.11,5.11,0,0,0,.85,2.46,3.54,3.54,0,0,0,3,1.38,3.24,3.24,0,0,0,2.24-.71,2.12,2.12,0,0,0,.78-1.62,2.07,2.07,0,0,0-.74-1.57,8.42,8.42,0,0,0-3.47-1.31q-4.45-1-6.36-2.74a5.61,5.61,0,0,1-1.92-4.37,6,6,0,0,1,1-3.28,6.55,6.55,0,0,1,2.95-2.44,13.4,13.4,0,0,1,5.39-.89,10.79,10.79,0,0,1,6.41,1.61,7.05,7.05,0,0,1,2.63,5.13l-6.39.38a3.59,3.59,0,0,0-1.07-2.22,3.36,3.36,0,0,0-2.25-.69,2.63,2.63,0,0,0-1.78.52,1.59,1.59,0,0,0-.6,1.25,1.26,1.26,0,0,0,.5,1,5.35,5.35,0,0,0,2.27.84,27.61,27.61,0,0,1,6.36,2,6.71,6.71,0,0,1,2.8,2.5,6.47,6.47,0,0,1,.88,3.35,7.27,7.27,0,0,1-1.17,4,7.37,7.37,0,0,1-3.26,2.79,12.9,12.9,0,0,1-5.28.94q-5.6,0-7.75-2.22A8.81,8.81,0,0,1,301.74,60Z"/><path class="cls-1" d="M324.66,61.19h6.51v6.29h-6.51Z"/><path class="cls-1" d="M348.73,63.75H341L340,67.48h-6.92l8.24-22.59h7.39l8.24,22.59h-7.09Zm-1.4-4.88-2.42-8.12-2.4,8.12Z"/><path class="cls-1" d="M358.69,61.19h6.51v6.29h-6.51Z"/></g></g></svg>