<svg xmlns="http://www.w3.org/2000/svg" viewBox="0 0 80.25 83.34"><defs><style>.cls-1{fill:#fff;}</style></defs><title>zoom-icon</title><g id="Capa_2" data-name="Capa 2"><g id="Capa_1-2" data-name="Capa 1"><path class="cls-1" d="M44.06,31.47H34.62V22a1.58,1.58,0,1,0-3.15,0v9.44H22a1.58,1.58,0,1,0,0,3.15h9.44v9.44a1.58,1.58,0,0,0,3.15,0V34.62h9.44a1.58,1.58,0,0,0,0-3.15Z"/><path class="cls-1" d="M79.81,80.68,56.43,56.36a32.79,32.79,0,1,0-2.32,2.13L77.54,82.87a1.58,1.58,0,0,0,2.27-2.19ZM3.15,33.05a29.9,29.9,0,1,1,29.9,29.89A29.93,29.93,0,0,1,3.15,33.05Z"/></g></g></svg>