<svg xmlns="http://www.w3.org/2000/svg" viewBox="0 0 191.15 191.15"><defs><style>.cls-1{fill:#817257;}.cls-2{fill:none;stroke:#817257;stroke-linecap:round;stroke-linejoin:round;stroke-width:5px;}</style></defs><title>WORLD</title><g id="Capa_2" data-name="Capa 2"><g id="Capa_1-2" data-name="Capa 1"><path class="cls-1" d="M94.72,162.13a65.71,65.71,0,1,1,65.71-65.7A65.78,65.78,0,0,1,94.72,162.13Zm0-124.58A58.88,58.88,0,1,0,153.6,96.43,58.94,58.94,0,0,0,94.72,37.55Z"/><path class="cls-1" d="M53.3,92.74a9.86,9.86,0,0,1-1.63-.13c-3.41-.55-6.29-2.86-8.1-6.48,0,0-1.07-2-9.38-3.73A3.41,3.41,0,0,1,32,80.81a3.37,3.37,0,0,1-.35-2.7A65.62,65.62,0,0,1,60.26,40.48a3.42,3.42,0,0,1,5.2,2.71C65.77,48.63,67,56,71.11,60.11c3.37,3.37,5.06,6.87,5,10.41-.08,5.88-4.78,10.3-8.93,14.21-.81.76-1.61,1.52-2.38,2.28C61.06,90.75,57,92.74,53.3,92.74Zm-14-16.13c5.67,1.59,9,3.68,10.4,6.46.83,1.66,1.87,2.6,3.1,2.8,1.93.3,4.56-1,7.21-3.68.81-.81,1.66-1.62,2.52-2.43,3.32-3.12,6.74-6.35,6.79-9.34,0-1.62-1-3.47-3-5.49-3.56-3.56-5.91-8.76-7-15.51A58.81,58.81,0,0,0,39.27,76.61Z"/><path class="cls-1" d="M84.79,149.88a18.3,18.3,0,0,1-8.35-2.41,3.41,3.41,0,0,1-1.52-4c2.89-8.68,3.36-17.13,1.71-17.95a17.72,17.72,0,0,0-5.08-1.41c-4.29-.76-9.62-1.7-12.4-10-4-12.16,1.45-16.7,11.62-20.09a24.81,24.81,0,0,1,19.46,1.48A20.67,20.67,0,0,1,100.4,109c2.4,9.64-.15,16.14-2.86,23a78.07,78.07,0,0,0-3.45,10.18c-1.07,4.29-3.56,6.14-5.46,6.94A9.82,9.82,0,0,1,84.79,149.88Zm-6.63-5.35h0Zm4.16-1.92a6,6,0,0,0,3.67.24c.24-.11,1-.43,1.47-2.31a86.53,86.53,0,0,1,3.73-11c2.59-6.59,4.46-11.35,2.58-18.86a13.83,13.83,0,0,0-6.83-9.22,17.86,17.86,0,0,0-14-1c-8.51,2.84-9.6,4.55-7.3,11.45,1.49,4.47,3.25,4.78,7.1,5.46a24.17,24.17,0,0,1,7,2C86.76,122.93,84.27,135.73,82.32,142.61Z"/><path class="cls-1" d="M126.05,128.68a13.73,13.73,0,0,1-9.3-3.82c-2.92-2.92-6.87-16.19-7.27-20.68-1-1.47-5.36-5.07-8.27-7.5-7.92-6.6-10.69-9.17-10.69-12.08C90.52,78.34,99.73,78,116,78a9.54,9.54,0,0,0,8-4.44c-2.69-1.18-7-2.94-12.2-4.68a5.49,5.49,0,0,1-3.75-4c-.75-3.26.63-8.69,16.54-24.25a3.42,3.42,0,0,1,4.16-.48,66.19,66.19,0,0,1,27,31.88,3.42,3.42,0,0,1-.06,2.68c-6.75,14.8-10.6,18-12.91,19.21-2,1-2.3,3.38-2.7,9.5A72.84,72.84,0,0,1,138.25,117c-1.95,7.78-6.09,10.44-9.21,11.31A11,11,0,0,1,126.05,128.68ZM98.82,85.58c1.8,1.73,4.65,4.1,6.76,5.86,7.92,6.6,10.69,9.17,10.69,12.08,0,2.5,3.76,14.68,5.35,16.56a6.56,6.56,0,0,0,5.59,1.63c2.5-.7,3.78-3.86,4.41-6.4A66.82,66.82,0,0,0,133.26,103c.41-6.35.81-12.34,6.46-15.17.32-.16,3.2-1.89,9.13-14.59a59.43,59.43,0,0,0-21.43-25.8c-9.4,9.42-11.85,13.71-12.49,15.31a132.13,132.13,0,0,1,15.22,6.16,3.42,3.42,0,0,1,1.72,4.13c-.16.48-4.07,11.8-15.86,11.8C111.5,84.86,103.05,84.86,98.82,85.58Z"/><path class="cls-1" d="M95.57,191.15a95.57,95.57,0,0,1-69-161.68,3.41,3.41,0,0,1,4.93,4.72A88.75,88.75,0,1,0,95.57,6.83a3.42,3.42,0,0,1,0-6.83,95.58,95.58,0,1,1,0,191.15Z"/><polyline class="cls-2" points="7.59 31.05 34.27 27.24 30.84 53.46"/></g></g></svg>