<svg xmlns="http://www.w3.org/2000/svg" viewBox="0 0 739.11 343.29"><defs><style>.cls-1{fill:#4f4f4f;}.cls-2{fill:#877457;}.cls-10,.cls-11,.cls-12,.cls-13,.cls-14,.cls-15,.cls-16,.cls-17,.cls-3,.cls-4,.cls-5,.cls-6,.cls-7,.cls-8,.cls-9{fill:none;stroke:#877457;}.cls-15,.cls-16,.cls-17,.cls-3{stroke-miterlimit:10;}.cls-3{stroke-width:0.7px;}.cls-10,.cls-11,.cls-12,.cls-13,.cls-14,.cls-4,.cls-5,.cls-6,.cls-7,.cls-8,.cls-9{stroke-linecap:round;stroke-linejoin:round;}.cls-4,.cls-5,.cls-6{stroke-width:0.97px;}.cls-5{stroke-dasharray:0 2;}.cls-6{stroke-dasharray:0 1.96;}.cls-13,.cls-14,.cls-7,.cls-8,.cls-9{stroke-width:0.79px;}.cls-8{stroke-dasharray:0 1.61;}.cls-9{stroke-dasharray:0 1.6;}.cls-10,.cls-11,.cls-12{stroke-width:0.86px;}.cls-11{stroke-dasharray:0 1.68;}.cls-12{stroke-dasharray:0 1.73;}.cls-13{stroke-dasharray:0 1.57;}.cls-14{stroke-dasharray:0 1.58;}.cls-15{stroke-width:1.7px;}.cls-16{stroke-width:1.5px;}</style></defs><title>MAPA CORPORATIVO</title><g id="Capa_2" data-name="Capa 2"><g id="Capa_1-2" data-name="Capa 1"><path class="cls-1" d="M199,27.74a23.52,23.52,0,0,1,3-.24c2.23,0,4,.75,4,3.22S204.19,34,202,34a11,11,0,0,1-1.19-.06v3.35H199Zm3,4.68c1.32,0,2.06-.33,2.06-1.64s-.74-1.63-2-1.63c-.37,0-.81,0-1.16.06v3.15C201.17,32.4,201.68,32.42,202,32.42Z"/><path class="cls-1" d="M207.51,27.78a22.63,22.63,0,0,1,3.07-.27c2.17,0,3.74.72,3.74,3a2.69,2.69,0,0,1-1.78,2.79c.56,1.19,1.4,2.66,2.19,4l0,0h-2.22c-.68-1.22-1.36-2.57-1.91-3.71a10,10,0,0,1-1.18-.07v3.78h-1.89Zm3,4.35c1.21,0,1.88-.31,1.88-1.5s-.67-1.48-1.84-1.48c-.36,0-.83,0-1.16.06v2.86A9.48,9.48,0,0,0,210.52,32.13Z"/><path class="cls-1" d="M216.2,27.65h5.88V29.3h-4v2.25h3.4v1.62h-3.4v2.49h4v1.65H216.2Z"/><path class="cls-1" d="M223.38,35.54a16.63,16.63,0,0,0,2.52.27c1.35,0,1.93-.47,1.93-1.26s-.49-.93-2-1.49c-1.33-.49-2.61-1-2.61-2.74s1.26-2.82,3.68-2.82a13.36,13.36,0,0,1,2.47.28l-.24,1.64a14.63,14.63,0,0,0-2.32-.27c-.86,0-1.65.22-1.65,1s.87,1,2.1,1.48,2.5,1.1,2.5,2.87-1.29,2.94-3.88,2.94a19.12,19.12,0,0,1-2.74-.27Z"/><path class="cls-1" d="M231.24,27.65h1.89v9.66h-1.89Z"/><path class="cls-1" d="M235.38,27.77a18.65,18.65,0,0,1,2.92-.27c3.3,0,4.68,1.66,4.68,5s-1.39,5-4.77,5a23.28,23.28,0,0,1-2.83-.2Zm2.82,8c2.23,0,2.86-1,2.86-3.28s-.64-3.35-2.79-3.35a9.49,9.49,0,0,0-1,.06v6.53C237.61,35.78,237.93,35.79,238.2,35.79Z"/><path class="cls-1" d="M244.72,27.65h5.88V29.3h-4v2.25H250v1.62h-3.39v2.49h4v1.65h-5.88Z"/><path class="cls-1" d="M252.33,27.65h2.56l3.48,6.9h.06v-6.9h1.86v9.66h-2.56l-3.48-6.9h-.06v6.9h-1.86Z"/><path class="cls-1" d="M262.08,32.46c0-3.07,1.17-5,4.36-5a13.11,13.11,0,0,1,2.34.25l-.25,1.62a14,14,0,0,0-2.07-.22c-2,0-2.46,1.23-2.46,3.4,0,1.8.34,3.23,2.38,3.23a6.47,6.47,0,0,0,2.25-.47l.54,1.55a7,7,0,0,1-2.85.6C263.28,37.46,262.08,35.66,262.08,32.46Z"/><path class="cls-1" d="M270.55,27.65h1.89v9.66h-1.89Z"/><path class="cls-1" d="M276.76,27.65h2.49c1.05,2.88,2.12,6.42,3,9.66h-1.94l-.52-2.07h-3.51l-.53,2.07h-1.9C274.65,34.07,275.71,30.53,276.76,27.65Zm2.54,6c-.41-1.49-.86-3-1.28-4.25H278c-.42,1.29-.87,2.76-1.29,4.25Z"/><rect class="cls-2" x="180.49" width="118" height="3"/><polyline class="cls-3" points="298.49 0.5 298.49 61.5 180.49 61.5 180.49 0.5"/><path class="cls-1" d="M88,106.52H90.5c1.06,2.88,2.12,6.42,3,9.66H91.52L91,114.11H87.49L87,116.18H85.06C85.9,112.94,87,109.4,88,106.52Zm2.53,6c-.4-1.48-.85-2.95-1.28-4.24h0c-.43,1.29-.87,2.76-1.29,4.24Z"/><path class="cls-1" d="M94.33,106.52h1.89v6.12c0,1.41.51,2,1.89,2s1.91-.63,1.91-2v-6.12h1.86v6.39c0,2.42-1.44,3.42-3.78,3.42s-3.77-1-3.77-3.42Z"/><path class="cls-1" d="M103.9,106.64a19.94,19.94,0,0,1,2.93-.27c3.3,0,4.67,1.67,4.67,5s-1.39,5-4.76,5a25.33,25.33,0,0,1-2.84-.19Zm2.82,8c2.24,0,2.86-1,2.86-3.29s-.64-3.34-2.78-3.34a7.44,7.44,0,0,0-1,.06v6.52C106.14,114.65,106.45,114.67,106.72,114.67Z"/><path class="cls-1" d="M113.25,106.52h1.88v9.66h-1.88Z"/><path class="cls-1" d="M119.2,108.17h-2.7v-1.65h7.29v1.65h-2.7v8H119.2Z"/><path class="cls-1" d="M128.68,106.37c3.09,0,4.21,1.79,4.21,5s-1.12,5-4.21,5-4.22-1.78-4.22-5S125.59,106.37,128.68,106.37Zm0,8.31c1.86,0,2.29-1.17,2.29-3.33s-.43-3.33-2.29-3.33-2.3,1.17-2.3,3.33S126.82,114.68,128.68,114.68Z"/><path class="cls-1" d="M134.69,106.66a22.64,22.64,0,0,1,3.08-.27c2.16,0,3.73.72,3.73,3a2.68,2.68,0,0,1-1.78,2.79c.57,1.18,1.41,2.65,2.19,4l0,0h-2.22c-.67-1.21-1.36-2.56-1.9-3.7a8.15,8.15,0,0,1-1.19-.08v3.78h-1.89Zm3,4.35c1.2,0,1.87-.32,1.87-1.5s-.67-1.49-1.84-1.49c-.36,0-.83,0-1.16.06V111C136.94,111,137.45,111,137.71,111Z"/><path class="cls-1" d="M143.2,105l1.84-1.86,1,1.17-2.18,1.47Zm.18,1.5h1.89v9.66h-1.89Z"/><path class="cls-1" d="M149.59,106.52h2.49c1,2.88,2.11,6.42,2.95,9.66H153.1l-.53-2.07h-3.51l-.52,2.07h-1.91C147.47,112.94,148.54,109.4,149.59,106.52Zm2.53,6c-.4-1.48-.85-2.95-1.27-4.24h-.06c-.42,1.29-.87,2.76-1.29,4.24Z"/><rect class="cls-2" x="62.49" y="78.88" width="118" height="3"/><polyline class="cls-3" points="180.49 79.38 180.49 140.38 62.49 140.38 62.49 79.38"/><path class="cls-1" d="M208.05,182.86c0-3,1.18-4.92,4.59-4.92a12.46,12.46,0,0,1,2.56.29l-.24,1.6a15.48,15.48,0,0,0-2.32-.24c-2.25,0-2.67,1.31-2.67,3.26s.42,3.38,2.34,3.38a5.43,5.43,0,0,0,1.35-.17V182.7h1.89v4.48a7.81,7.81,0,0,1-3.27.72C209.22,187.9,208.05,185.88,208.05,182.86Z"/><path class="cls-1" d="M217.62,178.09h5.88v1.65h-4V182h3.39v1.62h-3.39v2.49h4v1.65h-5.88Z"/><path class="cls-1" d="M225.22,178.23a22.64,22.64,0,0,1,3.08-.27c2.16,0,3.73.72,3.73,3a2.69,2.69,0,0,1-1.78,2.79c.57,1.18,1.41,2.65,2.19,4l0,0H230.2c-.67-1.21-1.36-2.56-1.9-3.71a8.28,8.28,0,0,1-1.19-.07v3.78h-1.89Zm3,4.35c1.2,0,1.87-.32,1.87-1.5s-.67-1.49-1.84-1.49c-.36,0-.83,0-1.16.06v2.87C227.47,182.56,228,182.58,228.24,182.58Z"/><path class="cls-1" d="M233.91,178.09h5.88v1.65h-4V182h3.39v1.62H235.8v2.49h4v1.65h-5.88Z"/><path class="cls-1" d="M241.51,178.09h2.57l3.48,6.9h.06v-6.9h1.86v9.66h-2.57l-3.48-6.9h-.06v6.9h-1.86Z"/><path class="cls-1" d="M251.26,182.91c0-3.08,1.17-5,4.37-5a12.32,12.32,0,0,1,2.34.26l-.26,1.62a12.61,12.61,0,0,0-2.07-.23c-2,0-2.46,1.23-2.46,3.41,0,1.79.35,3.22,2.39,3.22a6.51,6.51,0,0,0,2.25-.47l.54,1.55a7,7,0,0,1-2.85.6C252.46,187.9,251.26,186.1,251.26,182.91Z"/><path class="cls-1" d="M259.74,178.09h1.89v9.66h-1.89Z"/><path class="cls-1" d="M266,178.09h2.49c1.05,2.88,2.11,6.42,2.95,9.66h-1.93l-.53-2.07h-3.51l-.52,2.07H263C263.83,184.51,264.9,181,266,178.09Zm2.53,6c-.4-1.48-.85-2.95-1.27-4.24h-.06c-.42,1.29-.87,2.76-1.29,4.24Z"/><path class="cls-1" d="M210.51,198.86c0-3,1.19-4.92,4.59-4.92a12.64,12.64,0,0,1,2.57.29l-.24,1.6a15.47,15.47,0,0,0-2.33-.24c-2.25,0-2.67,1.31-2.67,3.26s.42,3.38,2.34,3.38a5.31,5.31,0,0,0,1.35-.17V198.7H218v4.48a7.78,7.78,0,0,1-3.27.72C211.68,203.9,210.51,201.88,210.51,198.86Z"/><path class="cls-1" d="M220.08,194.09H226v1.65h-4V198h3.39v1.62H222v2.49h4v1.65h-5.88Z"/><path class="cls-1" d="M227.69,194.09h2.56l3.48,6.9h.06v-6.9h1.86v9.66h-2.56l-3.48-6.9h-.06v6.9h-1.86Z"/><path class="cls-1" d="M237.9,194.09h5.88v1.65h-4V198h3.39v1.62h-3.39v2.49h4v1.65H237.9Z"/><path class="cls-1" d="M245.51,194.23a22.48,22.48,0,0,1,3.07-.27c2.16,0,3.74.72,3.74,3a2.69,2.69,0,0,1-1.79,2.79c.57,1.18,1.41,2.65,2.19,4v0h-2.22c-.68-1.21-1.37-2.56-1.91-3.71a8.13,8.13,0,0,1-1.18-.07v3.78h-1.89Zm3,4.35c1.2,0,1.88-.32,1.88-1.5s-.68-1.49-1.85-1.49c-.36,0-.82,0-1.15.06v2.87C247.76,198.56,248.27,198.58,248.52,198.58Z"/><path class="cls-1" d="M256.26,194.09h2.49c1.05,2.88,2.12,6.42,3,9.66h-1.94l-.52-2.07h-3.51l-.53,2.07h-1.9C254.15,200.51,255.21,197,256.26,194.09Zm2.54,6c-.41-1.48-.86-2.95-1.28-4.24h-.06c-.42,1.29-.87,2.76-1.29,4.24Z"/><path class="cls-1" d="M263.07,194.09H265v8h3.93v1.65h-5.82Z"/><rect class="cls-2" x="180.49" y="157.75" width="118" height="3"/><polyline class="cls-3" points="298.49 158.25 298.49 219.25 180.49 219.25 180.49 158.25"/><path class="cls-1" d="M325.9,101.27a18.7,18.7,0,0,1,2.74-.25c3.08,0,4.37,1.55,4.37,4.65s-1.31,4.65-4.46,4.65a24.11,24.11,0,0,1-2.65-.18Zm2.64,7.5c2.08,0,2.67-.94,2.67-3.07s-.6-3.13-2.6-3.13a8.32,8.32,0,0,0-.94.06v6.09C328,108.75,328.29,108.77,328.54,108.77Z"/><path class="cls-1" d="M334.63,101.16h1.76v9h-1.76Z"/><path class="cls-1" d="M338.49,101.29a19.83,19.83,0,0,1,2.87-.26c2,0,3.49.68,3.49,2.81a2.5,2.5,0,0,1-1.67,2.6c.53,1.11,1.32,2.48,2.05,3.71l0,0h-2.07c-.63-1.13-1.27-2.39-1.78-3.46a8.77,8.77,0,0,1-1.11-.07v3.53h-1.76Zm2.82,4.06c1.12,0,1.75-.3,1.75-1.4s-.63-1.39-1.73-1.39c-.33,0-.77,0-1.08.06v2.67C340.59,105.33,341.07,105.35,341.31,105.35Z"/><path class="cls-1" d="M346.6,101.16h5.49v1.54h-3.73v2.1h3.17v1.51h-3.17v2.33h3.73v1.54H346.6Z"/><path class="cls-1" d="M353.26,105.66c0-2.88,1.09-4.64,4.08-4.64a11.55,11.55,0,0,1,2.18.24l-.24,1.51a12,12,0,0,0-1.93-.21c-1.86,0-2.3,1.15-2.3,3.18,0,1.68.32,3,2.23,3a6.1,6.1,0,0,0,2.1-.43l.5,1.44a6.6,6.6,0,0,1-2.66.56C354.38,110.32,353.26,108.64,353.26,105.66Z"/><path class="cls-1" d="M360.73,105.66c0-2.88,1.1-4.64,4.08-4.64a11.56,11.56,0,0,1,2.19.24l-.24,1.51a12.26,12.26,0,0,0-1.93-.21c-1.87,0-2.3,1.15-2.3,3.18,0,1.68.32,3,2.23,3a6.15,6.15,0,0,0,2.1-.43l.5,1.44a6.64,6.64,0,0,1-2.66.56C361.86,110.32,360.73,108.64,360.73,105.66Z"/><path class="cls-1" d="M368.65,101.16h1.76v9h-1.76Z"/><path class="cls-1" d="M376,101c2.89,0,3.94,1.67,3.94,4.65s-1,4.65-3.94,4.65-3.93-1.67-3.93-4.65S373.14,101,376,101Zm0,7.76c1.74,0,2.15-1.09,2.15-3.11s-.41-3.11-2.15-3.11-2.14,1.09-2.14,3.11S374.29,108.78,376,108.78Zm-1-9L376.7,98l.94,1.09-2,1.38Z"/><path class="cls-1" d="M381.64,101.16H384l3.25,6.44h.06v-6.44h1.74v9h-2.4l-3.25-6.44h-.06v6.44h-1.73Z"/><path class="cls-1" d="M326.81,116.16h5.49v1.54h-3.73v2.1h3.17v1.51h-3.17v2.33h3.73v1.54h-5.49Z"/><path class="cls-1" d="M333.25,123.63a11.93,11.93,0,0,0,1.56.15c.93,0,1.24-.41,1.24-1.46v-6.16h1.76v6.13c0,2.18-1,3-3,3a8.38,8.38,0,0,1-1.76-.2Z"/><path class="cls-1" d="M339.87,116.16h5.49v1.54h-3.73v2.1h3.17v1.51h-3.17v2.33h3.73v1.54h-5.49Z"/><path class="cls-1" d="M346.53,120.66c0-2.88,1.1-4.64,4.08-4.64a11.46,11.46,0,0,1,2.18.24l-.23,1.51a12.25,12.25,0,0,0-1.94-.21c-1.86,0-2.29,1.15-2.29,3.18,0,1.68.32,3,2.22,3a6.06,6.06,0,0,0,2.1-.43l.51,1.44a6.64,6.64,0,0,1-2.66.56C347.65,125.32,346.53,123.64,346.53,120.66Z"/><path class="cls-1" d="M354.23,116.16H356v5.72c0,1.31.47,1.9,1.76,1.9s1.78-.59,1.78-1.9v-5.72h1.74v6c0,2.25-1.35,3.19-3.53,3.19s-3.52-.94-3.52-3.19Z"/><path class="cls-1" d="M364.86,117.7h-2.52v-1.54h6.81v1.54h-2.53v7.48h-1.76Z"/><path class="cls-1" d="M370.42,116.16h1.76v9h-1.76Z"/><path class="cls-1" d="M373.41,116.16h1.86c.56,2.3,1.41,5.35,2,7.37h.05c.62-2,1.47-5.1,2-7.37h1.81a87.2,87.2,0,0,1-2.72,9h-2.32A87.2,87.2,0,0,1,373.41,116.16Z"/><path class="cls-1" d="M383.91,116.16h2.33c1,2.69,2,6,2.76,9h-1.81l-.49-1.93h-3.28l-.49,1.93h-1.78C381.94,122.15,382.93,118.85,383.91,116.16Zm2.37,5.57c-.38-1.38-.8-2.75-1.19-4H385c-.39,1.21-.81,2.58-1.2,4Z"/><rect class="cls-2" x="298.49" y="78.88" width="118" height="3"/><polyline class="cls-3" points="416.49 79.38 416.49 140.38 298.49 140.38 298.49 79.38"/><path class="cls-2" d="M12.1,297.65c0-2.64,1-4.26,4-4.26a11.44,11.44,0,0,1,2.22.24l-.21,1.4a12.7,12.7,0,0,0-2-.21c-1.95,0-2.32,1.13-2.32,2.82s.37,2.94,2,2.94a4.91,4.91,0,0,0,1.17-.16v-2.91H18.6v3.88a6.77,6.77,0,0,1-2.84.63C13.11,302,12.1,300.26,12.1,297.65Z"/><path class="cls-2" d="M20.17,300.38h1.48v1.51H20.17Z"/><path class="cls-2" d="M26.65,293.39c2.67,0,3.65,1.54,3.65,4.31s-1,4.32-3.65,4.32S23,300.47,23,297.7,24,293.39,26.65,293.39Zm0,7.2c1.61,0,2-1,2-2.89s-.37-2.88-2-2.88-2,1-2,2.88S25,300.59,26.65,300.59Z"/><path class="cls-2" d="M33.22,304.26H31.69v-8.38h1.09l.16.42a2.62,2.62,0,0,1,1.62-.55c1.46,0,2.29,1,2.29,3.1S35.94,302,34.28,302a4.83,4.83,0,0,1-1.06-.12Zm.85-3.54c1,0,1.22-.51,1.22-1.8s-.27-1.81-1-1.81a2.13,2.13,0,0,0-1,.26v3.23A3.23,3.23,0,0,0,34.07,300.72Z"/><path class="cls-2" d="M40.31,295.75c1.54,0,2.42.95,2.42,2.67a5.14,5.14,0,0,1-.1,1H39.27a1.17,1.17,0,0,0,1.3,1.22,5.38,5.38,0,0,0,1.65-.34l.43,1.25a5.58,5.58,0,0,1-2.13.44c-1.84,0-2.83-1-2.83-3.11S38.62,295.75,40.31,295.75Zm.89,2.5c0-.75-.31-1.14-.93-1.14s-.94.44-1,1.14Z"/><path class="cls-2" d="M44,295.88h1.09l.17.68a2.22,2.22,0,0,1,1.72-.81,4.15,4.15,0,0,1,.7.07l-.1,1.4a4.17,4.17,0,0,0-.65-.05,1.87,1.87,0,0,0-1.4.49v4.23H44Z"/><path class="cls-2" d="M50.67,298.21a6.82,6.82,0,0,1,.9.07v-.21c0-.68-.28-1-1.08-1a9.08,9.08,0,0,0-1.65.2l-.25-1.3a10.57,10.57,0,0,1,2-.26c1.6,0,2.48.69,2.48,2.13v4H52l-.16-.46a2.62,2.62,0,0,1-1.66.59,1.88,1.88,0,0,1-2.06-1.9C48.13,298.9,49,298.21,50.67,298.21Zm-.16,2.57a1.94,1.94,0,0,0,1.06-.35v-1.08c-.28,0-.64-.05-.85-.05-.65,0-1,.25-1,.76S50,300.78,50.51,300.78Z"/><path class="cls-2" d="M57.22,295.75a6.57,6.57,0,0,1,1.51.19l-.17,1.29a10.12,10.12,0,0,0-1.31-.12c-1.1,0-1.42.44-1.42,1.79,0,1.18.25,1.77,1.21,1.77a5.83,5.83,0,0,0,1.58-.3l.38,1.26a5.71,5.71,0,0,1-2,.39c-1.88,0-2.72-1.07-2.72-3.15S55.06,295.75,57.22,295.75Z"/><path class="cls-2" d="M60,293.52h1.53V295H60Zm0,2.36h1.53v6H60Z"/><path class="cls-2" d="M65.51,295.75c2,0,2.75,1.21,2.75,3.14S67.53,302,65.51,302s-2.74-1.21-2.74-3.13S63.5,295.75,65.51,295.75Zm0,4.92c1.06,0,1.19-.8,1.19-1.78s-.13-1.78-1.19-1.78-1.18.79-1.18,1.78S64.46,300.67,65.51,300.67Z"/><path class="cls-2" d="M69.48,295.88h1.09l.13.45a3.15,3.15,0,0,1,1.82-.58,1.86,1.86,0,0,1,2,2.08v4.06H73V298c0-.59-.24-.92-.87-.92a2.67,2.67,0,0,0-1.11.28v4.5H69.48Z"/><path class="cls-2" d="M78.28,295.75c1.55,0,2.42.95,2.42,2.67a6,6,0,0,1-.09,1H77.24a1.17,1.17,0,0,0,1.3,1.22,5.32,5.32,0,0,0,1.65-.34l.43,1.25a5.54,5.54,0,0,1-2.13.44c-1.84,0-2.82-1-2.82-3.11S76.59,295.75,78.28,295.75Zm.9,2.5c0-.75-.32-1.14-.94-1.14s-.94.44-1,1.14Z"/><path class="cls-2" d="M81.71,300.49a10.54,10.54,0,0,0,1.72.18c.65,0,1.06-.13,1.06-.48s-.5-.45-1.36-.74-1.64-.81-1.64-1.81c0-1.2.91-1.89,2.54-1.89a8.77,8.77,0,0,1,1.7.19l-.18,1.32a9.92,9.92,0,0,0-1.54-.15c-.65,0-1,.15-1,.44s.59.44,1.35.73c1.06.39,1.65.83,1.65,1.83,0,1.18-.82,1.91-2.66,1.91a9.24,9.24,0,0,1-1.87-.2Z"/><rect class="cls-2" x="0.49" y="277.25" width="98" height="3"/><rect class="cls-2" x="0.49" y="315.17" width="98" height="2"/><line class="cls-4" x1="0.49" y1="280.25" x2="0.49" y2="280.25"/><line class="cls-5" x1="0.49" y1="282.25" x2="0.49" y2="315.17"/><line class="cls-4" x1="0.49" y1="316.17" x2="0.49" y2="316.17"/><line class="cls-6" x1="2.45" y1="316.17" x2="97.51" y2="316.17"/><line class="cls-4" x1="98.49" y1="316.17" x2="98.49" y2="316.17"/><line class="cls-5" x1="98.49" y1="314.17" x2="98.49" y2="281.25"/><line class="cls-4" x1="98.49" y1="280.25" x2="98.49" y2="280.25"/><path class="cls-2" d="M157.86,326.33c0-2,.78-3.24,3-3.24a8.49,8.49,0,0,1,1.69.19l-.16,1.06a10.19,10.19,0,0,0-1.53-.16c-1.49,0-1.76.86-1.76,2.15s.27,2.23,1.54,2.23a3.52,3.52,0,0,0,.89-.12v-2.21h1.24v2.95a5.11,5.11,0,0,1-2.15.48C158.63,329.66,157.86,328.32,157.86,326.33Z"/><path class="cls-2" d="M164,328.41h1.13v1.15H164Z"/><path class="cls-2" d="M166.16,328.39a11,11,0,0,0,1.67.18c.89,0,1.27-.31,1.27-.83s-.33-.61-1.32-1-1.72-.68-1.72-1.81.83-1.86,2.42-1.86a8.5,8.5,0,0,1,1.63.19l-.16,1.08a9.88,9.88,0,0,0-1.53-.18c-.56,0-1.09.15-1.09.67s.57.68,1.39,1,1.65.72,1.65,1.89-.85,1.94-2.56,1.94a12.06,12.06,0,0,1-1.81-.18Z"/><path class="cls-2" d="M171.07,328.39a10.68,10.68,0,0,0,1.66.18c.89,0,1.27-.31,1.27-.83s-.32-.61-1.32-1S171,326.08,171,325s.83-1.86,2.42-1.86a8.41,8.41,0,0,1,1.63.19l-.16,1.08a9.74,9.74,0,0,0-1.53-.18c-.56,0-1.09.15-1.09.67s.58.68,1.39,1,1.65.72,1.65,1.89-.85,1.94-2.56,1.94a12.2,12.2,0,0,1-1.81-.18Z"/><path class="cls-2" d="M178.73,323.09c2,0,2.78,1.18,2.78,3.29s-.74,3.28-2.78,3.28-2.78-1.18-2.78-3.28S176.69,323.09,178.73,323.09Zm0,5.48c1.23,0,1.51-.77,1.51-2.19s-.28-2.2-1.51-2.2-1.51.77-1.51,2.2S177.5,328.57,178.73,328.57Z"/><path class="cls-2" d="M182.88,323.19h1.65l1.24,3.77h0l1.21-3.77h1.66c.13,1.36.27,4.26.32,6.37h-1.24c0-1.51-.09-3.1-.17-4.59h0l-1.17,3.59h-1.24L184,325h0c-.08,1.49-.14,3.08-.17,4.59h-1.2C182.6,327.45,182.74,324.55,182.88,323.19Z"/><path class="cls-2" d="M191.72,323.19h1.64c.69,1.9,1.4,4.23,1.95,6.37H194l-.34-1.37h-2.32l-.34,1.37h-1.26C190.33,327.42,191,325.09,191.72,323.19Zm1.67,3.94c-.27-1-.56-1.95-.84-2.8h0c-.28.85-.57,1.82-.85,2.8Z"/><rect class="cls-2" x="143.91" y="307.41" width="71.9" height="2.7"/><rect class="cls-2" x="143.91" y="341.49" width="71.9" height="1.8"/><line class="cls-7" x1="143.91" y1="310.11" x2="143.91" y2="310.11"/><line class="cls-8" x1="143.91" y1="311.72" x2="143.91" y2="341.58"/><line class="cls-7" x1="143.91" y1="342.39" x2="143.91" y2="342.39"/><line class="cls-9" x1="145.51" y1="342.39" x2="215.01" y2="342.39"/><line class="cls-7" x1="215.81" y1="342.39" x2="215.81" y2="342.39"/><line class="cls-8" x1="215.81" y1="340.78" x2="215.81" y2="310.92"/><line class="cls-7" x1="215.81" y1="310.11" x2="215.81" y2="310.11"/><path class="cls-2" d="M400.07,326.33c0-2,.78-3.24,3-3.24a8.51,8.51,0,0,1,1.7.19l-.16,1.06a10.19,10.19,0,0,0-1.54-.16c-1.48,0-1.76.86-1.76,2.15s.28,2.23,1.55,2.23a3.58,3.58,0,0,0,.89-.12v-2.21H405v2.95a5.11,5.11,0,0,1-2.15.48C400.84,329.66,400.07,328.32,400.07,326.33Z"/><path class="cls-2" d="M406.21,328.41h1.13v1.15h-1.13Z"/><path class="cls-2" d="M408.37,328.39a11,11,0,0,0,1.66.18c.89,0,1.28-.31,1.28-.83s-.33-.61-1.32-1-1.73-.68-1.73-1.81.84-1.86,2.43-1.86a8.59,8.59,0,0,1,1.63.19l-.16,1.08a10,10,0,0,0-1.53-.18c-.57,0-1.09.15-1.09.67s.57.68,1.38,1,1.66.72,1.66,1.89-.85,1.94-2.57,1.94a12.06,12.06,0,0,1-1.8-.18Z"/><path class="cls-2" d="M413.55,323.19h1.25v6.37h-1.25Z"/><path class="cls-2" d="M416,328.39a10.68,10.68,0,0,0,1.66.18c.89,0,1.27-.31,1.27-.83s-.32-.61-1.32-1-1.72-.68-1.72-1.81.83-1.86,2.42-1.86a8.5,8.5,0,0,1,1.63.19l-.16,1.08a9.88,9.88,0,0,0-1.53-.18c-.56,0-1.09.15-1.09.67s.58.68,1.39,1,1.65.72,1.65,1.89-.85,1.94-2.56,1.94a12.06,12.06,0,0,1-1.81-.18Z"/><path class="cls-2" d="M422.38,324.28H420.6v-1.09h4.81v1.09h-1.78v5.28h-1.25Z"/><path class="cls-2" d="M426.31,323.19h3.87v1.09h-2.63v1.48h2.24v1.07h-2.24v1.64h2.63v1.09h-3.87Z"/><path class="cls-2" d="M431.51,323.19h1.65l1.23,3.77h.05l1.22-3.77h1.65c.14,1.36.28,4.26.33,6.37h-1.25c0-1.51-.09-3.1-.17-4.59h0L435,328.56h-1.25L432.59,325h0c-.07,1.49-.13,3.08-.16,4.59h-1.21C431.23,327.45,431.37,324.55,431.51,323.19Z"/><path class="cls-2" d="M440.34,323.19H442c.69,1.9,1.39,4.23,1.94,6.37h-1.27l-.35-1.37H440l-.35,1.37H438.4C439,327.42,439.65,325.09,440.34,323.19Zm1.68,3.94c-.27-1-.57-1.95-.85-2.8h0c-.28.85-.58,1.82-.85,2.8Z"/><path class="cls-2" d="M444.56,328.39a10.68,10.68,0,0,0,1.66.18c.89,0,1.27-.31,1.27-.83s-.32-.61-1.32-1-1.72-.68-1.72-1.81.83-1.86,2.42-1.86a8.5,8.5,0,0,1,1.63.19l-.16,1.08a9.88,9.88,0,0,0-1.53-.18c-.56,0-1.09.15-1.09.67s.58.68,1.39,1,1.65.72,1.65,1.89-.85,1.94-2.56,1.94a12.06,12.06,0,0,1-1.81-.18Z"/><rect class="cls-2" x="390.32" y="307.41" width="71.9" height="2.7"/><rect class="cls-2" x="390.32" y="341.49" width="71.9" height="1.8"/><line class="cls-7" x1="390.32" y1="310.11" x2="390.32" y2="310.11"/><line class="cls-8" x1="390.32" y1="311.72" x2="390.32" y2="341.58"/><line class="cls-7" x1="390.32" y1="342.39" x2="390.32" y2="342.39"/><line class="cls-9" x1="391.92" y1="342.39" x2="461.42" y2="342.39"/><line class="cls-7" x1="462.22" y1="342.39" x2="462.22" y2="342.39"/><line class="cls-8" x1="462.22" y1="340.78" x2="462.22" y2="310.92"/><line class="cls-7" x1="462.22" y1="310.11" x2="462.22" y2="310.11"/><path class="cls-2" d="M585,319.45c0-1.91.75-3.08,2.88-3.08a7.63,7.63,0,0,1,1.61.18l-.15,1a10.48,10.48,0,0,0-1.46-.15c-1.41,0-1.67.82-1.67,2s.26,2.13,1.46,2.13a3.17,3.17,0,0,0,.85-.12v-2.1h1.18v2.81a4.93,4.93,0,0,1-2,.45C585.73,322.61,585,321.34,585,319.45Z"/><path class="cls-2" d="M590.83,321.42h1.07v1.09h-1.07Z"/><path class="cls-2" d="M595.51,316.55a13.45,13.45,0,0,1,1.93-.17c1.35,0,2.34.45,2.34,1.88a1.67,1.67,0,0,1-1.12,1.74c.36.75.89,1.67,1.37,2.5h-1.4c-.42-.76-.85-1.6-1.19-2.32-.28,0-.54,0-.74,0v2.36h-1.19Zm1.89,2.72c.75,0,1.18-.2,1.18-.94s-.43-.93-1.16-.93c-.22,0-.52,0-.72,0v1.79A6.16,6.16,0,0,0,597.4,319.27Z"/><path class="cls-2" d="M601,316.55a13.3,13.3,0,0,1,1.92-.17c1.36,0,2.34.45,2.34,1.88A1.67,1.67,0,0,1,604.1,320c.36.75.89,1.67,1.38,2.5h-1.4c-.43-.76-.86-1.6-1.2-2.32-.28,0-.53,0-.74,0v2.36H601Zm1.89,2.72c.75,0,1.17-.2,1.17-.94s-.42-.93-1.16-.93c-.22,0-.51,0-.72,0v1.79A6.45,6.45,0,0,0,602.85,319.27Z"/><path class="cls-2" d="M606.4,316.46h1.18v2.44h2.36v-2.44h1.19v6.05h-1.19v-2.58h-2.36v2.58H606.4Z"/><path class="cls-2" d="M612.54,316.46h1.18v2.44h2.36v-2.44h1.18v6.05h-1.18v-2.58h-2.36v2.58h-1.18Z"/><path class="cls-2" d="M622.65,320.25a34.44,34.44,0,0,1-2.09-3.79h1.29c.42.93.9,1.83,1.39,2.68h0a28.19,28.19,0,0,0,1.39-2.68h1.24a32.75,32.75,0,0,1-2.07,3.79v2.26h-1.19Z"/><path class="cls-2" d="M569.12,330.71c0-1.92.73-3.11,2.73-3.11a8.38,8.38,0,0,1,1.47.16l-.16,1a7.84,7.84,0,0,0-1.3-.14c-1.25,0-1.54.77-1.54,2.13,0,1.13.22,2,1.5,2a4.08,4.08,0,0,0,1.41-.29l.33,1a4.43,4.43,0,0,1-1.78.37C569.87,333.84,569.12,332.71,569.12,330.71Z"/><path class="cls-2" d="M576.79,327.6c1.93,0,2.64,1.12,2.64,3.12s-.71,3.12-2.64,3.12-2.64-1.12-2.64-3.12S574.85,327.6,576.79,327.6Zm0,5.21c1.16,0,1.44-.73,1.44-2.09s-.28-2.08-1.44-2.08-1.44.73-1.44,2.08S575.62,332.81,576.79,332.81Z"/><path class="cls-2" d="M580.74,327.7h1.57l1.17,3.58h0l1.15-3.58h1.57c.14,1.28.27,4.05.31,6.05h-1.18c0-1.44-.08-2.94-.16-4.36h0l-1.11,3.41h-1.18l-1.12-3.41h0c-.07,1.42-.13,2.92-.16,4.36h-1.14C580.47,331.75,580.6,329,580.74,327.7Z"/><path class="cls-2" d="M587.7,327.7h1.19v3.83c0,.88.32,1.28,1.18,1.28s1.19-.4,1.19-1.28V327.7h1.17v4c0,1.51-.9,2.14-2.37,2.14s-2.36-.63-2.36-2.14Z"/><path class="cls-2" d="M593.7,327.7h1.61l2.18,4.32h0V327.7h1.17v6.05h-1.61l-2.18-4.32h0v4.32H593.7Z"/><path class="cls-2" d="M600.1,327.7h1.18v6.05H600.1Z"/><path class="cls-2" d="M602.4,330.71c0-1.92.74-3.11,2.74-3.11a8.26,8.26,0,0,1,1.46.16l-.16,1a7.72,7.72,0,0,0-1.29-.14c-1.25,0-1.54.77-1.54,2.13,0,1.13.21,2,1.49,2a4,4,0,0,0,1.41-.29l.34,1a4.48,4.48,0,0,1-1.79.37C603.16,333.84,602.4,332.71,602.4,330.71Z"/><path class="cls-2" d="M609,327.7h1.56c.66,1.8,1.33,4,1.85,6.05h-1.21l-.33-1.3h-2.2l-.33,1.3h-1.19C607.69,331.72,608.35,329.5,609,327.7Zm1.59,3.74c-.25-.93-.54-1.86-.8-2.66h0c-.26.8-.54,1.73-.81,2.66Z"/><path class="cls-2" d="M612.84,330.71c0-1.92.73-3.11,2.73-3.11a8.38,8.38,0,0,1,1.47.16l-.16,1a7.84,7.84,0,0,0-1.3-.14c-1.25,0-1.54.77-1.54,2.13,0,1.13.22,2,1.49,2a4,4,0,0,0,1.41-.29l.34,1a4.47,4.47,0,0,1-1.78.37C613.59,333.84,612.84,332.71,612.84,330.71Z"/><path class="cls-2" d="M618.15,327.7h1.18v6.05h-1.18Z"/><path class="cls-2" d="M623.1,327.6c1.94,0,2.64,1.12,2.64,3.12s-.7,3.12-2.64,3.12-2.64-1.12-2.64-3.12S621.17,327.6,623.1,327.6Zm0,5.21c1.17,0,1.44-.73,1.44-2.09s-.27-2.08-1.44-2.08-1.44.73-1.44,2.08S621.94,332.81,623.1,332.81Z"/><path class="cls-2" d="M626.87,327.7h1.61l2.18,4.32h0V327.7h1.16v6.05h-1.61l-2.18-4.32h0v4.32h-1.17Z"/><path class="cls-2" d="M633.27,327.7H637v1h-2.5v1.41h2.12v1h-2.12v1.56H637v1h-3.69Z"/><path class="cls-2" d="M637.77,332.64a11.24,11.24,0,0,0,1.58.17c.85,0,1.22-.29,1.22-.79s-.31-.58-1.26-.93-1.64-.65-1.64-1.72.79-1.77,2.31-1.77a8.58,8.58,0,0,1,1.55.18l-.15,1a10.52,10.52,0,0,0-1.46-.16c-.54,0-1,.14-1,.64s.55.64,1.32.93,1.57.68,1.57,1.79-.81,1.84-2.43,1.84a10.9,10.9,0,0,1-1.72-.17Z"/><rect class="cls-2" x="564.68" y="305.17" width="81.34" height="2.7"/><rect class="cls-2" x="564.31" y="340.59" width="82.08" height="1.8"/><line class="cls-10" x1="564.68" y1="307.86" x2="564.68" y2="307.86"/><line class="cls-11" x1="564.68" y1="309.55" x2="564.68" y2="340.65"/><line class="cls-10" x1="564.68" y1="341.49" x2="564.68" y2="341.49"/><line class="cls-12" x1="566.41" y1="341.49" x2="645.15" y2="341.49"/><line class="cls-10" x1="646.02" y1="341.49" x2="646.02" y2="341.49"/><line class="cls-11" x1="646.02" y1="339.81" x2="646.02" y2="308.7"/><line class="cls-10" x1="646.02" y1="307.86" x2="646.02" y2="307.86"/><path class="cls-2" d="M677.49,319.45c0-1.91.74-3.08,2.87-3.08a7.63,7.63,0,0,1,1.61.18l-.15,1a10.32,10.32,0,0,0-1.46-.15c-1.41,0-1.67.82-1.67,2s.26,2.13,1.47,2.13a3.15,3.15,0,0,0,.84-.12v-2.1h1.19v2.81a5,5,0,0,1-2.05.45C678.22,322.61,677.49,321.34,677.49,319.45Z"/><path class="cls-2" d="M683.32,321.42h1.08v1.09h-1.08Z"/><path class="cls-2" d="M688,316.54a11.22,11.22,0,0,1,1.83-.17c2.07,0,2.93,1,2.93,3.12s-.87,3.12-3,3.12a16.18,16.18,0,0,1-1.77-.12Zm1.76,5c1.4,0,1.8-.63,1.8-2.06s-.41-2.1-1.75-2.1a5,5,0,0,0-.63,0v4.09Z"/><path class="cls-2" d="M693.86,316.46h3.69v1h-2.5v1.41h2.12v1h-2.12v1.56h2.5v1h-3.69Z"/><path class="cls-2" d="M702.28,316.46h1.56c.66,1.81,1.33,4,1.86,6.05h-1.22l-.33-1.29H702l-.32,1.29h-1.2C701,320.48,701.63,318.27,702.28,316.46Zm1.59,3.74c-.25-.93-.53-1.85-.8-2.66h0c-.27.81-.55,1.73-.81,2.66Z"/><path class="cls-2" d="M706.55,316.54a11.32,11.32,0,0,1,1.83-.17c2.07,0,2.94,1,2.94,3.12s-.88,3.12-3,3.12a16.18,16.18,0,0,1-1.78-.12Zm1.77,5c1.4,0,1.79-.63,1.79-2.06s-.4-2.1-1.75-2.1a4.8,4.8,0,0,0-.62,0v4.09Z"/><path class="cls-2" d="M712.59,316.46h1.57l1.17,3.58h0l1.15-3.58h1.57c.13,1.29.27,4.05.31,6.05h-1.18c0-1.43-.08-2.94-.16-4.36h0l-1.11,3.42h-1.18l-1.12-3.42h0c-.07,1.42-.13,2.93-.16,4.36h-1.14C712.32,320.51,712.45,317.75,712.59,316.46Z"/><path class="cls-2" d="M675.87,331.48a33.57,33.57,0,0,1-2.09-3.78h1.29a29.44,29.44,0,0,0,1.39,2.68h0a29.44,29.44,0,0,0,1.39-2.68h1.24a32,32,0,0,1-2.08,3.78v2.27h-1.18Z"/><path class="cls-2" d="M682.43,327.7h3.72v1h-2.53v1.51h2.13v1h-2.13v2.49h-1.19Z"/><path class="cls-2" d="M687.2,327.7h1.18v6.05H687.2Z"/><path class="cls-2" d="M689.79,327.7h1.61l2.18,4.32h0V327.7h1.16v6.05h-1.6L691,329.43h0v4.32h-1.17Z"/><path class="cls-2" d="M697.49,327.7h1.56c.66,1.8,1.33,4,1.85,6.05h-1.21l-.33-1.3h-2.2l-.33,1.3h-1.19C696.16,331.72,696.83,329.5,697.49,327.7Zm1.59,3.74c-.26-.93-.54-1.86-.8-2.66h0c-.26.8-.54,1.73-.81,2.66Z"/><path class="cls-2" d="M701.76,327.7h1.6l2.19,4.32h0V327.7h1.17v6.05h-1.61L703,329.43h0v4.32h-1.16Z"/><path class="cls-2" d="M707.75,332.88l2.68-4.15h-2.59v-1h4.1v.86l-2.68,4.15H712v1h-4.24Z"/><path class="cls-2" d="M714.26,327.7h1.56c.66,1.8,1.33,4,1.85,6.05h-1.21l-.33-1.3h-2.2l-.33,1.3h-1.19C712.93,331.72,713.6,329.5,714.26,327.7Zm1.59,3.74c-.26-.93-.54-1.86-.8-2.66h0c-.26.8-.54,1.73-.81,2.66Z"/><path class="cls-2" d="M718.26,332.64a11.24,11.24,0,0,0,1.58.17c.85,0,1.22-.29,1.22-.79s-.32-.58-1.26-.93-1.64-.65-1.64-1.72.79-1.77,2.3-1.77a8.38,8.38,0,0,1,1.55.18l-.15,1a10.2,10.2,0,0,0-1.45-.16c-.54,0-1,.14-1,.64s.55.64,1.32.93,1.57.68,1.57,1.79-.81,1.84-2.44,1.84a11.13,11.13,0,0,1-1.72-.17Z"/><rect class="cls-2" x="657.35" y="305.17" width="81.34" height="2.7"/><rect class="cls-2" x="656.97" y="340.59" width="82.08" height="1.8"/><line class="cls-10" x1="657.35" y1="307.86" x2="657.35" y2="307.86"/><line class="cls-11" x1="657.35" y1="309.55" x2="657.35" y2="340.65"/><line class="cls-10" x1="657.35" y1="341.49" x2="657.35" y2="341.49"/><line class="cls-12" x1="659.08" y1="341.49" x2="737.82" y2="341.49"/><line class="cls-10" x1="738.68" y1="341.49" x2="738.68" y2="341.49"/><line class="cls-11" x1="738.68" y1="339.81" x2="738.68" y2="308.7"/><line class="cls-10" x1="738.68" y1="307.86" x2="738.68" y2="307.86"/><path class="cls-2" d="M480.81,325.44c0-2,.78-3.25,3-3.25a8.33,8.33,0,0,1,1.69.19l-.16,1.06a9.93,9.93,0,0,0-1.53-.16c-1.48,0-1.76.86-1.76,2.15s.28,2.23,1.54,2.23a3.46,3.46,0,0,0,.89-.12v-2.21h1.25v2.95a5.12,5.12,0,0,1-2.16.48C481.58,328.76,480.81,327.42,480.81,325.44Z"/><path class="cls-2" d="M487,327.51h1.12v1.15H487Z"/><path class="cls-2" d="M489.39,322.37a12.49,12.49,0,0,1,1.93-.18c2.17,0,3.08,1.1,3.08,3.29s-.92,3.28-3.14,3.28a15.74,15.74,0,0,1-1.87-.13Zm1.86,5.29c1.47,0,1.88-.66,1.88-2.16s-.42-2.21-1.83-2.21a5.56,5.56,0,0,0-.67,0v4.3Z"/><path class="cls-2" d="M495.55,322.29h3.87v1.09h-2.63v1.48H499v1.07h-2.24v1.64h2.63v1.09h-3.87Z"/><path class="cls-2" d="M503,322.29h1.25v5.28h2.59v1.09H503Z"/><path class="cls-2" d="M510.12,322.19c2,0,2.78,1.18,2.78,3.29s-.74,3.28-2.78,3.28-2.78-1.18-2.78-3.28S508.08,322.19,510.12,322.19Zm0,5.48c1.22,0,1.51-.77,1.51-2.19s-.29-2.2-1.51-2.2-1.51.77-1.51,2.2S508.89,327.67,510.12,327.67Z"/><path class="cls-2" d="M513.81,325.44c0-2,.78-3.25,3-3.25a8.41,8.41,0,0,1,1.69.19l-.16,1.06a9.93,9.93,0,0,0-1.53-.16c-1.48,0-1.76.86-1.76,2.15s.28,2.23,1.54,2.23a3.46,3.46,0,0,0,.89-.12v-2.21h1.25v2.95a5.12,5.12,0,0,1-2.16.48C514.58,328.76,513.81,327.42,513.81,325.44Z"/><path class="cls-2" d="M520,321.3l1.22-1.22.66.77-1.43,1Zm.12,1h1.25v6.37h-1.25Z"/><path class="cls-2" d="M522.56,327.49a11,11,0,0,0,1.67.18c.89,0,1.27-.3,1.27-.83s-.32-.61-1.32-1-1.72-.68-1.72-1.81.83-1.86,2.42-1.86a8.5,8.5,0,0,1,1.63.19l-.16,1.08a9.88,9.88,0,0,0-1.53-.18c-.56,0-1.09.15-1.09.67s.58.69,1.39,1,1.65.72,1.65,1.89-.85,1.94-2.56,1.94a12.06,12.06,0,0,1-1.81-.18Z"/><path class="cls-2" d="M528.94,323.38h-1.78v-1.09H532v1.09h-1.78v5.28h-1.25Z"/><path class="cls-2" d="M532.86,322.29h1.25v6.37h-1.25Z"/><path class="cls-2" d="M535.29,325.47c0-2,.77-3.28,2.87-3.28a8.36,8.36,0,0,1,1.55.17l-.17,1.07a8.7,8.7,0,0,0-1.37-.15c-1.31,0-1.62.81-1.62,2.25,0,1.18.23,2.12,1.57,2.12a4.27,4.27,0,0,0,1.49-.31l.35,1a4.55,4.55,0,0,1-1.87.4C536.08,328.76,535.29,327.57,535.29,325.47Z"/><path class="cls-2" d="M542.24,322.29h1.64c.69,1.9,1.39,4.23,2,6.37h-1.28l-.35-1.36h-2.31l-.34,1.36h-1.26C540.84,326.52,541.55,324.19,542.24,322.29Zm1.67,3.94c-.27-1-.56-2-.84-2.8h0c-.28.85-.58,1.82-.85,2.8Z"/><rect class="cls-2" x="471.95" y="306.52" width="82.12" height="2.7"/><rect class="cls-2" x="471.95" y="340.59" width="81.49" height="1.8"/><line class="cls-7" x1="471.95" y1="309.21" x2="471.95" y2="309.21"/><line class="cls-8" x1="471.95" y1="310.83" x2="471.95" y2="340.68"/><line class="cls-7" x1="471.95" y1="341.49" x2="471.95" y2="341.49"/><line class="cls-13" x1="473.52" y1="341.49" x2="552.66" y2="341.49"/><line class="cls-7" x1="553.44" y1="341.49" x2="553.44" y2="341.49"/><line class="cls-8" x1="553.44" y1="339.88" x2="553.44" y2="310.02"/><line class="cls-7" x1="553.44" y1="309.21" x2="553.44" y2="309.21"/><path class="cls-2" d="M241,326.33c0-2,.78-3.24,3-3.24a8.41,8.41,0,0,1,1.69.19l-.16,1.06a10.06,10.06,0,0,0-1.53-.16c-1.48,0-1.76.86-1.76,2.15s.28,2.23,1.54,2.23a3.52,3.52,0,0,0,.89-.12v-2.21h1.25v2.95a5.19,5.19,0,0,1-2.16.48C241.76,329.66,241,328.32,241,326.33Z"/><path class="cls-2" d="M247.13,328.41h1.13v1.15h-1.13Z"/><path class="cls-2" d="M249.57,323.19h1.25v5.28h2.59v1.09h-3.84Z"/><path class="cls-2" d="M254.33,323.19h3.88v1.09h-2.64v1.48h2.24v1.07h-2.24v1.64h2.64v1.09h-3.88Z"/><path class="cls-2" d="M259.06,326.33c0-2,.79-3.24,3-3.24a8.41,8.41,0,0,1,1.69.19l-.16,1.06a9.93,9.93,0,0,0-1.53-.16c-1.48,0-1.76.86-1.76,2.15s.28,2.23,1.54,2.23a3.46,3.46,0,0,0,.89-.12v-2.21H264v2.95a5.15,5.15,0,0,1-2.16.48C259.84,329.66,259.06,328.32,259.06,326.33Z"/><path class="cls-2" d="M266.74,323.19h1.64c.69,1.9,1.39,4.23,1.95,6.37h-1.28l-.35-1.37h-2.31l-.35,1.37h-1.25C265.34,327.42,266,325.09,266.74,323.19Zm1.67,3.94c-.27-1-.57-1.95-.84-2.8h0c-.28.85-.58,1.82-.85,2.8Z"/><path class="cls-2" d="M271.22,323.19h1.25v5.28h2.59v1.09h-3.84Z"/><rect class="cls-2" x="227.05" y="307.41" width="60.11" height="2.7"/><rect class="cls-2" x="227.05" y="341.49" width="60.11" height="1.8"/><line class="cls-7" x1="227.05" y1="310.11" x2="227.05" y2="310.11"/><line class="cls-8" x1="227.05" y1="311.72" x2="227.05" y2="341.58"/><line class="cls-7" x1="227.05" y1="342.39" x2="227.05" y2="342.39"/><line class="cls-14" x1="228.63" y1="342.39" x2="286.36" y2="342.39"/><line class="cls-7" x1="287.15" y1="342.39" x2="287.15" y2="342.39"/><line class="cls-8" x1="287.15" y1="340.78" x2="287.15" y2="310.92"/><line class="cls-7" x1="287.15" y1="310.11" x2="287.15" y2="310.11"/><path class="cls-2" d="M323.21,321.38c0-1.92.74-3.09,2.88-3.09a8.36,8.36,0,0,1,1.61.17l-.15,1a10.32,10.32,0,0,0-1.46-.15c-1.41,0-1.68.82-1.68,2.05s.27,2.13,1.47,2.13a3.61,3.61,0,0,0,.85-.11v-2.11h1.19v2.81a4.86,4.86,0,0,1-2.05.46C323.94,324.55,323.21,323.27,323.21,321.38Z"/><path class="cls-2" d="M329.07,323.36h1.07v1.09h-1.07Z"/><path class="cls-2" d="M331.1,321.41c0-1.94.74-3.12,2.75-3.12a7.52,7.52,0,0,1,1.47.16l-.16,1a9.23,9.23,0,0,0-1.3-.14c-1.26,0-1.55.78-1.55,2.14,0,1.14.22,2,1.5,2a4.14,4.14,0,0,0,1.42-.29l.33,1a4.32,4.32,0,0,1-1.79.38C331.86,324.55,331.1,323.42,331.1,321.41Z"/><path class="cls-2" d="M336.44,318.38h3.69v1h-2.51v1.41h2.13v1h-2.13v1.57h2.51v1h-3.69Z"/><path class="cls-2" d="M341.22,318.38h1.61l2.19,4.34h0v-4.34h1.17v6.07h-1.62l-2.18-4.33h0v4.33h-1.17Z"/><path class="cls-2" d="M348.79,319.42h-1.7v-1h4.58v1H350v5h-1.19Z"/><path class="cls-2" d="M352.53,318.46a15.4,15.4,0,0,1,1.94-.17c1.36,0,2.35.46,2.35,1.89a1.7,1.7,0,0,1-1.13,1.76c.36.74.89,1.66,1.38,2.49v0h-1.39c-.43-.76-.86-1.61-1.2-2.33a5.47,5.47,0,0,1-.75,0v2.37h-1.19Zm1.9,2.74c.75,0,1.18-.2,1.18-.94s-.43-.94-1.16-.94c-.23,0-.52,0-.73,0v1.8A6.45,6.45,0,0,0,354.43,321.2Z"/><path class="cls-2" d="M359.3,318.38h1.56c.66,1.81,1.33,4,1.86,6.07h-1.21l-.33-1.3H359l-.33,1.3h-1.2C358,322.42,358.64,320.19,359.3,318.38Zm1.59,3.75c-.25-.93-.53-1.85-.8-2.67h0c-.26.82-.54,1.74-.81,2.67Z"/><path class="cls-2" d="M363.58,318.38h1.19v5h2.47v1h-3.66Z"/><path class="cls-2" d="M323.18,332.19c0-1.93.73-3.12,2.74-3.12a8.38,8.38,0,0,1,1.47.16l-.16,1a7.84,7.84,0,0,0-1.3-.14c-1.25,0-1.55.77-1.55,2.14,0,1.13.22,2,1.5,2a4.1,4.1,0,0,0,1.42-.3l.34,1a4.52,4.52,0,0,1-1.79.37C323.93,335.33,323.18,334.2,323.18,332.19Z"/><path class="cls-2" d="M330.88,329.07c1.94,0,2.65,1.12,2.65,3.13s-.71,3.13-2.65,3.13-2.65-1.12-2.65-3.13S328.93,329.07,330.88,329.07Zm0,5.22c1.17,0,1.44-.73,1.44-2.09s-.27-2.09-1.44-2.09-1.45.73-1.45,2.09S329.71,334.29,330.88,334.29Z"/><path class="cls-2" d="M334.84,329.17h1.58l1.17,3.59h.05l1.16-3.59h1.58c.13,1.29.26,4.06.31,6.07H339.5c0-1.44-.09-2.95-.16-4.38h0l-1.11,3.43H337l-1.12-3.43h0c-.07,1.43-.13,2.94-.16,4.38h-1.15C334.58,333.23,334.71,330.46,334.84,329.17Z"/><path class="cls-2" d="M342,329.17h3.69v1h-2.51v1.42h2.13v1h-2.13v1.56h2.51v1H342Z"/><path class="cls-2" d="M346.76,329.25a13.45,13.45,0,0,1,1.93-.17c1.36,0,2.35.45,2.35,1.89a1.68,1.68,0,0,1-1.12,1.75c.36.75.88,1.67,1.38,2.5v0h-1.4c-.42-.77-.86-1.61-1.2-2.33a5.27,5.27,0,0,1-.74-.05v2.38h-1.19Zm1.89,2.74c.76,0,1.18-.2,1.18-.95s-.42-.93-1.16-.93c-.22,0-.51,0-.72,0V332A6.16,6.16,0,0,0,348.65,332Z"/><path class="cls-2" d="M351.83,332.19c0-1.93.73-3.12,2.74-3.12a8.38,8.38,0,0,1,1.47.16l-.16,1a7.84,7.84,0,0,0-1.3-.14c-1.25,0-1.55.77-1.55,2.14,0,1.13.22,2,1.5,2A4.1,4.1,0,0,0,356,334l.34,1a4.52,4.52,0,0,1-1.79.37C352.58,335.33,351.83,334.2,351.83,332.19Z"/><path class="cls-2" d="M357.16,329.17h1.19v6.07h-1.19Z"/><path class="cls-2" d="M361.06,329.17h1.57c.66,1.81,1.33,4,1.86,6.07h-1.22l-.33-1.3h-2.21l-.33,1.3h-1.19C359.74,333.2,360.4,331,361.06,329.17Zm1.6,3.75c-.26-.93-.54-1.86-.8-2.67h0c-.26.81-.55,1.74-.81,2.67Z"/><path class="cls-2" d="M365.35,329.17h1.19v5H369v1h-3.66Z"/><rect class="cls-2" x="309.73" y="307.41" width="71.9" height="2.7"/><rect class="cls-2" x="309.73" y="341.49" width="71.9" height="1.8"/><line class="cls-7" x1="309.73" y1="310.11" x2="309.73" y2="310.11"/><line class="cls-8" x1="309.73" y1="311.72" x2="309.73" y2="341.58"/><line class="cls-7" x1="309.73" y1="342.39" x2="309.73" y2="342.39"/><line class="cls-9" x1="311.33" y1="342.39" x2="380.83" y2="342.39"/><line class="cls-7" x1="381.63" y1="342.39" x2="381.63" y2="342.39"/><line class="cls-8" x1="381.63" y1="340.78" x2="381.63" y2="310.92"/><line class="cls-7" x1="381.63" y1="310.11" x2="381.63" y2="310.11"/><line class="cls-15" x1="239.49" y1="61.5" x2="239.49" y2="157.75"/><line class="cls-15" x1="180.49" y1="109.63" x2="298.49" y2="109.63"/><line class="cls-15" x1="242.15" y1="219.13" x2="242.15" y2="244.38"/><polyline class="cls-16" points="49.49 279.39 49.49 244.75 430.49 244.75 430.49 284.39"/><polyline class="cls-17" points="698.02 306.52 698.02 284.39 179.86 284.39 179.86 308.76"/><line class="cls-17" x1="604.15" y1="284.39" x2="604.15" y2="306.52"/><line class="cls-17" x1="345.68" y1="284.39" x2="345.68" y2="308.76"/><line class="cls-17" x1="257.1" y1="284.39" x2="257.1" y2="308.76"/><line class="cls-17" x1="508.49" y1="284.39" x2="508.49" y2="306.52"/><line class="cls-17" x1="421.82" y1="284.39" x2="421.82" y2="309.21"/></g></g></svg>