<svg xmlns="http://www.w3.org/2000/svg" viewBox="0 0 232.9 149.44"><defs><style>.cls-1{fill:#c4b7a5;}.cls-2{fill:#a0927a;}.cls-3{fill:#817257;}.cls-4{isolation:isolate;}.cls-5{fill:#6d6d6d;}.cls-6,.cls-7{fill:none;stroke:#817257;stroke-miterlimit:10;}.cls-7{stroke-dasharray:2 2;}</style></defs><title>TONE-QUIMPAC_1</title><g id="Capa_2" data-name="Capa 2"><g id="Capa_1-2" data-name="Capa 1"><g id="Capa_2-2" data-name="Capa 2"><g id="Capa_1-2-2" data-name="Capa 1-2"><rect class="cls-1" x="12.99" y="74.47" width="27" height="35"/><rect class="cls-2" x="101.99" y="42.47" width="27" height="65"/><rect class="cls-3" x="193.99" y="17.47" width="27" height="90"/><g class="cls-4"><path d="M1.15,146.53C6.8,141.74,9,138.8,9,136.5c0-1.54-1-2.57-3.08-2.57a12.51,12.51,0,0,0-4,.87L1,132a13.23,13.23,0,0,1,5.24-1.15c3.69,0,6.44,2,6.44,5.57s-3,6.72-6.19,9.55l0,.11h6.38v3.08H1.15Z"/><path d="M15.34,140.12c0-6.33,1.57-9.27,6.78-9.27s6.8,2.94,6.8,9.27-1.59,9.32-6.8,9.32S15.34,146.47,15.34,140.12Zm10,0c0-3.87-.08-6.19-3.22-6.19s-3.19,2.32-3.19,6.19.05,6.24,3.19,6.24S25.34,144,25.34,140.12Z"/><path d="M35,134.8l-3.47,1.37-1.21-2.44,5.13-2.6h3.08v18H35Z"/><path d="M42.84,146a35.8,35.8,0,0,0,4.37.36c2.46,0,3.64-.59,3.64-2.74,0-1.93-1-2.66-3.31-2.66H42.92l.34-9.83H53.34v3.08H46.65l-.11,3.72h1c4.45,0,6.91,1.49,6.91,5.6s-2.52,5.91-7.28,5.91a30.37,30.37,0,0,1-4.67-.42Z"/></g><g class="cls-4"><path class="cls-5" d="M0,64.33c1-1.79,2.26-4,3.6-6.19H4.68c-1.32,2.14-2.58,4.27-3.52,6H4.33l.12-2h.92v2H7.09v.91H5.37v2.07h-1V65.09H0Z"/><path class="cls-5" d="M8.13,62.65c0-2.9.55-4.65,3.21-4.65s3.21,1.75,3.21,4.65S14,67.3,11.34,67.3,8.13,65.55,8.13,62.65Zm5.37,0c0-2.3-.17-3.74-2.16-3.74s-2.15,1.44-2.15,3.74.16,3.74,2.15,3.74S13.5,65,13.5,62.65Z"/><path class="cls-5" d="M18.12,59.23,16.18,60l-.32-.76,2.41-1.08h.88v9h-1Z"/><path class="cls-5" d="M25.16,58.14h1v4.17l0,0c1.31-1.25,2.83-2.82,4-4.19h1.28v0c-1.18,1.34-2.73,2.93-4,4.17,1.24,1.56,2.67,3.17,4.23,4.79l0,0H30.35C29,65.7,27.76,64.3,26.62,62.89h-.43v4.27h-1Z"/><path class="cls-5" d="M38,59.05H35.22v-.91h6.53v.91H39v8.11H38Z"/><path class="cls-5" d="M43.53,58.14H45l2.37,6.25h.06l2.35-6.25h1.5c.18,2.13.38,6,.46,9h-1c-.07-2.53-.19-5.13-.33-7.79h0L48,65.65H46.83l-2.38-6.28h-.06c-.14,2.66-.23,5.26-.32,7.79h-1C43.15,64.19,43.34,60.27,43.53,58.14Z"/></g><g class="cls-4"><path class="cls-5" d="M86,30.33c1-1.79,2.26-4,3.6-6.19h1.08c-1.32,2.14-2.58,4.27-3.52,6h3.17l.12-2h.92v2h1.72v.91H91.37v2.07h-1V31.09H86Z"/><path class="cls-5" d="M94.13,28.65c0-2.9.55-4.65,3.21-4.65s3.21,1.75,3.21,4.65S100,33.3,97.34,33.3,94.13,31.55,94.13,28.65Zm5.37,0c0-2.3-.17-3.74-2.16-3.74s-2.15,1.44-2.15,3.74.16,3.74,2.15,3.74S99.5,31,99.5,28.65Z"/><path class="cls-5" d="M102.31,28.92c0-2.94.69-4.92,3.49-4.92a7.86,7.86,0,0,1,2.1.31l-.18.88a8.44,8.44,0,0,0-1.92-.28c-1.82,0-2.36,1.13-2.42,3.28a6.68,6.68,0,0,1,2.29-.44c1.53,0,2.82.69,2.82,2.68,0,1.81-1.07,2.87-3.06,2.87C103,33.3,102.31,31.73,102.31,28.92Zm5.13,1.57c0-1.22-.59-1.85-2-1.85a6.9,6.9,0,0,0-2.1.36c0,2.3.4,3.39,2.1,3.39A1.71,1.71,0,0,0,107.44,30.49Z"/><path class="cls-5" d="M113.48,24.14h1v4.17l0,0c1.3-1.25,2.83-2.82,4-4.19h1.27l0,0c-1.18,1.34-2.74,2.93-4,4.17,1.25,1.56,2.68,3.17,4.23,4.79v0h-1.36c-1.39-1.46-2.59-2.86-3.74-4.27h-.42v4.27h-1Z"/><path class="cls-5" d="M126.29,25.05h-2.74v-.91h6.52v.91h-2.74v8.11h-1Z"/><path class="cls-5" d="M131.85,24.14h1.5l2.37,6.25h.05l2.36-6.25h1.49c.19,2.13.38,6.05.47,9h-1q-.11-3.79-.32-7.79h-.06l-2.38,6.28h-1.13l-2.39-6.28h-.05c-.14,2.66-.24,5.26-.32,7.79h-1C131.47,30.19,131.67,26.27,131.85,24.14Z"/></g><g class="cls-4"><g class="cls-4"><path class="cls-5" d="M179,6.33c.95-1.79,2.26-4,3.6-6.19h1.08c-1.32,2.14-2.58,4.27-3.52,6h3.17l.12-2h.92v2h1.72v.91h-1.72V9.16h-1V7.09H179Z"/><path class="cls-5" d="M186.64,6.33c1-1.79,2.26-4,3.6-6.19h1.08c-1.31,2.14-2.58,4.27-3.51,6H191l.13-2H192v2h1.72v.91H192V9.16h-1V7.09h-4.33Z"/><path class="cls-5" d="M194.78,4.92c0-2.94.68-4.92,3.49-4.92a7.86,7.86,0,0,1,2.1.31l-.18.88a8.53,8.53,0,0,0-1.92-.28c-1.83,0-2.36,1.13-2.43,3.28a6.75,6.75,0,0,1,2.3-.44c1.53,0,2.82.69,2.82,2.68,0,1.81-1.07,2.87-3.06,2.87C195.48,9.3,194.78,7.73,194.78,4.92Zm5.12,1.57c0-1.22-.58-1.85-2-1.85a7,7,0,0,0-2.1.36c0,2.3.41,3.39,2.1,3.39A1.71,1.71,0,0,0,199.9,6.49Z"/><path class="cls-5" d="M206,.14h1V4.31l0,0c1.31-1.25,2.83-2.82,4-4.19h1.28v0c-1.17,1.34-2.73,2.93-4,4.17,1.25,1.56,2.68,3.17,4.23,4.79v0h-1.36c-1.39-1.46-2.59-2.86-3.74-4.27H207V9.16h-1Z"/></g><g class="cls-4"><path class="cls-5" d="M218.77,1.05H216V.14h6.53v.91H219.8V9.16h-1Z"/></g><g class="cls-4"><path class="cls-5" d="M222.68,2.69h.75l.09.63a3.49,3.49,0,0,1,2.07-.77,1.75,1.75,0,0,1,1.65.9,3.65,3.65,0,0,1,2.24-.9,1.92,1.92,0,0,1,2,2.18V9.16h-1V4.82c0-1-.46-1.4-1.22-1.4a3.09,3.09,0,0,0-1.78.68,2.59,2.59,0,0,1,.07.63V9.16h-1V4.82c0-1-.46-1.4-1.21-1.4a3,3,0,0,0-1.71.63V9.16h-1Z"/></g></g><g class="cls-4"><path d="M89.15,146.53c5.65-4.79,7.89-7.73,7.89-10,0-1.54-1-2.57-3.08-2.57a12.51,12.51,0,0,0-4,.87L89,132a13.23,13.23,0,0,1,5.24-1.15c3.69,0,6.44,2,6.44,5.57s-3,6.72-6.19,9.55l0,.11h6.38v3.08H89.15Z"/><path d="M103.34,140.12c0-6.33,1.57-9.27,6.78-9.27s6.8,2.94,6.8,9.27-1.59,9.32-6.8,9.32S103.34,146.47,103.34,140.12Zm10,0c0-3.87-.08-6.19-3.22-6.19s-3.19,2.32-3.19,6.19,0,6.24,3.19,6.24S113.34,144,113.34,140.12Z"/><path d="M123,134.8l-3.47,1.37-1.21-2.44,5.13-2.6h3.08v18H123Z"/><path d="M130.2,140.48c0-5.65,1.76-9.63,7.53-9.63a19,19,0,0,1,4.11.53l-.5,3a22.27,22.27,0,0,0-3.61-.45c-2.83,0-3.78,1.74-3.95,4.7a8.73,8.73,0,0,1,3.72-.78c3.73,0,5.74,2.1,5.74,5.54,0,3.64-2.24,6.05-6.41,6.05C132.27,149.44,130.2,146.58,130.2,140.48Zm9.46,3.05c0-1.84-.95-2.77-2.94-2.77a8.37,8.37,0,0,0-2.94.56c.08,3.05.76,5,3.19,5C138.71,146.36,139.66,145.35,139.66,143.53Z"/></g><g class="cls-4"><path d="M180.15,146.53c5.65-4.79,7.89-7.73,7.89-10,0-1.54-1-2.57-3.08-2.57a12.51,12.51,0,0,0-4,.87l-1-2.8a13.23,13.23,0,0,1,5.24-1.15c3.69,0,6.44,2,6.44,5.57s-3,6.72-6.19,9.55l0,.11h6.38v3.08h-11.7Z"/><path d="M194.34,140.12c0-6.33,1.57-9.27,6.78-9.27s6.8,2.94,6.8,9.27-1.59,9.32-6.8,9.32S194.34,146.47,194.34,140.12Zm10,0c0-3.87-.08-6.19-3.22-6.19s-3.19,2.32-3.19,6.19,0,6.24,3.19,6.24S204.34,144,204.34,140.12Z"/><path d="M214,134.8l-3.47,1.37-1.21-2.44,5.13-2.6h3.08v18H214Z"/><path d="M229.06,134.21H220.8v-3.08h12.1v2c-1.23,3.7-3.84,10.28-6.3,16.07H223C225.26,144,227.41,138.77,229.06,134.21Z"/></g><line class="cls-6" x1="13.99" y1="117.47" x2="14.99" y2="117.47"/><line class="cls-7" x1="16.98" y1="117.47" x2="223.49" y2="117.47"/><line class="cls-6" x1="224.49" y1="117.47" x2="225.49" y2="117.47"/></g></g></g></g></svg>