<svg xmlns="http://www.w3.org/2000/svg" viewBox="0 0 136.6 119.66"><defs><style>.cls-1{fill:none;stroke:#525252;stroke-linejoin:round;stroke-width:2px;}</style></defs><title>COMPROMISO</title><g id="Capa_2" data-name="Capa 2"><g id="hands"><path class="cls-1" d="M101.28,101.74a40.6,40.6,0,0,1-66.64-1"/><path class="cls-1" d="M86,41.5a40.63,40.63,0,0,1,22.36,29.81"/><path class="cls-1" d="M28.45,70.25A40.67,40.67,0,0,1,50.62,41.5"/><path class="cls-1" d="M59.42,51.28h-6V33.78A12.59,12.59,0,0,1,66,21.24h4.7A12.58,12.58,0,0,1,83.19,33.78v17.5h-6"/><circle class="cls-1" cx="68.3" cy="10.93" r="9.93" transform="translate(41.91 74.86) rotate(-76.66)"/><line class="cls-1" x1="59.42" y1="56.11" x2="59.42" y2="30.91"/><line class="cls-1" x1="77.18" y1="30.91" x2="77.18" y2="56.11"/><path class="cls-1" d="M7,101.74H1V84.24A12.57,12.57,0,0,1,13.54,71.7h4.7A12.58,12.58,0,0,1,30.78,84.24v17.5h-6"/><circle class="cls-1" cx="15.89" cy="61.38" r="9.93" transform="translate(-24.18 12.24) rotate(-24.68)"/><line class="cls-1" x1="7.01" y1="106.57" x2="7.01" y2="81.36"/><line class="cls-1" x1="24.77" y1="81.36" x2="24.77" y2="106.57"/><path class="cls-1" d="M111.83,101.74h-6V84.24A12.57,12.57,0,0,1,118.36,71.7h4.71A12.57,12.57,0,0,1,135.6,84.24v17.5h-6"/><circle class="cls-1" cx="120.72" cy="61.38" r="9.93" transform="translate(-14.27 50.53) rotate(-22.36)"/><line class="cls-1" x1="111.83" y1="106.57" x2="111.83" y2="81.36"/><line class="cls-1" x1="129.6" y1="81.36" x2="129.6" y2="106.57"/></g></g></svg>