<svg xmlns="http://www.w3.org/2000/svg" viewBox="0 0 91.29 91.29"><defs><style>.cls-1{fill:none;stroke:#525252;stroke-linejoin:round;stroke-width:2px;}</style></defs><title>MEJORA CONTINUA</title><g id="Capa_2" data-name="Capa 2"><g id="hands"><path class="cls-1" d="M47.37,31.94A13.26,13.26,0,0,1,58.86,44.06"/><path class="cls-1" d="M35.35,53.42a13.26,13.26,0,0,1,8.56-21.48"/><path class="cls-1" d="M58.76,47A13.25,13.25,0,0,1,38,55.9"/><path class="cls-1" d="M47.36,22.64A22.51,22.51,0,0,1,68.12,44"/><path class="cls-1" d="M29,60.19A22.5,22.5,0,0,1,43.91,22.64"/><path class="cls-1" d="M68,47.21A22.5,22.5,0,0,1,31.39,62.48"/><circle class="cls-1" cx="45.65" cy="7.18" r="6.18"/><line class="cls-1" x1="45.65" y1="45.65" x2="45.65" y2="13.37"/><path class="cls-1" d="M7.18,39.46A6.19,6.19,0,1,1,1,45.65,6.19,6.19,0,0,1,7.18,39.46Z"/><line class="cls-1" x1="21.9" y1="45.65" x2="13.37" y2="45.65"/><line class="cls-1" x1="45.65" y1="45.65" x2="33.77" y2="45.65"/><path class="cls-1" d="M39.46,84.11a6.19,6.19,0,1,1,6.19,6.18A6.19,6.19,0,0,1,39.46,84.11Z"/><line class="cls-1" x1="45.65" y1="68.84" x2="45.65" y2="77.93"/><line class="cls-1" x1="45.65" y1="45.65" x2="45.65" y2="57.17"/><path class="cls-1" d="M2.81,79.74a6.18,6.18,0,1,1,0,8.74A6.17,6.17,0,0,1,2.81,79.74Z"/><line class="cls-1" x1="45.3" y1="46" x2="11.55" y2="79.74"/><circle class="cls-1" cx="83.76" cy="7.53" r="6.18"/><line class="cls-1" x1="63.13" y1="28.16" x2="79.39" y2="11.91"/><line class="cls-1" x1="45.65" y1="45.65" x2="53.87" y2="37.42"/><path class="cls-1" d="M84.11,51.83a6.19,6.19,0,1,1,6.18-6.18A6.18,6.18,0,0,1,84.11,51.83Z"/><line class="cls-1" x1="45.65" y1="45.65" x2="77.93" y2="45.65"/><path class="cls-1" d="M84.11,51.83a6.19,6.19,0,1,1,6.18-6.18A6.18,6.18,0,0,1,84.11,51.83Z"/><line class="cls-1" x1="45.65" y1="45.65" x2="77.93" y2="45.65"/></g></g></svg>