<svg xmlns="http://www.w3.org/2000/svg" viewBox="0 0 110 96.48"><defs><style>.cls-1{fill:#525252;}</style></defs><title>pasion</title><g id="Capa_2" data-name="Capa 2"><g id="hands"><path class="cls-1" d="M53.14,95.67,9.06,52a28.06,28.06,0,0,1-4.69-5.9A30.06,30.06,0,0,1,9.06,9a30.79,30.79,0,0,1,46,2.81A30.79,30.79,0,0,1,101,9a30.25,30.25,0,0,1,4.69,37.11A28.39,28.39,0,0,1,101,52L56.89,95.67a2.58,2.58,0,0,1-3.75,0ZM30.76,5.36a25.56,25.56,0,0,0-18,7.37A25,25,0,0,0,8.92,43.28a28.06,28.06,0,0,0,3.89,5L55,90.05,97.23,48.24a23.39,23.39,0,0,0,3.88-5,24.76,24.76,0,0,0-3.88-30.55,25.83,25.83,0,0,0-18-7.37,25.46,25.46,0,0,0-22,12.46,2.76,2.76,0,0,1-4.69,0A25.09,25.09,0,0,0,30.76,5.36Z"/></g></g></svg>