<svg xmlns="http://www.w3.org/2000/svg" viewBox="0 0 91.81 90.93"><defs><style>.cls-1{fill:#bc0808;}</style></defs><title>icon-product 2</title><g id="Capa_2" data-name="Capa 2"><g id="Capa_1-2" data-name="Capa 1"><path class="cls-1" d="M7,0S.68.26,0,7.43c0,0-.87,7.39,6.52,7.17h3.91V79.39S9.9,91.51,24.59,90.91h41a22.65,22.65,0,0,0,8.11-1.26c3.53-1.57,7.29-3.6,7.7-11.34,0-7.21-.16-54.63.18-57.14.46-3.45-.21-11.07,6.93-8.44a2.45,2.45,0,0,0,2.32-.63A3.42,3.42,0,0,0,91,7.55,32.66,32.66,0,0,0,88.24,4c-3-3.17-3-3.34-6.09-3.92L80.93,0,7,0"/></g></g></svg>